<?xml version="1.0" standalone="no"?>
 <!DOCTYPE svg PUBLIC "-//W3C//DTD SVG 1.1//EN" 
 "http://www.w3.org/Graphics/SVG/1.1/DTD/svg11.dtd"> 
<svg xmlns="http://www.w3.org/2000/svg" version="1.1" 
    width="29.7002cm" height="21.0007cm" viewBox="0 0 116930 82680 ">
<title>SVG Picture created as Vive_sensors_tr_2hp-F.SilkS.svg date 2017/03/11 18:48:43 </title>
  <desc>Picture generated by PCBNEW </desc>
<g style="fill:#000000; fill-opacity:1;stroke:#000000; stroke-opacity:1;
stroke-linecap:round; stroke-linejoin:round; "
 transform="translate(0 0) scale(1 1)">
</g>
<g style="fill:#000000; fill-opacity:0.0; 
stroke:#000000; stroke-width:-0.000393701; stroke-opacity:1; 
stroke-linecap:round; stroke-linejoin:round;">
</g>
<g style="fill:#000000; fill-opacity:0.0; 
stroke:#000000; stroke-width:39.3701; stroke-opacity:1; 
stroke-linecap:round; stroke-linejoin:round;">
<path d="M6250 17050
L21100 17050
" />
<path d="M6250 6100
L6250 17050
" />
<path d="M21100 6100
L6250 6100
" />
<path d="M21100 6100
L21100 17050
" />
</g>
<g style="fill:#000000; fill-opacity:0.0; 
stroke:#000000; stroke-width:47.2441; stroke-opacity:1; 
stroke-linecap:round; stroke-linejoin:round;">
<path d="M17885 15020
L17885 16563
" />
<path d="M16814 15020
L16814 16563
" />
<path d="M17885 15020
L17645 15020
" />
<path d="M17054 15020
L16814 15020
" />
<path d="M17885 16563
L17645 16563
" />
<path d="M17054 16563
L16814 16563
" />
<path d="M11020 6664
L12563 6664
" />
<path d="M11020 7735
L12563 7735
" />
<path d="M11020 6664
L11020 6904
" />
<path d="M11020 7495
L11020 7735
" />
<path d="M12563 6664
L12563 6904
" />
<path d="M12563 7495
L12563 7735
" />
<path d="M14685 7020
L14685 8563
" />
<path d="M13614 7020
L13614 8563
" />
<path d="M14685 7020
L14445 7020
" />
<path d="M13854 7020
L13614 7020
" />
<path d="M14685 8563
L14445 8563
" />
<path d="M13854 8563
L13614 8563
" />
<path d="M17885 13220
L17885 14763
" />
<path d="M16814 13220
L16814 14763
" />
<path d="M17885 13220
L17645 13220
" />
<path d="M17054 13220
L16814 13220
" />
<path d="M17885 14763
L17645 14763
" />
<path d="M17054 14763
L16814 14763
" />
<path d="M7336 11885
L6883 11885
" />
<path d="M6883 11865
L7336 11865
" />
<path d="M7336 11846
L6883 11846
" />
<path d="M8163 11846
L8616 11846
" />
<path d="M8616 11885
L8163 11885
" />
<path d="M8616 11865
L8163 11865
" />
<path d="M8163 11905
L8616 11905
" />
<path d="M7356 13775
L6883 13775
" />
<path d="M6883 13775
L6883 11905
" />
<path d="M6883 11905
L7336 11905
" />
<path d="M8616 11905
L8616 13775
" />
<path d="M8616 13775
L8143 13775
" />
<path d="M14206.3 9102.76 A393.701 393.701 0.0 0 0 14993.7 9102.76 " />
<path d="M14206 9102
L13509 9102
" />
<path d="M13509 9102
L13509 16197
" />
<path d="M13509 16197
L15690 16197
" />
<path d="M15690 16197
L15690 9102
" />
<path d="M15690 9102
L14993 9102
" />
<circle cx="9000" cy="9800" r="515.748" /> 
<path d="M9000 10315
L9000 10366
" />
<circle cx="7500" cy="10600" r="515.748" /> 
<path d="M7500 10084
L7500 10033
" />
<circle cx="9000" cy="8500" r="515.748" /> 
<path d="M9515 8500
L9566 8500
" />
<circle cx="11350" cy="8500" r="515.748" /> 
<path d="M11865 8500
L11916 8500
" />
<circle cx="10350" cy="9800" r="515.748" /> 
<path d="M10350 10315
L10350 10366
" />
<circle cx="11800" cy="10600" r="515.748" /> 
<path d="M11800 10084
L11800 10033
" />
<circle cx="11800" cy="13450" r="515.748" /> 
<path d="M11284 13450
L11233 13450
" />
<circle cx="10250" cy="15600" r="515.748" /> 
<path d="M10250 15084
L10250 15033
" />
<circle cx="11800" cy="15550" r="515.748" /> 
<path d="M11800 15034
L11800 14983
" />
<circle cx="19950" cy="15900" r="515.748" /> 
<path d="M19950 15384
L19950 15333
" />
<circle cx="18650" cy="13800" r="515.748" /> 
<path d="M18650 13284
L18650 13233
" />
<circle cx="17350" cy="12450" r="515.748" /> 
<path d="M17350 11934
L17350 11883
" />
<circle cx="19950" cy="13800" r="515.748" /> 
<path d="M19950 13284
L19950 13233
" />
<circle cx="18650" cy="15900" r="515.748" /> 
<path d="M18650 15384
L18650 15333
" />
<circle cx="18800" cy="11700" r="515.748" /> 
<path d="M19315 11700
L19366 11700
" />
<circle cx="15650" cy="8300" r="515.748" /> 
<path d="M16165 8300
L16216 8300
" />
<circle cx="17750" cy="8650" r="515.748" /> 
<path d="M18265 8650
L18316 8650
" />
<circle cx="18150" cy="10300" r="515.748" /> 
<path d="M17634 10300
L17583 10300
" />
<path d="M10284 11584
L12300 11584
" />
<path d="M10284 12615
L12300 12615
" />
<path d="M10284 11584
L10284 12615
" />
<path d="M12300 11584
L12300 12615
" />
<path d="M6984 8965
L6984 6950
" />
<path d="M8015 8965
L8015 6950
" />
<path d="M6984 8965
L8015 8965
" />
<path d="M6984 6950
L8015 6950
" />
<path d="M9985 11770
L9985 13313
" />
<path d="M8914 11770
L8914 13313
" />
<path d="M9985 11770
L9745 11770
" />
<path d="M9154 11770
L8914 11770
" />
<path d="M9985 13313
L9745 13313
" />
<path d="M9154 13313
L8914 13313
" />
</g>
<g style="fill:#000000; fill-opacity:0.0; 
stroke:#000000; stroke-width:59.0551; stroke-opacity:1; 
stroke-linecap:round; stroke-linejoin:round;">
<path d="M18419 15857
L18438 15876
L18457 15932
L18457 15970
L18438 16026
L18400 16063
L18363 16082
L18288 16101
L18232 16101
L18157 16082
L18119 16063
L18082 16026
L18063 15970
L18063 15932
L18082 15876
L18101 15857
" />
<path d="M18063 15501
L18063 15689
L18251 15707
L18232 15689
L18213 15651
L18213 15557
L18232 15520
L18251 15501
L18288 15482
L18382 15482
L18419 15501
L18438 15520
L18457 15557
L18457 15651
L18438 15689
L18419 15707
" />
<path d="M11726 6411
L11707 6430
L11651 6448
L11614 6448
L11557 6430
L11520 6392
L11501 6355
L11482 6280
L11482 6223
L11501 6149
L11520 6111
L11557 6074
L11614 6055
L11651 6055
L11707 6074
L11726 6092
" />
<path d="M12101 6448
L11876 6448
" />
<path d="M11988 6448
L11988 6055
L11951 6111
L11913 6149
L11876 6167
" />
<path d="M15219 7857
L15238 7876
L15257 7932
L15257 7970
L15238 8026
L15200 8063
L15163 8082
L15088 8101
L15032 8101
L14957 8082
L14919 8063
L14882 8026
L14863 7970
L14863 7932
L14882 7876
L14901 7857
" />
<path d="M14901 7707
L14882 7689
L14863 7651
L14863 7557
L14882 7520
L14901 7501
L14938 7482
L14976 7482
L15032 7501
L15257 7726
L15257 7482
" />
<path d="M18419 14057
L18438 14076
L18457 14132
L18457 14170
L18438 14226
L18400 14263
L18363 14282
L18288 14301
L18232 14301
L18157 14282
L18119 14263
L18082 14226
L18063 14170
L18063 14132
L18082 14076
L18101 14057
" />
<path d="M18063 13720
L18063 13795
L18082 13832
L18101 13851
L18157 13889
L18232 13907
L18382 13907
L18419 13889
L18438 13870
L18457 13832
L18457 13757
L18438 13720
L18419 13701
L18382 13682
L18288 13682
L18251 13701
L18232 13720
L18213 13757
L18213 13832
L18232 13870
L18251 13889
L18288 13907
" />
<path d="M9176 13140
L8782 13140
L8782 13046
L8801 12990
L8838 12953
L8876 12934
L8951 12915
L9007 12915
L9082 12934
L9119 12953
L9157 12990
L9176 13046
L9176 13140
" />
<path d="M9176 12540
L9176 12765
" />
<path d="M9176 12653
L8782 12653
L8838 12690
L8876 12728
L8894 12765
" />
<path d="M19518 5934
L19518 6215
L19500 6271
L19462 6309
L19406 6328
L19368 6328
" />
<path d="M19912 6328
L19687 6328
" />
<path d="M19799 6328
L19799 5934
L19762 5990
L19724 6028
L19687 6046
" />
<path d="M7618 14384
L7618 14665
L7600 14721
L7562 14759
L7506 14778
L7468 14778
" />
<path d="M7768 14384
L8012 14384
L7881 14534
L7937 14534
L7974 14553
L7993 14571
L8012 14609
L8012 14703
L7993 14740
L7974 14759
L7937 14778
L7824 14778
L7787 14759
L7768 14740
" />
<path d="M17518 5934
L17518 6215
L17500 6271
L17462 6309
L17406 6328
L17368 6328
" />
<path d="M17874 6065
L17874 6328
" />
<path d="M17781 5915
L17687 6196
L17931 6196
" />
<path d="M15518 5934
L15518 6215
L15500 6271
L15462 6309
L15406 6328
L15368 6328
" />
<path d="M15893 5934
L15706 5934
L15687 6121
L15706 6103
L15743 6084
L15837 6084
L15874 6103
L15893 6121
L15912 6159
L15912 6253
L15893 6290
L15874 6309
L15837 6328
L15743 6328
L15706 6309
L15687 6290
" />
<path d="M14300 8493
L14300 8812
L14318 8849
L14337 8868
L14375 8887
L14450 8887
L14487 8868
L14506 8849
L14525 8812
L14525 8493
" />
<path d="M14918 8887
L14693 8887
" />
<path d="M14806 8887
L14806 8493
L14768 8549
L14731 8587
L14693 8605
" />
<path d="M10087 10365
L9900 10496
" />
<path d="M10087 10590
L9693 10590
L9693 10440
L9712 10403
L9731 10384
L9768 10365
L9825 10365
L9862 10384
L9881 10403
L9900 10440
L9900 10590
" />
<path d="M10087 9990
L10087 10215
" />
<path d="M10087 10103
L9693 10103
L9750 10140
L9787 10178
L9806 10215
" />
<path d="M6768 10165
L6581 10296
" />
<path d="M6768 10390
L6374 10390
L6374 10240
L6393 10203
L6412 10184
L6449 10165
L6506 10165
L6543 10184
L6562 10203
L6581 10240
L6581 10390
" />
<path d="M6412 10015
L6393 9996
L6374 9959
L6374 9865
L6393 9828
L6412 9809
L6449 9790
L6487 9790
L6543 9809
L6768 10034
L6768 9790
" />
<path d="M9434 7768
L9303 7581
" />
<path d="M9209 7768
L9209 7374
L9359 7374
L9396 7393
L9415 7412
L9434 7449
L9434 7506
L9415 7543
L9396 7562
L9359 7581
L9209 7581
" />
<path d="M9565 7374
L9809 7374
L9678 7524
L9734 7524
L9771 7543
L9790 7562
L9809 7599
L9809 7693
L9790 7731
L9771 7749
L9734 7768
L9621 7768
L9584 7749
L9565 7731
" />
<path d="M11784 7768
L11653 7581
" />
<path d="M11559 7768
L11559 7374
L11709 7374
L11746 7393
L11765 7412
L11784 7449
L11784 7506
L11765 7543
L11746 7562
L11709 7581
L11559 7581
" />
<path d="M12121 7506
L12121 7768
" />
<path d="M12028 7356
L11934 7637
L12178 7637
" />
<path d="M11437 10365
L11250 10496
" />
<path d="M11437 10590
L11043 10590
L11043 10440
L11062 10403
L11081 10384
L11118 10365
L11175 10365
L11212 10384
L11231 10403
L11250 10440
L11250 10590
" />
<path d="M11043 10009
L11043 10196
L11231 10215
L11212 10196
L11193 10159
L11193 10065
L11212 10028
L11231 10009
L11268 9990
L11362 9990
L11400 10009
L11418 10028
L11437 10065
L11437 10159
L11418 10196
L11400 10215
" />
<path d="M11068 10165
L10881 10296
" />
<path d="M11068 10390
L10674 10390
L10674 10240
L10693 10203
L10712 10184
L10749 10165
L10806 10165
L10843 10184
L10862 10203
L10881 10240
L10881 10390
" />
<path d="M10674 9828
L10674 9903
L10693 9940
L10712 9959
L10768 9996
L10843 10015
L10993 10015
L11031 9996
L11049 9978
L11068 9940
L11068 9865
L11049 9828
L11031 9809
L10993 9790
L10899 9790
L10862 9809
L10843 9828
L10824 9865
L10824 9940
L10843 9978
L10862 9996
L10899 10015
" />
<path d="M11234 14537
L11103 14350
" />
<path d="M11009 14537
L11009 14143
L11159 14143
L11196 14162
L11215 14181
L11234 14218
L11234 14275
L11215 14312
L11196 14331
L11159 14350
L11009 14350
" />
<path d="M11365 14143
L11628 14143
L11459 14537
" />
<path d="M9518 15165
L9331 15296
" />
<path d="M9518 15390
L9124 15390
L9124 15240
L9143 15203
L9162 15184
L9199 15165
L9256 15165
L9293 15184
L9312 15203
L9331 15240
L9331 15390
" />
<path d="M9293 14940
L9274 14978
L9256 14996
L9218 15015
L9199 15015
L9162 14996
L9143 14978
L9124 14940
L9124 14865
L9143 14828
L9162 14809
L9199 14790
L9218 14790
L9256 14809
L9274 14828
L9293 14865
L9293 14940
L9312 14978
L9331 14996
L9368 15015
L9443 15015
L9481 14996
L9499 14978
L9518 14940
L9518 14865
L9499 14828
L9481 14809
L9443 14790
L9368 14790
L9331 14809
L9312 14828
L9293 14865
" />
<path d="M11068 15115
L10881 15246
" />
<path d="M11068 15340
L10674 15340
L10674 15190
L10693 15153
L10712 15134
L10749 15115
L10806 15115
L10843 15134
L10862 15153
L10881 15190
L10881 15340
" />
<path d="M11068 14928
L11068 14853
L11049 14815
L11031 14796
L10974 14759
L10899 14740
L10749 14740
L10712 14759
L10693 14778
L10674 14815
L10674 14890
L10693 14928
L10712 14946
L10749 14965
L10843 14965
L10881 14946
L10899 14928
L10918 14890
L10918 14815
L10899 14778
L10881 14759
L10843 14740
" />
<path d="M19218 15653
L19031 15784
" />
<path d="M19218 15878
L18824 15878
L18824 15728
L18843 15690
L18862 15671
L18899 15653
L18956 15653
L18993 15671
L19012 15690
L19031 15728
L19031 15878
" />
<path d="M19218 15278
L19218 15503
" />
<path d="M19218 15390
L18824 15390
L18881 15428
L18918 15465
L18937 15503
" />
<path d="M18824 15034
L18824 14996
L18843 14959
L18862 14940
L18899 14921
L18974 14903
L19068 14903
L19143 14921
L19181 14940
L19199 14959
L19218 14996
L19218 15034
L19199 15071
L19181 15090
L19143 15109
L19068 15128
L18974 15128
L18899 15109
L18862 15090
L18843 15071
L18824 15034
" />
<path d="M17918 13553
L17731 13684
" />
<path d="M17918 13778
L17524 13778
L17524 13628
L17543 13590
L17562 13571
L17599 13553
L17656 13553
L17693 13571
L17712 13590
L17731 13628
L17731 13778
" />
<path d="M17918 13178
L17918 13403
" />
<path d="M17918 13290
L17524 13290
L17581 13328
L17618 13365
L17637 13403
" />
<path d="M17918 12803
L17918 13028
" />
<path d="M17918 12915
L17524 12915
L17581 12953
L17618 12990
L17637 13028
" />
<path d="M16618 12203
L16431 12334
" />
<path d="M16618 12428
L16224 12428
L16224 12278
L16243 12240
L16262 12221
L16299 12203
L16356 12203
L16393 12221
L16412 12240
L16431 12278
L16431 12428
" />
<path d="M16618 11828
L16618 12053
" />
<path d="M16618 11940
L16224 11940
L16281 11978
L16318 12015
L16337 12053
" />
<path d="M16262 11678
L16243 11659
L16224 11621
L16224 11528
L16243 11490
L16262 11471
L16299 11453
L16337 11453
L16393 11471
L16618 11696
L16618 11453
" />
<path d="M19218 13553
L19031 13684
" />
<path d="M19218 13778
L18824 13778
L18824 13628
L18843 13590
L18862 13571
L18899 13553
L18956 13553
L18993 13571
L19012 13590
L19031 13628
L19031 13778
" />
<path d="M19218 13178
L19218 13403
" />
<path d="M19218 13290
L18824 13290
L18881 13328
L18918 13365
L18937 13403
" />
<path d="M18824 13046
L18824 12803
L18974 12934
L18974 12878
L18993 12840
L19012 12821
L19049 12803
L19143 12803
L19181 12821
L19199 12840
L19218 12878
L19218 12990
L19199 13028
L19181 13046
" />
<path d="M17918 15653
L17731 15784
" />
<path d="M17918 15878
L17524 15878
L17524 15728
L17543 15690
L17562 15671
L17599 15653
L17656 15653
L17693 15671
L17712 15690
L17731 15728
L17731 15878
" />
<path d="M17918 15278
L17918 15503
" />
<path d="M17918 15390
L17524 15390
L17581 15428
L17618 15465
L17637 15503
" />
<path d="M17656 14940
L17918 14940
" />
<path d="M17506 15034
L17787 15128
L17787 14884
" />
<path d="M19046 10968
L18915 10781
" />
<path d="M18821 10968
L18821 10574
L18971 10574
L19009 10593
L19028 10612
L19046 10649
L19046 10706
L19028 10743
L19009 10762
L18971 10781
L18821 10781
" />
<path d="M19421 10968
L19196 10968
" />
<path d="M19309 10968
L19309 10574
L19271 10631
L19234 10668
L19196 10687
" />
<path d="M19778 10574
L19590 10574
L19571 10762
L19590 10743
L19628 10724
L19721 10724
L19759 10743
L19778 10762
L19796 10799
L19796 10893
L19778 10931
L19759 10949
L19721 10968
L19628 10968
L19590 10949
L19571 10931
" />
<path d="M15896 7568
L15765 7381
" />
<path d="M15671 7568
L15671 7174
L15821 7174
L15859 7193
L15878 7212
L15896 7249
L15896 7306
L15878 7343
L15859 7362
L15821 7381
L15671 7381
" />
<path d="M16271 7568
L16046 7568
" />
<path d="M16159 7568
L16159 7174
L16121 7231
L16084 7268
L16046 7287
" />
<path d="M16609 7174
L16534 7174
L16496 7193
L16478 7212
L16440 7268
L16421 7343
L16421 7493
L16440 7531
L16459 7549
L16496 7568
L16571 7568
L16609 7549
L16628 7531
L16646 7493
L16646 7399
L16628 7362
L16609 7343
L16571 7324
L16496 7324
L16459 7343
L16440 7362
L16421 7399
" />
<path d="M17996 7918
L17865 7731
" />
<path d="M17771 7918
L17771 7524
L17921 7524
L17959 7543
L17978 7562
L17996 7599
L17996 7656
L17978 7693
L17959 7712
L17921 7731
L17771 7731
" />
<path d="M18371 7918
L18146 7918
" />
<path d="M18259 7918
L18259 7524
L18221 7581
L18184 7618
L18146 7637
" />
<path d="M18503 7524
L18765 7524
L18596 7918
" />
<path d="M17396 11387
L17265 11200
" />
<path d="M17171 11387
L17171 10993
L17321 10993
L17359 11012
L17378 11031
L17396 11068
L17396 11125
L17378 11162
L17359 11181
L17321 11200
L17171 11200
" />
<path d="M17771 11387
L17546 11387
" />
<path d="M17659 11387
L17659 10993
L17621 11050
L17584 11087
L17546 11106
" />
<path d="M17996 11162
L17959 11143
L17940 11125
L17921 11087
L17921 11068
L17940 11031
L17959 11012
L17996 10993
L18071 10993
L18109 11012
L18128 11031
L18146 11068
L18146 11087
L18128 11125
L18109 11143
L18071 11162
L17996 11162
L17959 11181
L17940 11200
L17921 11237
L17921 11312
L17940 11350
L17959 11368
L17996 11387
L18071 11387
L18109 11368
L18128 11350
L18146 11312
L18146 11237
L18128 11200
L18109 11181
L18071 11162
" />
<path d="M11226 11331
L11207 11349
L11151 11368
L11114 11368
L11057 11349
L11020 11312
L11001 11274
L10982 11199
L10982 11143
L11001 11068
L11020 11031
L11057 10993
L11114 10974
L11151 10974
L11207 10993
L11226 11012
" />
<path d="M11357 10974
L11601 10974
L11470 11124
L11526 11124
L11563 11143
L11582 11162
L11601 11199
L11601 11293
L11582 11331
L11563 11349
L11526 11368
L11413 11368
L11376 11349
L11357 11331
" />
<path d="M6731 8023
L6749 8042
L6768 8098
L6768 8135
L6749 8192
L6712 8229
L6674 8248
L6599 8267
L6543 8267
L6468 8248
L6431 8229
L6393 8192
L6374 8135
L6374 8098
L6393 8042
L6412 8023
" />
<path d="M6506 7686
L6768 7686
" />
<path d="M6356 7779
L6637 7873
L6637 7629
" />
<path d="M10519 12607
L10538 12626
L10557 12682
L10557 12720
L10538 12776
L10500 12813
L10463 12832
L10388 12851
L10332 12851
L10257 12832
L10219 12813
L10182 12776
L10163 12720
L10163 12682
L10182 12626
L10201 12607
" />
<path d="M10163 12476
L10163 12214
L10557 12382
" />
</g> 
</svg>
