<?xml version="1.0" standalone="no"?>
 <!DOCTYPE svg PUBLIC "-//W3C//DTD SVG 1.1//EN" 
 "http://www.w3.org/Graphics/SVG/1.1/DTD/svg11.dtd"> 
<svg xmlns="http://www.w3.org/2000/svg" version="1.1" 
    width="29.7002cm" height="21.0007cm" viewBox="0 0 116930 82680 ">
<title>SVG Picture created as Vive_sensors_tr_2hp-F.Cu.svg date 2017/03/11 18:56:42 </title>
  <desc>Picture generated by PCBNEW </desc>
<g style="fill:#000000; fill-opacity:1;stroke:#000000; stroke-opacity:1;
stroke-linecap:round; stroke-linejoin:round; "
 transform="translate(0 0) scale(1 1)">
</g>
<g style="fill:#000000; fill-opacity:0.0; 
stroke:#000000; stroke-width:-0.000393701; stroke-opacity:1; 
stroke-linecap:round; stroke-linejoin:round;">
</g>
<g style="fill:#000000; fill-opacity:0.0; 
stroke:#000000; stroke-width:39.3701; stroke-opacity:1; 
stroke-linecap:round; stroke-linejoin:round;">
<path d="M6250 17050
L21100 17050
" />
<path d="M6250 6100
L6250 17050
" />
<path d="M21100 6100
L6250 6100
" />
<path d="M21100 6100
L21100 17050
" />
</g>
<g style="fill:#000000; fill-opacity:1.0; 
stroke:#000000; stroke-width:0; stroke-opacity:1; 
stroke-linecap:round; stroke-linejoin:round;">
<circle cx="17350" cy="15300" r="314.961" /> 
</g>
<g style="fill:#000000; fill-opacity:1.0; 
stroke:#000000; stroke-width:39.3701; stroke-opacity:1; 
stroke-linecap:round; stroke-linejoin:round;">
</g>
<g style="fill:#000000; fill-opacity:1.0; 
stroke:#000000; stroke-width:0; stroke-opacity:1; 
stroke-linecap:round; stroke-linejoin:round;">
<circle cx="17350" cy="16284.3" r="314.961" /> 
</g>
<g style="fill:#000000; fill-opacity:1.0; 
stroke:#000000; stroke-width:39.3701; stroke-opacity:1; 
stroke-linecap:round; stroke-linejoin:round;">
</g>
<g style="fill:#000000; fill-opacity:1.0; 
stroke:#000000; stroke-width:0; stroke-opacity:1; 
stroke-linecap:round; stroke-linejoin:round;">
<circle cx="11300" cy="7200" r="314.961" /> 
</g>
<g style="fill:#000000; fill-opacity:1.0; 
stroke:#000000; stroke-width:39.3701; stroke-opacity:1; 
stroke-linecap:round; stroke-linejoin:round;">
</g>
<g style="fill:#000000; fill-opacity:1.0; 
stroke:#000000; stroke-width:0; stroke-opacity:1; 
stroke-linecap:round; stroke-linejoin:round;">
<circle cx="12284.3" cy="7200" r="314.961" /> 
</g>
<g style="fill:#000000; fill-opacity:1.0; 
stroke:#000000; stroke-width:39.3701; stroke-opacity:1; 
stroke-linecap:round; stroke-linejoin:round;">
</g>
<g style="fill:#000000; fill-opacity:1.0; 
stroke:#000000; stroke-width:0; stroke-opacity:1; 
stroke-linecap:round; stroke-linejoin:round;">
<circle cx="14150" cy="7300" r="314.961" /> 
</g>
<g style="fill:#000000; fill-opacity:1.0; 
stroke:#000000; stroke-width:39.3701; stroke-opacity:1; 
stroke-linecap:round; stroke-linejoin:round;">
</g>
<g style="fill:#000000; fill-opacity:1.0; 
stroke:#000000; stroke-width:0; stroke-opacity:1; 
stroke-linecap:round; stroke-linejoin:round;">
<circle cx="14150" cy="8284.25" r="314.961" /> 
</g>
<g style="fill:#000000; fill-opacity:1.0; 
stroke:#000000; stroke-width:39.3701; stroke-opacity:1; 
stroke-linecap:round; stroke-linejoin:round;">
</g>
<g style="fill:#000000; fill-opacity:1.0; 
stroke:#000000; stroke-width:0; stroke-opacity:1; 
stroke-linecap:round; stroke-linejoin:round;">
<circle cx="17350" cy="13500" r="314.961" /> 
</g>
<g style="fill:#000000; fill-opacity:1.0; 
stroke:#000000; stroke-width:39.3701; stroke-opacity:1; 
stroke-linecap:round; stroke-linejoin:round;">
</g>
<g style="fill:#000000; fill-opacity:1.0; 
stroke:#000000; stroke-width:0; stroke-opacity:1; 
stroke-linecap:round; stroke-linejoin:round;">
<circle cx="17350" cy="14484.3" r="314.961" /> 
</g>
<g style="fill:#000000; fill-opacity:1.0; 
stroke:#000000; stroke-width:39.3701; stroke-opacity:1; 
stroke-linecap:round; stroke-linejoin:round;">
</g>
<g style="fill:#000000; fill-opacity:1.0; 
stroke:#000000; stroke-width:0; stroke-opacity:1; 
stroke-linecap:round; stroke-linejoin:round;">
<circle cx="7750" cy="13850" r="334.646" /> 
</g>
<g style="fill:#000000; fill-opacity:1.0; 
stroke:#000000; stroke-width:39.3701; stroke-opacity:1; 
stroke-linecap:round; stroke-linejoin:round;">
</g>
<g style="fill:#000000; fill-opacity:1.0; 
stroke:#000000; stroke-width:0; stroke-opacity:1; 
stroke-linecap:round; stroke-linejoin:round;">
<polyline style="fill-rule:evenodd;"
points="8084,12184
7415,12184
7415,11515
8084,11515
8084,12184
" /> 
<circle cx="19650" cy="7150" r="393.5" /> 
</g>
<g style="fill:#000000; fill-opacity:1.0; 
stroke:#000000; stroke-width:39.3701; stroke-opacity:1; 
stroke-linecap:round; stroke-linejoin:round;">
</g>
<g style="fill:#000000; fill-opacity:1.0; 
stroke:#000000; stroke-width:0; stroke-opacity:1; 
stroke-linecap:round; stroke-linejoin:round;">
<circle cx="7750" cy="15600" r="393.5" /> 
</g>
<g style="fill:#000000; fill-opacity:1.0; 
stroke:#000000; stroke-width:39.3701; stroke-opacity:1; 
stroke-linecap:round; stroke-linejoin:round;">
</g>
<g style="fill:#000000; fill-opacity:1.0; 
stroke:#000000; stroke-width:0; stroke-opacity:1; 
stroke-linecap:round; stroke-linejoin:round;">
<circle cx="17650" cy="7150" r="393.5" /> 
</g>
<g style="fill:#000000; fill-opacity:1.0; 
stroke:#000000; stroke-width:39.3701; stroke-opacity:1; 
stroke-linecap:round; stroke-linejoin:round;">
</g>
<g style="fill:#000000; fill-opacity:1.0; 
stroke:#000000; stroke-width:0; stroke-opacity:1; 
stroke-linecap:round; stroke-linejoin:round;">
<circle cx="15650" cy="7150" r="393.5" /> 
</g>
<g style="fill:#000000; fill-opacity:1.0; 
stroke:#000000; stroke-width:39.3701; stroke-opacity:1; 
stroke-linecap:round; stroke-linejoin:round;">
</g>
<g style="fill:#000000; fill-opacity:1.0; 
stroke:#000000; stroke-width:0; stroke-opacity:1; 
stroke-linecap:round; stroke-linejoin:round;">
<polyline style="fill-rule:evenodd;"
points="12785,9964
12785,9335
13414,9335
13414,9964
12785,9964
" /> 
</g>
<g style="fill:#000000; fill-opacity:1.0; 
stroke:#000000; stroke-width:629.921; stroke-opacity:1; 
stroke-linecap:round; stroke-linejoin:round;">
</g>
<g style="fill:#000000; fill-opacity:0.0; 
stroke:#000000; stroke-width:629.921; stroke-opacity:1; 
stroke-linecap:round; stroke-linejoin:round;">
<path d="M16100 15650
L16100 15650
" />
<path d="M13100 10650
L13100 10650
" />
<path d="M16100 14650
L16100 14650
" />
<path d="M13100 11650
L13100 11650
" />
<path d="M16100 13650
L16100 13650
" />
<path d="M13100 12650
L13100 12650
" />
<path d="M16100 12650
L16100 12650
" />
<path d="M13100 13650
L13100 13650
" />
<path d="M16100 11650
L16100 11650
" />
<path d="M13100 14650
L13100 14650
" />
<path d="M16100 10650
L16100 10650
" />
<path d="M13100 15650
L13100 15650
" />
<path d="M16100 9650
L16100 9650
" />
</g>
<g style="fill:#000000; fill-opacity:1.0; 
stroke:#000000; stroke-width:0; stroke-opacity:1; 
stroke-linecap:round; stroke-linejoin:round;">
<circle cx="9000" cy="9800" r="314.961" /> 
</g>
<g style="fill:#000000; fill-opacity:1.0; 
stroke:#000000; stroke-width:39.3701; stroke-opacity:1; 
stroke-linecap:round; stroke-linejoin:round;">
</g>
<g style="fill:#000000; fill-opacity:1.0; 
stroke:#000000; stroke-width:629.921; stroke-opacity:1; 
stroke-linecap:round; stroke-linejoin:round;">
</g>
<g style="fill:#000000; fill-opacity:0.0; 
stroke:#000000; stroke-width:629.921; stroke-opacity:1; 
stroke-linecap:round; stroke-linejoin:round;">
<path d="M9000 10800
L9000 10800
" />
</g>
<g style="fill:#000000; fill-opacity:1.0; 
stroke:#000000; stroke-width:0; stroke-opacity:1; 
stroke-linecap:round; stroke-linejoin:round;">
<circle cx="7500" cy="10600" r="314.961" /> 
</g>
<g style="fill:#000000; fill-opacity:1.0; 
stroke:#000000; stroke-width:39.3701; stroke-opacity:1; 
stroke-linecap:round; stroke-linejoin:round;">
</g>
<g style="fill:#000000; fill-opacity:1.0; 
stroke:#000000; stroke-width:629.921; stroke-opacity:1; 
stroke-linecap:round; stroke-linejoin:round;">
</g>
<g style="fill:#000000; fill-opacity:0.0; 
stroke:#000000; stroke-width:629.921; stroke-opacity:1; 
stroke-linecap:round; stroke-linejoin:round;">
<path d="M7500 9600
L7500 9600
" />
</g>
<g style="fill:#000000; fill-opacity:1.0; 
stroke:#000000; stroke-width:0; stroke-opacity:1; 
stroke-linecap:round; stroke-linejoin:round;">
<circle cx="9000" cy="8500" r="314.961" /> 
</g>
<g style="fill:#000000; fill-opacity:1.0; 
stroke:#000000; stroke-width:39.3701; stroke-opacity:1; 
stroke-linecap:round; stroke-linejoin:round;">
</g>
<g style="fill:#000000; fill-opacity:1.0; 
stroke:#000000; stroke-width:629.921; stroke-opacity:1; 
stroke-linecap:round; stroke-linejoin:round;">
</g>
<g style="fill:#000000; fill-opacity:0.0; 
stroke:#000000; stroke-width:629.921; stroke-opacity:1; 
stroke-linecap:round; stroke-linejoin:round;">
<path d="M10000 8500
L10000 8500
" />
</g>
<g style="fill:#000000; fill-opacity:1.0; 
stroke:#000000; stroke-width:0; stroke-opacity:1; 
stroke-linecap:round; stroke-linejoin:round;">
<circle cx="11350" cy="8500" r="314.961" /> 
</g>
<g style="fill:#000000; fill-opacity:1.0; 
stroke:#000000; stroke-width:39.3701; stroke-opacity:1; 
stroke-linecap:round; stroke-linejoin:round;">
</g>
<g style="fill:#000000; fill-opacity:1.0; 
stroke:#000000; stroke-width:629.921; stroke-opacity:1; 
stroke-linecap:round; stroke-linejoin:round;">
</g>
<g style="fill:#000000; fill-opacity:0.0; 
stroke:#000000; stroke-width:629.921; stroke-opacity:1; 
stroke-linecap:round; stroke-linejoin:round;">
<path d="M12350 8500
L12350 8500
" />
</g>
<g style="fill:#000000; fill-opacity:1.0; 
stroke:#000000; stroke-width:0; stroke-opacity:1; 
stroke-linecap:round; stroke-linejoin:round;">
<circle cx="10350" cy="9800" r="314.961" /> 
</g>
<g style="fill:#000000; fill-opacity:1.0; 
stroke:#000000; stroke-width:39.3701; stroke-opacity:1; 
stroke-linecap:round; stroke-linejoin:round;">
</g>
<g style="fill:#000000; fill-opacity:1.0; 
stroke:#000000; stroke-width:629.921; stroke-opacity:1; 
stroke-linecap:round; stroke-linejoin:round;">
</g>
<g style="fill:#000000; fill-opacity:0.0; 
stroke:#000000; stroke-width:629.921; stroke-opacity:1; 
stroke-linecap:round; stroke-linejoin:round;">
<path d="M10350 10800
L10350 10800
" />
</g>
<g style="fill:#000000; fill-opacity:1.0; 
stroke:#000000; stroke-width:0; stroke-opacity:1; 
stroke-linecap:round; stroke-linejoin:round;">
<circle cx="11800" cy="10600" r="314.961" /> 
</g>
<g style="fill:#000000; fill-opacity:1.0; 
stroke:#000000; stroke-width:39.3701; stroke-opacity:1; 
stroke-linecap:round; stroke-linejoin:round;">
</g>
<g style="fill:#000000; fill-opacity:1.0; 
stroke:#000000; stroke-width:629.921; stroke-opacity:1; 
stroke-linecap:round; stroke-linejoin:round;">
</g>
<g style="fill:#000000; fill-opacity:0.0; 
stroke:#000000; stroke-width:629.921; stroke-opacity:1; 
stroke-linecap:round; stroke-linejoin:round;">
<path d="M11800 9600
L11800 9600
" />
</g>
<g style="fill:#000000; fill-opacity:1.0; 
stroke:#000000; stroke-width:0; stroke-opacity:1; 
stroke-linecap:round; stroke-linejoin:round;">
<circle cx="11800" cy="13450" r="314.961" /> 
</g>
<g style="fill:#000000; fill-opacity:1.0; 
stroke:#000000; stroke-width:39.3701; stroke-opacity:1; 
stroke-linecap:round; stroke-linejoin:round;">
</g>
<g style="fill:#000000; fill-opacity:1.0; 
stroke:#000000; stroke-width:629.921; stroke-opacity:1; 
stroke-linecap:round; stroke-linejoin:round;">
</g>
<g style="fill:#000000; fill-opacity:0.0; 
stroke:#000000; stroke-width:629.921; stroke-opacity:1; 
stroke-linecap:round; stroke-linejoin:round;">
<path d="M10800 13450
L10800 13450
" />
</g>
<g style="fill:#000000; fill-opacity:1.0; 
stroke:#000000; stroke-width:0; stroke-opacity:1; 
stroke-linecap:round; stroke-linejoin:round;">
<circle cx="10250" cy="15600" r="314.961" /> 
</g>
<g style="fill:#000000; fill-opacity:1.0; 
stroke:#000000; stroke-width:39.3701; stroke-opacity:1; 
stroke-linecap:round; stroke-linejoin:round;">
</g>
<g style="fill:#000000; fill-opacity:1.0; 
stroke:#000000; stroke-width:629.921; stroke-opacity:1; 
stroke-linecap:round; stroke-linejoin:round;">
</g>
<g style="fill:#000000; fill-opacity:0.0; 
stroke:#000000; stroke-width:629.921; stroke-opacity:1; 
stroke-linecap:round; stroke-linejoin:round;">
<path d="M10250 14600
L10250 14600
" />
</g>
<g style="fill:#000000; fill-opacity:1.0; 
stroke:#000000; stroke-width:0; stroke-opacity:1; 
stroke-linecap:round; stroke-linejoin:round;">
<circle cx="11800" cy="15550" r="314.961" /> 
</g>
<g style="fill:#000000; fill-opacity:1.0; 
stroke:#000000; stroke-width:39.3701; stroke-opacity:1; 
stroke-linecap:round; stroke-linejoin:round;">
</g>
<g style="fill:#000000; fill-opacity:1.0; 
stroke:#000000; stroke-width:629.921; stroke-opacity:1; 
stroke-linecap:round; stroke-linejoin:round;">
</g>
<g style="fill:#000000; fill-opacity:0.0; 
stroke:#000000; stroke-width:629.921; stroke-opacity:1; 
stroke-linecap:round; stroke-linejoin:round;">
<path d="M11800 14550
L11800 14550
" />
</g>
<g style="fill:#000000; fill-opacity:1.0; 
stroke:#000000; stroke-width:0; stroke-opacity:1; 
stroke-linecap:round; stroke-linejoin:round;">
<circle cx="19950" cy="15900" r="314.961" /> 
</g>
<g style="fill:#000000; fill-opacity:1.0; 
stroke:#000000; stroke-width:39.3701; stroke-opacity:1; 
stroke-linecap:round; stroke-linejoin:round;">
</g>
<g style="fill:#000000; fill-opacity:1.0; 
stroke:#000000; stroke-width:629.921; stroke-opacity:1; 
stroke-linecap:round; stroke-linejoin:round;">
</g>
<g style="fill:#000000; fill-opacity:0.0; 
stroke:#000000; stroke-width:629.921; stroke-opacity:1; 
stroke-linecap:round; stroke-linejoin:round;">
<path d="M19950 14900
L19950 14900
" />
</g>
<g style="fill:#000000; fill-opacity:1.0; 
stroke:#000000; stroke-width:0; stroke-opacity:1; 
stroke-linecap:round; stroke-linejoin:round;">
<circle cx="18650" cy="13800" r="314.961" /> 
</g>
<g style="fill:#000000; fill-opacity:1.0; 
stroke:#000000; stroke-width:39.3701; stroke-opacity:1; 
stroke-linecap:round; stroke-linejoin:round;">
</g>
<g style="fill:#000000; fill-opacity:1.0; 
stroke:#000000; stroke-width:629.921; stroke-opacity:1; 
stroke-linecap:round; stroke-linejoin:round;">
</g>
<g style="fill:#000000; fill-opacity:0.0; 
stroke:#000000; stroke-width:629.921; stroke-opacity:1; 
stroke-linecap:round; stroke-linejoin:round;">
<path d="M18650 12800
L18650 12800
" />
</g>
<g style="fill:#000000; fill-opacity:1.0; 
stroke:#000000; stroke-width:0; stroke-opacity:1; 
stroke-linecap:round; stroke-linejoin:round;">
<circle cx="17350" cy="12450" r="314.961" /> 
</g>
<g style="fill:#000000; fill-opacity:1.0; 
stroke:#000000; stroke-width:39.3701; stroke-opacity:1; 
stroke-linecap:round; stroke-linejoin:round;">
</g>
<g style="fill:#000000; fill-opacity:1.0; 
stroke:#000000; stroke-width:629.921; stroke-opacity:1; 
stroke-linecap:round; stroke-linejoin:round;">
</g>
<g style="fill:#000000; fill-opacity:0.0; 
stroke:#000000; stroke-width:629.921; stroke-opacity:1; 
stroke-linecap:round; stroke-linejoin:round;">
<path d="M17350 11450
L17350 11450
" />
</g>
<g style="fill:#000000; fill-opacity:1.0; 
stroke:#000000; stroke-width:0; stroke-opacity:1; 
stroke-linecap:round; stroke-linejoin:round;">
<circle cx="19950" cy="13800" r="314.961" /> 
</g>
<g style="fill:#000000; fill-opacity:1.0; 
stroke:#000000; stroke-width:39.3701; stroke-opacity:1; 
stroke-linecap:round; stroke-linejoin:round;">
</g>
<g style="fill:#000000; fill-opacity:1.0; 
stroke:#000000; stroke-width:629.921; stroke-opacity:1; 
stroke-linecap:round; stroke-linejoin:round;">
</g>
<g style="fill:#000000; fill-opacity:0.0; 
stroke:#000000; stroke-width:629.921; stroke-opacity:1; 
stroke-linecap:round; stroke-linejoin:round;">
<path d="M19950 12800
L19950 12800
" />
</g>
<g style="fill:#000000; fill-opacity:1.0; 
stroke:#000000; stroke-width:0; stroke-opacity:1; 
stroke-linecap:round; stroke-linejoin:round;">
<circle cx="18650" cy="15900" r="314.961" /> 
</g>
<g style="fill:#000000; fill-opacity:1.0; 
stroke:#000000; stroke-width:39.3701; stroke-opacity:1; 
stroke-linecap:round; stroke-linejoin:round;">
</g>
<g style="fill:#000000; fill-opacity:1.0; 
stroke:#000000; stroke-width:629.921; stroke-opacity:1; 
stroke-linecap:round; stroke-linejoin:round;">
</g>
<g style="fill:#000000; fill-opacity:0.0; 
stroke:#000000; stroke-width:629.921; stroke-opacity:1; 
stroke-linecap:round; stroke-linejoin:round;">
<path d="M18650 14900
L18650 14900
" />
</g>
<g style="fill:#000000; fill-opacity:1.0; 
stroke:#000000; stroke-width:0; stroke-opacity:1; 
stroke-linecap:round; stroke-linejoin:round;">
<circle cx="18800" cy="11700" r="314.961" /> 
</g>
<g style="fill:#000000; fill-opacity:1.0; 
stroke:#000000; stroke-width:39.3701; stroke-opacity:1; 
stroke-linecap:round; stroke-linejoin:round;">
</g>
<g style="fill:#000000; fill-opacity:1.0; 
stroke:#000000; stroke-width:629.921; stroke-opacity:1; 
stroke-linecap:round; stroke-linejoin:round;">
</g>
<g style="fill:#000000; fill-opacity:0.0; 
stroke:#000000; stroke-width:629.921; stroke-opacity:1; 
stroke-linecap:round; stroke-linejoin:round;">
<path d="M19800 11700
L19800 11700
" />
</g>
<g style="fill:#000000; fill-opacity:1.0; 
stroke:#000000; stroke-width:0; stroke-opacity:1; 
stroke-linecap:round; stroke-linejoin:round;">
<circle cx="15650" cy="8300" r="314.961" /> 
</g>
<g style="fill:#000000; fill-opacity:1.0; 
stroke:#000000; stroke-width:39.3701; stroke-opacity:1; 
stroke-linecap:round; stroke-linejoin:round;">
</g>
<g style="fill:#000000; fill-opacity:1.0; 
stroke:#000000; stroke-width:629.921; stroke-opacity:1; 
stroke-linecap:round; stroke-linejoin:round;">
</g>
<g style="fill:#000000; fill-opacity:0.0; 
stroke:#000000; stroke-width:629.921; stroke-opacity:1; 
stroke-linecap:round; stroke-linejoin:round;">
<path d="M16650 8300
L16650 8300
" />
</g>
<g style="fill:#000000; fill-opacity:1.0; 
stroke:#000000; stroke-width:0; stroke-opacity:1; 
stroke-linecap:round; stroke-linejoin:round;">
<circle cx="17750" cy="8650" r="314.961" /> 
</g>
<g style="fill:#000000; fill-opacity:1.0; 
stroke:#000000; stroke-width:39.3701; stroke-opacity:1; 
stroke-linecap:round; stroke-linejoin:round;">
</g>
<g style="fill:#000000; fill-opacity:1.0; 
stroke:#000000; stroke-width:629.921; stroke-opacity:1; 
stroke-linecap:round; stroke-linejoin:round;">
</g>
<g style="fill:#000000; fill-opacity:0.0; 
stroke:#000000; stroke-width:629.921; stroke-opacity:1; 
stroke-linecap:round; stroke-linejoin:round;">
<path d="M18750 8650
L18750 8650
" />
</g>
<g style="fill:#000000; fill-opacity:1.0; 
stroke:#000000; stroke-width:0; stroke-opacity:1; 
stroke-linecap:round; stroke-linejoin:round;">
<circle cx="18150" cy="10300" r="314.961" /> 
</g>
<g style="fill:#000000; fill-opacity:1.0; 
stroke:#000000; stroke-width:39.3701; stroke-opacity:1; 
stroke-linecap:round; stroke-linejoin:round;">
</g>
<g style="fill:#000000; fill-opacity:1.0; 
stroke:#000000; stroke-width:629.921; stroke-opacity:1; 
stroke-linecap:round; stroke-linejoin:round;">
</g>
<g style="fill:#000000; fill-opacity:0.0; 
stroke:#000000; stroke-width:629.921; stroke-opacity:1; 
stroke-linecap:round; stroke-linejoin:round;">
<path d="M17150 10300
L17150 10300
" />
</g>
<g style="fill:#000000; fill-opacity:1.0; 
stroke:#000000; stroke-width:0; stroke-opacity:1; 
stroke-linecap:round; stroke-linejoin:round;">
<circle cx="10800" cy="12100" r="314.961" /> 
</g>
<g style="fill:#000000; fill-opacity:1.0; 
stroke:#000000; stroke-width:39.3701; stroke-opacity:1; 
stroke-linecap:round; stroke-linejoin:round;">
</g>
<g style="fill:#000000; fill-opacity:1.0; 
stroke:#000000; stroke-width:0; stroke-opacity:1; 
stroke-linecap:round; stroke-linejoin:round;">
<circle cx="11784.3" cy="12100" r="314.961" /> 
</g>
<g style="fill:#000000; fill-opacity:1.0; 
stroke:#000000; stroke-width:39.3701; stroke-opacity:1; 
stroke-linecap:round; stroke-linejoin:round;">
</g>
<g style="fill:#000000; fill-opacity:1.0; 
stroke:#000000; stroke-width:0; stroke-opacity:1; 
stroke-linecap:round; stroke-linejoin:round;">
<circle cx="7500" cy="8450" r="314.961" /> 
</g>
<g style="fill:#000000; fill-opacity:1.0; 
stroke:#000000; stroke-width:39.3701; stroke-opacity:1; 
stroke-linecap:round; stroke-linejoin:round;">
</g>
<g style="fill:#000000; fill-opacity:1.0; 
stroke:#000000; stroke-width:0; stroke-opacity:1; 
stroke-linecap:round; stroke-linejoin:round;">
<circle cx="7500" cy="7465.75" r="314.961" /> 
</g>
<g style="fill:#000000; fill-opacity:1.0; 
stroke:#000000; stroke-width:39.3701; stroke-opacity:1; 
stroke-linecap:round; stroke-linejoin:round;">
</g>
<g style="fill:#000000; fill-opacity:1.0; 
stroke:#000000; stroke-width:0; stroke-opacity:1; 
stroke-linecap:round; stroke-linejoin:round;">
<circle cx="9450" cy="12050" r="314.961" /> 
</g>
<g style="fill:#000000; fill-opacity:1.0; 
stroke:#000000; stroke-width:39.3701; stroke-opacity:1; 
stroke-linecap:round; stroke-linejoin:round;">
</g>
<g style="fill:#000000; fill-opacity:1.0; 
stroke:#000000; stroke-width:0; stroke-opacity:1; 
stroke-linecap:round; stroke-linejoin:round;">
<circle cx="9450" cy="13034.3" r="314.961" /> 
</g>
<g style="fill:#000000; fill-opacity:1.0; 
stroke:#000000; stroke-width:39.3701; stroke-opacity:1; 
stroke-linecap:round; stroke-linejoin:round;">
</g>
<g style="fill:#000000; fill-opacity:1.0; 
stroke:#000000; stroke-width:98.4252; stroke-opacity:1; 
stroke-linecap:round; stroke-linejoin:round;">
</g>
<g style="fill:#000000; fill-opacity:0.0; 
stroke:#000000; stroke-width:98.4252; stroke-opacity:1; 
stroke-linecap:round; stroke-linejoin:round;">
<path d="M13100 11650
L13100 11700
" />
<path d="M13100 11700
L12550 12250
" />
<path d="M12550 13100
L13100 13650
" />
<path d="M12550 12250
L12550 13100
" />
<path d="M11350 8450
L11450 8450
" />
<path d="M11450 8450
L12000 9000
" />
<path d="M13700 11050
L13100 11650
" />
<path d="M13700 9350
L13700 11050
" />
<path d="M13350 9000
L13700 9350
" />
<path d="M12000 9000
L13350 9000
" />
<path d="M10000 8500
L11300 8500
" />
<path d="M11300 8500
L11350 8450
" />
<path d="M11300 7050
L11300 8400
" />
<path d="M11300 8400
L11350 8450
" />
</g>
<g style="fill:#000000; fill-opacity:0.0; 
stroke:#000000; stroke-width:196.85; stroke-opacity:1; 
stroke-linecap:round; stroke-linejoin:round;">
<path d="M16100 12650
L16000 12650
" />
<path d="M16000 12650
L15800 12450
" />
<path d="M16100 12650
L16100 12450
" />
<path d="M16100 12450
L17100 11450
" />
<path d="M17100 11450
L17350 11450
" />
<path d="M14150 8284
L14084 8284
" />
<path d="M14084 8284
L13000 7200
" />
<path d="M9000 8100
L9000 8500
" />
<path d="M9500 7600
L9000 8100
" />
<path d="M10100 7600
L9500 7600
" />
<path d="M11050 6700
L10100 7600
" />
<path d="M12450 6700
L11050 6700
" />
<path d="M13000 7050
L12450 6700
" />
<path d="M13000 7200
L13000 7050
" />
<path d="M9000 8500
L9000 9800
" />
<path d="M9000 8500
L8534 8500
" />
<path d="M8534 8500
L7500 7465
" />
<path d="M17650 7150
L17050 7150
" />
<path d="M17050 7150
L15665 8534
" />
<path d="M15665 8284
L14150 8284
" />
<path d="M14150 8284
L14100 8334
" />
<path d="M14100 8334
L14100 11650
" />
<path d="M14100 11650
L13100 12650
" />
</g>
<g style="fill:#000000; fill-opacity:0.0; 
stroke:#000000; stroke-width:98.4252; stroke-opacity:1; 
stroke-linecap:round; stroke-linejoin:round;">
<path d="M11800 13450
L11800 13550
" />
<path d="M11800 13550
L10750 14600
" />
<path d="M10750 14600
L10250 14600
" />
<path d="M10800 12100
L10800 12450
" />
<path d="M10800 12450
L11800 13450
" />
<path d="M11800 10600
L11800 12084
" />
<path d="M11800 12084
L11784 12100
" />
<path d="M17450 15400
L17350 15300
" />
<path d="M19050 15400
L17450 15400
" />
<path d="M19550 14900
L19050 15400
" />
<path d="M19950 14900
L19550 14900
" />
<path d="M17350 15450
L17350 14584
" />
<path d="M13100 15650
L14700 15650
" />
<path d="M15484 16434
L17350 16434
" />
<path d="M14700 15650
L15484 16434
" />
<path d="M11800 15550
L13000 15550
" />
<path d="M13000 15550
L13100 15650
" />
<path d="M18350 13500
L18650 13800
" />
<path d="M17350 13500
L18350 13500
" />
<path d="M16100 13650
L17200 13650
" />
<path d="M17200 13650
L17350 13500
" />
<path d="M16150 13600
L16100 13650
" />
<path d="M7500 10600
L7500 11600
" />
<path d="M7500 11600
L7750 11850
" />
<path d="M7500 10600
L8800 10600
" />
<path d="M8800 10600
L9000 10800
" />
<path d="M19650 7150
L19650 9300
" />
<path d="M18650 10300
L19650 9300
" />
<path d="M18650 10300
L18150 10300
" />
<path d="M16100 9650
L17500 9650
" />
<path d="M17500 9650
L18150 10300
" />
<path d="M13100 14650
L11900 14650
" />
<path d="M11900 14650
L11800 14550
" />
<path d="M10250 15600
L10750 15600
" />
<path d="M10750 15600
L11800 14550
" />
<path d="M19950 15900
L20150 15900
" />
<path d="M20150 15900
L20450 15600
" />
<path d="M19400 12100
L19800 11700
" />
<path d="M19400 13100
L19400 12100
" />
<path d="M19600 13300
L19400 13100
" />
<path d="M20250 13300
L19600 13300
" />
<path d="M20450 13500
L20250 13300
" />
<path d="M20450 15600
L20450 13500
" />
<path d="M19950 15900
L20000 15900
" />
<path d="M18650 15900
L19950 15900
" />
<path d="M18550 15800
L18650 15900
" />
<path d="M17000 15800
L18550 15800
" />
<path d="M16850 15650
L17000 15800
" />
<path d="M16100 15650
L16850 15650
" />
<path d="M18300 12450
L18650 12800
" />
<path d="M17350 12450
L18300 12450
" />
<path d="M18850 14900
L19950 13800
" />
<path d="M18650 14900
L18850 14900
" />
<path d="M17750 14000
L18650 14900
" />
<path d="M16900 14000
L17750 14000
" />
<path d="M16250 14650
L16900 14000
" />
<path d="M16100 14650
L16250 14650
" />
<path d="M18800 11700
L18050 11700
" />
<path d="M15450 12300
L16100 11650
" />
<path d="M15450 12800
L15450 12300
" />
<path d="M15800 13150
L15450 12800
" />
<path d="M16450 13150
L15800 13150
" />
<path d="M16700 12900
L16450 13150
" />
<path d="M16700 12350
L16700 12900
" />
<path d="M17100 11950
L16700 12350
" />
<path d="M17800 11950
L17100 11950
" />
<path d="M18050 11700
L17800 11950
" />
<path d="M17150 10300
L17150 10600
" />
<path d="M17150 10600
L16100 11650
" />
<path d="M16650 8300
L16650 8550
" />
<path d="M16650 8550
L16150 9050
" />
<path d="M15450 10000
L16100 10650
" />
<path d="M15450 9250
L15450 10000
" />
<path d="M15650 9050
L15450 9250
" />
<path d="M16150 9050
L15650 9050
" />
<path d="M16650 8300
L17400 8300
" />
<path d="M17400 8300
L17750 8650
" />
<path d="M12284 7050
L12284 8384
" />
<path d="M12284 8384
L12350 8450
" />
<path d="M11800 9600
L13050 9600
" />
<path d="M13050 9600
L13100 9650
" />
<path d="M10350 9800
L11600 9800
" />
<path d="M11600 9800
L11800 9600
" />
<path d="M9450 12050
L9450 11300
" />
<path d="M9750 10400
L10350 9800
" />
<path d="M9750 11000
L9750 10400
" />
<path d="M9450 11300
L9750 11000
" />
<path d="M10350 10800
L10450 10800
" />
<path d="M10450 10800
L11150 10100
" />
<path d="M12550 10100
L13100 10650
" />
<path d="M11150 10100
L12550 10100
" />
<path d="M9450 13034
L9715 13034
" />
<path d="M9715 13034
L10050 12700
" />
<path d="M10050 11100
L10350 10800
" />
<path d="M10050 12700
L10050 11100
" />
<path d="M7750 13850
L8634 13850
" />
<path d="M8634 13850
L9450 13034
" />
</g>
<g style="fill:#000000; fill-opacity:1.0; 
stroke:#000000; stroke-width:78.7402; stroke-opacity:1; 
stroke-linecap:round; stroke-linejoin:round;">
<polyline style="fill-rule:evenodd;"
points="20883,16833
6466,16833
6466,15985
7420,15985
7464,16060
7662,16134
7873,16127
8035,16060
8079,15985
7750,15655
7420,15985
6466,15985
6466,15512
7215,15512
7222,15723
7289,15885
7364,15929
7694,15600
7805,15600
8135,15929
8210,15885
8284,15687
8277,15476
8210,15314
8135,15270
7805,15600
7694,15600
7364,15270
7289,15314
7215,15512
6466,15512
6466,15214
7420,15214
7750,15544
8079,15214
8035,15139
7837,15065
7626,15072
7464,15139
7420,15214
6466,15214
6466,9709
7060,9709
7135,9869
7266,9988
7390,10039
7460,10016
7460,9639
7539,9639
7539,10016
7609,10039
7733,9988
7864,9869
7939,9709
7916,9639
7539,9639
7460,9639
7083,9639
7060,9709
6466,9709
6466,9490
7060,9490
7083,9560
7460,9560
7460,9183
7539,9183
7539,9560
7916,9560
7939,9490
7864,9330
7733,9211
7609,9160
7539,9183
7460,9183
7390,9160
7266,9211
7135,9330
7060,9490
6466,9490
6466,8778
7227,8778
7261,8845
7430,8906
7610,8898
7738,8845
7772,8778
7500,8505
7227,8778
6466,8778
6466,8380
7043,8380
7051,8560
7104,8688
7171,8722
7444,8450
7171,8177
7104,8211
7043,8380
6466,8380
6466,7567
6988,7567
7065,7755
7209,7899
7397,7977
7594,7977
7633,8016
7569,7993
7389,8001
7261,8054
7227,8121
7500,8394
7505,8388
7561,8444
7555,8450
7828,8722
7895,8688
7956,8519
7948,8339
7942,8326
8325,8708
8421,8772
8534,8795
8571,8795
8704,8928
8704,9371
8566,9509
8488,9697
8488,9901
8565,10089
8709,10233
8876,10302
8804,10317
8749,10353
7952,10353
7934,10310
7790,10166
7602,10088
7398,10088
7210,10165
7066,10309
6988,10497
6988,10701
7065,10889
7209,11033
7253,11052
7253,11402
7230,11437
7214,11515
7214,12184
7228,12257
7271,12324
7337,12369
7415,12385
8084,12385
8157,12371
8224,12328
8269,12262
8285,12184
8285,11515
8271,11442
8228,11375
8162,11330
8084,11314
7746,11314
7746,11052
7789,11034
7933,10890
7952,10846
8495,10846
8527,11005
8638,11171
8804,11282
9000,11321
9195,11282
9209,11274
9203,11300
9203,11597
9160,11615
9016,11759
8938,11947
8938,12151
9015,12339
9159,12483
9300,12542
9160,12600
9016,12743
8938,12931
8938,13135
8956,13179
8532,13603
8223,13603
8200,13549
8051,13399
7856,13318
7644,13318
7449,13399
7299,13548
7218,13743
7218,13955
7299,14150
7448,14300
7643,14381
7855,14381
8050,14300
8200,14151
8223,14096
8634,14096
8728,14077
8808,14023
9272,13559
10360,13559
10411,13683
10530,13814
10690,13889
10760,13866
10760,13489
10839,13489
10839,13866
10909,13889
11069,13814
11188,13683
11239,13559
11216,13489
10839,13489
10760,13489
10383,13489
10360,13559
9272,13559
9304,13527
9347,13545
9551,13546
9739,13468
9867,13340
10360,13340
10383,13410
10760,13410
10760,13033
10839,13033
10839,13410
11216,13410
11239,13340
11188,13216
11069,13085
10909,13010
10839,13033
10760,13033
10690,13010
10530,13085
10411,13216
10360,13340
9867,13340
9883,13324
9961,13136
9961,13136
10223,12873
10277,12794
10296,12700
10296,12220
10365,12389
10509,12533
10587,12565
10626,12623
11306,13304
11288,13347
11288,13551
11335,13666
10676,14325
10611,14228
10445,14117
10250,14078
10054,14117
9888,14228
9777,14394
9738,14589
9738,14610
9777,14805
9888,14971
10054,15082
10126,15097
9960,15165
9816,15309
9738,15497
9738,15701
9815,15889
9959,16033
10147,16111
10351,16111
10539,16034
10683,15890
10702,15846
10750,15846
10844,15827
10923,15773
11315,15382
11288,15447
11288,15651
11365,15839
11509,15983
11697,16061
11901,16061
12089,15984
12233,15840
12252,15796
12607,15796
12617,15845
12728,16011
12894,16122
13089,16161
13110,16161
13305,16122
13471,16011
13549,15896
14598,15896
15310,16608
15310,16608
15358,16640
15390,16661
15484,16680
17022,16680
17059,16717
17247,16795
17451,16796
17639,16718
17783,16574
17861,16386
17861,16182
17805,16046
18156,16046
18215,16189
18359,16333
18547,16411
18751,16411
18939,16334
19083,16190
19102,16146
19497,16146
19515,16189
19659,16333
19847,16411
20051,16411
20239,16334
20383,16190
20461,16002
20461,15936
20623,15773
20677,15694
20696,15600
20696,15599
20696,13500
20677,13405
20623,13326
20623,13326
20423,13126
20344,13072
20315,13066
20389,12909
20366,12839
19989,12839
19989,12847
19910,12847
19910,12839
19902,12839
19902,12760
19910,12760
19910,12383
19989,12383
19989,12760
20366,12760
20389,12690
20314,12530
20183,12411
20059,12360
19989,12383
19910,12383
19840,12360
19716,12411
19646,12476
19646,12201
19661,12186
19789,12211
19810,12211
20005,12172
20171,12061
20282,11895
20321,11700
20282,11504
20171,11338
20005,11227
19810,11188
19789,11188
19594,11227
19428,11338
19317,11504
19302,11576
19234,11410
19090,11266
18902,11188
18698,11188
18510,11265
18366,11409
18347,11453
18050,11453
18050,11453
17955,11472
17876,11526
17876,11526
17741,11660
17789,11559
17766,11489
17389,11489
17389,11497
17310,11497
17310,11489
16933,11489
16910,11559
16985,11719
16996,11728
16926,11776
16526,12176
16472,12255
16453,12350
16453,12379
16369,12285
16209,12210
16139,12233
16139,12610
16147,12610
16147,12689
16139,12689
16139,12697
16060,12697
16060,12689
16052,12689
16052,12610
16060,12610
16060,12233
15990,12210
15830,12285
15711,12416
15696,12455
15696,12401
15961,12136
16089,12161
16110,12161
16305,12122
16471,12011
16582,11845
16621,11650
16592,11504
16757,11340
16910,11340
16933,11410
17310,11410
17310,11033
17389,11033
17389,11410
17766,11410
17789,11340
17714,11180
17583,11061
17459,11010
17389,11033
17310,11033
17240,11010
17116,11061
16985,11180
16910,11340
16757,11340
17317,10780
17355,10772
17521,10661
17632,10495
17647,10423
17715,10589
17859,10733
18047,10811
18251,10811
18439,10734
18583,10590
18602,10546
18650,10546
18744,10527
18823,10473
19823,9473
19823,9473
19877,9394
19896,9300
19896,7687
19983,7650
20150,7484
20240,7267
20240,7033
20150,6816
19984,6649
19767,6559
19533,6559
19316,6649
19149,6815
19059,7032
19059,7266
19149,7483
19315,7650
19403,7687
19403,9198
18586,10015
18584,10010
18440,9866
18252,9788
18048,9788
18004,9806
17673,9476
17594,9422
17500,9403
16549,9403
16471,9288
16344,9203
16755,8792
16855,8772
17021,8661
17099,8546
17238,8546
17238,8547
17238,8751
17315,8939
17459,9083
17647,9161
17851,9161
18039,9084
18183,8940
18258,8759
18310,8759
18361,8883
18480,9014
18640,9089
18710,9066
18710,8689
18789,8689
18789,9066
18859,9089
19019,9014
19138,8883
19189,8759
19166,8689
18789,8689
18710,8689
18333,8689
18310,8759
18258,8759
18261,8752
18261,8548
18258,8540
18310,8540
18333,8610
18710,8610
18710,8233
18789,8233
18789,8610
19166,8610
19189,8540
19138,8416
19019,8285
18859,8210
18789,8233
18710,8233
18640,8210
18480,8285
18361,8416
18310,8540
18258,8540
18184,8360
18040,8216
17852,8138
17648,8138
17604,8156
17573,8126
17494,8072
17400,8053
17099,8053
17021,7938
16855,7827
16801,7816
17144,7472
17149,7483
17315,7650
17532,7740
17766,7740
17983,7650
18150,7484
18240,7267
18240,7033
18150,6816
17984,6649
17767,6559
17533,6559
17316,6649
17149,6815
17133,6854
17050,6854
16937,6877
16862,6927
16841,6941
15923,7859
15752,7788
15548,7788
15360,7865
15237,7988
14578,7988
14440,7850
14252,7772
14048,7772
14007,7789
13913,7695
14080,7756
14260,7748
14388,7695
14422,7628
14150,7355
14144,7361
14088,7305
14094,7300
14205,7300
14478,7572
14545,7538
14546,7535
15320,7535
15364,7610
15562,7684
15773,7677
15935,7610
15979,7535
15650,7205
15320,7535
14546,7535
14606,7369
14598,7189
14545,7062
15115,7062
15122,7273
15189,7435
15264,7479
15594,7150
15705,7150
16035,7479
16110,7435
16184,7237
16177,7026
16110,6864
16035,6820
15705,7150
15594,7150
15264,6820
15189,6864
15115,7062
14545,7062
14545,7061
14478,7027
14205,7300
14094,7300
13821,7027
13754,7061
13693,7230
13701,7410
13753,7536
13295,7077
13295,7050
13288,7018
13288,6985
13281,6971
13877,6971
14150,7244
14422,6971
14388,6904
14219,6843
14039,6851
13911,6904
13877,6971
13281,6971
13277,6962
13272,6937
13254,6910
13241,6880
13223,6862
13208,6841
13181,6823
13158,6800
13101,6764
15320,6764
15650,7094
15979,6764
15935,6689
15737,6615
15526,6622
15364,6689
15320,6764
13101,6764
12608,6450
12584,6441
12562,6427
12531,6420
12501,6409
12475,6409
12450,6404
11050,6404
10997,6415
10944,6424
10940,6426
10937,6427
10892,6457
10846,6485
9982,7304
9500,7304
9387,7327
9291,7391
8791,7891
8727,7987
8711,8065
8710,8065
8613,8162
8011,7559
8011,7364
7934,7176
7790,7032
7602,6954
7398,6953
7210,7031
7066,7175
6988,7363
6988,7567
6466,7567
6466,6316
20883,6316
20883,16833
" /> 
</g> 
</svg>
