G04 #@! TF.FileFunction,Legend,Bot*
%FSLAX46Y46*%
G04 Gerber Fmt 4.6, Leading zero omitted, Abs format (unit mm)*
G04 Created by KiCad (PCBNEW 4.0.6-e0-6349~53~ubuntu16.04.1) date Wed Apr 19 22:32:26 2017*
%MOMM*%
%LPD*%
G01*
G04 APERTURE LIST*
%ADD10C,0.100000*%
%ADD11C,0.120000*%
%ADD12C,0.127000*%
G04 APERTURE END LIST*
D10*
D11*
X129520000Y-116611000D02*
X129520000Y-117961000D01*
X129520000Y-117961000D02*
X130320000Y-117961000D01*
X130320000Y-117961000D02*
X130320000Y-122561000D01*
X130320000Y-122561000D02*
X129520000Y-122561000D01*
X127020000Y-122561000D02*
X126220000Y-122561000D01*
X126220000Y-122561000D02*
X126220000Y-117961000D01*
X126220000Y-117961000D02*
X127020000Y-117961000D01*
X127020000Y-117961000D02*
X127020000Y-116661000D01*
D12*
X128534281Y-119837805D02*
X127950081Y-119837805D01*
X127950081Y-119976900D01*
X127977900Y-120060358D01*
X128033538Y-120115996D01*
X128089176Y-120143815D01*
X128200452Y-120171634D01*
X128283910Y-120171634D01*
X128395186Y-120143815D01*
X128450824Y-120115996D01*
X128506462Y-120060358D01*
X128534281Y-119976900D01*
X128534281Y-119837805D01*
X128005719Y-120394186D02*
X127977900Y-120422005D01*
X127950081Y-120477643D01*
X127950081Y-120616739D01*
X127977900Y-120672377D01*
X128005719Y-120700196D01*
X128061357Y-120728015D01*
X128116995Y-120728015D01*
X128200452Y-120700196D01*
X128534281Y-120366367D01*
X128534281Y-120728015D01*
X138287276Y-125537081D02*
X138565467Y-125537081D01*
X138593286Y-125815271D01*
X138565467Y-125787452D01*
X138509829Y-125759633D01*
X138370733Y-125759633D01*
X138315095Y-125787452D01*
X138287276Y-125815271D01*
X138259457Y-125870910D01*
X138259457Y-126010005D01*
X138287276Y-126065643D01*
X138315095Y-126093462D01*
X138370733Y-126121281D01*
X138509829Y-126121281D01*
X138565467Y-126093462D01*
X138593286Y-126065643D01*
X138092543Y-125537081D02*
X137897810Y-126121281D01*
X137703076Y-125537081D01*
X140296900Y-120966896D02*
X140269081Y-120911258D01*
X140269081Y-120827801D01*
X140296900Y-120744343D01*
X140352538Y-120688705D01*
X140408176Y-120660886D01*
X140519452Y-120633067D01*
X140602910Y-120633067D01*
X140714186Y-120660886D01*
X140769824Y-120688705D01*
X140825462Y-120744343D01*
X140853281Y-120827801D01*
X140853281Y-120883439D01*
X140825462Y-120966896D01*
X140797643Y-120994715D01*
X140602910Y-120994715D01*
X140602910Y-120883439D01*
X140853281Y-121245086D02*
X140269081Y-121245086D01*
X140853281Y-121578915D01*
X140269081Y-121578915D01*
X140853281Y-121857105D02*
X140269081Y-121857105D01*
X140269081Y-121996200D01*
X140296900Y-122079658D01*
X140352538Y-122135296D01*
X140408176Y-122163115D01*
X140519452Y-122190934D01*
X140602910Y-122190934D01*
X140714186Y-122163115D01*
X140769824Y-122135296D01*
X140825462Y-122079658D01*
X140853281Y-121996200D01*
X140853281Y-121857105D01*
X132488214Y-125994281D02*
X132488214Y-125410081D01*
X132349119Y-125410081D01*
X132265661Y-125437900D01*
X132210023Y-125493538D01*
X132182204Y-125549176D01*
X132154385Y-125660452D01*
X132154385Y-125743910D01*
X132182204Y-125855186D01*
X132210023Y-125910824D01*
X132265661Y-125966462D01*
X132349119Y-125994281D01*
X132488214Y-125994281D01*
X131598004Y-125437900D02*
X131653642Y-125410081D01*
X131737099Y-125410081D01*
X131820557Y-125437900D01*
X131876195Y-125493538D01*
X131904014Y-125549176D01*
X131931833Y-125660452D01*
X131931833Y-125743910D01*
X131904014Y-125855186D01*
X131876195Y-125910824D01*
X131820557Y-125966462D01*
X131737099Y-125994281D01*
X131681461Y-125994281D01*
X131598004Y-125966462D01*
X131570185Y-125938643D01*
X131570185Y-125743910D01*
X131681461Y-125743910D01*
X131319814Y-125994281D02*
X131319814Y-125410081D01*
X130985985Y-125994281D01*
X130985985Y-125410081D01*
X130707795Y-125994281D02*
X130707795Y-125410081D01*
X130568700Y-125410081D01*
X130485242Y-125437900D01*
X130429604Y-125493538D01*
X130401785Y-125549176D01*
X130373966Y-125660452D01*
X130373966Y-125743910D01*
X130401785Y-125855186D01*
X130429604Y-125910824D01*
X130485242Y-125966462D01*
X130568700Y-125994281D01*
X130707795Y-125994281D01*
X138941024Y-117330462D02*
X138857567Y-117358281D01*
X138718471Y-117358281D01*
X138662833Y-117330462D01*
X138635014Y-117302643D01*
X138607195Y-117247005D01*
X138607195Y-117191367D01*
X138635014Y-117135729D01*
X138662833Y-117107910D01*
X138718471Y-117080090D01*
X138829748Y-117052271D01*
X138885386Y-117024452D01*
X138913205Y-116996633D01*
X138941024Y-116940995D01*
X138941024Y-116885357D01*
X138913205Y-116829719D01*
X138885386Y-116801900D01*
X138829748Y-116774081D01*
X138690652Y-116774081D01*
X138607195Y-116801900D01*
X138050814Y-116801900D02*
X138106452Y-116774081D01*
X138189909Y-116774081D01*
X138273367Y-116801900D01*
X138329005Y-116857538D01*
X138356824Y-116913176D01*
X138384643Y-117024452D01*
X138384643Y-117107910D01*
X138356824Y-117219186D01*
X138329005Y-117274824D01*
X138273367Y-117330462D01*
X138189909Y-117358281D01*
X138134271Y-117358281D01*
X138050814Y-117330462D01*
X138022995Y-117302643D01*
X138022995Y-117107910D01*
X138134271Y-117107910D01*
X137772624Y-117358281D02*
X137772624Y-116774081D01*
X137438795Y-117358281D01*
X137438795Y-116774081D01*
X132669643Y-119917634D02*
X132697462Y-119889815D01*
X132725281Y-119806358D01*
X132725281Y-119750720D01*
X132697462Y-119667262D01*
X132641824Y-119611624D01*
X132586186Y-119583805D01*
X132474910Y-119555986D01*
X132391452Y-119555986D01*
X132280176Y-119583805D01*
X132224538Y-119611624D01*
X132168900Y-119667262D01*
X132141081Y-119750720D01*
X132141081Y-119806358D01*
X132168900Y-119889815D01*
X132196719Y-119917634D01*
X132725281Y-120474015D02*
X132725281Y-120140186D01*
X132725281Y-120307100D02*
X132141081Y-120307100D01*
X132224538Y-120251462D01*
X132280176Y-120195824D01*
X132307995Y-120140186D01*
X134066643Y-122711634D02*
X134094462Y-122683815D01*
X134122281Y-122600358D01*
X134122281Y-122544720D01*
X134094462Y-122461262D01*
X134038824Y-122405624D01*
X133983186Y-122377805D01*
X133871910Y-122349986D01*
X133788452Y-122349986D01*
X133677176Y-122377805D01*
X133621538Y-122405624D01*
X133565900Y-122461262D01*
X133538081Y-122544720D01*
X133538081Y-122600358D01*
X133565900Y-122683815D01*
X133593719Y-122711634D01*
X133538081Y-123240196D02*
X133538081Y-122962005D01*
X133816271Y-122934186D01*
X133788452Y-122962005D01*
X133760633Y-123017643D01*
X133760633Y-123156739D01*
X133788452Y-123212377D01*
X133816271Y-123240196D01*
X133871910Y-123268015D01*
X134011005Y-123268015D01*
X134066643Y-123240196D01*
X134094462Y-123212377D01*
X134122281Y-123156739D01*
X134122281Y-123017643D01*
X134094462Y-122962005D01*
X134066643Y-122934186D01*
X133304643Y-122711634D02*
X133332462Y-122683815D01*
X133360281Y-122600358D01*
X133360281Y-122544720D01*
X133332462Y-122461262D01*
X133276824Y-122405624D01*
X133221186Y-122377805D01*
X133109910Y-122349986D01*
X133026452Y-122349986D01*
X132915176Y-122377805D01*
X132859538Y-122405624D01*
X132803900Y-122461262D01*
X132776081Y-122544720D01*
X132776081Y-122600358D01*
X132803900Y-122683815D01*
X132831719Y-122711634D01*
X133026452Y-123045462D02*
X132998633Y-122989824D01*
X132970814Y-122962005D01*
X132915176Y-122934186D01*
X132887357Y-122934186D01*
X132831719Y-122962005D01*
X132803900Y-122989824D01*
X132776081Y-123045462D01*
X132776081Y-123156739D01*
X132803900Y-123212377D01*
X132831719Y-123240196D01*
X132887357Y-123268015D01*
X132915176Y-123268015D01*
X132970814Y-123240196D01*
X132998633Y-123212377D01*
X133026452Y-123156739D01*
X133026452Y-123045462D01*
X133054271Y-122989824D01*
X133082090Y-122962005D01*
X133137729Y-122934186D01*
X133249005Y-122934186D01*
X133304643Y-122962005D01*
X133332462Y-122989824D01*
X133360281Y-123045462D01*
X133360281Y-123156739D01*
X133332462Y-123212377D01*
X133304643Y-123240196D01*
X133249005Y-123268015D01*
X133137729Y-123268015D01*
X133082090Y-123240196D01*
X133054271Y-123212377D01*
X133026452Y-123156739D01*
X133741281Y-119917634D02*
X133463090Y-119722900D01*
X133741281Y-119583805D02*
X133157081Y-119583805D01*
X133157081Y-119806358D01*
X133184900Y-119861996D01*
X133212719Y-119889815D01*
X133268357Y-119917634D01*
X133351814Y-119917634D01*
X133407452Y-119889815D01*
X133435271Y-119861996D01*
X133463090Y-119806358D01*
X133463090Y-119583805D01*
X133741281Y-120474015D02*
X133741281Y-120140186D01*
X133741281Y-120307100D02*
X133157081Y-120307100D01*
X133240538Y-120251462D01*
X133296176Y-120195824D01*
X133323995Y-120140186D01*
X131709281Y-119917634D02*
X131431090Y-119722900D01*
X131709281Y-119583805D02*
X131125081Y-119583805D01*
X131125081Y-119806358D01*
X131152900Y-119861996D01*
X131180719Y-119889815D01*
X131236357Y-119917634D01*
X131319814Y-119917634D01*
X131375452Y-119889815D01*
X131403271Y-119861996D01*
X131431090Y-119806358D01*
X131431090Y-119583805D01*
X131180719Y-120140186D02*
X131152900Y-120168005D01*
X131125081Y-120223643D01*
X131125081Y-120362739D01*
X131152900Y-120418377D01*
X131180719Y-120446196D01*
X131236357Y-120474015D01*
X131291995Y-120474015D01*
X131375452Y-120446196D01*
X131709281Y-120112367D01*
X131709281Y-120474015D01*
X135138281Y-124743634D02*
X134860090Y-124548900D01*
X135138281Y-124409805D02*
X134554081Y-124409805D01*
X134554081Y-124632358D01*
X134581900Y-124687996D01*
X134609719Y-124715815D01*
X134665357Y-124743634D01*
X134748814Y-124743634D01*
X134804452Y-124715815D01*
X134832271Y-124687996D01*
X134860090Y-124632358D01*
X134860090Y-124409805D01*
X134554081Y-124938367D02*
X134554081Y-125300015D01*
X134776633Y-125105281D01*
X134776633Y-125188739D01*
X134804452Y-125244377D01*
X134832271Y-125272196D01*
X134887910Y-125300015D01*
X135027005Y-125300015D01*
X135082643Y-125272196D01*
X135110462Y-125244377D01*
X135138281Y-125188739D01*
X135138281Y-125021824D01*
X135110462Y-124966186D01*
X135082643Y-124938367D01*
X135138281Y-118496443D02*
X134860090Y-118301709D01*
X135138281Y-118162614D02*
X134554081Y-118162614D01*
X134554081Y-118385167D01*
X134581900Y-118440805D01*
X134609719Y-118468624D01*
X134665357Y-118496443D01*
X134748814Y-118496443D01*
X134804452Y-118468624D01*
X134832271Y-118440805D01*
X134860090Y-118385167D01*
X134860090Y-118162614D01*
X135138281Y-119052824D02*
X135138281Y-118718995D01*
X135138281Y-118885909D02*
X134554081Y-118885909D01*
X134637538Y-118830271D01*
X134693176Y-118774633D01*
X134720995Y-118718995D01*
X135138281Y-119331014D02*
X135138281Y-119442290D01*
X135110462Y-119497929D01*
X135082643Y-119525748D01*
X134999186Y-119581386D01*
X134887910Y-119609205D01*
X134665357Y-119609205D01*
X134609719Y-119581386D01*
X134581900Y-119553567D01*
X134554081Y-119497929D01*
X134554081Y-119386652D01*
X134581900Y-119331014D01*
X134609719Y-119303195D01*
X134665357Y-119275376D01*
X134804452Y-119275376D01*
X134860090Y-119303195D01*
X134887910Y-119331014D01*
X134915729Y-119386652D01*
X134915729Y-119497929D01*
X134887910Y-119553567D01*
X134860090Y-119581386D01*
X134804452Y-119609205D01*
X135138281Y-120274443D02*
X134860090Y-120079709D01*
X135138281Y-119940614D02*
X134554081Y-119940614D01*
X134554081Y-120163167D01*
X134581900Y-120218805D01*
X134609719Y-120246624D01*
X134665357Y-120274443D01*
X134748814Y-120274443D01*
X134804452Y-120246624D01*
X134832271Y-120218805D01*
X134860090Y-120163167D01*
X134860090Y-119940614D01*
X134609719Y-120496995D02*
X134581900Y-120524814D01*
X134554081Y-120580452D01*
X134554081Y-120719548D01*
X134581900Y-120775186D01*
X134609719Y-120803005D01*
X134665357Y-120830824D01*
X134720995Y-120830824D01*
X134804452Y-120803005D01*
X135138281Y-120469176D01*
X135138281Y-120830824D01*
X134554081Y-121192471D02*
X134554081Y-121248110D01*
X134581900Y-121303748D01*
X134609719Y-121331567D01*
X134665357Y-121359386D01*
X134776633Y-121387205D01*
X134915729Y-121387205D01*
X135027005Y-121359386D01*
X135082643Y-121331567D01*
X135110462Y-121303748D01*
X135138281Y-121248110D01*
X135138281Y-121192471D01*
X135110462Y-121136833D01*
X135082643Y-121109014D01*
X135027005Y-121081195D01*
X134915729Y-121053376D01*
X134776633Y-121053376D01*
X134665357Y-121081195D01*
X134609719Y-121109014D01*
X134581900Y-121136833D01*
X134554081Y-121192471D01*
M02*
