G04 #@! TF.FileFunction,Paste,Top*
%FSLAX46Y46*%
G04 Gerber Fmt 4.6, Leading zero omitted, Abs format (unit mm)*
G04 Created by KiCad (PCBNEW 4.0.6-e0-6349~53~ubuntu16.04.1) date Wed Apr 19 22:32:26 2017*
%MOMM*%
%LPD*%
G01*
G04 APERTURE LIST*
%ADD10C,0.100000*%
%ADD11R,0.647600X0.647600*%
%ADD12R,1.297600X0.297600*%
%ADD13R,0.347600X0.447600*%
%ADD14R,0.447600X0.347600*%
%ADD15R,0.447600X0.247600*%
%ADD16R,0.247600X0.447600*%
G04 APERTURE END LIST*
D10*
D11*
X133947000Y-126103000D03*
X135547000Y-126103000D03*
X138722000Y-126103000D03*
X137122000Y-126103000D03*
D12*
X130050000Y-120550000D03*
X130050000Y-121200000D03*
X130050000Y-121850000D03*
X130050000Y-122500000D03*
X130050000Y-123150000D03*
X130050000Y-123800000D03*
X130050000Y-124450000D03*
X135950000Y-124450000D03*
X135950000Y-123800000D03*
X135950000Y-123150000D03*
X135950000Y-122500000D03*
X135950000Y-121850000D03*
X135950000Y-121200000D03*
X135950000Y-120550000D03*
D13*
X131214000Y-118935000D03*
X131214000Y-117835000D03*
D14*
X128312000Y-117848000D03*
X127212000Y-117848000D03*
D13*
X128270000Y-120092000D03*
X128270000Y-121192000D03*
X127254000Y-122906500D03*
X127254000Y-121806500D03*
X127254000Y-125065500D03*
X127254000Y-123965500D03*
D14*
X131169500Y-126103000D03*
X130069500Y-126103000D03*
D13*
X134493000Y-118906000D03*
X134493000Y-117806000D03*
D15*
X132232400Y-117914000D03*
X132232400Y-118814000D03*
X130200400Y-118814000D03*
X130200400Y-117914000D03*
D16*
X128085000Y-118864000D03*
X127185000Y-118864000D03*
D15*
X127254000Y-119938000D03*
X127254000Y-120838000D03*
X128270000Y-123124000D03*
X128270000Y-122224000D03*
X128270000Y-124902000D03*
X128270000Y-124002000D03*
X137668000Y-123505000D03*
X137668000Y-122605000D03*
X138684000Y-123505000D03*
X138684000Y-122605000D03*
D16*
X138626000Y-124452000D03*
X137726000Y-124452000D03*
D15*
X138684000Y-120827000D03*
X138684000Y-121727000D03*
X133477000Y-117906000D03*
X133477000Y-118806000D03*
X135509000Y-118806000D03*
X135509000Y-117906000D03*
X137668000Y-120827000D03*
X137668000Y-121727000D03*
X138684000Y-119049000D03*
X138684000Y-119949000D03*
X137668000Y-119049000D03*
X137668000Y-119949000D03*
M02*
