<?xml version="1.0" standalone="no"?>
 <!DOCTYPE svg PUBLIC "-//W3C//DTD SVG 1.1//EN" 
 "http://www.w3.org/Graphics/SVG/1.1/DTD/svg11.dtd"> 
<svg xmlns="http://www.w3.org/2000/svg" version="1.1" 
    width="29.7002cm" height="21.0007cm" viewBox="0 0 116930 82680 ">
<title>SVG Picture created as Vive_sensors_smd-F.Paste.svg date 2017/04/27 20:30:51 </title>
  <desc>Picture generated by PCBNEW </desc>
<g style="fill:#000000; fill-opacity:1;stroke:#000000; stroke-opacity:1;
stroke-linecap:round; stroke-linejoin:round; "
 transform="translate(0 0) scale(1 1)">
</g>
<g style="fill:#000000; fill-opacity:0.0; 
stroke:#000000; stroke-width:-0.000393701; stroke-opacity:1; 
stroke-linecap:round; stroke-linejoin:round;">
</g>
<g style="fill:#000000; fill-opacity:0.0; 
stroke:#000000; stroke-width:0; stroke-opacity:1; 
stroke-linecap:round; stroke-linejoin:round;">
</g>
<g style="fill:#000000; fill-opacity:1.0; 
stroke:#000000; stroke-width:0; stroke-opacity:1; 
stroke-linecap:round; stroke-linejoin:round;">
<polyline style="fill-rule:evenodd;"
points="52607,49774
52607,49519
52862,49519
52862,49774
52607,49774
" /> 
<polyline style="fill-rule:evenodd;"
points="53237,49774
53237,49519
53492,49519
53492,49774
53237,49774
" /> 
<polyline style="fill-rule:evenodd;"
points="54742,49519
54742,49774
54487,49774
54487,49519
54742,49519
" /> 
<polyline style="fill-rule:evenodd;"
points="54112,49519
54112,49774
53857,49774
53857,49519
54112,49519
" /> 
<polyline style="fill-rule:evenodd;"
points="50945,47519
50945,47402
51456,47402
51456,47519
50945,47519
" /> 
<polyline style="fill-rule:evenodd;"
points="50945,47775
50945,47657
51456,47657
51456,47775
50945,47775
" /> 
<polyline style="fill-rule:evenodd;"
points="50945,48031
50945,47913
51456,47913
51456,48031
50945,48031
" /> 
<polyline style="fill-rule:evenodd;"
points="50945,48286
50945,48169
51456,48169
51456,48286
50945,48286
" /> 
<polyline style="fill-rule:evenodd;"
points="50945,48542
50945,48425
51456,48425
51456,48542
50945,48542
" /> 
<polyline style="fill-rule:evenodd;"
points="50945,48798
50945,48681
51456,48681
51456,48798
50945,48798
" /> 
<polyline style="fill-rule:evenodd;"
points="50945,49054
50945,48937
51456,48937
51456,49054
50945,49054
" /> 
<polyline style="fill-rule:evenodd;"
points="53268,49054
53268,48937
53779,48937
53779,49054
53268,49054
" /> 
<polyline style="fill-rule:evenodd;"
points="53268,48798
53268,48681
53779,48681
53779,48798
53268,48798
" /> 
<polyline style="fill-rule:evenodd;"
points="53268,48542
53268,48425
53779,48425
53779,48542
53268,48542
" /> 
<polyline style="fill-rule:evenodd;"
points="53268,48286
53268,48169
53779,48169
53779,48286
53268,48286
" /> 
<polyline style="fill-rule:evenodd;"
points="53268,48031
53268,47913
53779,47913
53779,48031
53268,48031
" /> 
<polyline style="fill-rule:evenodd;"
points="53268,47775
53268,47657
53779,47657
53779,47775
53268,47775
" /> 
<polyline style="fill-rule:evenodd;"
points="53268,47519
53268,47402
53779,47402
53779,47519
53268,47519
" /> 
<polyline style="fill-rule:evenodd;"
points="51727,46912
51590,46912
51590,46736
51727,46736
51727,46912
" /> 
<polyline style="fill-rule:evenodd;"
points="51727,46479
51590,46479
51590,46303
51727,46303
51727,46479
" /> 
<polyline style="fill-rule:evenodd;"
points="50604,46328
50604,46465
50428,46465
50428,46328
50604,46328
" /> 
<polyline style="fill-rule:evenodd;"
points="50171,46328
50171,46465
49995,46465
49995,46328
50171,46328
" /> 
<polyline style="fill-rule:evenodd;"
points="50431,47192
50568,47192
50568,47368
50431,47368
50431,47192
" /> 
<polyline style="fill-rule:evenodd;"
points="50431,47625
50568,47625
50568,47801
50431,47801
50431,47625
" /> 
<polyline style="fill-rule:evenodd;"
points="50168,48476
50031,48476
50031,48300
50168,48300
50168,48476
" /> 
<polyline style="fill-rule:evenodd;"
points="50168,48043
50031,48043
50031,47867
50168,47867
50168,48043
" /> 
<polyline style="fill-rule:evenodd;"
points="50168,49326
50031,49326
50031,49150
50168,49150
50168,49326
" /> 
<polyline style="fill-rule:evenodd;"
points="50168,48893
50031,48893
50031,48717
50168,48717
50168,48893
" /> 
<polyline style="fill-rule:evenodd;"
points="51729,49578
51729,49715
51553,49715
51553,49578
51729,49578
" /> 
<polyline style="fill-rule:evenodd;"
points="51296,49578
51296,49715
51120,49715
51120,49578
51296,49578
" /> 
<polyline style="fill-rule:evenodd;"
points="53018,46901
52881,46901
52881,46725
53018,46725
53018,46901
" /> 
<polyline style="fill-rule:evenodd;"
points="53018,46468
52881,46468
52881,46292
53018,46292
53018,46468
" /> 
<polyline style="fill-rule:evenodd;"
points="51971,46374
52148,46374
52148,46471
51971,46471
51971,46374
" /> 
<polyline style="fill-rule:evenodd;"
points="51971,46728
52148,46728
52148,46825
51971,46825
51971,46728
" /> 
<polyline style="fill-rule:evenodd;"
points="51348,46825
51171,46825
51171,46728
51348,46728
51348,46825
" /> 
<polyline style="fill-rule:evenodd;"
points="51348,46471
51171,46471
51171,46374
51348,46374
51348,46471
" /> 
<polyline style="fill-rule:evenodd;"
points="50475,46708
50475,46884
50378,46884
50378,46708
50475,46708
" /> 
<polyline style="fill-rule:evenodd;"
points="50121,46708
50121,46884
50024,46884
50024,46708
50121,46708
" /> 
<polyline style="fill-rule:evenodd;"
points="50011,47170
50188,47170
50188,47268
50011,47268
50011,47170
" /> 
<polyline style="fill-rule:evenodd;"
points="50011,47525
50188,47525
50188,47622
50011,47622
50011,47525
" /> 
<polyline style="fill-rule:evenodd;"
points="50588,48522
50411,48522
50411,48425
50588,48425
50588,48522
" /> 
<polyline style="fill-rule:evenodd;"
points="50588,48168
50411,48168
50411,48070
50588,48070
50588,48168
" /> 
<polyline style="fill-rule:evenodd;"
points="50588,49222
50411,49222
50411,49125
50588,49125
50588,49222
" /> 
<polyline style="fill-rule:evenodd;"
points="50588,48868
50411,48868
50411,48770
50588,48770
50588,48868
" /> 
<polyline style="fill-rule:evenodd;"
points="54288,48672
54111,48672
54111,48575
54288,48575
54288,48672
" /> 
<polyline style="fill-rule:evenodd;"
points="54288,48318
54111,48318
54111,48220
54288,48220
54288,48318
" /> 
<polyline style="fill-rule:evenodd;"
points="54688,48672
54511,48672
54511,48575
54688,48575
54688,48672
" /> 
<polyline style="fill-rule:evenodd;"
points="54688,48318
54511,48318
54511,48220
54688,48220
54688,48318
" /> 
<polyline style="fill-rule:evenodd;"
points="54625,48908
54625,49084
54528,49084
54528,48908
54625,48908
" /> 
<polyline style="fill-rule:evenodd;"
points="54271,48908
54271,49084
54174,49084
54174,48908
54271,48908
" /> 
<polyline style="fill-rule:evenodd;"
points="54511,47520
54688,47520
54688,47618
54511,47618
54511,47520
" /> 
<polyline style="fill-rule:evenodd;"
points="54511,47875
54688,47875
54688,47972
54511,47972
54511,47875
" /> 
<polyline style="fill-rule:evenodd;"
points="52461,46370
52638,46370
52638,46468
52461,46468
52461,46370
" /> 
<polyline style="fill-rule:evenodd;"
points="52461,46725
52638,46725
52638,46822
52461,46822
52461,46725
" /> 
<polyline style="fill-rule:evenodd;"
points="53438,46822
53261,46822
53261,46725
53438,46725
53438,46822
" /> 
<polyline style="fill-rule:evenodd;"
points="53438,46468
53261,46468
53261,46370
53438,46370
53438,46468
" /> 
<polyline style="fill-rule:evenodd;"
points="54111,47520
54288,47520
54288,47618
54111,47618
54111,47520
" /> 
<polyline style="fill-rule:evenodd;"
points="54111,47875
54288,47875
54288,47972
54111,47972
54111,47875
" /> 
<polyline style="fill-rule:evenodd;"
points="54511,46820
54688,46820
54688,46918
54511,46918
54511,46820
" /> 
<polyline style="fill-rule:evenodd;"
points="54511,47175
54688,47175
54688,47272
54511,47272
54511,47175
" /> 
<polyline style="fill-rule:evenodd;"
points="54111,46820
54288,46820
54288,46918
54111,46918
54111,46820
" /> 
<polyline style="fill-rule:evenodd;"
points="54111,47175
54288,47175
54288,47272
54111,47272
54111,47175
" /> 
</g> 
</svg>
