G04 #@! TF.FileFunction,Legend,Top*
%FSLAX46Y46*%
G04 Gerber Fmt 4.6, Leading zero omitted, Abs format (unit mm)*
G04 Created by KiCad (PCBNEW 4.0.6-e0-6349~53~ubuntu16.04.1) date Wed Apr 19 22:32:26 2017*
%MOMM*%
%LPD*%
G01*
G04 APERTURE LIST*
%ADD10C,0.100000*%
%ADD11C,0.200000*%
%ADD12C,0.120000*%
%ADD13C,0.150000*%
%ADD14C,0.127000*%
G04 APERTURE END LIST*
D10*
D11*
X134493000Y-116586000D02*
X134493000Y-116967000D01*
X136271000Y-116586000D02*
X134493000Y-116586000D01*
D12*
X136047000Y-126603000D02*
X136047000Y-125603000D01*
X136047000Y-125603000D02*
X133947000Y-125603000D01*
X136047000Y-126603000D02*
X133947000Y-126603000D01*
X136622000Y-125603000D02*
X136622000Y-126603000D01*
X136622000Y-126603000D02*
X138722000Y-126603000D01*
X136622000Y-125603000D02*
X138722000Y-125603000D01*
D13*
X130675000Y-119875000D02*
X130675000Y-120000000D01*
X135325000Y-119875000D02*
X135325000Y-120100000D01*
X135325000Y-125125000D02*
X135325000Y-124900000D01*
X130675000Y-125125000D02*
X130675000Y-124900000D01*
X130675000Y-119875000D02*
X135325000Y-119875000D01*
X130675000Y-125125000D02*
X135325000Y-125125000D01*
X130675000Y-120000000D02*
X129325000Y-120000000D01*
D14*
X132283805Y-126375281D02*
X132283805Y-125791081D01*
X132422900Y-125791081D01*
X132506358Y-125818900D01*
X132561996Y-125874538D01*
X132589815Y-125930176D01*
X132617634Y-126041452D01*
X132617634Y-126124910D01*
X132589815Y-126236186D01*
X132561996Y-126291824D01*
X132506358Y-126347462D01*
X132422900Y-126375281D01*
X132283805Y-126375281D01*
X133174015Y-126375281D02*
X132840186Y-126375281D01*
X133007100Y-126375281D02*
X133007100Y-125791081D01*
X132951462Y-125874538D01*
X132895824Y-125930176D01*
X132840186Y-125957995D01*
X139649805Y-126375281D02*
X139649805Y-125791081D01*
X139788900Y-125791081D01*
X139872358Y-125818900D01*
X139927996Y-125874538D01*
X139955815Y-125930176D01*
X139983634Y-126041452D01*
X139983634Y-126124910D01*
X139955815Y-126236186D01*
X139927996Y-126291824D01*
X139872358Y-126347462D01*
X139788900Y-126375281D01*
X139649805Y-126375281D01*
X140178367Y-125791081D02*
X140540015Y-125791081D01*
X140345281Y-126013633D01*
X140428739Y-126013633D01*
X140484377Y-126041452D01*
X140512196Y-126069271D01*
X140540015Y-126124910D01*
X140540015Y-126264005D01*
X140512196Y-126319643D01*
X140484377Y-126347462D01*
X140428739Y-126375281D01*
X140261824Y-126375281D01*
X140206186Y-126347462D01*
X140178367Y-126319643D01*
X132650895Y-122235081D02*
X132650895Y-122708005D01*
X132678714Y-122763643D01*
X132706533Y-122791462D01*
X132762171Y-122819281D01*
X132873448Y-122819281D01*
X132929086Y-122791462D01*
X132956905Y-122763643D01*
X132984724Y-122708005D01*
X132984724Y-122235081D01*
X133568924Y-122819281D02*
X133235095Y-122819281D01*
X133402009Y-122819281D02*
X133402009Y-122235081D01*
X133346371Y-122318538D01*
X133290733Y-122374176D01*
X133235095Y-122401995D01*
X131399643Y-116810366D02*
X131427462Y-116838185D01*
X131455281Y-116921642D01*
X131455281Y-116977280D01*
X131427462Y-117060738D01*
X131371824Y-117116376D01*
X131316186Y-117144195D01*
X131204910Y-117172014D01*
X131121452Y-117172014D01*
X131010176Y-117144195D01*
X130954538Y-117116376D01*
X130898900Y-117060738D01*
X130871081Y-116977280D01*
X130871081Y-116921642D01*
X130898900Y-116838185D01*
X130926719Y-116810366D01*
X130926719Y-116587814D02*
X130898900Y-116559995D01*
X130871081Y-116504357D01*
X130871081Y-116365261D01*
X130898900Y-116309623D01*
X130926719Y-116281804D01*
X130982357Y-116253985D01*
X131037995Y-116253985D01*
X131121452Y-116281804D01*
X131455281Y-116615633D01*
X131455281Y-116253985D01*
X125886634Y-118064643D02*
X125858815Y-118092462D01*
X125775358Y-118120281D01*
X125719720Y-118120281D01*
X125636262Y-118092462D01*
X125580624Y-118036824D01*
X125552805Y-117981186D01*
X125524986Y-117869910D01*
X125524986Y-117786452D01*
X125552805Y-117675176D01*
X125580624Y-117619538D01*
X125636262Y-117563900D01*
X125719720Y-117536081D01*
X125775358Y-117536081D01*
X125858815Y-117563900D01*
X125886634Y-117591719D01*
X126081367Y-117536081D02*
X126443015Y-117536081D01*
X126248281Y-117758633D01*
X126331739Y-117758633D01*
X126387377Y-117786452D01*
X126415196Y-117814271D01*
X126443015Y-117869910D01*
X126443015Y-118009005D01*
X126415196Y-118064643D01*
X126387377Y-118092462D01*
X126331739Y-118120281D01*
X126164824Y-118120281D01*
X126109186Y-118092462D01*
X126081367Y-118064643D01*
X126446643Y-120493366D02*
X126474462Y-120521185D01*
X126502281Y-120604642D01*
X126502281Y-120660280D01*
X126474462Y-120743738D01*
X126418824Y-120799376D01*
X126363186Y-120827195D01*
X126251910Y-120855014D01*
X126168452Y-120855014D01*
X126057176Y-120827195D01*
X126001538Y-120799376D01*
X125945900Y-120743738D01*
X125918081Y-120660280D01*
X125918081Y-120604642D01*
X125945900Y-120521185D01*
X125973719Y-120493366D01*
X126112814Y-119992623D02*
X126502281Y-119992623D01*
X125890262Y-120131719D02*
X126307548Y-120270814D01*
X126307548Y-119909166D01*
X125684643Y-122398366D02*
X125712462Y-122426185D01*
X125740281Y-122509642D01*
X125740281Y-122565280D01*
X125712462Y-122648738D01*
X125656824Y-122704376D01*
X125601186Y-122732195D01*
X125489910Y-122760014D01*
X125406452Y-122760014D01*
X125295176Y-122732195D01*
X125239538Y-122704376D01*
X125183900Y-122648738D01*
X125156081Y-122565280D01*
X125156081Y-122509642D01*
X125183900Y-122426185D01*
X125211719Y-122398366D01*
X125156081Y-121897623D02*
X125156081Y-122008900D01*
X125183900Y-122064538D01*
X125211719Y-122092357D01*
X125295176Y-122147995D01*
X125406452Y-122175814D01*
X125629005Y-122175814D01*
X125684643Y-122147995D01*
X125712462Y-122120176D01*
X125740281Y-122064538D01*
X125740281Y-121953261D01*
X125712462Y-121897623D01*
X125684643Y-121869804D01*
X125629005Y-121841985D01*
X125489910Y-121841985D01*
X125434271Y-121869804D01*
X125406452Y-121897623D01*
X125378633Y-121953261D01*
X125378633Y-122064538D01*
X125406452Y-122120176D01*
X125434271Y-122147995D01*
X125489910Y-122175814D01*
X125684643Y-124557366D02*
X125712462Y-124585185D01*
X125740281Y-124668642D01*
X125740281Y-124724280D01*
X125712462Y-124807738D01*
X125656824Y-124863376D01*
X125601186Y-124891195D01*
X125489910Y-124919014D01*
X125406452Y-124919014D01*
X125295176Y-124891195D01*
X125239538Y-124863376D01*
X125183900Y-124807738D01*
X125156081Y-124724280D01*
X125156081Y-124668642D01*
X125183900Y-124585185D01*
X125211719Y-124557366D01*
X125156081Y-124362633D02*
X125156081Y-123973166D01*
X125740281Y-124223538D01*
X130585634Y-127208643D02*
X130557815Y-127236462D01*
X130474358Y-127264281D01*
X130418720Y-127264281D01*
X130335262Y-127236462D01*
X130279624Y-127180824D01*
X130251805Y-127125186D01*
X130223986Y-127013910D01*
X130223986Y-126930452D01*
X130251805Y-126819176D01*
X130279624Y-126763538D01*
X130335262Y-126707900D01*
X130418720Y-126680081D01*
X130474358Y-126680081D01*
X130557815Y-126707900D01*
X130585634Y-126735719D01*
X130863824Y-127264281D02*
X130975100Y-127264281D01*
X131030739Y-127236462D01*
X131058558Y-127208643D01*
X131114196Y-127125186D01*
X131142015Y-127013910D01*
X131142015Y-126791357D01*
X131114196Y-126735719D01*
X131086377Y-126707900D01*
X131030739Y-126680081D01*
X130919462Y-126680081D01*
X130863824Y-126707900D01*
X130836005Y-126735719D01*
X130808186Y-126791357D01*
X130808186Y-126930452D01*
X130836005Y-126986090D01*
X130863824Y-127013910D01*
X130919462Y-127041729D01*
X131030739Y-127041729D01*
X131086377Y-127013910D01*
X131114196Y-126986090D01*
X131142015Y-126930452D01*
X138130643Y-117342557D02*
X138158462Y-117370376D01*
X138186281Y-117453833D01*
X138186281Y-117509471D01*
X138158462Y-117592929D01*
X138102824Y-117648567D01*
X138047186Y-117676386D01*
X137935910Y-117704205D01*
X137852452Y-117704205D01*
X137741176Y-117676386D01*
X137685538Y-117648567D01*
X137629900Y-117592929D01*
X137602081Y-117509471D01*
X137602081Y-117453833D01*
X137629900Y-117370376D01*
X137657719Y-117342557D01*
X138186281Y-116786176D02*
X138186281Y-117120005D01*
X138186281Y-116953091D02*
X137602081Y-116953091D01*
X137685538Y-117008729D01*
X137741176Y-117064367D01*
X137768995Y-117120005D01*
X137602081Y-116424529D02*
X137602081Y-116368890D01*
X137629900Y-116313252D01*
X137657719Y-116285433D01*
X137713357Y-116257614D01*
X137824633Y-116229795D01*
X137963729Y-116229795D01*
X138075005Y-116257614D01*
X138130643Y-116285433D01*
X138158462Y-116313252D01*
X138186281Y-116368890D01*
X138186281Y-116424529D01*
X138158462Y-116480167D01*
X138130643Y-116507986D01*
X138075005Y-116535805D01*
X137963729Y-116563624D01*
X137824633Y-116563624D01*
X137713357Y-116535805D01*
X137657719Y-116507986D01*
X137629900Y-116480167D01*
X137602081Y-116424529D01*
X132471281Y-116937366D02*
X132193090Y-117132100D01*
X132471281Y-117271195D02*
X131887081Y-117271195D01*
X131887081Y-117048642D01*
X131914900Y-116993004D01*
X131942719Y-116965185D01*
X131998357Y-116937366D01*
X132081814Y-116937366D01*
X132137452Y-116965185D01*
X132165271Y-116993004D01*
X132193090Y-117048642D01*
X132193090Y-117271195D01*
X132081814Y-116436623D02*
X132471281Y-116436623D01*
X131859262Y-116575719D02*
X132276548Y-116714814D01*
X132276548Y-116353166D01*
X130439281Y-116937366D02*
X130161090Y-117132100D01*
X130439281Y-117271195D02*
X129855081Y-117271195D01*
X129855081Y-117048642D01*
X129882900Y-116993004D01*
X129910719Y-116965185D01*
X129966357Y-116937366D01*
X130049814Y-116937366D01*
X130105452Y-116965185D01*
X130133271Y-116993004D01*
X130161090Y-117048642D01*
X130161090Y-117271195D01*
X129855081Y-116408804D02*
X129855081Y-116686995D01*
X130133271Y-116714814D01*
X130105452Y-116686995D01*
X130077633Y-116631357D01*
X130077633Y-116492261D01*
X130105452Y-116436623D01*
X130133271Y-116408804D01*
X130188910Y-116380985D01*
X130328005Y-116380985D01*
X130383643Y-116408804D01*
X130411462Y-116436623D01*
X130439281Y-116492261D01*
X130439281Y-116631357D01*
X130411462Y-116686995D01*
X130383643Y-116714814D01*
X125886634Y-119136281D02*
X125691900Y-118858090D01*
X125552805Y-119136281D02*
X125552805Y-118552081D01*
X125775358Y-118552081D01*
X125830996Y-118579900D01*
X125858815Y-118607719D01*
X125886634Y-118663357D01*
X125886634Y-118746814D01*
X125858815Y-118802452D01*
X125830996Y-118830271D01*
X125775358Y-118858090D01*
X125552805Y-118858090D01*
X126387377Y-118552081D02*
X126276100Y-118552081D01*
X126220462Y-118579900D01*
X126192643Y-118607719D01*
X126137005Y-118691176D01*
X126109186Y-118802452D01*
X126109186Y-119025005D01*
X126137005Y-119080643D01*
X126164824Y-119108462D01*
X126220462Y-119136281D01*
X126331739Y-119136281D01*
X126387377Y-119108462D01*
X126415196Y-119080643D01*
X126443015Y-119025005D01*
X126443015Y-118885910D01*
X126415196Y-118830271D01*
X126387377Y-118802452D01*
X126331739Y-118774633D01*
X126220462Y-118774633D01*
X126164824Y-118802452D01*
X126137005Y-118830271D01*
X126109186Y-118885910D01*
X125740281Y-120493366D02*
X125462090Y-120688100D01*
X125740281Y-120827195D02*
X125156081Y-120827195D01*
X125156081Y-120604642D01*
X125183900Y-120549004D01*
X125211719Y-120521185D01*
X125267357Y-120493366D01*
X125350814Y-120493366D01*
X125406452Y-120521185D01*
X125434271Y-120549004D01*
X125462090Y-120604642D01*
X125462090Y-120827195D01*
X125156081Y-120298633D02*
X125156081Y-119909166D01*
X125740281Y-120159538D01*
X126502281Y-122652366D02*
X126224090Y-122847100D01*
X126502281Y-122986195D02*
X125918081Y-122986195D01*
X125918081Y-122763642D01*
X125945900Y-122708004D01*
X125973719Y-122680185D01*
X126029357Y-122652366D01*
X126112814Y-122652366D01*
X126168452Y-122680185D01*
X126196271Y-122708004D01*
X126224090Y-122763642D01*
X126224090Y-122986195D01*
X126168452Y-122318538D02*
X126140633Y-122374176D01*
X126112814Y-122401995D01*
X126057176Y-122429814D01*
X126029357Y-122429814D01*
X125973719Y-122401995D01*
X125945900Y-122374176D01*
X125918081Y-122318538D01*
X125918081Y-122207261D01*
X125945900Y-122151623D01*
X125973719Y-122123804D01*
X126029357Y-122095985D01*
X126057176Y-122095985D01*
X126112814Y-122123804D01*
X126140633Y-122151623D01*
X126168452Y-122207261D01*
X126168452Y-122318538D01*
X126196271Y-122374176D01*
X126224090Y-122401995D01*
X126279729Y-122429814D01*
X126391005Y-122429814D01*
X126446643Y-122401995D01*
X126474462Y-122374176D01*
X126502281Y-122318538D01*
X126502281Y-122207261D01*
X126474462Y-122151623D01*
X126446643Y-122123804D01*
X126391005Y-122095985D01*
X126279729Y-122095985D01*
X126224090Y-122123804D01*
X126196271Y-122151623D01*
X126168452Y-122207261D01*
X126502281Y-124557366D02*
X126224090Y-124752100D01*
X126502281Y-124891195D02*
X125918081Y-124891195D01*
X125918081Y-124668642D01*
X125945900Y-124613004D01*
X125973719Y-124585185D01*
X126029357Y-124557366D01*
X126112814Y-124557366D01*
X126168452Y-124585185D01*
X126196271Y-124613004D01*
X126224090Y-124668642D01*
X126224090Y-124891195D01*
X126502281Y-124279176D02*
X126502281Y-124167900D01*
X126474462Y-124112261D01*
X126446643Y-124084442D01*
X126363186Y-124028804D01*
X126251910Y-124000985D01*
X126029357Y-124000985D01*
X125973719Y-124028804D01*
X125945900Y-124056623D01*
X125918081Y-124112261D01*
X125918081Y-124223538D01*
X125945900Y-124279176D01*
X125973719Y-124306995D01*
X126029357Y-124334814D01*
X126168452Y-124334814D01*
X126224090Y-124306995D01*
X126251910Y-124279176D01*
X126279729Y-124223538D01*
X126279729Y-124112261D01*
X126251910Y-124056623D01*
X126224090Y-124028804D01*
X126168452Y-124000985D01*
X139837281Y-123438557D02*
X139559090Y-123633291D01*
X139837281Y-123772386D02*
X139253081Y-123772386D01*
X139253081Y-123549833D01*
X139280900Y-123494195D01*
X139308719Y-123466376D01*
X139364357Y-123438557D01*
X139447814Y-123438557D01*
X139503452Y-123466376D01*
X139531271Y-123494195D01*
X139559090Y-123549833D01*
X139559090Y-123772386D01*
X139837281Y-122882176D02*
X139837281Y-123216005D01*
X139837281Y-123049091D02*
X139253081Y-123049091D01*
X139336538Y-123104729D01*
X139392176Y-123160367D01*
X139419995Y-123216005D01*
X139253081Y-122520529D02*
X139253081Y-122464890D01*
X139280900Y-122409252D01*
X139308719Y-122381433D01*
X139364357Y-122353614D01*
X139475633Y-122325795D01*
X139614729Y-122325795D01*
X139726005Y-122353614D01*
X139781643Y-122381433D01*
X139809462Y-122409252D01*
X139837281Y-122464890D01*
X139837281Y-122520529D01*
X139809462Y-122576167D01*
X139781643Y-122603986D01*
X139726005Y-122631805D01*
X139614729Y-122659624D01*
X139475633Y-122659624D01*
X139364357Y-122631805D01*
X139308719Y-122603986D01*
X139280900Y-122576167D01*
X139253081Y-122520529D01*
X140726281Y-123438557D02*
X140448090Y-123633291D01*
X140726281Y-123772386D02*
X140142081Y-123772386D01*
X140142081Y-123549833D01*
X140169900Y-123494195D01*
X140197719Y-123466376D01*
X140253357Y-123438557D01*
X140336814Y-123438557D01*
X140392452Y-123466376D01*
X140420271Y-123494195D01*
X140448090Y-123549833D01*
X140448090Y-123772386D01*
X140726281Y-122882176D02*
X140726281Y-123216005D01*
X140726281Y-123049091D02*
X140142081Y-123049091D01*
X140225538Y-123104729D01*
X140281176Y-123160367D01*
X140308995Y-123216005D01*
X140726281Y-122325795D02*
X140726281Y-122659624D01*
X140726281Y-122492710D02*
X140142081Y-122492710D01*
X140225538Y-122548348D01*
X140281176Y-122603986D01*
X140308995Y-122659624D01*
X139578443Y-124724281D02*
X139383709Y-124446090D01*
X139244614Y-124724281D02*
X139244614Y-124140081D01*
X139467167Y-124140081D01*
X139522805Y-124167900D01*
X139550624Y-124195719D01*
X139578443Y-124251357D01*
X139578443Y-124334814D01*
X139550624Y-124390452D01*
X139522805Y-124418271D01*
X139467167Y-124446090D01*
X139244614Y-124446090D01*
X140134824Y-124724281D02*
X139800995Y-124724281D01*
X139967909Y-124724281D02*
X139967909Y-124140081D01*
X139912271Y-124223538D01*
X139856633Y-124279176D01*
X139800995Y-124306995D01*
X140357376Y-124195719D02*
X140385195Y-124167900D01*
X140440833Y-124140081D01*
X140579929Y-124140081D01*
X140635567Y-124167900D01*
X140663386Y-124195719D01*
X140691205Y-124251357D01*
X140691205Y-124306995D01*
X140663386Y-124390452D01*
X140329557Y-124724281D01*
X140691205Y-124724281D01*
X140726281Y-121660557D02*
X140448090Y-121855291D01*
X140726281Y-121994386D02*
X140142081Y-121994386D01*
X140142081Y-121771833D01*
X140169900Y-121716195D01*
X140197719Y-121688376D01*
X140253357Y-121660557D01*
X140336814Y-121660557D01*
X140392452Y-121688376D01*
X140420271Y-121716195D01*
X140448090Y-121771833D01*
X140448090Y-121994386D01*
X140726281Y-121104176D02*
X140726281Y-121438005D01*
X140726281Y-121271091D02*
X140142081Y-121271091D01*
X140225538Y-121326729D01*
X140281176Y-121382367D01*
X140308995Y-121438005D01*
X140142081Y-120909443D02*
X140142081Y-120547795D01*
X140364633Y-120742529D01*
X140364633Y-120659071D01*
X140392452Y-120603433D01*
X140420271Y-120575614D01*
X140475910Y-120547795D01*
X140615005Y-120547795D01*
X140670643Y-120575614D01*
X140698462Y-120603433D01*
X140726281Y-120659071D01*
X140726281Y-120825986D01*
X140698462Y-120881624D01*
X140670643Y-120909443D01*
X137297281Y-117342557D02*
X137019090Y-117537291D01*
X137297281Y-117676386D02*
X136713081Y-117676386D01*
X136713081Y-117453833D01*
X136740900Y-117398195D01*
X136768719Y-117370376D01*
X136824357Y-117342557D01*
X136907814Y-117342557D01*
X136963452Y-117370376D01*
X136991271Y-117398195D01*
X137019090Y-117453833D01*
X137019090Y-117676386D01*
X137297281Y-116786176D02*
X137297281Y-117120005D01*
X137297281Y-116953091D02*
X136713081Y-116953091D01*
X136796538Y-117008729D01*
X136852176Y-117064367D01*
X136879995Y-117120005D01*
X136907814Y-116285433D02*
X137297281Y-116285433D01*
X136685262Y-116424529D02*
X137102548Y-116563624D01*
X137102548Y-116201976D01*
X139075281Y-117342557D02*
X138797090Y-117537291D01*
X139075281Y-117676386D02*
X138491081Y-117676386D01*
X138491081Y-117453833D01*
X138518900Y-117398195D01*
X138546719Y-117370376D01*
X138602357Y-117342557D01*
X138685814Y-117342557D01*
X138741452Y-117370376D01*
X138769271Y-117398195D01*
X138797090Y-117453833D01*
X138797090Y-117676386D01*
X139075281Y-116786176D02*
X139075281Y-117120005D01*
X139075281Y-116953091D02*
X138491081Y-116953091D01*
X138574538Y-117008729D01*
X138630176Y-117064367D01*
X138657995Y-117120005D01*
X138491081Y-116257614D02*
X138491081Y-116535805D01*
X138769271Y-116563624D01*
X138741452Y-116535805D01*
X138713633Y-116480167D01*
X138713633Y-116341071D01*
X138741452Y-116285433D01*
X138769271Y-116257614D01*
X138824910Y-116229795D01*
X138964005Y-116229795D01*
X139019643Y-116257614D01*
X139047462Y-116285433D01*
X139075281Y-116341071D01*
X139075281Y-116480167D01*
X139047462Y-116535805D01*
X139019643Y-116563624D01*
X139837281Y-121660557D02*
X139559090Y-121855291D01*
X139837281Y-121994386D02*
X139253081Y-121994386D01*
X139253081Y-121771833D01*
X139280900Y-121716195D01*
X139308719Y-121688376D01*
X139364357Y-121660557D01*
X139447814Y-121660557D01*
X139503452Y-121688376D01*
X139531271Y-121716195D01*
X139559090Y-121771833D01*
X139559090Y-121994386D01*
X139837281Y-121104176D02*
X139837281Y-121438005D01*
X139837281Y-121271091D02*
X139253081Y-121271091D01*
X139336538Y-121326729D01*
X139392176Y-121382367D01*
X139419995Y-121438005D01*
X139253081Y-120603433D02*
X139253081Y-120714710D01*
X139280900Y-120770348D01*
X139308719Y-120798167D01*
X139392176Y-120853805D01*
X139503452Y-120881624D01*
X139726005Y-120881624D01*
X139781643Y-120853805D01*
X139809462Y-120825986D01*
X139837281Y-120770348D01*
X139837281Y-120659071D01*
X139809462Y-120603433D01*
X139781643Y-120575614D01*
X139726005Y-120547795D01*
X139586910Y-120547795D01*
X139531271Y-120575614D01*
X139503452Y-120603433D01*
X139475633Y-120659071D01*
X139475633Y-120770348D01*
X139503452Y-120825986D01*
X139531271Y-120853805D01*
X139586910Y-120881624D01*
X140726281Y-119882557D02*
X140448090Y-120077291D01*
X140726281Y-120216386D02*
X140142081Y-120216386D01*
X140142081Y-119993833D01*
X140169900Y-119938195D01*
X140197719Y-119910376D01*
X140253357Y-119882557D01*
X140336814Y-119882557D01*
X140392452Y-119910376D01*
X140420271Y-119938195D01*
X140448090Y-119993833D01*
X140448090Y-120216386D01*
X140726281Y-119326176D02*
X140726281Y-119660005D01*
X140726281Y-119493091D02*
X140142081Y-119493091D01*
X140225538Y-119548729D01*
X140281176Y-119604367D01*
X140308995Y-119660005D01*
X140142081Y-119131443D02*
X140142081Y-118741976D01*
X140726281Y-118992348D01*
X139837281Y-119882557D02*
X139559090Y-120077291D01*
X139837281Y-120216386D02*
X139253081Y-120216386D01*
X139253081Y-119993833D01*
X139280900Y-119938195D01*
X139308719Y-119910376D01*
X139364357Y-119882557D01*
X139447814Y-119882557D01*
X139503452Y-119910376D01*
X139531271Y-119938195D01*
X139559090Y-119993833D01*
X139559090Y-120216386D01*
X139837281Y-119326176D02*
X139837281Y-119660005D01*
X139837281Y-119493091D02*
X139253081Y-119493091D01*
X139336538Y-119548729D01*
X139392176Y-119604367D01*
X139419995Y-119660005D01*
X139503452Y-118992348D02*
X139475633Y-119047986D01*
X139447814Y-119075805D01*
X139392176Y-119103624D01*
X139364357Y-119103624D01*
X139308719Y-119075805D01*
X139280900Y-119047986D01*
X139253081Y-118992348D01*
X139253081Y-118881071D01*
X139280900Y-118825433D01*
X139308719Y-118797614D01*
X139364357Y-118769795D01*
X139392176Y-118769795D01*
X139447814Y-118797614D01*
X139475633Y-118825433D01*
X139503452Y-118881071D01*
X139503452Y-118992348D01*
X139531271Y-119047986D01*
X139559090Y-119075805D01*
X139614729Y-119103624D01*
X139726005Y-119103624D01*
X139781643Y-119075805D01*
X139809462Y-119047986D01*
X139837281Y-118992348D01*
X139837281Y-118881071D01*
X139809462Y-118825433D01*
X139781643Y-118797614D01*
X139726005Y-118769795D01*
X139614729Y-118769795D01*
X139559090Y-118797614D01*
X139531271Y-118825433D01*
X139503452Y-118881071D01*
M02*
