<?xml version="1.0" standalone="no"?>
 <!DOCTYPE svg PUBLIC "-//W3C//DTD SVG 1.1//EN" 
 "http://www.w3.org/Graphics/SVG/1.1/DTD/svg11.dtd"> 
<svg xmlns="http://www.w3.org/2000/svg" version="1.1" 
    width="29.7002cm" height="21.0007cm" viewBox="0 0 116930 82680 ">
<title>SVG Picture created as Vive_sensors_smd-B.Paste.svg date 2017/04/27 20:30:51 </title>
  <desc>Picture generated by PCBNEW </desc>
<g style="fill:#000000; fill-opacity:1;stroke:#000000; stroke-opacity:1;
stroke-linecap:round; stroke-linejoin:round; "
 transform="translate(0 0) scale(1 1)">
</g>
<g style="fill:#000000; fill-opacity:0.0; 
stroke:#000000; stroke-width:-0.000393701; stroke-opacity:1; 
stroke-linecap:round; stroke-linejoin:round;">
</g>
<g style="fill:#000000; fill-opacity:0.0; 
stroke:#000000; stroke-width:0; stroke-opacity:1; 
stroke-linecap:round; stroke-linejoin:round;">
</g>
<g style="fill:#000000; fill-opacity:1.0; 
stroke:#000000; stroke-width:0; stroke-opacity:1; 
stroke-linecap:round; stroke-linejoin:round;">
<polyline style="fill-rule:evenodd;"
points="50863,48749
50136,48749
50136,47943
50863,47943
50863,48749
" /> 
<polyline style="fill-rule:evenodd;"
points="50863,46749
50136,46749
50136,45943
50863,45943
50863,46749
" /> 
<polyline style="fill-rule:evenodd;"
points="52218,46804
52081,46804
52081,46628
52218,46628
52218,46804
" /> 
<polyline style="fill-rule:evenodd;"
points="52218,46371
52081,46371
52081,46195
52218,46195
52218,46371
" /> 
<polyline style="fill-rule:evenodd;"
points="53431,48067
53568,48067
53568,48243
53431,48243
53431,48067
" /> 
<polyline style="fill-rule:evenodd;"
points="53431,48500
53568,48500
53568,48676
53431,48676
53431,48500
" /> 
<polyline style="fill-rule:evenodd;"
points="53031,48067
53168,48067
53168,48243
53031,48243
53031,48067
" /> 
<polyline style="fill-rule:evenodd;"
points="53031,48500
53168,48500
53168,48676
53031,48676
53031,48500
" /> 
<polyline style="fill-rule:evenodd;"
points="52461,46274
52638,46274
52638,46371
52461,46371
52461,46274
" /> 
<polyline style="fill-rule:evenodd;"
points="52461,46628
52638,46628
52638,46725
52461,46725
52461,46628
" /> 
<polyline style="fill-rule:evenodd;"
points="51838,46725
51661,46725
51661,46628
51838,46628
51838,46725
" /> 
<polyline style="fill-rule:evenodd;"
points="51838,46371
51661,46371
51661,46274
51838,46274
51838,46371
" /> 
<polyline style="fill-rule:evenodd;"
points="53411,48945
53588,48945
53588,49043
53411,49043
53411,48945
" /> 
<polyline style="fill-rule:evenodd;"
points="53411,49300
53588,49300
53588,49397
53411,49397
53411,49300
" /> 
<polyline style="fill-rule:evenodd;"
points="53588,47047
53411,47047
53411,46950
53588,46950
53588,47047
" /> 
<polyline style="fill-rule:evenodd;"
points="53588,46693
53411,46693
53411,46595
53588,46595
53588,46693
" /> 
<polyline style="fill-rule:evenodd;"
points="53588,47747
53411,47747
53411,47650
53588,47650
53588,47747
" /> 
<polyline style="fill-rule:evenodd;"
points="53588,47393
53411,47393
53411,47295
53588,47295
53588,47393
" /> 
</g> 
</svg>
