M48
;DRILL file {KiCad 4.0.6-e0-6349~53~ubuntu16.04.1} date Sat Mar 11 21:42:11 2017
;FORMAT={-:-/ absolute / metric / decimal}
FMAT,2
METRIC,TZ
T1C0.700
T2C0.800
T3C0.800
%
G90
G05
M71
T1
X16.51Y-28.321
X16.51Y-33.401
X16.51Y-58.085
X16.51Y-63.165
X16.51Y-87.871
X16.51Y-92.951
X56.769Y-28.321
X56.769Y-33.401
X56.769Y-58.085
X56.769Y-63.165
X56.769Y-87.871
X56.769Y-92.951
X97.025Y-28.321
X97.025Y-33.401
X97.025Y-58.085
X97.025Y-63.165
X97.025Y-87.871
X97.025Y-92.951
X137.282Y-28.321
X137.282Y-33.401
X137.282Y-58.085
X137.282Y-63.165
X137.282Y-87.871
X137.282Y-92.951
T2
X15.875Y-17.185
X15.875Y-19.685
X15.875Y-22.606
X15.875Y-25.146
X15.875Y-46.949
X15.875Y-49.449
X15.875Y-52.37
X15.875Y-54.91
X15.875Y-76.735
X15.875Y-79.235
X15.875Y-82.156
X15.875Y-84.696
X19.685Y-19.812
X19.685Y-23.114
X19.685Y-25.654
X19.685Y-49.576
X19.685Y-52.878
X19.685Y-55.418
X19.685Y-79.362
X19.685Y-82.664
X19.685Y-85.204
X20.828Y-28.829
X20.828Y-31.329
X20.828Y-58.593
X20.828Y-61.093
X20.828Y-88.379
X20.828Y-90.879
X22.225Y-19.812
X22.225Y-49.576
X22.225Y-79.362
X22.86Y-35.306
X22.86Y-37.846
X22.86Y-65.07
X22.86Y-67.61
X22.86Y-94.856
X22.86Y-97.396
X23.114Y-23.114
X23.114Y-25.654
X23.114Y-52.878
X23.114Y-55.418
X23.114Y-82.664
X23.114Y-85.204
X24.257Y-28.956
X24.257Y-32.385
X24.257Y-58.72
X24.257Y-62.149
X24.257Y-88.506
X24.257Y-91.935
X25.527Y-16.51
X25.527Y-46.274
X25.527Y-76.06
X25.654Y-19.812
X25.654Y-49.576
X25.654Y-79.362
X26.757Y-28.956
X26.757Y-58.72
X26.757Y-88.506
X26.797Y-22.606
X26.797Y-25.146
X26.797Y-32.385
X26.797Y-35.179
X26.797Y-37.719
X26.797Y-52.37
X26.797Y-54.91
X26.797Y-62.149
X26.797Y-64.943
X26.797Y-67.483
X26.797Y-82.156
X26.797Y-84.696
X26.797Y-91.935
X26.797Y-94.729
X26.797Y-97.269
X28.027Y-16.51
X28.027Y-46.274
X28.027Y-76.06
X28.194Y-19.812
X28.194Y-49.576
X28.194Y-79.362
X30.099Y-22.733
X30.099Y-25.273
X30.099Y-27.813
X30.099Y-30.353
X30.099Y-32.893
X30.099Y-35.433
X30.099Y-37.973
X30.099Y-52.497
X30.099Y-55.037
X30.099Y-57.577
X30.099Y-60.117
X30.099Y-62.657
X30.099Y-65.197
X30.099Y-67.737
X30.099Y-82.283
X30.099Y-84.823
X30.099Y-87.363
X30.099Y-89.903
X30.099Y-92.443
X30.099Y-94.983
X30.099Y-97.523
X32.766Y-16.764
X32.766Y-19.264
X32.766Y-46.528
X32.766Y-49.028
X32.766Y-76.314
X32.766Y-78.814
X36.576Y-19.304
X36.576Y-49.068
X36.576Y-78.854
X37.719Y-22.733
X37.719Y-25.273
X37.719Y-27.813
X37.719Y-30.353
X37.719Y-32.893
X37.719Y-35.433
X37.719Y-37.973
X37.719Y-52.497
X37.719Y-55.037
X37.719Y-57.577
X37.719Y-60.117
X37.719Y-62.657
X37.719Y-65.197
X37.719Y-67.737
X37.719Y-82.283
X37.719Y-84.823
X37.719Y-87.363
X37.719Y-89.903
X37.719Y-92.443
X37.719Y-94.983
X37.719Y-97.523
X39.116Y-19.304
X39.116Y-49.068
X39.116Y-78.854
X40.386Y-24.384
X40.386Y-54.148
X40.386Y-83.934
X40.894Y-27.305
X40.894Y-29.845
X40.894Y-32.512
X40.894Y-35.012
X40.894Y-37.084
X40.894Y-39.584
X40.894Y-57.069
X40.894Y-59.609
X40.894Y-62.276
X40.894Y-64.776
X40.894Y-66.848
X40.894Y-69.348
X40.894Y-86.855
X40.894Y-89.395
X40.894Y-92.062
X40.894Y-94.562
X40.894Y-96.634
X40.894Y-99.134
X41.91Y-20.193
X41.91Y-49.957
X41.91Y-79.743
X42.926Y-24.384
X42.926Y-54.148
X42.926Y-83.934
X44.196Y-30.734
X44.196Y-33.274
X44.196Y-36.068
X44.196Y-38.608
X44.196Y-60.498
X44.196Y-63.038
X44.196Y-65.832
X44.196Y-68.372
X44.196Y-90.284
X44.196Y-92.824
X44.196Y-95.618
X44.196Y-98.158
X44.45Y-20.193
X44.45Y-49.957
X44.45Y-79.743
X44.577Y-27.94
X44.577Y-57.704
X44.577Y-87.49
X47.117Y-27.94
X47.117Y-57.704
X47.117Y-87.49
X47.498Y-30.734
X47.498Y-33.274
X47.498Y-36.068
X47.498Y-38.608
X47.498Y-60.498
X47.498Y-63.038
X47.498Y-65.832
X47.498Y-68.372
X47.498Y-90.284
X47.498Y-92.824
X47.498Y-95.618
X47.498Y-98.158
X56.134Y-17.185
X56.134Y-19.685
X56.134Y-22.606
X56.134Y-25.146
X56.134Y-46.949
X56.134Y-49.449
X56.134Y-52.37
X56.134Y-54.91
X56.134Y-76.735
X56.134Y-79.235
X56.134Y-82.156
X56.134Y-84.696
X59.944Y-19.812
X59.944Y-23.114
X59.944Y-25.654
X59.944Y-49.576
X59.944Y-52.878
X59.944Y-55.418
X59.944Y-79.362
X59.944Y-82.664
X59.944Y-85.204
X61.087Y-28.829
X61.087Y-31.329
X61.087Y-58.593
X61.087Y-61.093
X61.087Y-88.379
X61.087Y-90.879
X62.484Y-19.812
X62.484Y-49.576
X62.484Y-79.362
X63.119Y-35.306
X63.119Y-37.846
X63.119Y-65.07
X63.119Y-67.61
X63.119Y-94.856
X63.119Y-97.396
X63.373Y-23.114
X63.373Y-25.654
X63.373Y-52.878
X63.373Y-55.418
X63.373Y-82.664
X63.373Y-85.204
X64.516Y-28.956
X64.516Y-32.385
X64.516Y-58.72
X64.516Y-62.149
X64.516Y-88.506
X64.516Y-91.935
X65.786Y-16.51
X65.786Y-46.274
X65.786Y-76.06
X65.913Y-19.812
X65.913Y-49.576
X65.913Y-79.362
X67.016Y-28.956
X67.016Y-58.72
X67.016Y-88.506
X67.056Y-22.606
X67.056Y-25.146
X67.056Y-32.385
X67.056Y-35.179
X67.056Y-37.719
X67.056Y-52.37
X67.056Y-54.91
X67.056Y-62.149
X67.056Y-64.943
X67.056Y-67.483
X67.056Y-82.156
X67.056Y-84.696
X67.056Y-91.935
X67.056Y-94.729
X67.056Y-97.269
X68.286Y-16.51
X68.286Y-46.274
X68.286Y-76.06
X68.453Y-19.812
X68.453Y-49.576
X68.453Y-79.362
X70.358Y-22.733
X70.358Y-25.273
X70.358Y-27.813
X70.358Y-30.353
X70.358Y-32.893
X70.358Y-35.433
X70.358Y-37.973
X70.358Y-52.497
X70.358Y-55.037
X70.358Y-57.577
X70.358Y-60.117
X70.358Y-62.657
X70.358Y-65.197
X70.358Y-67.737
X70.358Y-82.283
X70.358Y-84.823
X70.358Y-87.363
X70.358Y-89.903
X70.358Y-92.443
X70.358Y-94.983
X70.358Y-97.523
X73.025Y-16.764
X73.025Y-19.264
X73.025Y-46.528
X73.025Y-49.028
X73.025Y-76.314
X73.025Y-78.814
X76.835Y-19.304
X76.835Y-49.068
X76.835Y-78.854
X77.978Y-22.733
X77.978Y-25.273
X77.978Y-27.813
X77.978Y-30.353
X77.978Y-32.893
X77.978Y-35.433
X77.978Y-37.973
X77.978Y-52.497
X77.978Y-55.037
X77.978Y-57.577
X77.978Y-60.117
X77.978Y-62.657
X77.978Y-65.197
X77.978Y-67.737
X77.978Y-82.283
X77.978Y-84.823
X77.978Y-87.363
X77.978Y-89.903
X77.978Y-92.443
X77.978Y-94.983
X77.978Y-97.523
X79.375Y-19.304
X79.375Y-49.068
X79.375Y-78.854
X80.645Y-24.384
X80.645Y-54.148
X80.645Y-83.934
X81.153Y-27.305
X81.153Y-29.845
X81.153Y-32.512
X81.153Y-35.012
X81.153Y-37.084
X81.153Y-39.584
X81.153Y-57.069
X81.153Y-59.609
X81.153Y-62.276
X81.153Y-64.776
X81.153Y-66.848
X81.153Y-69.348
X81.153Y-86.855
X81.153Y-89.395
X81.153Y-92.062
X81.153Y-94.562
X81.153Y-96.634
X81.153Y-99.134
X82.169Y-20.193
X82.169Y-49.957
X82.169Y-79.743
X83.185Y-24.384
X83.185Y-54.148
X83.185Y-83.934
X84.455Y-30.734
X84.455Y-33.274
X84.455Y-36.068
X84.455Y-38.608
X84.455Y-60.498
X84.455Y-63.038
X84.455Y-65.832
X84.455Y-68.372
X84.455Y-90.284
X84.455Y-92.824
X84.455Y-95.618
X84.455Y-98.158
X84.709Y-20.193
X84.709Y-49.957
X84.709Y-79.743
X84.836Y-27.94
X84.836Y-57.704
X84.836Y-87.49
X87.376Y-27.94
X87.376Y-57.704
X87.376Y-87.49
X87.757Y-30.734
X87.757Y-33.274
X87.757Y-36.068
X87.757Y-38.608
X87.757Y-60.498
X87.757Y-63.038
X87.757Y-65.832
X87.757Y-68.372
X87.757Y-90.284
X87.757Y-92.824
X87.757Y-95.618
X87.757Y-98.158
X96.39Y-17.185
X96.39Y-19.685
X96.39Y-22.606
X96.39Y-25.146
X96.39Y-46.949
X96.39Y-49.449
X96.39Y-52.37
X96.39Y-54.91
X96.39Y-76.735
X96.39Y-79.235
X96.39Y-82.156
X96.39Y-84.696
X100.2Y-19.812
X100.2Y-23.114
X100.2Y-25.654
X100.2Y-49.576
X100.2Y-52.878
X100.2Y-55.418
X100.2Y-79.362
X100.2Y-82.664
X100.2Y-85.204
X101.343Y-28.829
X101.343Y-31.329
X101.343Y-58.593
X101.343Y-61.093
X101.343Y-88.379
X101.343Y-90.879
X102.74Y-19.812
X102.74Y-49.576
X102.74Y-79.362
X103.375Y-35.306
X103.375Y-37.846
X103.375Y-65.07
X103.375Y-67.61
X103.375Y-94.856
X103.375Y-97.396
X103.629Y-23.114
X103.629Y-25.654
X103.629Y-52.878
X103.629Y-55.418
X103.629Y-82.664
X103.629Y-85.204
X104.772Y-28.956
X104.772Y-32.385
X104.772Y-58.72
X104.772Y-62.149
X104.772Y-88.506
X104.772Y-91.935
X106.042Y-16.51
X106.042Y-46.274
X106.042Y-76.06
X106.169Y-19.812
X106.169Y-49.576
X106.169Y-79.362
X107.272Y-28.956
X107.272Y-58.72
X107.272Y-88.506
X107.312Y-22.606
X107.312Y-25.146
X107.312Y-32.385
X107.312Y-35.179
X107.312Y-37.719
X107.312Y-52.37
X107.312Y-54.91
X107.312Y-62.149
X107.312Y-64.943
X107.312Y-67.483
X107.312Y-82.156
X107.312Y-84.696
X107.312Y-91.935
X107.312Y-94.729
X107.312Y-97.269
X108.542Y-16.51
X108.542Y-46.274
X108.542Y-76.06
X108.709Y-19.812
X108.709Y-49.576
X108.709Y-79.362
X110.614Y-22.733
X110.614Y-25.273
X110.614Y-27.813
X110.614Y-30.353
X110.614Y-32.893
X110.614Y-35.433
X110.614Y-37.973
X110.614Y-52.497
X110.614Y-55.037
X110.614Y-57.577
X110.614Y-60.117
X110.614Y-62.657
X110.614Y-65.197
X110.614Y-67.737
X110.614Y-82.283
X110.614Y-84.823
X110.614Y-87.363
X110.614Y-89.903
X110.614Y-92.443
X110.614Y-94.983
X110.614Y-97.523
X113.281Y-16.764
X113.281Y-19.264
X113.281Y-46.528
X113.281Y-49.028
X113.281Y-76.314
X113.281Y-78.814
X117.091Y-19.304
X117.091Y-49.068
X117.091Y-78.854
X118.234Y-22.733
X118.234Y-25.273
X118.234Y-27.813
X118.234Y-30.353
X118.234Y-32.893
X118.234Y-35.433
X118.234Y-37.973
X118.234Y-52.497
X118.234Y-55.037
X118.234Y-57.577
X118.234Y-60.117
X118.234Y-62.657
X118.234Y-65.197
X118.234Y-67.737
X118.234Y-82.283
X118.234Y-84.823
X118.234Y-87.363
X118.234Y-89.903
X118.234Y-92.443
X118.234Y-94.983
X118.234Y-97.523
X119.631Y-19.304
X119.631Y-49.068
X119.631Y-78.854
X120.901Y-24.384
X120.901Y-54.148
X120.901Y-83.934
X121.409Y-27.305
X121.409Y-29.845
X121.409Y-32.512
X121.409Y-35.012
X121.409Y-37.084
X121.409Y-39.584
X121.409Y-57.069
X121.409Y-59.609
X121.409Y-62.276
X121.409Y-64.776
X121.409Y-66.848
X121.409Y-69.348
X121.409Y-86.855
X121.409Y-89.395
X121.409Y-92.062
X121.409Y-94.562
X121.409Y-96.634
X121.409Y-99.134
X122.425Y-20.193
X122.425Y-49.957
X122.425Y-79.743
X123.441Y-24.384
X123.441Y-54.148
X123.441Y-83.934
X124.711Y-30.734
X124.711Y-33.274
X124.711Y-36.068
X124.711Y-38.608
X124.711Y-60.498
X124.711Y-63.038
X124.711Y-65.832
X124.711Y-68.372
X124.711Y-90.284
X124.711Y-92.824
X124.711Y-95.618
X124.711Y-98.158
X124.965Y-20.193
X124.965Y-49.957
X124.965Y-79.743
X125.092Y-27.94
X125.092Y-57.704
X125.092Y-87.49
X127.632Y-27.94
X127.632Y-57.704
X127.632Y-87.49
X128.013Y-30.734
X128.013Y-33.274
X128.013Y-36.068
X128.013Y-38.608
X128.013Y-60.498
X128.013Y-63.038
X128.013Y-65.832
X128.013Y-68.372
X128.013Y-90.284
X128.013Y-92.824
X128.013Y-95.618
X128.013Y-98.158
X136.647Y-17.185
X136.647Y-19.685
X136.647Y-22.606
X136.647Y-25.146
X136.647Y-46.949
X136.647Y-49.449
X136.647Y-52.37
X136.647Y-54.91
X136.647Y-76.735
X136.647Y-79.235
X136.647Y-82.156
X136.647Y-84.696
X140.457Y-19.812
X140.457Y-23.114
X140.457Y-25.654
X140.457Y-49.576
X140.457Y-52.878
X140.457Y-55.418
X140.457Y-79.362
X140.457Y-82.664
X140.457Y-85.204
X141.6Y-28.829
X141.6Y-31.329
X141.6Y-58.593
X141.6Y-61.093
X141.6Y-88.379
X141.6Y-90.879
X142.997Y-19.812
X142.997Y-49.576
X142.997Y-79.362
X143.632Y-35.306
X143.632Y-37.846
X143.632Y-65.07
X143.632Y-67.61
X143.632Y-94.856
X143.632Y-97.396
X143.886Y-23.114
X143.886Y-25.654
X143.886Y-52.878
X143.886Y-55.418
X143.886Y-82.664
X143.886Y-85.204
X145.029Y-28.956
X145.029Y-32.385
X145.029Y-58.72
X145.029Y-62.149
X145.029Y-88.506
X145.029Y-91.935
X146.299Y-16.51
X146.299Y-46.274
X146.299Y-76.06
X146.426Y-19.812
X146.426Y-49.576
X146.426Y-79.362
X147.529Y-28.956
X147.529Y-58.72
X147.529Y-88.506
X147.569Y-22.606
X147.569Y-25.146
X147.569Y-32.385
X147.569Y-35.179
X147.569Y-37.719
X147.569Y-52.37
X147.569Y-54.91
X147.569Y-62.149
X147.569Y-64.943
X147.569Y-67.483
X147.569Y-82.156
X147.569Y-84.696
X147.569Y-91.935
X147.569Y-94.729
X147.569Y-97.269
X148.799Y-16.51
X148.799Y-46.274
X148.799Y-76.06
X148.966Y-19.812
X148.966Y-49.576
X148.966Y-79.362
X150.871Y-22.733
X150.871Y-25.273
X150.871Y-27.813
X150.871Y-30.353
X150.871Y-32.893
X150.871Y-35.433
X150.871Y-37.973
X150.871Y-52.497
X150.871Y-55.037
X150.871Y-57.577
X150.871Y-60.117
X150.871Y-62.657
X150.871Y-65.197
X150.871Y-67.737
X150.871Y-82.283
X150.871Y-84.823
X150.871Y-87.363
X150.871Y-89.903
X150.871Y-92.443
X150.871Y-94.983
X150.871Y-97.523
X153.538Y-16.764
X153.538Y-19.264
X153.538Y-46.528
X153.538Y-49.028
X153.538Y-76.314
X153.538Y-78.814
X157.348Y-19.304
X157.348Y-49.068
X157.348Y-78.854
X158.491Y-22.733
X158.491Y-25.273
X158.491Y-27.813
X158.491Y-30.353
X158.491Y-32.893
X158.491Y-35.433
X158.491Y-37.973
X158.491Y-52.497
X158.491Y-55.037
X158.491Y-57.577
X158.491Y-60.117
X158.491Y-62.657
X158.491Y-65.197
X158.491Y-67.737
X158.491Y-82.283
X158.491Y-84.823
X158.491Y-87.363
X158.491Y-89.903
X158.491Y-92.443
X158.491Y-94.983
X158.491Y-97.523
X159.888Y-19.304
X159.888Y-49.068
X159.888Y-78.854
X161.158Y-24.384
X161.158Y-54.148
X161.158Y-83.934
X161.666Y-27.305
X161.666Y-29.845
X161.666Y-32.512
X161.666Y-35.012
X161.666Y-37.084
X161.666Y-39.584
X161.666Y-57.069
X161.666Y-59.609
X161.666Y-62.276
X161.666Y-64.776
X161.666Y-66.848
X161.666Y-69.348
X161.666Y-86.855
X161.666Y-89.395
X161.666Y-92.062
X161.666Y-94.562
X161.666Y-96.634
X161.666Y-99.134
X162.682Y-20.193
X162.682Y-49.957
X162.682Y-79.743
X163.698Y-24.384
X163.698Y-54.148
X163.698Y-83.934
X164.968Y-30.734
X164.968Y-33.274
X164.968Y-36.068
X164.968Y-38.608
X164.968Y-60.498
X164.968Y-63.038
X164.968Y-65.832
X164.968Y-68.372
X164.968Y-90.284
X164.968Y-92.824
X164.968Y-95.618
X164.968Y-98.158
X165.222Y-20.193
X165.222Y-49.957
X165.222Y-79.743
X165.349Y-27.94
X165.349Y-57.704
X165.349Y-87.49
X167.889Y-27.94
X167.889Y-57.704
X167.889Y-87.49
X168.27Y-30.734
X168.27Y-33.274
X168.27Y-36.068
X168.27Y-38.608
X168.27Y-60.498
X168.27Y-63.038
X168.27Y-65.832
X168.27Y-68.372
X168.27Y-90.284
X168.27Y-92.824
X168.27Y-95.618
X168.27Y-98.158
T3
X16.51Y-37.846
X16.51Y-67.61
X16.51Y-97.396
X36.576Y-16.383
X36.576Y-46.147
X36.576Y-75.933
X41.656Y-16.383
X41.656Y-46.147
X41.656Y-75.933
X46.736Y-16.383
X46.736Y-46.147
X46.736Y-75.933
X56.769Y-37.846
X56.769Y-67.61
X56.769Y-97.396
X76.835Y-16.383
X76.835Y-46.147
X76.835Y-75.933
X81.915Y-16.383
X81.915Y-46.147
X81.915Y-75.933
X86.995Y-16.383
X86.995Y-46.147
X86.995Y-75.933
X97.025Y-37.846
X97.025Y-67.61
X97.025Y-97.396
X117.091Y-16.383
X117.091Y-46.147
X117.091Y-75.933
X122.171Y-16.383
X122.171Y-46.147
X122.171Y-75.933
X127.251Y-16.383
X127.251Y-46.147
X127.251Y-75.933
X137.282Y-37.846
X137.282Y-67.61
X137.282Y-97.396
X157.348Y-16.383
X157.348Y-46.147
X157.348Y-75.933
X162.428Y-16.383
X162.428Y-46.147
X162.428Y-75.933
X167.508Y-16.383
X167.508Y-46.147
X167.508Y-75.933
T0
M30
