G04 #@! TF.FileFunction,Other,User*
%FSLAX46Y46*%
G04 Gerber Fmt 4.6, Leading zero omitted, Abs format (unit mm)*
G04 Created by KiCad (PCBNEW 4.0.6-e0-6349~53~ubuntu16.04.1) date Sat Mar 11 21:42:00 2017*
%MOMM*%
%LPD*%
G01*
G04 APERTURE LIST*
%ADD10C,0.100000*%
%ADD11C,0.050000*%
G04 APERTURE END LIST*
D10*
D11*
X143249920Y-87329300D02*
X139949920Y-87329300D01*
X139949920Y-87329300D02*
X139949920Y-91929300D01*
X139949920Y-91929300D02*
X143249920Y-91929300D01*
X143249920Y-91929300D02*
X143249920Y-87329300D01*
X135046920Y-80835300D02*
X138246920Y-80835300D01*
X138246920Y-80835300D02*
X138246920Y-75135300D01*
X138246920Y-75135300D02*
X135046920Y-75135300D01*
X135046920Y-75135300D02*
X135046920Y-80835300D01*
X143428920Y-86906300D02*
X143428920Y-90106300D01*
X143428920Y-90106300D02*
X149128920Y-90106300D01*
X149128920Y-90106300D02*
X149128920Y-86906300D01*
X149128920Y-86906300D02*
X143428920Y-86906300D01*
X165297920Y-85534300D02*
X165297920Y-82334300D01*
X165297920Y-82334300D02*
X160047920Y-82334300D01*
X160047920Y-82334300D02*
X160047920Y-85534300D01*
X160047920Y-85534300D02*
X165297920Y-85534300D01*
X161081920Y-78143300D02*
X161081920Y-81343300D01*
X161081920Y-81343300D02*
X166331920Y-81343300D01*
X166331920Y-81343300D02*
X166331920Y-78143300D01*
X166331920Y-78143300D02*
X161081920Y-78143300D01*
X155747920Y-77254300D02*
X155747920Y-80454300D01*
X155747920Y-80454300D02*
X160997920Y-80454300D01*
X160997920Y-80454300D02*
X160997920Y-77254300D01*
X160997920Y-77254300D02*
X155747920Y-77254300D01*
X163748920Y-85890300D02*
X163748920Y-89090300D01*
X163748920Y-89090300D02*
X168998920Y-89090300D01*
X168998920Y-89090300D02*
X168998920Y-85890300D01*
X168998920Y-85890300D02*
X163748920Y-85890300D01*
X163367920Y-99758300D02*
X166567920Y-99758300D01*
X166567920Y-99758300D02*
X166567920Y-94508300D01*
X166567920Y-94508300D02*
X163367920Y-94508300D01*
X163367920Y-94508300D02*
X163367920Y-99758300D01*
X166669920Y-94424300D02*
X169869920Y-94424300D01*
X169869920Y-94424300D02*
X169869920Y-89174300D01*
X169869920Y-89174300D02*
X166669920Y-89174300D01*
X166669920Y-89174300D02*
X166669920Y-94424300D01*
X160065920Y-90995300D02*
X163265920Y-90995300D01*
X163265920Y-90995300D02*
X163265920Y-85745300D01*
X163265920Y-85745300D02*
X160065920Y-85745300D01*
X160065920Y-85745300D02*
X160065920Y-90995300D01*
X163367920Y-94424300D02*
X166567920Y-94424300D01*
X166567920Y-94424300D02*
X166567920Y-89174300D01*
X166567920Y-89174300D02*
X163367920Y-89174300D01*
X163367920Y-89174300D02*
X163367920Y-94424300D01*
X166669920Y-99758300D02*
X169869920Y-99758300D01*
X169869920Y-99758300D02*
X169869920Y-94508300D01*
X169869920Y-94508300D02*
X166669920Y-94508300D01*
X166669920Y-94508300D02*
X166669920Y-99758300D01*
X145968920Y-98869300D02*
X149168920Y-98869300D01*
X149168920Y-98869300D02*
X149168920Y-93619300D01*
X149168920Y-93619300D02*
X145968920Y-93619300D01*
X145968920Y-93619300D02*
X145968920Y-98869300D01*
X142031920Y-98996300D02*
X145231920Y-98996300D01*
X145231920Y-98996300D02*
X145231920Y-93746300D01*
X145231920Y-93746300D02*
X142031920Y-93746300D01*
X142031920Y-93746300D02*
X142031920Y-98996300D01*
X149168920Y-93535300D02*
X149168920Y-90335300D01*
X149168920Y-90335300D02*
X143918920Y-90335300D01*
X143918920Y-90335300D02*
X143918920Y-93535300D01*
X143918920Y-93535300D02*
X149168920Y-93535300D01*
X145968920Y-86296300D02*
X149168920Y-86296300D01*
X149168920Y-86296300D02*
X149168920Y-81046300D01*
X149168920Y-81046300D02*
X145968920Y-81046300D01*
X145968920Y-81046300D02*
X145968920Y-86296300D01*
X145485920Y-81064300D02*
X142285920Y-81064300D01*
X142285920Y-81064300D02*
X142285920Y-86314300D01*
X142285920Y-86314300D02*
X145485920Y-86314300D01*
X145485920Y-86314300D02*
X145485920Y-81064300D01*
X144825920Y-77762300D02*
X144825920Y-80962300D01*
X144825920Y-80962300D02*
X150075920Y-80962300D01*
X150075920Y-80962300D02*
X150075920Y-77762300D01*
X150075920Y-77762300D02*
X144825920Y-77762300D01*
X138856920Y-77762300D02*
X138856920Y-80962300D01*
X138856920Y-80962300D02*
X144106920Y-80962300D01*
X144106920Y-80962300D02*
X144106920Y-77762300D01*
X144106920Y-77762300D02*
X138856920Y-77762300D01*
X135046920Y-86296300D02*
X138246920Y-86296300D01*
X138246920Y-86296300D02*
X138246920Y-81046300D01*
X138246920Y-81046300D02*
X135046920Y-81046300D01*
X135046920Y-81046300D02*
X135046920Y-86296300D01*
X142056920Y-81064300D02*
X138856920Y-81064300D01*
X138856920Y-81064300D02*
X138856920Y-86314300D01*
X138856920Y-86314300D02*
X142056920Y-86314300D01*
X142056920Y-86314300D02*
X142056920Y-81064300D01*
X149770920Y-80683300D02*
X149770920Y-99083300D01*
X149770920Y-99083300D02*
X159570920Y-99083300D01*
X159570920Y-99083300D02*
X159570920Y-80683300D01*
X159570920Y-80683300D02*
X149770920Y-80683300D01*
X139681920Y-86771300D02*
X139681920Y-94051300D01*
X139681920Y-86771300D02*
X134881920Y-86771300D01*
X134881920Y-94051300D02*
X139681920Y-94051300D01*
X134881920Y-94051300D02*
X134881920Y-86771300D01*
X163315920Y-91012300D02*
X160015920Y-91012300D01*
X160015920Y-91012300D02*
X160015920Y-95612300D01*
X160015920Y-95612300D02*
X163315920Y-95612300D01*
X163315920Y-95612300D02*
X163315920Y-91012300D01*
X155187920Y-75264300D02*
X151887920Y-75264300D01*
X151887920Y-75264300D02*
X151887920Y-79864300D01*
X151887920Y-79864300D02*
X155187920Y-79864300D01*
X155187920Y-79864300D02*
X155187920Y-75264300D01*
X145248920Y-74410300D02*
X145248920Y-77710300D01*
X145248920Y-77710300D02*
X149848920Y-77710300D01*
X149848920Y-77710300D02*
X149848920Y-74410300D01*
X149848920Y-74410300D02*
X145248920Y-74410300D01*
X163315920Y-95584300D02*
X160015920Y-95584300D01*
X160015920Y-95584300D02*
X160015920Y-100184300D01*
X160015920Y-100184300D02*
X163315920Y-100184300D01*
X163315920Y-100184300D02*
X163315920Y-95584300D01*
X123059460Y-95584300D02*
X119759460Y-95584300D01*
X119759460Y-95584300D02*
X119759460Y-100184300D01*
X119759460Y-100184300D02*
X123059460Y-100184300D01*
X123059460Y-100184300D02*
X123059460Y-95584300D01*
X104992460Y-74410300D02*
X104992460Y-77710300D01*
X104992460Y-77710300D02*
X109592460Y-77710300D01*
X109592460Y-77710300D02*
X109592460Y-74410300D01*
X109592460Y-74410300D02*
X104992460Y-74410300D01*
X114931460Y-75264300D02*
X111631460Y-75264300D01*
X111631460Y-75264300D02*
X111631460Y-79864300D01*
X111631460Y-79864300D02*
X114931460Y-79864300D01*
X114931460Y-79864300D02*
X114931460Y-75264300D01*
X123059460Y-91012300D02*
X119759460Y-91012300D01*
X119759460Y-91012300D02*
X119759460Y-95612300D01*
X119759460Y-95612300D02*
X123059460Y-95612300D01*
X123059460Y-95612300D02*
X123059460Y-91012300D01*
X99425460Y-86771300D02*
X99425460Y-94051300D01*
X99425460Y-86771300D02*
X94625460Y-86771300D01*
X94625460Y-94051300D02*
X99425460Y-94051300D01*
X94625460Y-94051300D02*
X94625460Y-86771300D01*
X109514460Y-80683300D02*
X109514460Y-99083300D01*
X109514460Y-99083300D02*
X119314460Y-99083300D01*
X119314460Y-99083300D02*
X119314460Y-80683300D01*
X119314460Y-80683300D02*
X109514460Y-80683300D01*
X101800460Y-81064300D02*
X98600460Y-81064300D01*
X98600460Y-81064300D02*
X98600460Y-86314300D01*
X98600460Y-86314300D02*
X101800460Y-86314300D01*
X101800460Y-86314300D02*
X101800460Y-81064300D01*
X94790460Y-86296300D02*
X97990460Y-86296300D01*
X97990460Y-86296300D02*
X97990460Y-81046300D01*
X97990460Y-81046300D02*
X94790460Y-81046300D01*
X94790460Y-81046300D02*
X94790460Y-86296300D01*
X98600460Y-77762300D02*
X98600460Y-80962300D01*
X98600460Y-80962300D02*
X103850460Y-80962300D01*
X103850460Y-80962300D02*
X103850460Y-77762300D01*
X103850460Y-77762300D02*
X98600460Y-77762300D01*
X104569460Y-77762300D02*
X104569460Y-80962300D01*
X104569460Y-80962300D02*
X109819460Y-80962300D01*
X109819460Y-80962300D02*
X109819460Y-77762300D01*
X109819460Y-77762300D02*
X104569460Y-77762300D01*
X105229460Y-81064300D02*
X102029460Y-81064300D01*
X102029460Y-81064300D02*
X102029460Y-86314300D01*
X102029460Y-86314300D02*
X105229460Y-86314300D01*
X105229460Y-86314300D02*
X105229460Y-81064300D01*
X105712460Y-86296300D02*
X108912460Y-86296300D01*
X108912460Y-86296300D02*
X108912460Y-81046300D01*
X108912460Y-81046300D02*
X105712460Y-81046300D01*
X105712460Y-81046300D02*
X105712460Y-86296300D01*
X108912460Y-93535300D02*
X108912460Y-90335300D01*
X108912460Y-90335300D02*
X103662460Y-90335300D01*
X103662460Y-90335300D02*
X103662460Y-93535300D01*
X103662460Y-93535300D02*
X108912460Y-93535300D01*
X101775460Y-98996300D02*
X104975460Y-98996300D01*
X104975460Y-98996300D02*
X104975460Y-93746300D01*
X104975460Y-93746300D02*
X101775460Y-93746300D01*
X101775460Y-93746300D02*
X101775460Y-98996300D01*
X105712460Y-98869300D02*
X108912460Y-98869300D01*
X108912460Y-98869300D02*
X108912460Y-93619300D01*
X108912460Y-93619300D02*
X105712460Y-93619300D01*
X105712460Y-93619300D02*
X105712460Y-98869300D01*
X126413460Y-99758300D02*
X129613460Y-99758300D01*
X129613460Y-99758300D02*
X129613460Y-94508300D01*
X129613460Y-94508300D02*
X126413460Y-94508300D01*
X126413460Y-94508300D02*
X126413460Y-99758300D01*
X123111460Y-94424300D02*
X126311460Y-94424300D01*
X126311460Y-94424300D02*
X126311460Y-89174300D01*
X126311460Y-89174300D02*
X123111460Y-89174300D01*
X123111460Y-89174300D02*
X123111460Y-94424300D01*
X119809460Y-90995300D02*
X123009460Y-90995300D01*
X123009460Y-90995300D02*
X123009460Y-85745300D01*
X123009460Y-85745300D02*
X119809460Y-85745300D01*
X119809460Y-85745300D02*
X119809460Y-90995300D01*
X126413460Y-94424300D02*
X129613460Y-94424300D01*
X129613460Y-94424300D02*
X129613460Y-89174300D01*
X129613460Y-89174300D02*
X126413460Y-89174300D01*
X126413460Y-89174300D02*
X126413460Y-94424300D01*
X123111460Y-99758300D02*
X126311460Y-99758300D01*
X126311460Y-99758300D02*
X126311460Y-94508300D01*
X126311460Y-94508300D02*
X123111460Y-94508300D01*
X123111460Y-94508300D02*
X123111460Y-99758300D01*
X123492460Y-85890300D02*
X123492460Y-89090300D01*
X123492460Y-89090300D02*
X128742460Y-89090300D01*
X128742460Y-89090300D02*
X128742460Y-85890300D01*
X128742460Y-85890300D02*
X123492460Y-85890300D01*
X115491460Y-77254300D02*
X115491460Y-80454300D01*
X115491460Y-80454300D02*
X120741460Y-80454300D01*
X120741460Y-80454300D02*
X120741460Y-77254300D01*
X120741460Y-77254300D02*
X115491460Y-77254300D01*
X120825460Y-78143300D02*
X120825460Y-81343300D01*
X120825460Y-81343300D02*
X126075460Y-81343300D01*
X126075460Y-81343300D02*
X126075460Y-78143300D01*
X126075460Y-78143300D02*
X120825460Y-78143300D01*
X125041460Y-85534300D02*
X125041460Y-82334300D01*
X125041460Y-82334300D02*
X119791460Y-82334300D01*
X119791460Y-82334300D02*
X119791460Y-85534300D01*
X119791460Y-85534300D02*
X125041460Y-85534300D01*
X103172460Y-86906300D02*
X103172460Y-90106300D01*
X103172460Y-90106300D02*
X108872460Y-90106300D01*
X108872460Y-90106300D02*
X108872460Y-86906300D01*
X108872460Y-86906300D02*
X103172460Y-86906300D01*
X94790460Y-80835300D02*
X97990460Y-80835300D01*
X97990460Y-80835300D02*
X97990460Y-75135300D01*
X97990460Y-75135300D02*
X94790460Y-75135300D01*
X94790460Y-75135300D02*
X94790460Y-80835300D01*
X102993460Y-87329300D02*
X99693460Y-87329300D01*
X99693460Y-87329300D02*
X99693460Y-91929300D01*
X99693460Y-91929300D02*
X102993460Y-91929300D01*
X102993460Y-91929300D02*
X102993460Y-87329300D01*
X62737000Y-87329300D02*
X59437000Y-87329300D01*
X59437000Y-87329300D02*
X59437000Y-91929300D01*
X59437000Y-91929300D02*
X62737000Y-91929300D01*
X62737000Y-91929300D02*
X62737000Y-87329300D01*
X54534000Y-80835300D02*
X57734000Y-80835300D01*
X57734000Y-80835300D02*
X57734000Y-75135300D01*
X57734000Y-75135300D02*
X54534000Y-75135300D01*
X54534000Y-75135300D02*
X54534000Y-80835300D01*
X62916000Y-86906300D02*
X62916000Y-90106300D01*
X62916000Y-90106300D02*
X68616000Y-90106300D01*
X68616000Y-90106300D02*
X68616000Y-86906300D01*
X68616000Y-86906300D02*
X62916000Y-86906300D01*
X84785000Y-85534300D02*
X84785000Y-82334300D01*
X84785000Y-82334300D02*
X79535000Y-82334300D01*
X79535000Y-82334300D02*
X79535000Y-85534300D01*
X79535000Y-85534300D02*
X84785000Y-85534300D01*
X80569000Y-78143300D02*
X80569000Y-81343300D01*
X80569000Y-81343300D02*
X85819000Y-81343300D01*
X85819000Y-81343300D02*
X85819000Y-78143300D01*
X85819000Y-78143300D02*
X80569000Y-78143300D01*
X75235000Y-77254300D02*
X75235000Y-80454300D01*
X75235000Y-80454300D02*
X80485000Y-80454300D01*
X80485000Y-80454300D02*
X80485000Y-77254300D01*
X80485000Y-77254300D02*
X75235000Y-77254300D01*
X83236000Y-85890300D02*
X83236000Y-89090300D01*
X83236000Y-89090300D02*
X88486000Y-89090300D01*
X88486000Y-89090300D02*
X88486000Y-85890300D01*
X88486000Y-85890300D02*
X83236000Y-85890300D01*
X82855000Y-99758300D02*
X86055000Y-99758300D01*
X86055000Y-99758300D02*
X86055000Y-94508300D01*
X86055000Y-94508300D02*
X82855000Y-94508300D01*
X82855000Y-94508300D02*
X82855000Y-99758300D01*
X86157000Y-94424300D02*
X89357000Y-94424300D01*
X89357000Y-94424300D02*
X89357000Y-89174300D01*
X89357000Y-89174300D02*
X86157000Y-89174300D01*
X86157000Y-89174300D02*
X86157000Y-94424300D01*
X79553000Y-90995300D02*
X82753000Y-90995300D01*
X82753000Y-90995300D02*
X82753000Y-85745300D01*
X82753000Y-85745300D02*
X79553000Y-85745300D01*
X79553000Y-85745300D02*
X79553000Y-90995300D01*
X82855000Y-94424300D02*
X86055000Y-94424300D01*
X86055000Y-94424300D02*
X86055000Y-89174300D01*
X86055000Y-89174300D02*
X82855000Y-89174300D01*
X82855000Y-89174300D02*
X82855000Y-94424300D01*
X86157000Y-99758300D02*
X89357000Y-99758300D01*
X89357000Y-99758300D02*
X89357000Y-94508300D01*
X89357000Y-94508300D02*
X86157000Y-94508300D01*
X86157000Y-94508300D02*
X86157000Y-99758300D01*
X65456000Y-98869300D02*
X68656000Y-98869300D01*
X68656000Y-98869300D02*
X68656000Y-93619300D01*
X68656000Y-93619300D02*
X65456000Y-93619300D01*
X65456000Y-93619300D02*
X65456000Y-98869300D01*
X61519000Y-98996300D02*
X64719000Y-98996300D01*
X64719000Y-98996300D02*
X64719000Y-93746300D01*
X64719000Y-93746300D02*
X61519000Y-93746300D01*
X61519000Y-93746300D02*
X61519000Y-98996300D01*
X68656000Y-93535300D02*
X68656000Y-90335300D01*
X68656000Y-90335300D02*
X63406000Y-90335300D01*
X63406000Y-90335300D02*
X63406000Y-93535300D01*
X63406000Y-93535300D02*
X68656000Y-93535300D01*
X65456000Y-86296300D02*
X68656000Y-86296300D01*
X68656000Y-86296300D02*
X68656000Y-81046300D01*
X68656000Y-81046300D02*
X65456000Y-81046300D01*
X65456000Y-81046300D02*
X65456000Y-86296300D01*
X64973000Y-81064300D02*
X61773000Y-81064300D01*
X61773000Y-81064300D02*
X61773000Y-86314300D01*
X61773000Y-86314300D02*
X64973000Y-86314300D01*
X64973000Y-86314300D02*
X64973000Y-81064300D01*
X64313000Y-77762300D02*
X64313000Y-80962300D01*
X64313000Y-80962300D02*
X69563000Y-80962300D01*
X69563000Y-80962300D02*
X69563000Y-77762300D01*
X69563000Y-77762300D02*
X64313000Y-77762300D01*
X58344000Y-77762300D02*
X58344000Y-80962300D01*
X58344000Y-80962300D02*
X63594000Y-80962300D01*
X63594000Y-80962300D02*
X63594000Y-77762300D01*
X63594000Y-77762300D02*
X58344000Y-77762300D01*
X54534000Y-86296300D02*
X57734000Y-86296300D01*
X57734000Y-86296300D02*
X57734000Y-81046300D01*
X57734000Y-81046300D02*
X54534000Y-81046300D01*
X54534000Y-81046300D02*
X54534000Y-86296300D01*
X61544000Y-81064300D02*
X58344000Y-81064300D01*
X58344000Y-81064300D02*
X58344000Y-86314300D01*
X58344000Y-86314300D02*
X61544000Y-86314300D01*
X61544000Y-86314300D02*
X61544000Y-81064300D01*
X69258000Y-80683300D02*
X69258000Y-99083300D01*
X69258000Y-99083300D02*
X79058000Y-99083300D01*
X79058000Y-99083300D02*
X79058000Y-80683300D01*
X79058000Y-80683300D02*
X69258000Y-80683300D01*
X59169000Y-86771300D02*
X59169000Y-94051300D01*
X59169000Y-86771300D02*
X54369000Y-86771300D01*
X54369000Y-94051300D02*
X59169000Y-94051300D01*
X54369000Y-94051300D02*
X54369000Y-86771300D01*
X82803000Y-91012300D02*
X79503000Y-91012300D01*
X79503000Y-91012300D02*
X79503000Y-95612300D01*
X79503000Y-95612300D02*
X82803000Y-95612300D01*
X82803000Y-95612300D02*
X82803000Y-91012300D01*
X74675000Y-75264300D02*
X71375000Y-75264300D01*
X71375000Y-75264300D02*
X71375000Y-79864300D01*
X71375000Y-79864300D02*
X74675000Y-79864300D01*
X74675000Y-79864300D02*
X74675000Y-75264300D01*
X64736000Y-74410300D02*
X64736000Y-77710300D01*
X64736000Y-77710300D02*
X69336000Y-77710300D01*
X69336000Y-77710300D02*
X69336000Y-74410300D01*
X69336000Y-74410300D02*
X64736000Y-74410300D01*
X82803000Y-95584300D02*
X79503000Y-95584300D01*
X79503000Y-95584300D02*
X79503000Y-100184300D01*
X79503000Y-100184300D02*
X82803000Y-100184300D01*
X82803000Y-100184300D02*
X82803000Y-95584300D01*
X42544000Y-95584300D02*
X39244000Y-95584300D01*
X39244000Y-95584300D02*
X39244000Y-100184300D01*
X39244000Y-100184300D02*
X42544000Y-100184300D01*
X42544000Y-100184300D02*
X42544000Y-95584300D01*
X24477000Y-74410300D02*
X24477000Y-77710300D01*
X24477000Y-77710300D02*
X29077000Y-77710300D01*
X29077000Y-77710300D02*
X29077000Y-74410300D01*
X29077000Y-74410300D02*
X24477000Y-74410300D01*
X34416000Y-75264300D02*
X31116000Y-75264300D01*
X31116000Y-75264300D02*
X31116000Y-79864300D01*
X31116000Y-79864300D02*
X34416000Y-79864300D01*
X34416000Y-79864300D02*
X34416000Y-75264300D01*
X42544000Y-91012300D02*
X39244000Y-91012300D01*
X39244000Y-91012300D02*
X39244000Y-95612300D01*
X39244000Y-95612300D02*
X42544000Y-95612300D01*
X42544000Y-95612300D02*
X42544000Y-91012300D01*
X18910000Y-86771300D02*
X18910000Y-94051300D01*
X18910000Y-86771300D02*
X14110000Y-86771300D01*
X14110000Y-94051300D02*
X18910000Y-94051300D01*
X14110000Y-94051300D02*
X14110000Y-86771300D01*
X28999000Y-80683300D02*
X28999000Y-99083300D01*
X28999000Y-99083300D02*
X38799000Y-99083300D01*
X38799000Y-99083300D02*
X38799000Y-80683300D01*
X38799000Y-80683300D02*
X28999000Y-80683300D01*
X21285000Y-81064300D02*
X18085000Y-81064300D01*
X18085000Y-81064300D02*
X18085000Y-86314300D01*
X18085000Y-86314300D02*
X21285000Y-86314300D01*
X21285000Y-86314300D02*
X21285000Y-81064300D01*
X14275000Y-86296300D02*
X17475000Y-86296300D01*
X17475000Y-86296300D02*
X17475000Y-81046300D01*
X17475000Y-81046300D02*
X14275000Y-81046300D01*
X14275000Y-81046300D02*
X14275000Y-86296300D01*
X18085000Y-77762300D02*
X18085000Y-80962300D01*
X18085000Y-80962300D02*
X23335000Y-80962300D01*
X23335000Y-80962300D02*
X23335000Y-77762300D01*
X23335000Y-77762300D02*
X18085000Y-77762300D01*
X24054000Y-77762300D02*
X24054000Y-80962300D01*
X24054000Y-80962300D02*
X29304000Y-80962300D01*
X29304000Y-80962300D02*
X29304000Y-77762300D01*
X29304000Y-77762300D02*
X24054000Y-77762300D01*
X24714000Y-81064300D02*
X21514000Y-81064300D01*
X21514000Y-81064300D02*
X21514000Y-86314300D01*
X21514000Y-86314300D02*
X24714000Y-86314300D01*
X24714000Y-86314300D02*
X24714000Y-81064300D01*
X25197000Y-86296300D02*
X28397000Y-86296300D01*
X28397000Y-86296300D02*
X28397000Y-81046300D01*
X28397000Y-81046300D02*
X25197000Y-81046300D01*
X25197000Y-81046300D02*
X25197000Y-86296300D01*
X28397000Y-93535300D02*
X28397000Y-90335300D01*
X28397000Y-90335300D02*
X23147000Y-90335300D01*
X23147000Y-90335300D02*
X23147000Y-93535300D01*
X23147000Y-93535300D02*
X28397000Y-93535300D01*
X21260000Y-98996300D02*
X24460000Y-98996300D01*
X24460000Y-98996300D02*
X24460000Y-93746300D01*
X24460000Y-93746300D02*
X21260000Y-93746300D01*
X21260000Y-93746300D02*
X21260000Y-98996300D01*
X25197000Y-98869300D02*
X28397000Y-98869300D01*
X28397000Y-98869300D02*
X28397000Y-93619300D01*
X28397000Y-93619300D02*
X25197000Y-93619300D01*
X25197000Y-93619300D02*
X25197000Y-98869300D01*
X45898000Y-99758300D02*
X49098000Y-99758300D01*
X49098000Y-99758300D02*
X49098000Y-94508300D01*
X49098000Y-94508300D02*
X45898000Y-94508300D01*
X45898000Y-94508300D02*
X45898000Y-99758300D01*
X42596000Y-94424300D02*
X45796000Y-94424300D01*
X45796000Y-94424300D02*
X45796000Y-89174300D01*
X45796000Y-89174300D02*
X42596000Y-89174300D01*
X42596000Y-89174300D02*
X42596000Y-94424300D01*
X39294000Y-90995300D02*
X42494000Y-90995300D01*
X42494000Y-90995300D02*
X42494000Y-85745300D01*
X42494000Y-85745300D02*
X39294000Y-85745300D01*
X39294000Y-85745300D02*
X39294000Y-90995300D01*
X45898000Y-94424300D02*
X49098000Y-94424300D01*
X49098000Y-94424300D02*
X49098000Y-89174300D01*
X49098000Y-89174300D02*
X45898000Y-89174300D01*
X45898000Y-89174300D02*
X45898000Y-94424300D01*
X42596000Y-99758300D02*
X45796000Y-99758300D01*
X45796000Y-99758300D02*
X45796000Y-94508300D01*
X45796000Y-94508300D02*
X42596000Y-94508300D01*
X42596000Y-94508300D02*
X42596000Y-99758300D01*
X42977000Y-85890300D02*
X42977000Y-89090300D01*
X42977000Y-89090300D02*
X48227000Y-89090300D01*
X48227000Y-89090300D02*
X48227000Y-85890300D01*
X48227000Y-85890300D02*
X42977000Y-85890300D01*
X34976000Y-77254300D02*
X34976000Y-80454300D01*
X34976000Y-80454300D02*
X40226000Y-80454300D01*
X40226000Y-80454300D02*
X40226000Y-77254300D01*
X40226000Y-77254300D02*
X34976000Y-77254300D01*
X40310000Y-78143300D02*
X40310000Y-81343300D01*
X40310000Y-81343300D02*
X45560000Y-81343300D01*
X45560000Y-81343300D02*
X45560000Y-78143300D01*
X45560000Y-78143300D02*
X40310000Y-78143300D01*
X44526000Y-85534300D02*
X44526000Y-82334300D01*
X44526000Y-82334300D02*
X39276000Y-82334300D01*
X39276000Y-82334300D02*
X39276000Y-85534300D01*
X39276000Y-85534300D02*
X44526000Y-85534300D01*
X22657000Y-86906300D02*
X22657000Y-90106300D01*
X22657000Y-90106300D02*
X28357000Y-90106300D01*
X28357000Y-90106300D02*
X28357000Y-86906300D01*
X28357000Y-86906300D02*
X22657000Y-86906300D01*
X14275000Y-80835300D02*
X17475000Y-80835300D01*
X17475000Y-80835300D02*
X17475000Y-75135300D01*
X17475000Y-75135300D02*
X14275000Y-75135300D01*
X14275000Y-75135300D02*
X14275000Y-80835300D01*
X22478000Y-87329300D02*
X19178000Y-87329300D01*
X19178000Y-87329300D02*
X19178000Y-91929300D01*
X19178000Y-91929300D02*
X22478000Y-91929300D01*
X22478000Y-91929300D02*
X22478000Y-87329300D01*
X22478000Y-57542720D02*
X19178000Y-57542720D01*
X19178000Y-57542720D02*
X19178000Y-62142720D01*
X19178000Y-62142720D02*
X22478000Y-62142720D01*
X22478000Y-62142720D02*
X22478000Y-57542720D01*
X14275000Y-51048720D02*
X17475000Y-51048720D01*
X17475000Y-51048720D02*
X17475000Y-45348720D01*
X17475000Y-45348720D02*
X14275000Y-45348720D01*
X14275000Y-45348720D02*
X14275000Y-51048720D01*
X22657000Y-57119720D02*
X22657000Y-60319720D01*
X22657000Y-60319720D02*
X28357000Y-60319720D01*
X28357000Y-60319720D02*
X28357000Y-57119720D01*
X28357000Y-57119720D02*
X22657000Y-57119720D01*
X44526000Y-55747720D02*
X44526000Y-52547720D01*
X44526000Y-52547720D02*
X39276000Y-52547720D01*
X39276000Y-52547720D02*
X39276000Y-55747720D01*
X39276000Y-55747720D02*
X44526000Y-55747720D01*
X40310000Y-48356720D02*
X40310000Y-51556720D01*
X40310000Y-51556720D02*
X45560000Y-51556720D01*
X45560000Y-51556720D02*
X45560000Y-48356720D01*
X45560000Y-48356720D02*
X40310000Y-48356720D01*
X34976000Y-47467720D02*
X34976000Y-50667720D01*
X34976000Y-50667720D02*
X40226000Y-50667720D01*
X40226000Y-50667720D02*
X40226000Y-47467720D01*
X40226000Y-47467720D02*
X34976000Y-47467720D01*
X42977000Y-56103720D02*
X42977000Y-59303720D01*
X42977000Y-59303720D02*
X48227000Y-59303720D01*
X48227000Y-59303720D02*
X48227000Y-56103720D01*
X48227000Y-56103720D02*
X42977000Y-56103720D01*
X42596000Y-69971720D02*
X45796000Y-69971720D01*
X45796000Y-69971720D02*
X45796000Y-64721720D01*
X45796000Y-64721720D02*
X42596000Y-64721720D01*
X42596000Y-64721720D02*
X42596000Y-69971720D01*
X45898000Y-64637720D02*
X49098000Y-64637720D01*
X49098000Y-64637720D02*
X49098000Y-59387720D01*
X49098000Y-59387720D02*
X45898000Y-59387720D01*
X45898000Y-59387720D02*
X45898000Y-64637720D01*
X39294000Y-61208720D02*
X42494000Y-61208720D01*
X42494000Y-61208720D02*
X42494000Y-55958720D01*
X42494000Y-55958720D02*
X39294000Y-55958720D01*
X39294000Y-55958720D02*
X39294000Y-61208720D01*
X42596000Y-64637720D02*
X45796000Y-64637720D01*
X45796000Y-64637720D02*
X45796000Y-59387720D01*
X45796000Y-59387720D02*
X42596000Y-59387720D01*
X42596000Y-59387720D02*
X42596000Y-64637720D01*
X45898000Y-69971720D02*
X49098000Y-69971720D01*
X49098000Y-69971720D02*
X49098000Y-64721720D01*
X49098000Y-64721720D02*
X45898000Y-64721720D01*
X45898000Y-64721720D02*
X45898000Y-69971720D01*
X25197000Y-69082720D02*
X28397000Y-69082720D01*
X28397000Y-69082720D02*
X28397000Y-63832720D01*
X28397000Y-63832720D02*
X25197000Y-63832720D01*
X25197000Y-63832720D02*
X25197000Y-69082720D01*
X21260000Y-69209720D02*
X24460000Y-69209720D01*
X24460000Y-69209720D02*
X24460000Y-63959720D01*
X24460000Y-63959720D02*
X21260000Y-63959720D01*
X21260000Y-63959720D02*
X21260000Y-69209720D01*
X28397000Y-63748720D02*
X28397000Y-60548720D01*
X28397000Y-60548720D02*
X23147000Y-60548720D01*
X23147000Y-60548720D02*
X23147000Y-63748720D01*
X23147000Y-63748720D02*
X28397000Y-63748720D01*
X25197000Y-56509720D02*
X28397000Y-56509720D01*
X28397000Y-56509720D02*
X28397000Y-51259720D01*
X28397000Y-51259720D02*
X25197000Y-51259720D01*
X25197000Y-51259720D02*
X25197000Y-56509720D01*
X24714000Y-51277720D02*
X21514000Y-51277720D01*
X21514000Y-51277720D02*
X21514000Y-56527720D01*
X21514000Y-56527720D02*
X24714000Y-56527720D01*
X24714000Y-56527720D02*
X24714000Y-51277720D01*
X24054000Y-47975720D02*
X24054000Y-51175720D01*
X24054000Y-51175720D02*
X29304000Y-51175720D01*
X29304000Y-51175720D02*
X29304000Y-47975720D01*
X29304000Y-47975720D02*
X24054000Y-47975720D01*
X18085000Y-47975720D02*
X18085000Y-51175720D01*
X18085000Y-51175720D02*
X23335000Y-51175720D01*
X23335000Y-51175720D02*
X23335000Y-47975720D01*
X23335000Y-47975720D02*
X18085000Y-47975720D01*
X14275000Y-56509720D02*
X17475000Y-56509720D01*
X17475000Y-56509720D02*
X17475000Y-51259720D01*
X17475000Y-51259720D02*
X14275000Y-51259720D01*
X14275000Y-51259720D02*
X14275000Y-56509720D01*
X21285000Y-51277720D02*
X18085000Y-51277720D01*
X18085000Y-51277720D02*
X18085000Y-56527720D01*
X18085000Y-56527720D02*
X21285000Y-56527720D01*
X21285000Y-56527720D02*
X21285000Y-51277720D01*
X28999000Y-50896720D02*
X28999000Y-69296720D01*
X28999000Y-69296720D02*
X38799000Y-69296720D01*
X38799000Y-69296720D02*
X38799000Y-50896720D01*
X38799000Y-50896720D02*
X28999000Y-50896720D01*
X18910000Y-56984720D02*
X18910000Y-64264720D01*
X18910000Y-56984720D02*
X14110000Y-56984720D01*
X14110000Y-64264720D02*
X18910000Y-64264720D01*
X14110000Y-64264720D02*
X14110000Y-56984720D01*
X42544000Y-61225720D02*
X39244000Y-61225720D01*
X39244000Y-61225720D02*
X39244000Y-65825720D01*
X39244000Y-65825720D02*
X42544000Y-65825720D01*
X42544000Y-65825720D02*
X42544000Y-61225720D01*
X34416000Y-45477720D02*
X31116000Y-45477720D01*
X31116000Y-45477720D02*
X31116000Y-50077720D01*
X31116000Y-50077720D02*
X34416000Y-50077720D01*
X34416000Y-50077720D02*
X34416000Y-45477720D01*
X24477000Y-44623720D02*
X24477000Y-47923720D01*
X24477000Y-47923720D02*
X29077000Y-47923720D01*
X29077000Y-47923720D02*
X29077000Y-44623720D01*
X29077000Y-44623720D02*
X24477000Y-44623720D01*
X42544000Y-65797720D02*
X39244000Y-65797720D01*
X39244000Y-65797720D02*
X39244000Y-70397720D01*
X39244000Y-70397720D02*
X42544000Y-70397720D01*
X42544000Y-70397720D02*
X42544000Y-65797720D01*
X82803000Y-65797720D02*
X79503000Y-65797720D01*
X79503000Y-65797720D02*
X79503000Y-70397720D01*
X79503000Y-70397720D02*
X82803000Y-70397720D01*
X82803000Y-70397720D02*
X82803000Y-65797720D01*
X64736000Y-44623720D02*
X64736000Y-47923720D01*
X64736000Y-47923720D02*
X69336000Y-47923720D01*
X69336000Y-47923720D02*
X69336000Y-44623720D01*
X69336000Y-44623720D02*
X64736000Y-44623720D01*
X74675000Y-45477720D02*
X71375000Y-45477720D01*
X71375000Y-45477720D02*
X71375000Y-50077720D01*
X71375000Y-50077720D02*
X74675000Y-50077720D01*
X74675000Y-50077720D02*
X74675000Y-45477720D01*
X82803000Y-61225720D02*
X79503000Y-61225720D01*
X79503000Y-61225720D02*
X79503000Y-65825720D01*
X79503000Y-65825720D02*
X82803000Y-65825720D01*
X82803000Y-65825720D02*
X82803000Y-61225720D01*
X59169000Y-56984720D02*
X59169000Y-64264720D01*
X59169000Y-56984720D02*
X54369000Y-56984720D01*
X54369000Y-64264720D02*
X59169000Y-64264720D01*
X54369000Y-64264720D02*
X54369000Y-56984720D01*
X69258000Y-50896720D02*
X69258000Y-69296720D01*
X69258000Y-69296720D02*
X79058000Y-69296720D01*
X79058000Y-69296720D02*
X79058000Y-50896720D01*
X79058000Y-50896720D02*
X69258000Y-50896720D01*
X61544000Y-51277720D02*
X58344000Y-51277720D01*
X58344000Y-51277720D02*
X58344000Y-56527720D01*
X58344000Y-56527720D02*
X61544000Y-56527720D01*
X61544000Y-56527720D02*
X61544000Y-51277720D01*
X54534000Y-56509720D02*
X57734000Y-56509720D01*
X57734000Y-56509720D02*
X57734000Y-51259720D01*
X57734000Y-51259720D02*
X54534000Y-51259720D01*
X54534000Y-51259720D02*
X54534000Y-56509720D01*
X58344000Y-47975720D02*
X58344000Y-51175720D01*
X58344000Y-51175720D02*
X63594000Y-51175720D01*
X63594000Y-51175720D02*
X63594000Y-47975720D01*
X63594000Y-47975720D02*
X58344000Y-47975720D01*
X64313000Y-47975720D02*
X64313000Y-51175720D01*
X64313000Y-51175720D02*
X69563000Y-51175720D01*
X69563000Y-51175720D02*
X69563000Y-47975720D01*
X69563000Y-47975720D02*
X64313000Y-47975720D01*
X64973000Y-51277720D02*
X61773000Y-51277720D01*
X61773000Y-51277720D02*
X61773000Y-56527720D01*
X61773000Y-56527720D02*
X64973000Y-56527720D01*
X64973000Y-56527720D02*
X64973000Y-51277720D01*
X65456000Y-56509720D02*
X68656000Y-56509720D01*
X68656000Y-56509720D02*
X68656000Y-51259720D01*
X68656000Y-51259720D02*
X65456000Y-51259720D01*
X65456000Y-51259720D02*
X65456000Y-56509720D01*
X68656000Y-63748720D02*
X68656000Y-60548720D01*
X68656000Y-60548720D02*
X63406000Y-60548720D01*
X63406000Y-60548720D02*
X63406000Y-63748720D01*
X63406000Y-63748720D02*
X68656000Y-63748720D01*
X61519000Y-69209720D02*
X64719000Y-69209720D01*
X64719000Y-69209720D02*
X64719000Y-63959720D01*
X64719000Y-63959720D02*
X61519000Y-63959720D01*
X61519000Y-63959720D02*
X61519000Y-69209720D01*
X65456000Y-69082720D02*
X68656000Y-69082720D01*
X68656000Y-69082720D02*
X68656000Y-63832720D01*
X68656000Y-63832720D02*
X65456000Y-63832720D01*
X65456000Y-63832720D02*
X65456000Y-69082720D01*
X86157000Y-69971720D02*
X89357000Y-69971720D01*
X89357000Y-69971720D02*
X89357000Y-64721720D01*
X89357000Y-64721720D02*
X86157000Y-64721720D01*
X86157000Y-64721720D02*
X86157000Y-69971720D01*
X82855000Y-64637720D02*
X86055000Y-64637720D01*
X86055000Y-64637720D02*
X86055000Y-59387720D01*
X86055000Y-59387720D02*
X82855000Y-59387720D01*
X82855000Y-59387720D02*
X82855000Y-64637720D01*
X79553000Y-61208720D02*
X82753000Y-61208720D01*
X82753000Y-61208720D02*
X82753000Y-55958720D01*
X82753000Y-55958720D02*
X79553000Y-55958720D01*
X79553000Y-55958720D02*
X79553000Y-61208720D01*
X86157000Y-64637720D02*
X89357000Y-64637720D01*
X89357000Y-64637720D02*
X89357000Y-59387720D01*
X89357000Y-59387720D02*
X86157000Y-59387720D01*
X86157000Y-59387720D02*
X86157000Y-64637720D01*
X82855000Y-69971720D02*
X86055000Y-69971720D01*
X86055000Y-69971720D02*
X86055000Y-64721720D01*
X86055000Y-64721720D02*
X82855000Y-64721720D01*
X82855000Y-64721720D02*
X82855000Y-69971720D01*
X83236000Y-56103720D02*
X83236000Y-59303720D01*
X83236000Y-59303720D02*
X88486000Y-59303720D01*
X88486000Y-59303720D02*
X88486000Y-56103720D01*
X88486000Y-56103720D02*
X83236000Y-56103720D01*
X75235000Y-47467720D02*
X75235000Y-50667720D01*
X75235000Y-50667720D02*
X80485000Y-50667720D01*
X80485000Y-50667720D02*
X80485000Y-47467720D01*
X80485000Y-47467720D02*
X75235000Y-47467720D01*
X80569000Y-48356720D02*
X80569000Y-51556720D01*
X80569000Y-51556720D02*
X85819000Y-51556720D01*
X85819000Y-51556720D02*
X85819000Y-48356720D01*
X85819000Y-48356720D02*
X80569000Y-48356720D01*
X84785000Y-55747720D02*
X84785000Y-52547720D01*
X84785000Y-52547720D02*
X79535000Y-52547720D01*
X79535000Y-52547720D02*
X79535000Y-55747720D01*
X79535000Y-55747720D02*
X84785000Y-55747720D01*
X62916000Y-57119720D02*
X62916000Y-60319720D01*
X62916000Y-60319720D02*
X68616000Y-60319720D01*
X68616000Y-60319720D02*
X68616000Y-57119720D01*
X68616000Y-57119720D02*
X62916000Y-57119720D01*
X54534000Y-51048720D02*
X57734000Y-51048720D01*
X57734000Y-51048720D02*
X57734000Y-45348720D01*
X57734000Y-45348720D02*
X54534000Y-45348720D01*
X54534000Y-45348720D02*
X54534000Y-51048720D01*
X62737000Y-57542720D02*
X59437000Y-57542720D01*
X59437000Y-57542720D02*
X59437000Y-62142720D01*
X59437000Y-62142720D02*
X62737000Y-62142720D01*
X62737000Y-62142720D02*
X62737000Y-57542720D01*
X102993460Y-57542720D02*
X99693460Y-57542720D01*
X99693460Y-57542720D02*
X99693460Y-62142720D01*
X99693460Y-62142720D02*
X102993460Y-62142720D01*
X102993460Y-62142720D02*
X102993460Y-57542720D01*
X94790460Y-51048720D02*
X97990460Y-51048720D01*
X97990460Y-51048720D02*
X97990460Y-45348720D01*
X97990460Y-45348720D02*
X94790460Y-45348720D01*
X94790460Y-45348720D02*
X94790460Y-51048720D01*
X103172460Y-57119720D02*
X103172460Y-60319720D01*
X103172460Y-60319720D02*
X108872460Y-60319720D01*
X108872460Y-60319720D02*
X108872460Y-57119720D01*
X108872460Y-57119720D02*
X103172460Y-57119720D01*
X125041460Y-55747720D02*
X125041460Y-52547720D01*
X125041460Y-52547720D02*
X119791460Y-52547720D01*
X119791460Y-52547720D02*
X119791460Y-55747720D01*
X119791460Y-55747720D02*
X125041460Y-55747720D01*
X120825460Y-48356720D02*
X120825460Y-51556720D01*
X120825460Y-51556720D02*
X126075460Y-51556720D01*
X126075460Y-51556720D02*
X126075460Y-48356720D01*
X126075460Y-48356720D02*
X120825460Y-48356720D01*
X115491460Y-47467720D02*
X115491460Y-50667720D01*
X115491460Y-50667720D02*
X120741460Y-50667720D01*
X120741460Y-50667720D02*
X120741460Y-47467720D01*
X120741460Y-47467720D02*
X115491460Y-47467720D01*
X123492460Y-56103720D02*
X123492460Y-59303720D01*
X123492460Y-59303720D02*
X128742460Y-59303720D01*
X128742460Y-59303720D02*
X128742460Y-56103720D01*
X128742460Y-56103720D02*
X123492460Y-56103720D01*
X123111460Y-69971720D02*
X126311460Y-69971720D01*
X126311460Y-69971720D02*
X126311460Y-64721720D01*
X126311460Y-64721720D02*
X123111460Y-64721720D01*
X123111460Y-64721720D02*
X123111460Y-69971720D01*
X126413460Y-64637720D02*
X129613460Y-64637720D01*
X129613460Y-64637720D02*
X129613460Y-59387720D01*
X129613460Y-59387720D02*
X126413460Y-59387720D01*
X126413460Y-59387720D02*
X126413460Y-64637720D01*
X119809460Y-61208720D02*
X123009460Y-61208720D01*
X123009460Y-61208720D02*
X123009460Y-55958720D01*
X123009460Y-55958720D02*
X119809460Y-55958720D01*
X119809460Y-55958720D02*
X119809460Y-61208720D01*
X123111460Y-64637720D02*
X126311460Y-64637720D01*
X126311460Y-64637720D02*
X126311460Y-59387720D01*
X126311460Y-59387720D02*
X123111460Y-59387720D01*
X123111460Y-59387720D02*
X123111460Y-64637720D01*
X126413460Y-69971720D02*
X129613460Y-69971720D01*
X129613460Y-69971720D02*
X129613460Y-64721720D01*
X129613460Y-64721720D02*
X126413460Y-64721720D01*
X126413460Y-64721720D02*
X126413460Y-69971720D01*
X105712460Y-69082720D02*
X108912460Y-69082720D01*
X108912460Y-69082720D02*
X108912460Y-63832720D01*
X108912460Y-63832720D02*
X105712460Y-63832720D01*
X105712460Y-63832720D02*
X105712460Y-69082720D01*
X101775460Y-69209720D02*
X104975460Y-69209720D01*
X104975460Y-69209720D02*
X104975460Y-63959720D01*
X104975460Y-63959720D02*
X101775460Y-63959720D01*
X101775460Y-63959720D02*
X101775460Y-69209720D01*
X108912460Y-63748720D02*
X108912460Y-60548720D01*
X108912460Y-60548720D02*
X103662460Y-60548720D01*
X103662460Y-60548720D02*
X103662460Y-63748720D01*
X103662460Y-63748720D02*
X108912460Y-63748720D01*
X105712460Y-56509720D02*
X108912460Y-56509720D01*
X108912460Y-56509720D02*
X108912460Y-51259720D01*
X108912460Y-51259720D02*
X105712460Y-51259720D01*
X105712460Y-51259720D02*
X105712460Y-56509720D01*
X105229460Y-51277720D02*
X102029460Y-51277720D01*
X102029460Y-51277720D02*
X102029460Y-56527720D01*
X102029460Y-56527720D02*
X105229460Y-56527720D01*
X105229460Y-56527720D02*
X105229460Y-51277720D01*
X104569460Y-47975720D02*
X104569460Y-51175720D01*
X104569460Y-51175720D02*
X109819460Y-51175720D01*
X109819460Y-51175720D02*
X109819460Y-47975720D01*
X109819460Y-47975720D02*
X104569460Y-47975720D01*
X98600460Y-47975720D02*
X98600460Y-51175720D01*
X98600460Y-51175720D02*
X103850460Y-51175720D01*
X103850460Y-51175720D02*
X103850460Y-47975720D01*
X103850460Y-47975720D02*
X98600460Y-47975720D01*
X94790460Y-56509720D02*
X97990460Y-56509720D01*
X97990460Y-56509720D02*
X97990460Y-51259720D01*
X97990460Y-51259720D02*
X94790460Y-51259720D01*
X94790460Y-51259720D02*
X94790460Y-56509720D01*
X101800460Y-51277720D02*
X98600460Y-51277720D01*
X98600460Y-51277720D02*
X98600460Y-56527720D01*
X98600460Y-56527720D02*
X101800460Y-56527720D01*
X101800460Y-56527720D02*
X101800460Y-51277720D01*
X109514460Y-50896720D02*
X109514460Y-69296720D01*
X109514460Y-69296720D02*
X119314460Y-69296720D01*
X119314460Y-69296720D02*
X119314460Y-50896720D01*
X119314460Y-50896720D02*
X109514460Y-50896720D01*
X99425460Y-56984720D02*
X99425460Y-64264720D01*
X99425460Y-56984720D02*
X94625460Y-56984720D01*
X94625460Y-64264720D02*
X99425460Y-64264720D01*
X94625460Y-64264720D02*
X94625460Y-56984720D01*
X123059460Y-61225720D02*
X119759460Y-61225720D01*
X119759460Y-61225720D02*
X119759460Y-65825720D01*
X119759460Y-65825720D02*
X123059460Y-65825720D01*
X123059460Y-65825720D02*
X123059460Y-61225720D01*
X114931460Y-45477720D02*
X111631460Y-45477720D01*
X111631460Y-45477720D02*
X111631460Y-50077720D01*
X111631460Y-50077720D02*
X114931460Y-50077720D01*
X114931460Y-50077720D02*
X114931460Y-45477720D01*
X104992460Y-44623720D02*
X104992460Y-47923720D01*
X104992460Y-47923720D02*
X109592460Y-47923720D01*
X109592460Y-47923720D02*
X109592460Y-44623720D01*
X109592460Y-44623720D02*
X104992460Y-44623720D01*
X123059460Y-65797720D02*
X119759460Y-65797720D01*
X119759460Y-65797720D02*
X119759460Y-70397720D01*
X119759460Y-70397720D02*
X123059460Y-70397720D01*
X123059460Y-70397720D02*
X123059460Y-65797720D01*
X163315920Y-65797720D02*
X160015920Y-65797720D01*
X160015920Y-65797720D02*
X160015920Y-70397720D01*
X160015920Y-70397720D02*
X163315920Y-70397720D01*
X163315920Y-70397720D02*
X163315920Y-65797720D01*
X145248920Y-44623720D02*
X145248920Y-47923720D01*
X145248920Y-47923720D02*
X149848920Y-47923720D01*
X149848920Y-47923720D02*
X149848920Y-44623720D01*
X149848920Y-44623720D02*
X145248920Y-44623720D01*
X155187920Y-45477720D02*
X151887920Y-45477720D01*
X151887920Y-45477720D02*
X151887920Y-50077720D01*
X151887920Y-50077720D02*
X155187920Y-50077720D01*
X155187920Y-50077720D02*
X155187920Y-45477720D01*
X163315920Y-61225720D02*
X160015920Y-61225720D01*
X160015920Y-61225720D02*
X160015920Y-65825720D01*
X160015920Y-65825720D02*
X163315920Y-65825720D01*
X163315920Y-65825720D02*
X163315920Y-61225720D01*
X139681920Y-56984720D02*
X139681920Y-64264720D01*
X139681920Y-56984720D02*
X134881920Y-56984720D01*
X134881920Y-64264720D02*
X139681920Y-64264720D01*
X134881920Y-64264720D02*
X134881920Y-56984720D01*
X149770920Y-50896720D02*
X149770920Y-69296720D01*
X149770920Y-69296720D02*
X159570920Y-69296720D01*
X159570920Y-69296720D02*
X159570920Y-50896720D01*
X159570920Y-50896720D02*
X149770920Y-50896720D01*
X142056920Y-51277720D02*
X138856920Y-51277720D01*
X138856920Y-51277720D02*
X138856920Y-56527720D01*
X138856920Y-56527720D02*
X142056920Y-56527720D01*
X142056920Y-56527720D02*
X142056920Y-51277720D01*
X135046920Y-56509720D02*
X138246920Y-56509720D01*
X138246920Y-56509720D02*
X138246920Y-51259720D01*
X138246920Y-51259720D02*
X135046920Y-51259720D01*
X135046920Y-51259720D02*
X135046920Y-56509720D01*
X138856920Y-47975720D02*
X138856920Y-51175720D01*
X138856920Y-51175720D02*
X144106920Y-51175720D01*
X144106920Y-51175720D02*
X144106920Y-47975720D01*
X144106920Y-47975720D02*
X138856920Y-47975720D01*
X144825920Y-47975720D02*
X144825920Y-51175720D01*
X144825920Y-51175720D02*
X150075920Y-51175720D01*
X150075920Y-51175720D02*
X150075920Y-47975720D01*
X150075920Y-47975720D02*
X144825920Y-47975720D01*
X145485920Y-51277720D02*
X142285920Y-51277720D01*
X142285920Y-51277720D02*
X142285920Y-56527720D01*
X142285920Y-56527720D02*
X145485920Y-56527720D01*
X145485920Y-56527720D02*
X145485920Y-51277720D01*
X145968920Y-56509720D02*
X149168920Y-56509720D01*
X149168920Y-56509720D02*
X149168920Y-51259720D01*
X149168920Y-51259720D02*
X145968920Y-51259720D01*
X145968920Y-51259720D02*
X145968920Y-56509720D01*
X149168920Y-63748720D02*
X149168920Y-60548720D01*
X149168920Y-60548720D02*
X143918920Y-60548720D01*
X143918920Y-60548720D02*
X143918920Y-63748720D01*
X143918920Y-63748720D02*
X149168920Y-63748720D01*
X142031920Y-69209720D02*
X145231920Y-69209720D01*
X145231920Y-69209720D02*
X145231920Y-63959720D01*
X145231920Y-63959720D02*
X142031920Y-63959720D01*
X142031920Y-63959720D02*
X142031920Y-69209720D01*
X145968920Y-69082720D02*
X149168920Y-69082720D01*
X149168920Y-69082720D02*
X149168920Y-63832720D01*
X149168920Y-63832720D02*
X145968920Y-63832720D01*
X145968920Y-63832720D02*
X145968920Y-69082720D01*
X166669920Y-69971720D02*
X169869920Y-69971720D01*
X169869920Y-69971720D02*
X169869920Y-64721720D01*
X169869920Y-64721720D02*
X166669920Y-64721720D01*
X166669920Y-64721720D02*
X166669920Y-69971720D01*
X163367920Y-64637720D02*
X166567920Y-64637720D01*
X166567920Y-64637720D02*
X166567920Y-59387720D01*
X166567920Y-59387720D02*
X163367920Y-59387720D01*
X163367920Y-59387720D02*
X163367920Y-64637720D01*
X160065920Y-61208720D02*
X163265920Y-61208720D01*
X163265920Y-61208720D02*
X163265920Y-55958720D01*
X163265920Y-55958720D02*
X160065920Y-55958720D01*
X160065920Y-55958720D02*
X160065920Y-61208720D01*
X166669920Y-64637720D02*
X169869920Y-64637720D01*
X169869920Y-64637720D02*
X169869920Y-59387720D01*
X169869920Y-59387720D02*
X166669920Y-59387720D01*
X166669920Y-59387720D02*
X166669920Y-64637720D01*
X163367920Y-69971720D02*
X166567920Y-69971720D01*
X166567920Y-69971720D02*
X166567920Y-64721720D01*
X166567920Y-64721720D02*
X163367920Y-64721720D01*
X163367920Y-64721720D02*
X163367920Y-69971720D01*
X163748920Y-56103720D02*
X163748920Y-59303720D01*
X163748920Y-59303720D02*
X168998920Y-59303720D01*
X168998920Y-59303720D02*
X168998920Y-56103720D01*
X168998920Y-56103720D02*
X163748920Y-56103720D01*
X155747920Y-47467720D02*
X155747920Y-50667720D01*
X155747920Y-50667720D02*
X160997920Y-50667720D01*
X160997920Y-50667720D02*
X160997920Y-47467720D01*
X160997920Y-47467720D02*
X155747920Y-47467720D01*
X161081920Y-48356720D02*
X161081920Y-51556720D01*
X161081920Y-51556720D02*
X166331920Y-51556720D01*
X166331920Y-51556720D02*
X166331920Y-48356720D01*
X166331920Y-48356720D02*
X161081920Y-48356720D01*
X165297920Y-55747720D02*
X165297920Y-52547720D01*
X165297920Y-52547720D02*
X160047920Y-52547720D01*
X160047920Y-52547720D02*
X160047920Y-55747720D01*
X160047920Y-55747720D02*
X165297920Y-55747720D01*
X143428920Y-57119720D02*
X143428920Y-60319720D01*
X143428920Y-60319720D02*
X149128920Y-60319720D01*
X149128920Y-60319720D02*
X149128920Y-57119720D01*
X149128920Y-57119720D02*
X143428920Y-57119720D01*
X135046920Y-51048720D02*
X138246920Y-51048720D01*
X138246920Y-51048720D02*
X138246920Y-45348720D01*
X138246920Y-45348720D02*
X135046920Y-45348720D01*
X135046920Y-45348720D02*
X135046920Y-51048720D01*
X143249920Y-57542720D02*
X139949920Y-57542720D01*
X139949920Y-57542720D02*
X139949920Y-62142720D01*
X139949920Y-62142720D02*
X143249920Y-62142720D01*
X143249920Y-62142720D02*
X143249920Y-57542720D01*
X143249920Y-27779000D02*
X139949920Y-27779000D01*
X139949920Y-27779000D02*
X139949920Y-32379000D01*
X139949920Y-32379000D02*
X143249920Y-32379000D01*
X143249920Y-32379000D02*
X143249920Y-27779000D01*
X135046920Y-21285000D02*
X138246920Y-21285000D01*
X138246920Y-21285000D02*
X138246920Y-15585000D01*
X138246920Y-15585000D02*
X135046920Y-15585000D01*
X135046920Y-15585000D02*
X135046920Y-21285000D01*
X143428920Y-27356000D02*
X143428920Y-30556000D01*
X143428920Y-30556000D02*
X149128920Y-30556000D01*
X149128920Y-30556000D02*
X149128920Y-27356000D01*
X149128920Y-27356000D02*
X143428920Y-27356000D01*
X165297920Y-25984000D02*
X165297920Y-22784000D01*
X165297920Y-22784000D02*
X160047920Y-22784000D01*
X160047920Y-22784000D02*
X160047920Y-25984000D01*
X160047920Y-25984000D02*
X165297920Y-25984000D01*
X161081920Y-18593000D02*
X161081920Y-21793000D01*
X161081920Y-21793000D02*
X166331920Y-21793000D01*
X166331920Y-21793000D02*
X166331920Y-18593000D01*
X166331920Y-18593000D02*
X161081920Y-18593000D01*
X155747920Y-17704000D02*
X155747920Y-20904000D01*
X155747920Y-20904000D02*
X160997920Y-20904000D01*
X160997920Y-20904000D02*
X160997920Y-17704000D01*
X160997920Y-17704000D02*
X155747920Y-17704000D01*
X163748920Y-26340000D02*
X163748920Y-29540000D01*
X163748920Y-29540000D02*
X168998920Y-29540000D01*
X168998920Y-29540000D02*
X168998920Y-26340000D01*
X168998920Y-26340000D02*
X163748920Y-26340000D01*
X163367920Y-40208000D02*
X166567920Y-40208000D01*
X166567920Y-40208000D02*
X166567920Y-34958000D01*
X166567920Y-34958000D02*
X163367920Y-34958000D01*
X163367920Y-34958000D02*
X163367920Y-40208000D01*
X166669920Y-34874000D02*
X169869920Y-34874000D01*
X169869920Y-34874000D02*
X169869920Y-29624000D01*
X169869920Y-29624000D02*
X166669920Y-29624000D01*
X166669920Y-29624000D02*
X166669920Y-34874000D01*
X160065920Y-31445000D02*
X163265920Y-31445000D01*
X163265920Y-31445000D02*
X163265920Y-26195000D01*
X163265920Y-26195000D02*
X160065920Y-26195000D01*
X160065920Y-26195000D02*
X160065920Y-31445000D01*
X163367920Y-34874000D02*
X166567920Y-34874000D01*
X166567920Y-34874000D02*
X166567920Y-29624000D01*
X166567920Y-29624000D02*
X163367920Y-29624000D01*
X163367920Y-29624000D02*
X163367920Y-34874000D01*
X166669920Y-40208000D02*
X169869920Y-40208000D01*
X169869920Y-40208000D02*
X169869920Y-34958000D01*
X169869920Y-34958000D02*
X166669920Y-34958000D01*
X166669920Y-34958000D02*
X166669920Y-40208000D01*
X145968920Y-39319000D02*
X149168920Y-39319000D01*
X149168920Y-39319000D02*
X149168920Y-34069000D01*
X149168920Y-34069000D02*
X145968920Y-34069000D01*
X145968920Y-34069000D02*
X145968920Y-39319000D01*
X142031920Y-39446000D02*
X145231920Y-39446000D01*
X145231920Y-39446000D02*
X145231920Y-34196000D01*
X145231920Y-34196000D02*
X142031920Y-34196000D01*
X142031920Y-34196000D02*
X142031920Y-39446000D01*
X149168920Y-33985000D02*
X149168920Y-30785000D01*
X149168920Y-30785000D02*
X143918920Y-30785000D01*
X143918920Y-30785000D02*
X143918920Y-33985000D01*
X143918920Y-33985000D02*
X149168920Y-33985000D01*
X145968920Y-26746000D02*
X149168920Y-26746000D01*
X149168920Y-26746000D02*
X149168920Y-21496000D01*
X149168920Y-21496000D02*
X145968920Y-21496000D01*
X145968920Y-21496000D02*
X145968920Y-26746000D01*
X145485920Y-21514000D02*
X142285920Y-21514000D01*
X142285920Y-21514000D02*
X142285920Y-26764000D01*
X142285920Y-26764000D02*
X145485920Y-26764000D01*
X145485920Y-26764000D02*
X145485920Y-21514000D01*
X144825920Y-18212000D02*
X144825920Y-21412000D01*
X144825920Y-21412000D02*
X150075920Y-21412000D01*
X150075920Y-21412000D02*
X150075920Y-18212000D01*
X150075920Y-18212000D02*
X144825920Y-18212000D01*
X138856920Y-18212000D02*
X138856920Y-21412000D01*
X138856920Y-21412000D02*
X144106920Y-21412000D01*
X144106920Y-21412000D02*
X144106920Y-18212000D01*
X144106920Y-18212000D02*
X138856920Y-18212000D01*
X135046920Y-26746000D02*
X138246920Y-26746000D01*
X138246920Y-26746000D02*
X138246920Y-21496000D01*
X138246920Y-21496000D02*
X135046920Y-21496000D01*
X135046920Y-21496000D02*
X135046920Y-26746000D01*
X142056920Y-21514000D02*
X138856920Y-21514000D01*
X138856920Y-21514000D02*
X138856920Y-26764000D01*
X138856920Y-26764000D02*
X142056920Y-26764000D01*
X142056920Y-26764000D02*
X142056920Y-21514000D01*
X149770920Y-21133000D02*
X149770920Y-39533000D01*
X149770920Y-39533000D02*
X159570920Y-39533000D01*
X159570920Y-39533000D02*
X159570920Y-21133000D01*
X159570920Y-21133000D02*
X149770920Y-21133000D01*
X139681920Y-27221000D02*
X139681920Y-34501000D01*
X139681920Y-27221000D02*
X134881920Y-27221000D01*
X134881920Y-34501000D02*
X139681920Y-34501000D01*
X134881920Y-34501000D02*
X134881920Y-27221000D01*
X163315920Y-31462000D02*
X160015920Y-31462000D01*
X160015920Y-31462000D02*
X160015920Y-36062000D01*
X160015920Y-36062000D02*
X163315920Y-36062000D01*
X163315920Y-36062000D02*
X163315920Y-31462000D01*
X155187920Y-15714000D02*
X151887920Y-15714000D01*
X151887920Y-15714000D02*
X151887920Y-20314000D01*
X151887920Y-20314000D02*
X155187920Y-20314000D01*
X155187920Y-20314000D02*
X155187920Y-15714000D01*
X145248920Y-14860000D02*
X145248920Y-18160000D01*
X145248920Y-18160000D02*
X149848920Y-18160000D01*
X149848920Y-18160000D02*
X149848920Y-14860000D01*
X149848920Y-14860000D02*
X145248920Y-14860000D01*
X163315920Y-36034000D02*
X160015920Y-36034000D01*
X160015920Y-36034000D02*
X160015920Y-40634000D01*
X160015920Y-40634000D02*
X163315920Y-40634000D01*
X163315920Y-40634000D02*
X163315920Y-36034000D01*
X123059460Y-36034000D02*
X119759460Y-36034000D01*
X119759460Y-36034000D02*
X119759460Y-40634000D01*
X119759460Y-40634000D02*
X123059460Y-40634000D01*
X123059460Y-40634000D02*
X123059460Y-36034000D01*
X104992460Y-14860000D02*
X104992460Y-18160000D01*
X104992460Y-18160000D02*
X109592460Y-18160000D01*
X109592460Y-18160000D02*
X109592460Y-14860000D01*
X109592460Y-14860000D02*
X104992460Y-14860000D01*
X114931460Y-15714000D02*
X111631460Y-15714000D01*
X111631460Y-15714000D02*
X111631460Y-20314000D01*
X111631460Y-20314000D02*
X114931460Y-20314000D01*
X114931460Y-20314000D02*
X114931460Y-15714000D01*
X123059460Y-31462000D02*
X119759460Y-31462000D01*
X119759460Y-31462000D02*
X119759460Y-36062000D01*
X119759460Y-36062000D02*
X123059460Y-36062000D01*
X123059460Y-36062000D02*
X123059460Y-31462000D01*
X99425460Y-27221000D02*
X99425460Y-34501000D01*
X99425460Y-27221000D02*
X94625460Y-27221000D01*
X94625460Y-34501000D02*
X99425460Y-34501000D01*
X94625460Y-34501000D02*
X94625460Y-27221000D01*
X109514460Y-21133000D02*
X109514460Y-39533000D01*
X109514460Y-39533000D02*
X119314460Y-39533000D01*
X119314460Y-39533000D02*
X119314460Y-21133000D01*
X119314460Y-21133000D02*
X109514460Y-21133000D01*
X101800460Y-21514000D02*
X98600460Y-21514000D01*
X98600460Y-21514000D02*
X98600460Y-26764000D01*
X98600460Y-26764000D02*
X101800460Y-26764000D01*
X101800460Y-26764000D02*
X101800460Y-21514000D01*
X94790460Y-26746000D02*
X97990460Y-26746000D01*
X97990460Y-26746000D02*
X97990460Y-21496000D01*
X97990460Y-21496000D02*
X94790460Y-21496000D01*
X94790460Y-21496000D02*
X94790460Y-26746000D01*
X98600460Y-18212000D02*
X98600460Y-21412000D01*
X98600460Y-21412000D02*
X103850460Y-21412000D01*
X103850460Y-21412000D02*
X103850460Y-18212000D01*
X103850460Y-18212000D02*
X98600460Y-18212000D01*
X104569460Y-18212000D02*
X104569460Y-21412000D01*
X104569460Y-21412000D02*
X109819460Y-21412000D01*
X109819460Y-21412000D02*
X109819460Y-18212000D01*
X109819460Y-18212000D02*
X104569460Y-18212000D01*
X105229460Y-21514000D02*
X102029460Y-21514000D01*
X102029460Y-21514000D02*
X102029460Y-26764000D01*
X102029460Y-26764000D02*
X105229460Y-26764000D01*
X105229460Y-26764000D02*
X105229460Y-21514000D01*
X105712460Y-26746000D02*
X108912460Y-26746000D01*
X108912460Y-26746000D02*
X108912460Y-21496000D01*
X108912460Y-21496000D02*
X105712460Y-21496000D01*
X105712460Y-21496000D02*
X105712460Y-26746000D01*
X108912460Y-33985000D02*
X108912460Y-30785000D01*
X108912460Y-30785000D02*
X103662460Y-30785000D01*
X103662460Y-30785000D02*
X103662460Y-33985000D01*
X103662460Y-33985000D02*
X108912460Y-33985000D01*
X101775460Y-39446000D02*
X104975460Y-39446000D01*
X104975460Y-39446000D02*
X104975460Y-34196000D01*
X104975460Y-34196000D02*
X101775460Y-34196000D01*
X101775460Y-34196000D02*
X101775460Y-39446000D01*
X105712460Y-39319000D02*
X108912460Y-39319000D01*
X108912460Y-39319000D02*
X108912460Y-34069000D01*
X108912460Y-34069000D02*
X105712460Y-34069000D01*
X105712460Y-34069000D02*
X105712460Y-39319000D01*
X126413460Y-40208000D02*
X129613460Y-40208000D01*
X129613460Y-40208000D02*
X129613460Y-34958000D01*
X129613460Y-34958000D02*
X126413460Y-34958000D01*
X126413460Y-34958000D02*
X126413460Y-40208000D01*
X123111460Y-34874000D02*
X126311460Y-34874000D01*
X126311460Y-34874000D02*
X126311460Y-29624000D01*
X126311460Y-29624000D02*
X123111460Y-29624000D01*
X123111460Y-29624000D02*
X123111460Y-34874000D01*
X119809460Y-31445000D02*
X123009460Y-31445000D01*
X123009460Y-31445000D02*
X123009460Y-26195000D01*
X123009460Y-26195000D02*
X119809460Y-26195000D01*
X119809460Y-26195000D02*
X119809460Y-31445000D01*
X126413460Y-34874000D02*
X129613460Y-34874000D01*
X129613460Y-34874000D02*
X129613460Y-29624000D01*
X129613460Y-29624000D02*
X126413460Y-29624000D01*
X126413460Y-29624000D02*
X126413460Y-34874000D01*
X123111460Y-40208000D02*
X126311460Y-40208000D01*
X126311460Y-40208000D02*
X126311460Y-34958000D01*
X126311460Y-34958000D02*
X123111460Y-34958000D01*
X123111460Y-34958000D02*
X123111460Y-40208000D01*
X123492460Y-26340000D02*
X123492460Y-29540000D01*
X123492460Y-29540000D02*
X128742460Y-29540000D01*
X128742460Y-29540000D02*
X128742460Y-26340000D01*
X128742460Y-26340000D02*
X123492460Y-26340000D01*
X115491460Y-17704000D02*
X115491460Y-20904000D01*
X115491460Y-20904000D02*
X120741460Y-20904000D01*
X120741460Y-20904000D02*
X120741460Y-17704000D01*
X120741460Y-17704000D02*
X115491460Y-17704000D01*
X120825460Y-18593000D02*
X120825460Y-21793000D01*
X120825460Y-21793000D02*
X126075460Y-21793000D01*
X126075460Y-21793000D02*
X126075460Y-18593000D01*
X126075460Y-18593000D02*
X120825460Y-18593000D01*
X125041460Y-25984000D02*
X125041460Y-22784000D01*
X125041460Y-22784000D02*
X119791460Y-22784000D01*
X119791460Y-22784000D02*
X119791460Y-25984000D01*
X119791460Y-25984000D02*
X125041460Y-25984000D01*
X103172460Y-27356000D02*
X103172460Y-30556000D01*
X103172460Y-30556000D02*
X108872460Y-30556000D01*
X108872460Y-30556000D02*
X108872460Y-27356000D01*
X108872460Y-27356000D02*
X103172460Y-27356000D01*
X94790460Y-21285000D02*
X97990460Y-21285000D01*
X97990460Y-21285000D02*
X97990460Y-15585000D01*
X97990460Y-15585000D02*
X94790460Y-15585000D01*
X94790460Y-15585000D02*
X94790460Y-21285000D01*
X102993460Y-27779000D02*
X99693460Y-27779000D01*
X99693460Y-27779000D02*
X99693460Y-32379000D01*
X99693460Y-32379000D02*
X102993460Y-32379000D01*
X102993460Y-32379000D02*
X102993460Y-27779000D01*
X62737000Y-27779000D02*
X59437000Y-27779000D01*
X59437000Y-27779000D02*
X59437000Y-32379000D01*
X59437000Y-32379000D02*
X62737000Y-32379000D01*
X62737000Y-32379000D02*
X62737000Y-27779000D01*
X54534000Y-21285000D02*
X57734000Y-21285000D01*
X57734000Y-21285000D02*
X57734000Y-15585000D01*
X57734000Y-15585000D02*
X54534000Y-15585000D01*
X54534000Y-15585000D02*
X54534000Y-21285000D01*
X62916000Y-27356000D02*
X62916000Y-30556000D01*
X62916000Y-30556000D02*
X68616000Y-30556000D01*
X68616000Y-30556000D02*
X68616000Y-27356000D01*
X68616000Y-27356000D02*
X62916000Y-27356000D01*
X84785000Y-25984000D02*
X84785000Y-22784000D01*
X84785000Y-22784000D02*
X79535000Y-22784000D01*
X79535000Y-22784000D02*
X79535000Y-25984000D01*
X79535000Y-25984000D02*
X84785000Y-25984000D01*
X80569000Y-18593000D02*
X80569000Y-21793000D01*
X80569000Y-21793000D02*
X85819000Y-21793000D01*
X85819000Y-21793000D02*
X85819000Y-18593000D01*
X85819000Y-18593000D02*
X80569000Y-18593000D01*
X75235000Y-17704000D02*
X75235000Y-20904000D01*
X75235000Y-20904000D02*
X80485000Y-20904000D01*
X80485000Y-20904000D02*
X80485000Y-17704000D01*
X80485000Y-17704000D02*
X75235000Y-17704000D01*
X83236000Y-26340000D02*
X83236000Y-29540000D01*
X83236000Y-29540000D02*
X88486000Y-29540000D01*
X88486000Y-29540000D02*
X88486000Y-26340000D01*
X88486000Y-26340000D02*
X83236000Y-26340000D01*
X82855000Y-40208000D02*
X86055000Y-40208000D01*
X86055000Y-40208000D02*
X86055000Y-34958000D01*
X86055000Y-34958000D02*
X82855000Y-34958000D01*
X82855000Y-34958000D02*
X82855000Y-40208000D01*
X86157000Y-34874000D02*
X89357000Y-34874000D01*
X89357000Y-34874000D02*
X89357000Y-29624000D01*
X89357000Y-29624000D02*
X86157000Y-29624000D01*
X86157000Y-29624000D02*
X86157000Y-34874000D01*
X79553000Y-31445000D02*
X82753000Y-31445000D01*
X82753000Y-31445000D02*
X82753000Y-26195000D01*
X82753000Y-26195000D02*
X79553000Y-26195000D01*
X79553000Y-26195000D02*
X79553000Y-31445000D01*
X82855000Y-34874000D02*
X86055000Y-34874000D01*
X86055000Y-34874000D02*
X86055000Y-29624000D01*
X86055000Y-29624000D02*
X82855000Y-29624000D01*
X82855000Y-29624000D02*
X82855000Y-34874000D01*
X86157000Y-40208000D02*
X89357000Y-40208000D01*
X89357000Y-40208000D02*
X89357000Y-34958000D01*
X89357000Y-34958000D02*
X86157000Y-34958000D01*
X86157000Y-34958000D02*
X86157000Y-40208000D01*
X65456000Y-39319000D02*
X68656000Y-39319000D01*
X68656000Y-39319000D02*
X68656000Y-34069000D01*
X68656000Y-34069000D02*
X65456000Y-34069000D01*
X65456000Y-34069000D02*
X65456000Y-39319000D01*
X61519000Y-39446000D02*
X64719000Y-39446000D01*
X64719000Y-39446000D02*
X64719000Y-34196000D01*
X64719000Y-34196000D02*
X61519000Y-34196000D01*
X61519000Y-34196000D02*
X61519000Y-39446000D01*
X68656000Y-33985000D02*
X68656000Y-30785000D01*
X68656000Y-30785000D02*
X63406000Y-30785000D01*
X63406000Y-30785000D02*
X63406000Y-33985000D01*
X63406000Y-33985000D02*
X68656000Y-33985000D01*
X65456000Y-26746000D02*
X68656000Y-26746000D01*
X68656000Y-26746000D02*
X68656000Y-21496000D01*
X68656000Y-21496000D02*
X65456000Y-21496000D01*
X65456000Y-21496000D02*
X65456000Y-26746000D01*
X64973000Y-21514000D02*
X61773000Y-21514000D01*
X61773000Y-21514000D02*
X61773000Y-26764000D01*
X61773000Y-26764000D02*
X64973000Y-26764000D01*
X64973000Y-26764000D02*
X64973000Y-21514000D01*
X64313000Y-18212000D02*
X64313000Y-21412000D01*
X64313000Y-21412000D02*
X69563000Y-21412000D01*
X69563000Y-21412000D02*
X69563000Y-18212000D01*
X69563000Y-18212000D02*
X64313000Y-18212000D01*
X58344000Y-18212000D02*
X58344000Y-21412000D01*
X58344000Y-21412000D02*
X63594000Y-21412000D01*
X63594000Y-21412000D02*
X63594000Y-18212000D01*
X63594000Y-18212000D02*
X58344000Y-18212000D01*
X54534000Y-26746000D02*
X57734000Y-26746000D01*
X57734000Y-26746000D02*
X57734000Y-21496000D01*
X57734000Y-21496000D02*
X54534000Y-21496000D01*
X54534000Y-21496000D02*
X54534000Y-26746000D01*
X61544000Y-21514000D02*
X58344000Y-21514000D01*
X58344000Y-21514000D02*
X58344000Y-26764000D01*
X58344000Y-26764000D02*
X61544000Y-26764000D01*
X61544000Y-26764000D02*
X61544000Y-21514000D01*
X69258000Y-21133000D02*
X69258000Y-39533000D01*
X69258000Y-39533000D02*
X79058000Y-39533000D01*
X79058000Y-39533000D02*
X79058000Y-21133000D01*
X79058000Y-21133000D02*
X69258000Y-21133000D01*
X59169000Y-27221000D02*
X59169000Y-34501000D01*
X59169000Y-27221000D02*
X54369000Y-27221000D01*
X54369000Y-34501000D02*
X59169000Y-34501000D01*
X54369000Y-34501000D02*
X54369000Y-27221000D01*
X82803000Y-31462000D02*
X79503000Y-31462000D01*
X79503000Y-31462000D02*
X79503000Y-36062000D01*
X79503000Y-36062000D02*
X82803000Y-36062000D01*
X82803000Y-36062000D02*
X82803000Y-31462000D01*
X74675000Y-15714000D02*
X71375000Y-15714000D01*
X71375000Y-15714000D02*
X71375000Y-20314000D01*
X71375000Y-20314000D02*
X74675000Y-20314000D01*
X74675000Y-20314000D02*
X74675000Y-15714000D01*
X64736000Y-14860000D02*
X64736000Y-18160000D01*
X64736000Y-18160000D02*
X69336000Y-18160000D01*
X69336000Y-18160000D02*
X69336000Y-14860000D01*
X69336000Y-14860000D02*
X64736000Y-14860000D01*
X82803000Y-36034000D02*
X79503000Y-36034000D01*
X79503000Y-36034000D02*
X79503000Y-40634000D01*
X79503000Y-40634000D02*
X82803000Y-40634000D01*
X82803000Y-40634000D02*
X82803000Y-36034000D01*
X42544000Y-36034000D02*
X39244000Y-36034000D01*
X39244000Y-36034000D02*
X39244000Y-40634000D01*
X39244000Y-40634000D02*
X42544000Y-40634000D01*
X42544000Y-40634000D02*
X42544000Y-36034000D01*
X24477000Y-14860000D02*
X24477000Y-18160000D01*
X24477000Y-18160000D02*
X29077000Y-18160000D01*
X29077000Y-18160000D02*
X29077000Y-14860000D01*
X29077000Y-14860000D02*
X24477000Y-14860000D01*
X34416000Y-15714000D02*
X31116000Y-15714000D01*
X31116000Y-15714000D02*
X31116000Y-20314000D01*
X31116000Y-20314000D02*
X34416000Y-20314000D01*
X34416000Y-20314000D02*
X34416000Y-15714000D01*
X42544000Y-31462000D02*
X39244000Y-31462000D01*
X39244000Y-31462000D02*
X39244000Y-36062000D01*
X39244000Y-36062000D02*
X42544000Y-36062000D01*
X42544000Y-36062000D02*
X42544000Y-31462000D01*
X18910000Y-27221000D02*
X18910000Y-34501000D01*
X18910000Y-27221000D02*
X14110000Y-27221000D01*
X14110000Y-34501000D02*
X18910000Y-34501000D01*
X14110000Y-34501000D02*
X14110000Y-27221000D01*
X28999000Y-21133000D02*
X28999000Y-39533000D01*
X28999000Y-39533000D02*
X38799000Y-39533000D01*
X38799000Y-39533000D02*
X38799000Y-21133000D01*
X38799000Y-21133000D02*
X28999000Y-21133000D01*
X21285000Y-21514000D02*
X18085000Y-21514000D01*
X18085000Y-21514000D02*
X18085000Y-26764000D01*
X18085000Y-26764000D02*
X21285000Y-26764000D01*
X21285000Y-26764000D02*
X21285000Y-21514000D01*
X14275000Y-26746000D02*
X17475000Y-26746000D01*
X17475000Y-26746000D02*
X17475000Y-21496000D01*
X17475000Y-21496000D02*
X14275000Y-21496000D01*
X14275000Y-21496000D02*
X14275000Y-26746000D01*
X18085000Y-18212000D02*
X18085000Y-21412000D01*
X18085000Y-21412000D02*
X23335000Y-21412000D01*
X23335000Y-21412000D02*
X23335000Y-18212000D01*
X23335000Y-18212000D02*
X18085000Y-18212000D01*
X24054000Y-18212000D02*
X24054000Y-21412000D01*
X24054000Y-21412000D02*
X29304000Y-21412000D01*
X29304000Y-21412000D02*
X29304000Y-18212000D01*
X29304000Y-18212000D02*
X24054000Y-18212000D01*
X24714000Y-21514000D02*
X21514000Y-21514000D01*
X21514000Y-21514000D02*
X21514000Y-26764000D01*
X21514000Y-26764000D02*
X24714000Y-26764000D01*
X24714000Y-26764000D02*
X24714000Y-21514000D01*
X25197000Y-26746000D02*
X28397000Y-26746000D01*
X28397000Y-26746000D02*
X28397000Y-21496000D01*
X28397000Y-21496000D02*
X25197000Y-21496000D01*
X25197000Y-21496000D02*
X25197000Y-26746000D01*
X28397000Y-33985000D02*
X28397000Y-30785000D01*
X28397000Y-30785000D02*
X23147000Y-30785000D01*
X23147000Y-30785000D02*
X23147000Y-33985000D01*
X23147000Y-33985000D02*
X28397000Y-33985000D01*
X21260000Y-39446000D02*
X24460000Y-39446000D01*
X24460000Y-39446000D02*
X24460000Y-34196000D01*
X24460000Y-34196000D02*
X21260000Y-34196000D01*
X21260000Y-34196000D02*
X21260000Y-39446000D01*
X25197000Y-39319000D02*
X28397000Y-39319000D01*
X28397000Y-39319000D02*
X28397000Y-34069000D01*
X28397000Y-34069000D02*
X25197000Y-34069000D01*
X25197000Y-34069000D02*
X25197000Y-39319000D01*
X45898000Y-40208000D02*
X49098000Y-40208000D01*
X49098000Y-40208000D02*
X49098000Y-34958000D01*
X49098000Y-34958000D02*
X45898000Y-34958000D01*
X45898000Y-34958000D02*
X45898000Y-40208000D01*
X42596000Y-34874000D02*
X45796000Y-34874000D01*
X45796000Y-34874000D02*
X45796000Y-29624000D01*
X45796000Y-29624000D02*
X42596000Y-29624000D01*
X42596000Y-29624000D02*
X42596000Y-34874000D01*
X39294000Y-31445000D02*
X42494000Y-31445000D01*
X42494000Y-31445000D02*
X42494000Y-26195000D01*
X42494000Y-26195000D02*
X39294000Y-26195000D01*
X39294000Y-26195000D02*
X39294000Y-31445000D01*
X45898000Y-34874000D02*
X49098000Y-34874000D01*
X49098000Y-34874000D02*
X49098000Y-29624000D01*
X49098000Y-29624000D02*
X45898000Y-29624000D01*
X45898000Y-29624000D02*
X45898000Y-34874000D01*
X42596000Y-40208000D02*
X45796000Y-40208000D01*
X45796000Y-40208000D02*
X45796000Y-34958000D01*
X45796000Y-34958000D02*
X42596000Y-34958000D01*
X42596000Y-34958000D02*
X42596000Y-40208000D01*
X42977000Y-26340000D02*
X42977000Y-29540000D01*
X42977000Y-29540000D02*
X48227000Y-29540000D01*
X48227000Y-29540000D02*
X48227000Y-26340000D01*
X48227000Y-26340000D02*
X42977000Y-26340000D01*
X34976000Y-17704000D02*
X34976000Y-20904000D01*
X34976000Y-20904000D02*
X40226000Y-20904000D01*
X40226000Y-20904000D02*
X40226000Y-17704000D01*
X40226000Y-17704000D02*
X34976000Y-17704000D01*
X40310000Y-18593000D02*
X40310000Y-21793000D01*
X40310000Y-21793000D02*
X45560000Y-21793000D01*
X45560000Y-21793000D02*
X45560000Y-18593000D01*
X45560000Y-18593000D02*
X40310000Y-18593000D01*
X44526000Y-25984000D02*
X44526000Y-22784000D01*
X44526000Y-22784000D02*
X39276000Y-22784000D01*
X39276000Y-22784000D02*
X39276000Y-25984000D01*
X39276000Y-25984000D02*
X44526000Y-25984000D01*
X22657000Y-27356000D02*
X22657000Y-30556000D01*
X22657000Y-30556000D02*
X28357000Y-30556000D01*
X28357000Y-30556000D02*
X28357000Y-27356000D01*
X28357000Y-27356000D02*
X22657000Y-27356000D01*
X14275000Y-21285000D02*
X17475000Y-21285000D01*
X17475000Y-21285000D02*
X17475000Y-15585000D01*
X17475000Y-15585000D02*
X14275000Y-15585000D01*
X14275000Y-15585000D02*
X14275000Y-21285000D01*
X22478000Y-27779000D02*
X19178000Y-27779000D01*
X19178000Y-27779000D02*
X19178000Y-32379000D01*
X19178000Y-32379000D02*
X22478000Y-32379000D01*
X22478000Y-32379000D02*
X22478000Y-27779000D01*
M02*
