G04 #@! TF.FileFunction,Soldermask,Bot*
%FSLAX46Y46*%
G04 Gerber Fmt 4.6, Leading zero omitted, Abs format (unit mm)*
G04 Created by KiCad (PCBNEW 4.0.6-e0-6349~53~ubuntu16.04.1) date Sat Mar 11 21:42:00 2017*
%MOMM*%
%LPD*%
G01*
G04 APERTURE LIST*
%ADD10C,0.100000*%
%ADD11C,1.600000*%
%ADD12O,1.600000X1.600000*%
%ADD13R,1.600000X1.600000*%
%ADD14C,1.998980*%
%ADD15C,1.700000*%
%ADD16R,1.700000X1.700000*%
G04 APERTURE END LIST*
D10*
D11*
X141599920Y-88379300D03*
X141599920Y-90879300D03*
X136646920Y-79235300D03*
X136646920Y-76735300D03*
X145028920Y-88506300D03*
X147528920Y-88506300D03*
X163697920Y-83934300D03*
D12*
X161157920Y-83934300D03*
D11*
X162681920Y-79743300D03*
D12*
X165221920Y-79743300D03*
D11*
X157347920Y-78854300D03*
D12*
X159887920Y-78854300D03*
D11*
X165348920Y-87490300D03*
D12*
X167888920Y-87490300D03*
D11*
X164967920Y-98158300D03*
D12*
X164967920Y-95618300D03*
D11*
X168269920Y-92824300D03*
D12*
X168269920Y-90284300D03*
D11*
X161665920Y-89395300D03*
D12*
X161665920Y-86855300D03*
D11*
X164967920Y-92824300D03*
D12*
X164967920Y-90284300D03*
D11*
X168269920Y-98158300D03*
D12*
X168269920Y-95618300D03*
D11*
X147568920Y-97269300D03*
D12*
X147568920Y-94729300D03*
D11*
X143631920Y-97396300D03*
D12*
X143631920Y-94856300D03*
D11*
X147568920Y-91935300D03*
D12*
X145028920Y-91935300D03*
D11*
X147568920Y-84696300D03*
D12*
X147568920Y-82156300D03*
D11*
X143885920Y-82664300D03*
D12*
X143885920Y-85204300D03*
D11*
X146425920Y-79362300D03*
D12*
X148965920Y-79362300D03*
D11*
X140456920Y-79362300D03*
D12*
X142996920Y-79362300D03*
D11*
X136646920Y-84696300D03*
D12*
X136646920Y-82156300D03*
D11*
X140456920Y-82664300D03*
D12*
X140456920Y-85204300D03*
D13*
X150870920Y-82283300D03*
D12*
X158490920Y-97523300D03*
X150870920Y-84823300D03*
X158490920Y-94983300D03*
X150870920Y-87363300D03*
X158490920Y-92443300D03*
X150870920Y-89903300D03*
X158490920Y-89903300D03*
X150870920Y-92443300D03*
X158490920Y-87363300D03*
X150870920Y-94983300D03*
X158490920Y-84823300D03*
X150870920Y-97523300D03*
X158490920Y-82283300D03*
D14*
X157347920Y-75933300D03*
X162427920Y-75933300D03*
X137281920Y-97396300D03*
X167507920Y-75933300D03*
D15*
X137281920Y-92951300D03*
D16*
X137281920Y-87871300D03*
D11*
X161665920Y-92062300D03*
X161665920Y-94562300D03*
X153537920Y-76314300D03*
X153537920Y-78814300D03*
X146298920Y-76060300D03*
X148798920Y-76060300D03*
X161665920Y-96634300D03*
X161665920Y-99134300D03*
X121409460Y-96634300D03*
X121409460Y-99134300D03*
X106042460Y-76060300D03*
X108542460Y-76060300D03*
X113281460Y-76314300D03*
X113281460Y-78814300D03*
X121409460Y-92062300D03*
X121409460Y-94562300D03*
D15*
X97025460Y-92951300D03*
D16*
X97025460Y-87871300D03*
D14*
X127251460Y-75933300D03*
X97025460Y-97396300D03*
X122171460Y-75933300D03*
X117091460Y-75933300D03*
D13*
X110614460Y-82283300D03*
D12*
X118234460Y-97523300D03*
X110614460Y-84823300D03*
X118234460Y-94983300D03*
X110614460Y-87363300D03*
X118234460Y-92443300D03*
X110614460Y-89903300D03*
X118234460Y-89903300D03*
X110614460Y-92443300D03*
X118234460Y-87363300D03*
X110614460Y-94983300D03*
X118234460Y-84823300D03*
X110614460Y-97523300D03*
X118234460Y-82283300D03*
D11*
X100200460Y-82664300D03*
D12*
X100200460Y-85204300D03*
D11*
X96390460Y-84696300D03*
D12*
X96390460Y-82156300D03*
D11*
X100200460Y-79362300D03*
D12*
X102740460Y-79362300D03*
D11*
X106169460Y-79362300D03*
D12*
X108709460Y-79362300D03*
D11*
X103629460Y-82664300D03*
D12*
X103629460Y-85204300D03*
D11*
X107312460Y-84696300D03*
D12*
X107312460Y-82156300D03*
D11*
X107312460Y-91935300D03*
D12*
X104772460Y-91935300D03*
D11*
X103375460Y-97396300D03*
D12*
X103375460Y-94856300D03*
D11*
X107312460Y-97269300D03*
D12*
X107312460Y-94729300D03*
D11*
X128013460Y-98158300D03*
D12*
X128013460Y-95618300D03*
D11*
X124711460Y-92824300D03*
D12*
X124711460Y-90284300D03*
D11*
X121409460Y-89395300D03*
D12*
X121409460Y-86855300D03*
D11*
X128013460Y-92824300D03*
D12*
X128013460Y-90284300D03*
D11*
X124711460Y-98158300D03*
D12*
X124711460Y-95618300D03*
D11*
X125092460Y-87490300D03*
D12*
X127632460Y-87490300D03*
D11*
X117091460Y-78854300D03*
D12*
X119631460Y-78854300D03*
D11*
X122425460Y-79743300D03*
D12*
X124965460Y-79743300D03*
D11*
X123441460Y-83934300D03*
D12*
X120901460Y-83934300D03*
D11*
X104772460Y-88506300D03*
X107272460Y-88506300D03*
X96390460Y-79235300D03*
X96390460Y-76735300D03*
X101343460Y-88379300D03*
X101343460Y-90879300D03*
X61087000Y-88379300D03*
X61087000Y-90879300D03*
X56134000Y-79235300D03*
X56134000Y-76735300D03*
X64516000Y-88506300D03*
X67016000Y-88506300D03*
X83185000Y-83934300D03*
D12*
X80645000Y-83934300D03*
D11*
X82169000Y-79743300D03*
D12*
X84709000Y-79743300D03*
D11*
X76835000Y-78854300D03*
D12*
X79375000Y-78854300D03*
D11*
X84836000Y-87490300D03*
D12*
X87376000Y-87490300D03*
D11*
X84455000Y-98158300D03*
D12*
X84455000Y-95618300D03*
D11*
X87757000Y-92824300D03*
D12*
X87757000Y-90284300D03*
D11*
X81153000Y-89395300D03*
D12*
X81153000Y-86855300D03*
D11*
X84455000Y-92824300D03*
D12*
X84455000Y-90284300D03*
D11*
X87757000Y-98158300D03*
D12*
X87757000Y-95618300D03*
D11*
X67056000Y-97269300D03*
D12*
X67056000Y-94729300D03*
D11*
X63119000Y-97396300D03*
D12*
X63119000Y-94856300D03*
D11*
X67056000Y-91935300D03*
D12*
X64516000Y-91935300D03*
D11*
X67056000Y-84696300D03*
D12*
X67056000Y-82156300D03*
D11*
X63373000Y-82664300D03*
D12*
X63373000Y-85204300D03*
D11*
X65913000Y-79362300D03*
D12*
X68453000Y-79362300D03*
D11*
X59944000Y-79362300D03*
D12*
X62484000Y-79362300D03*
D11*
X56134000Y-84696300D03*
D12*
X56134000Y-82156300D03*
D11*
X59944000Y-82664300D03*
D12*
X59944000Y-85204300D03*
D13*
X70358000Y-82283300D03*
D12*
X77978000Y-97523300D03*
X70358000Y-84823300D03*
X77978000Y-94983300D03*
X70358000Y-87363300D03*
X77978000Y-92443300D03*
X70358000Y-89903300D03*
X77978000Y-89903300D03*
X70358000Y-92443300D03*
X77978000Y-87363300D03*
X70358000Y-94983300D03*
X77978000Y-84823300D03*
X70358000Y-97523300D03*
X77978000Y-82283300D03*
D14*
X76835000Y-75933300D03*
X81915000Y-75933300D03*
X56769000Y-97396300D03*
X86995000Y-75933300D03*
D15*
X56769000Y-92951300D03*
D16*
X56769000Y-87871300D03*
D11*
X81153000Y-92062300D03*
X81153000Y-94562300D03*
X73025000Y-76314300D03*
X73025000Y-78814300D03*
X65786000Y-76060300D03*
X68286000Y-76060300D03*
X81153000Y-96634300D03*
X81153000Y-99134300D03*
X40894000Y-96634300D03*
X40894000Y-99134300D03*
X25527000Y-76060300D03*
X28027000Y-76060300D03*
X32766000Y-76314300D03*
X32766000Y-78814300D03*
X40894000Y-92062300D03*
X40894000Y-94562300D03*
D15*
X16510000Y-92951300D03*
D16*
X16510000Y-87871300D03*
D14*
X46736000Y-75933300D03*
X16510000Y-97396300D03*
X41656000Y-75933300D03*
X36576000Y-75933300D03*
D13*
X30099000Y-82283300D03*
D12*
X37719000Y-97523300D03*
X30099000Y-84823300D03*
X37719000Y-94983300D03*
X30099000Y-87363300D03*
X37719000Y-92443300D03*
X30099000Y-89903300D03*
X37719000Y-89903300D03*
X30099000Y-92443300D03*
X37719000Y-87363300D03*
X30099000Y-94983300D03*
X37719000Y-84823300D03*
X30099000Y-97523300D03*
X37719000Y-82283300D03*
D11*
X19685000Y-82664300D03*
D12*
X19685000Y-85204300D03*
D11*
X15875000Y-84696300D03*
D12*
X15875000Y-82156300D03*
D11*
X19685000Y-79362300D03*
D12*
X22225000Y-79362300D03*
D11*
X25654000Y-79362300D03*
D12*
X28194000Y-79362300D03*
D11*
X23114000Y-82664300D03*
D12*
X23114000Y-85204300D03*
D11*
X26797000Y-84696300D03*
D12*
X26797000Y-82156300D03*
D11*
X26797000Y-91935300D03*
D12*
X24257000Y-91935300D03*
D11*
X22860000Y-97396300D03*
D12*
X22860000Y-94856300D03*
D11*
X26797000Y-97269300D03*
D12*
X26797000Y-94729300D03*
D11*
X47498000Y-98158300D03*
D12*
X47498000Y-95618300D03*
D11*
X44196000Y-92824300D03*
D12*
X44196000Y-90284300D03*
D11*
X40894000Y-89395300D03*
D12*
X40894000Y-86855300D03*
D11*
X47498000Y-92824300D03*
D12*
X47498000Y-90284300D03*
D11*
X44196000Y-98158300D03*
D12*
X44196000Y-95618300D03*
D11*
X44577000Y-87490300D03*
D12*
X47117000Y-87490300D03*
D11*
X36576000Y-78854300D03*
D12*
X39116000Y-78854300D03*
D11*
X41910000Y-79743300D03*
D12*
X44450000Y-79743300D03*
D11*
X42926000Y-83934300D03*
D12*
X40386000Y-83934300D03*
D11*
X24257000Y-88506300D03*
X26757000Y-88506300D03*
X15875000Y-79235300D03*
X15875000Y-76735300D03*
X20828000Y-88379300D03*
X20828000Y-90879300D03*
X20828000Y-58592720D03*
X20828000Y-61092720D03*
X15875000Y-49448720D03*
X15875000Y-46948720D03*
X24257000Y-58719720D03*
X26757000Y-58719720D03*
X42926000Y-54147720D03*
D12*
X40386000Y-54147720D03*
D11*
X41910000Y-49956720D03*
D12*
X44450000Y-49956720D03*
D11*
X36576000Y-49067720D03*
D12*
X39116000Y-49067720D03*
D11*
X44577000Y-57703720D03*
D12*
X47117000Y-57703720D03*
D11*
X44196000Y-68371720D03*
D12*
X44196000Y-65831720D03*
D11*
X47498000Y-63037720D03*
D12*
X47498000Y-60497720D03*
D11*
X40894000Y-59608720D03*
D12*
X40894000Y-57068720D03*
D11*
X44196000Y-63037720D03*
D12*
X44196000Y-60497720D03*
D11*
X47498000Y-68371720D03*
D12*
X47498000Y-65831720D03*
D11*
X26797000Y-67482720D03*
D12*
X26797000Y-64942720D03*
D11*
X22860000Y-67609720D03*
D12*
X22860000Y-65069720D03*
D11*
X26797000Y-62148720D03*
D12*
X24257000Y-62148720D03*
D11*
X26797000Y-54909720D03*
D12*
X26797000Y-52369720D03*
D11*
X23114000Y-52877720D03*
D12*
X23114000Y-55417720D03*
D11*
X25654000Y-49575720D03*
D12*
X28194000Y-49575720D03*
D11*
X19685000Y-49575720D03*
D12*
X22225000Y-49575720D03*
D11*
X15875000Y-54909720D03*
D12*
X15875000Y-52369720D03*
D11*
X19685000Y-52877720D03*
D12*
X19685000Y-55417720D03*
D13*
X30099000Y-52496720D03*
D12*
X37719000Y-67736720D03*
X30099000Y-55036720D03*
X37719000Y-65196720D03*
X30099000Y-57576720D03*
X37719000Y-62656720D03*
X30099000Y-60116720D03*
X37719000Y-60116720D03*
X30099000Y-62656720D03*
X37719000Y-57576720D03*
X30099000Y-65196720D03*
X37719000Y-55036720D03*
X30099000Y-67736720D03*
X37719000Y-52496720D03*
D14*
X36576000Y-46146720D03*
X41656000Y-46146720D03*
X16510000Y-67609720D03*
X46736000Y-46146720D03*
D15*
X16510000Y-63164720D03*
D16*
X16510000Y-58084720D03*
D11*
X40894000Y-62275720D03*
X40894000Y-64775720D03*
X32766000Y-46527720D03*
X32766000Y-49027720D03*
X25527000Y-46273720D03*
X28027000Y-46273720D03*
X40894000Y-66847720D03*
X40894000Y-69347720D03*
X81153000Y-66847720D03*
X81153000Y-69347720D03*
X65786000Y-46273720D03*
X68286000Y-46273720D03*
X73025000Y-46527720D03*
X73025000Y-49027720D03*
X81153000Y-62275720D03*
X81153000Y-64775720D03*
D15*
X56769000Y-63164720D03*
D16*
X56769000Y-58084720D03*
D14*
X86995000Y-46146720D03*
X56769000Y-67609720D03*
X81915000Y-46146720D03*
X76835000Y-46146720D03*
D13*
X70358000Y-52496720D03*
D12*
X77978000Y-67736720D03*
X70358000Y-55036720D03*
X77978000Y-65196720D03*
X70358000Y-57576720D03*
X77978000Y-62656720D03*
X70358000Y-60116720D03*
X77978000Y-60116720D03*
X70358000Y-62656720D03*
X77978000Y-57576720D03*
X70358000Y-65196720D03*
X77978000Y-55036720D03*
X70358000Y-67736720D03*
X77978000Y-52496720D03*
D11*
X59944000Y-52877720D03*
D12*
X59944000Y-55417720D03*
D11*
X56134000Y-54909720D03*
D12*
X56134000Y-52369720D03*
D11*
X59944000Y-49575720D03*
D12*
X62484000Y-49575720D03*
D11*
X65913000Y-49575720D03*
D12*
X68453000Y-49575720D03*
D11*
X63373000Y-52877720D03*
D12*
X63373000Y-55417720D03*
D11*
X67056000Y-54909720D03*
D12*
X67056000Y-52369720D03*
D11*
X67056000Y-62148720D03*
D12*
X64516000Y-62148720D03*
D11*
X63119000Y-67609720D03*
D12*
X63119000Y-65069720D03*
D11*
X67056000Y-67482720D03*
D12*
X67056000Y-64942720D03*
D11*
X87757000Y-68371720D03*
D12*
X87757000Y-65831720D03*
D11*
X84455000Y-63037720D03*
D12*
X84455000Y-60497720D03*
D11*
X81153000Y-59608720D03*
D12*
X81153000Y-57068720D03*
D11*
X87757000Y-63037720D03*
D12*
X87757000Y-60497720D03*
D11*
X84455000Y-68371720D03*
D12*
X84455000Y-65831720D03*
D11*
X84836000Y-57703720D03*
D12*
X87376000Y-57703720D03*
D11*
X76835000Y-49067720D03*
D12*
X79375000Y-49067720D03*
D11*
X82169000Y-49956720D03*
D12*
X84709000Y-49956720D03*
D11*
X83185000Y-54147720D03*
D12*
X80645000Y-54147720D03*
D11*
X64516000Y-58719720D03*
X67016000Y-58719720D03*
X56134000Y-49448720D03*
X56134000Y-46948720D03*
X61087000Y-58592720D03*
X61087000Y-61092720D03*
X101343460Y-58592720D03*
X101343460Y-61092720D03*
X96390460Y-49448720D03*
X96390460Y-46948720D03*
X104772460Y-58719720D03*
X107272460Y-58719720D03*
X123441460Y-54147720D03*
D12*
X120901460Y-54147720D03*
D11*
X122425460Y-49956720D03*
D12*
X124965460Y-49956720D03*
D11*
X117091460Y-49067720D03*
D12*
X119631460Y-49067720D03*
D11*
X125092460Y-57703720D03*
D12*
X127632460Y-57703720D03*
D11*
X124711460Y-68371720D03*
D12*
X124711460Y-65831720D03*
D11*
X128013460Y-63037720D03*
D12*
X128013460Y-60497720D03*
D11*
X121409460Y-59608720D03*
D12*
X121409460Y-57068720D03*
D11*
X124711460Y-63037720D03*
D12*
X124711460Y-60497720D03*
D11*
X128013460Y-68371720D03*
D12*
X128013460Y-65831720D03*
D11*
X107312460Y-67482720D03*
D12*
X107312460Y-64942720D03*
D11*
X103375460Y-67609720D03*
D12*
X103375460Y-65069720D03*
D11*
X107312460Y-62148720D03*
D12*
X104772460Y-62148720D03*
D11*
X107312460Y-54909720D03*
D12*
X107312460Y-52369720D03*
D11*
X103629460Y-52877720D03*
D12*
X103629460Y-55417720D03*
D11*
X106169460Y-49575720D03*
D12*
X108709460Y-49575720D03*
D11*
X100200460Y-49575720D03*
D12*
X102740460Y-49575720D03*
D11*
X96390460Y-54909720D03*
D12*
X96390460Y-52369720D03*
D11*
X100200460Y-52877720D03*
D12*
X100200460Y-55417720D03*
D13*
X110614460Y-52496720D03*
D12*
X118234460Y-67736720D03*
X110614460Y-55036720D03*
X118234460Y-65196720D03*
X110614460Y-57576720D03*
X118234460Y-62656720D03*
X110614460Y-60116720D03*
X118234460Y-60116720D03*
X110614460Y-62656720D03*
X118234460Y-57576720D03*
X110614460Y-65196720D03*
X118234460Y-55036720D03*
X110614460Y-67736720D03*
X118234460Y-52496720D03*
D14*
X117091460Y-46146720D03*
X122171460Y-46146720D03*
X97025460Y-67609720D03*
X127251460Y-46146720D03*
D15*
X97025460Y-63164720D03*
D16*
X97025460Y-58084720D03*
D11*
X121409460Y-62275720D03*
X121409460Y-64775720D03*
X113281460Y-46527720D03*
X113281460Y-49027720D03*
X106042460Y-46273720D03*
X108542460Y-46273720D03*
X121409460Y-66847720D03*
X121409460Y-69347720D03*
X161665920Y-66847720D03*
X161665920Y-69347720D03*
X146298920Y-46273720D03*
X148798920Y-46273720D03*
X153537920Y-46527720D03*
X153537920Y-49027720D03*
X161665920Y-62275720D03*
X161665920Y-64775720D03*
D15*
X137281920Y-63164720D03*
D16*
X137281920Y-58084720D03*
D14*
X167507920Y-46146720D03*
X137281920Y-67609720D03*
X162427920Y-46146720D03*
X157347920Y-46146720D03*
D13*
X150870920Y-52496720D03*
D12*
X158490920Y-67736720D03*
X150870920Y-55036720D03*
X158490920Y-65196720D03*
X150870920Y-57576720D03*
X158490920Y-62656720D03*
X150870920Y-60116720D03*
X158490920Y-60116720D03*
X150870920Y-62656720D03*
X158490920Y-57576720D03*
X150870920Y-65196720D03*
X158490920Y-55036720D03*
X150870920Y-67736720D03*
X158490920Y-52496720D03*
D11*
X140456920Y-52877720D03*
D12*
X140456920Y-55417720D03*
D11*
X136646920Y-54909720D03*
D12*
X136646920Y-52369720D03*
D11*
X140456920Y-49575720D03*
D12*
X142996920Y-49575720D03*
D11*
X146425920Y-49575720D03*
D12*
X148965920Y-49575720D03*
D11*
X143885920Y-52877720D03*
D12*
X143885920Y-55417720D03*
D11*
X147568920Y-54909720D03*
D12*
X147568920Y-52369720D03*
D11*
X147568920Y-62148720D03*
D12*
X145028920Y-62148720D03*
D11*
X143631920Y-67609720D03*
D12*
X143631920Y-65069720D03*
D11*
X147568920Y-67482720D03*
D12*
X147568920Y-64942720D03*
D11*
X168269920Y-68371720D03*
D12*
X168269920Y-65831720D03*
D11*
X164967920Y-63037720D03*
D12*
X164967920Y-60497720D03*
D11*
X161665920Y-59608720D03*
D12*
X161665920Y-57068720D03*
D11*
X168269920Y-63037720D03*
D12*
X168269920Y-60497720D03*
D11*
X164967920Y-68371720D03*
D12*
X164967920Y-65831720D03*
D11*
X165348920Y-57703720D03*
D12*
X167888920Y-57703720D03*
D11*
X157347920Y-49067720D03*
D12*
X159887920Y-49067720D03*
D11*
X162681920Y-49956720D03*
D12*
X165221920Y-49956720D03*
D11*
X163697920Y-54147720D03*
D12*
X161157920Y-54147720D03*
D11*
X145028920Y-58719720D03*
X147528920Y-58719720D03*
X136646920Y-49448720D03*
X136646920Y-46948720D03*
X141599920Y-58592720D03*
X141599920Y-61092720D03*
X141599920Y-28829000D03*
X141599920Y-31329000D03*
X136646920Y-19685000D03*
X136646920Y-17185000D03*
X145028920Y-28956000D03*
X147528920Y-28956000D03*
X163697920Y-24384000D03*
D12*
X161157920Y-24384000D03*
D11*
X162681920Y-20193000D03*
D12*
X165221920Y-20193000D03*
D11*
X157347920Y-19304000D03*
D12*
X159887920Y-19304000D03*
D11*
X165348920Y-27940000D03*
D12*
X167888920Y-27940000D03*
D11*
X164967920Y-38608000D03*
D12*
X164967920Y-36068000D03*
D11*
X168269920Y-33274000D03*
D12*
X168269920Y-30734000D03*
D11*
X161665920Y-29845000D03*
D12*
X161665920Y-27305000D03*
D11*
X164967920Y-33274000D03*
D12*
X164967920Y-30734000D03*
D11*
X168269920Y-38608000D03*
D12*
X168269920Y-36068000D03*
D11*
X147568920Y-37719000D03*
D12*
X147568920Y-35179000D03*
D11*
X143631920Y-37846000D03*
D12*
X143631920Y-35306000D03*
D11*
X147568920Y-32385000D03*
D12*
X145028920Y-32385000D03*
D11*
X147568920Y-25146000D03*
D12*
X147568920Y-22606000D03*
D11*
X143885920Y-23114000D03*
D12*
X143885920Y-25654000D03*
D11*
X146425920Y-19812000D03*
D12*
X148965920Y-19812000D03*
D11*
X140456920Y-19812000D03*
D12*
X142996920Y-19812000D03*
D11*
X136646920Y-25146000D03*
D12*
X136646920Y-22606000D03*
D11*
X140456920Y-23114000D03*
D12*
X140456920Y-25654000D03*
D13*
X150870920Y-22733000D03*
D12*
X158490920Y-37973000D03*
X150870920Y-25273000D03*
X158490920Y-35433000D03*
X150870920Y-27813000D03*
X158490920Y-32893000D03*
X150870920Y-30353000D03*
X158490920Y-30353000D03*
X150870920Y-32893000D03*
X158490920Y-27813000D03*
X150870920Y-35433000D03*
X158490920Y-25273000D03*
X150870920Y-37973000D03*
X158490920Y-22733000D03*
D14*
X157347920Y-16383000D03*
X162427920Y-16383000D03*
X137281920Y-37846000D03*
X167507920Y-16383000D03*
D15*
X137281920Y-33401000D03*
D16*
X137281920Y-28321000D03*
D11*
X161665920Y-32512000D03*
X161665920Y-35012000D03*
X153537920Y-16764000D03*
X153537920Y-19264000D03*
X146298920Y-16510000D03*
X148798920Y-16510000D03*
X161665920Y-37084000D03*
X161665920Y-39584000D03*
X121409460Y-37084000D03*
X121409460Y-39584000D03*
X106042460Y-16510000D03*
X108542460Y-16510000D03*
X113281460Y-16764000D03*
X113281460Y-19264000D03*
X121409460Y-32512000D03*
X121409460Y-35012000D03*
D15*
X97025460Y-33401000D03*
D16*
X97025460Y-28321000D03*
D14*
X127251460Y-16383000D03*
X97025460Y-37846000D03*
X122171460Y-16383000D03*
X117091460Y-16383000D03*
D13*
X110614460Y-22733000D03*
D12*
X118234460Y-37973000D03*
X110614460Y-25273000D03*
X118234460Y-35433000D03*
X110614460Y-27813000D03*
X118234460Y-32893000D03*
X110614460Y-30353000D03*
X118234460Y-30353000D03*
X110614460Y-32893000D03*
X118234460Y-27813000D03*
X110614460Y-35433000D03*
X118234460Y-25273000D03*
X110614460Y-37973000D03*
X118234460Y-22733000D03*
D11*
X100200460Y-23114000D03*
D12*
X100200460Y-25654000D03*
D11*
X96390460Y-25146000D03*
D12*
X96390460Y-22606000D03*
D11*
X100200460Y-19812000D03*
D12*
X102740460Y-19812000D03*
D11*
X106169460Y-19812000D03*
D12*
X108709460Y-19812000D03*
D11*
X103629460Y-23114000D03*
D12*
X103629460Y-25654000D03*
D11*
X107312460Y-25146000D03*
D12*
X107312460Y-22606000D03*
D11*
X107312460Y-32385000D03*
D12*
X104772460Y-32385000D03*
D11*
X103375460Y-37846000D03*
D12*
X103375460Y-35306000D03*
D11*
X107312460Y-37719000D03*
D12*
X107312460Y-35179000D03*
D11*
X128013460Y-38608000D03*
D12*
X128013460Y-36068000D03*
D11*
X124711460Y-33274000D03*
D12*
X124711460Y-30734000D03*
D11*
X121409460Y-29845000D03*
D12*
X121409460Y-27305000D03*
D11*
X128013460Y-33274000D03*
D12*
X128013460Y-30734000D03*
D11*
X124711460Y-38608000D03*
D12*
X124711460Y-36068000D03*
D11*
X125092460Y-27940000D03*
D12*
X127632460Y-27940000D03*
D11*
X117091460Y-19304000D03*
D12*
X119631460Y-19304000D03*
D11*
X122425460Y-20193000D03*
D12*
X124965460Y-20193000D03*
D11*
X123441460Y-24384000D03*
D12*
X120901460Y-24384000D03*
D11*
X104772460Y-28956000D03*
X107272460Y-28956000D03*
X96390460Y-19685000D03*
X96390460Y-17185000D03*
X101343460Y-28829000D03*
X101343460Y-31329000D03*
X61087000Y-28829000D03*
X61087000Y-31329000D03*
X56134000Y-19685000D03*
X56134000Y-17185000D03*
X64516000Y-28956000D03*
X67016000Y-28956000D03*
X83185000Y-24384000D03*
D12*
X80645000Y-24384000D03*
D11*
X82169000Y-20193000D03*
D12*
X84709000Y-20193000D03*
D11*
X76835000Y-19304000D03*
D12*
X79375000Y-19304000D03*
D11*
X84836000Y-27940000D03*
D12*
X87376000Y-27940000D03*
D11*
X84455000Y-38608000D03*
D12*
X84455000Y-36068000D03*
D11*
X87757000Y-33274000D03*
D12*
X87757000Y-30734000D03*
D11*
X81153000Y-29845000D03*
D12*
X81153000Y-27305000D03*
D11*
X84455000Y-33274000D03*
D12*
X84455000Y-30734000D03*
D11*
X87757000Y-38608000D03*
D12*
X87757000Y-36068000D03*
D11*
X67056000Y-37719000D03*
D12*
X67056000Y-35179000D03*
D11*
X63119000Y-37846000D03*
D12*
X63119000Y-35306000D03*
D11*
X67056000Y-32385000D03*
D12*
X64516000Y-32385000D03*
D11*
X67056000Y-25146000D03*
D12*
X67056000Y-22606000D03*
D11*
X63373000Y-23114000D03*
D12*
X63373000Y-25654000D03*
D11*
X65913000Y-19812000D03*
D12*
X68453000Y-19812000D03*
D11*
X59944000Y-19812000D03*
D12*
X62484000Y-19812000D03*
D11*
X56134000Y-25146000D03*
D12*
X56134000Y-22606000D03*
D11*
X59944000Y-23114000D03*
D12*
X59944000Y-25654000D03*
D13*
X70358000Y-22733000D03*
D12*
X77978000Y-37973000D03*
X70358000Y-25273000D03*
X77978000Y-35433000D03*
X70358000Y-27813000D03*
X77978000Y-32893000D03*
X70358000Y-30353000D03*
X77978000Y-30353000D03*
X70358000Y-32893000D03*
X77978000Y-27813000D03*
X70358000Y-35433000D03*
X77978000Y-25273000D03*
X70358000Y-37973000D03*
X77978000Y-22733000D03*
D14*
X76835000Y-16383000D03*
X81915000Y-16383000D03*
X56769000Y-37846000D03*
X86995000Y-16383000D03*
D15*
X56769000Y-33401000D03*
D16*
X56769000Y-28321000D03*
D11*
X81153000Y-32512000D03*
X81153000Y-35012000D03*
X73025000Y-16764000D03*
X73025000Y-19264000D03*
X65786000Y-16510000D03*
X68286000Y-16510000D03*
X81153000Y-37084000D03*
X81153000Y-39584000D03*
X40894000Y-37084000D03*
X40894000Y-39584000D03*
X25527000Y-16510000D03*
X28027000Y-16510000D03*
X32766000Y-16764000D03*
X32766000Y-19264000D03*
X40894000Y-32512000D03*
X40894000Y-35012000D03*
D15*
X16510000Y-33401000D03*
D16*
X16510000Y-28321000D03*
D14*
X46736000Y-16383000D03*
X16510000Y-37846000D03*
X41656000Y-16383000D03*
X36576000Y-16383000D03*
D13*
X30099000Y-22733000D03*
D12*
X37719000Y-37973000D03*
X30099000Y-25273000D03*
X37719000Y-35433000D03*
X30099000Y-27813000D03*
X37719000Y-32893000D03*
X30099000Y-30353000D03*
X37719000Y-30353000D03*
X30099000Y-32893000D03*
X37719000Y-27813000D03*
X30099000Y-35433000D03*
X37719000Y-25273000D03*
X30099000Y-37973000D03*
X37719000Y-22733000D03*
D11*
X19685000Y-23114000D03*
D12*
X19685000Y-25654000D03*
D11*
X15875000Y-25146000D03*
D12*
X15875000Y-22606000D03*
D11*
X19685000Y-19812000D03*
D12*
X22225000Y-19812000D03*
D11*
X25654000Y-19812000D03*
D12*
X28194000Y-19812000D03*
D11*
X23114000Y-23114000D03*
D12*
X23114000Y-25654000D03*
D11*
X26797000Y-25146000D03*
D12*
X26797000Y-22606000D03*
D11*
X26797000Y-32385000D03*
D12*
X24257000Y-32385000D03*
D11*
X22860000Y-37846000D03*
D12*
X22860000Y-35306000D03*
D11*
X26797000Y-37719000D03*
D12*
X26797000Y-35179000D03*
D11*
X47498000Y-38608000D03*
D12*
X47498000Y-36068000D03*
D11*
X44196000Y-33274000D03*
D12*
X44196000Y-30734000D03*
D11*
X40894000Y-29845000D03*
D12*
X40894000Y-27305000D03*
D11*
X47498000Y-33274000D03*
D12*
X47498000Y-30734000D03*
D11*
X44196000Y-38608000D03*
D12*
X44196000Y-36068000D03*
D11*
X44577000Y-27940000D03*
D12*
X47117000Y-27940000D03*
D11*
X36576000Y-19304000D03*
D12*
X39116000Y-19304000D03*
D11*
X41910000Y-20193000D03*
D12*
X44450000Y-20193000D03*
D11*
X42926000Y-24384000D03*
D12*
X40386000Y-24384000D03*
D11*
X24257000Y-28956000D03*
X26757000Y-28956000D03*
X15875000Y-19685000D03*
X15875000Y-17185000D03*
X20828000Y-28829000D03*
X20828000Y-31329000D03*
M02*
