G04 #@! TF.FileFunction,Other,Comment*
%FSLAX46Y46*%
G04 Gerber Fmt 4.6, Leading zero omitted, Abs format (unit mm)*
G04 Created by KiCad (PCBNEW 4.0.6-e0-6349~53~ubuntu16.04.1) date Mon Mar 13 12:37:26 2017*
%MOMM*%
%LPD*%
G01*
G04 APERTURE LIST*
%ADD10C,0.100000*%
%ADD11C,0.300000*%
G04 APERTURE END LIST*
D10*
D11*
X181011429Y-56158572D02*
X181011429Y-56444287D01*
X181082857Y-56587144D01*
X181154286Y-56658572D01*
X181368571Y-56801430D01*
X181654286Y-56872858D01*
X182225714Y-56872858D01*
X182368571Y-56801430D01*
X182440000Y-56730001D01*
X182511429Y-56587144D01*
X182511429Y-56301430D01*
X182440000Y-56158572D01*
X182368571Y-56087144D01*
X182225714Y-56015715D01*
X181868571Y-56015715D01*
X181725714Y-56087144D01*
X181654286Y-56158572D01*
X181582857Y-56301430D01*
X181582857Y-56587144D01*
X181654286Y-56730001D01*
X181725714Y-56801430D01*
X181868571Y-56872858D01*
X181011429Y-57587143D02*
X181011429Y-57872858D01*
X181082857Y-58015715D01*
X181154286Y-58087143D01*
X181368571Y-58230001D01*
X181654286Y-58301429D01*
X182225714Y-58301429D01*
X182368571Y-58230001D01*
X182440000Y-58158572D01*
X182511429Y-58015715D01*
X182511429Y-57730001D01*
X182440000Y-57587143D01*
X182368571Y-57515715D01*
X182225714Y-57444286D01*
X181868571Y-57444286D01*
X181725714Y-57515715D01*
X181654286Y-57587143D01*
X181582857Y-57730001D01*
X181582857Y-58015715D01*
X181654286Y-58158572D01*
X181725714Y-58230001D01*
X181868571Y-58301429D01*
X181082857Y-59015714D02*
X181011429Y-59015714D01*
X180868571Y-58944286D01*
X180797143Y-58872857D01*
X182511429Y-59944286D02*
X182511429Y-60087143D01*
X182440000Y-60230000D01*
X182368571Y-60301429D01*
X182225714Y-60372858D01*
X181940000Y-60444286D01*
X181582857Y-60444286D01*
X181297143Y-60372858D01*
X181154286Y-60301429D01*
X181082857Y-60230000D01*
X181011429Y-60087143D01*
X181011429Y-59944286D01*
X181082857Y-59801429D01*
X181154286Y-59730000D01*
X181297143Y-59658572D01*
X181582857Y-59587143D01*
X181940000Y-59587143D01*
X182225714Y-59658572D01*
X182368571Y-59730000D01*
X182440000Y-59801429D01*
X182511429Y-59944286D01*
X182511429Y-61730000D02*
X182511429Y-61444286D01*
X182440000Y-61301429D01*
X182368571Y-61230000D01*
X182154286Y-61087143D01*
X181868571Y-61015714D01*
X181297143Y-61015714D01*
X181154286Y-61087143D01*
X181082857Y-61158571D01*
X181011429Y-61301429D01*
X181011429Y-61587143D01*
X181082857Y-61730000D01*
X181154286Y-61801429D01*
X181297143Y-61872857D01*
X181654286Y-61872857D01*
X181797143Y-61801429D01*
X181868571Y-61730000D01*
X181940000Y-61587143D01*
X181940000Y-61301429D01*
X181868571Y-61158571D01*
X181797143Y-61087143D01*
X181654286Y-61015714D01*
X182511429Y-62801428D02*
X182511429Y-62944285D01*
X182440000Y-63087142D01*
X182368571Y-63158571D01*
X182225714Y-63230000D01*
X181940000Y-63301428D01*
X181582857Y-63301428D01*
X181297143Y-63230000D01*
X181154286Y-63158571D01*
X181082857Y-63087142D01*
X181011429Y-62944285D01*
X181011429Y-62801428D01*
X181082857Y-62658571D01*
X181154286Y-62587142D01*
X181297143Y-62515714D01*
X181582857Y-62444285D01*
X181940000Y-62444285D01*
X182225714Y-62515714D01*
X182368571Y-62587142D01*
X182440000Y-62658571D01*
X182511429Y-62801428D01*
X181011429Y-65087142D02*
X182011429Y-65087142D01*
X181868571Y-65087142D02*
X181940000Y-65158570D01*
X182011429Y-65301428D01*
X182011429Y-65515713D01*
X181940000Y-65658570D01*
X181797143Y-65729999D01*
X181011429Y-65729999D01*
X181797143Y-65729999D02*
X181940000Y-65801428D01*
X182011429Y-65944285D01*
X182011429Y-66158570D01*
X181940000Y-66301428D01*
X181797143Y-66372856D01*
X181011429Y-66372856D01*
X181011429Y-67087142D02*
X182011429Y-67087142D01*
X181868571Y-67087142D02*
X181940000Y-67158570D01*
X182011429Y-67301428D01*
X182011429Y-67515713D01*
X181940000Y-67658570D01*
X181797143Y-67729999D01*
X181011429Y-67729999D01*
X181797143Y-67729999D02*
X181940000Y-67801428D01*
X182011429Y-67944285D01*
X182011429Y-68158570D01*
X181940000Y-68301428D01*
X181797143Y-68372856D01*
X181011429Y-68372856D01*
X180340000Y-12700000D02*
X180340000Y-111760000D01*
X170180000Y-12700000D02*
X183040000Y-12700000D01*
X170180000Y-111760000D02*
X183040000Y-111760000D01*
X180340000Y-111760000D02*
X179753579Y-110633496D01*
X180340000Y-111760000D02*
X180926421Y-110633496D01*
X180340000Y-12700000D02*
X179753579Y-13826504D01*
X180340000Y-12700000D02*
X180926421Y-13826504D01*
X85368573Y-4408571D02*
X84511430Y-4408571D01*
X84940002Y-4408571D02*
X84940002Y-2908571D01*
X84797145Y-3122857D01*
X84654287Y-3265714D01*
X84511430Y-3337143D01*
X86725716Y-2908571D02*
X86011430Y-2908571D01*
X85940001Y-3622857D01*
X86011430Y-3551429D01*
X86154287Y-3480000D01*
X86511430Y-3480000D01*
X86654287Y-3551429D01*
X86725716Y-3622857D01*
X86797144Y-3765714D01*
X86797144Y-4122857D01*
X86725716Y-4265714D01*
X86654287Y-4337143D01*
X86511430Y-4408571D01*
X86154287Y-4408571D01*
X86011430Y-4337143D01*
X85940001Y-4265714D01*
X87297144Y-2908571D02*
X88297144Y-2908571D01*
X87654287Y-4408571D01*
X88940000Y-4337143D02*
X88940000Y-4408571D01*
X88868572Y-4551429D01*
X88797143Y-4622857D01*
X90225715Y-3408571D02*
X90225715Y-4408571D01*
X89868572Y-2837143D02*
X89511429Y-3908571D01*
X90440001Y-3908571D01*
X91225715Y-3551429D02*
X91082857Y-3480000D01*
X91011429Y-3408571D01*
X90940000Y-3265714D01*
X90940000Y-3194286D01*
X91011429Y-3051429D01*
X91082857Y-2980000D01*
X91225715Y-2908571D01*
X91511429Y-2908571D01*
X91654286Y-2980000D01*
X91725715Y-3051429D01*
X91797143Y-3194286D01*
X91797143Y-3265714D01*
X91725715Y-3408571D01*
X91654286Y-3480000D01*
X91511429Y-3551429D01*
X91225715Y-3551429D01*
X91082857Y-3622857D01*
X91011429Y-3694286D01*
X90940000Y-3837143D01*
X90940000Y-4122857D01*
X91011429Y-4265714D01*
X91082857Y-4337143D01*
X91225715Y-4408571D01*
X91511429Y-4408571D01*
X91654286Y-4337143D01*
X91725715Y-4265714D01*
X91797143Y-4122857D01*
X91797143Y-3837143D01*
X91725715Y-3694286D01*
X91654286Y-3622857D01*
X91511429Y-3551429D01*
X92725714Y-2908571D02*
X92868571Y-2908571D01*
X93011428Y-2980000D01*
X93082857Y-3051429D01*
X93154286Y-3194286D01*
X93225714Y-3480000D01*
X93225714Y-3837143D01*
X93154286Y-4122857D01*
X93082857Y-4265714D01*
X93011428Y-4337143D01*
X92868571Y-4408571D01*
X92725714Y-4408571D01*
X92582857Y-4337143D01*
X92511428Y-4265714D01*
X92440000Y-4122857D01*
X92368571Y-3837143D01*
X92368571Y-3480000D01*
X92440000Y-3194286D01*
X92511428Y-3051429D01*
X92582857Y-2980000D01*
X92725714Y-2908571D01*
X95011428Y-4408571D02*
X95011428Y-3408571D01*
X95011428Y-3551429D02*
X95082856Y-3480000D01*
X95225714Y-3408571D01*
X95439999Y-3408571D01*
X95582856Y-3480000D01*
X95654285Y-3622857D01*
X95654285Y-4408571D01*
X95654285Y-3622857D02*
X95725714Y-3480000D01*
X95868571Y-3408571D01*
X96082856Y-3408571D01*
X96225714Y-3480000D01*
X96297142Y-3622857D01*
X96297142Y-4408571D01*
X97011428Y-4408571D02*
X97011428Y-3408571D01*
X97011428Y-3551429D02*
X97082856Y-3480000D01*
X97225714Y-3408571D01*
X97439999Y-3408571D01*
X97582856Y-3480000D01*
X97654285Y-3622857D01*
X97654285Y-4408571D01*
X97654285Y-3622857D02*
X97725714Y-3480000D01*
X97868571Y-3408571D01*
X98082856Y-3408571D01*
X98225714Y-3480000D01*
X98297142Y-3622857D01*
X98297142Y-4408571D01*
X12700000Y-5080000D02*
X170180000Y-5080000D01*
X12700000Y-12700000D02*
X12700000Y-2380000D01*
X170180000Y-12700000D02*
X170180000Y-2380000D01*
X170180000Y-5080000D02*
X169053496Y-5666421D01*
X170180000Y-5080000D02*
X169053496Y-4493579D01*
X12700000Y-5080000D02*
X13826504Y-5666421D01*
X12700000Y-5080000D02*
X13826504Y-4493579D01*
X4194429Y-35614785D02*
X4123000Y-35543356D01*
X4051571Y-35400499D01*
X4051571Y-35043356D01*
X4123000Y-34900499D01*
X4194429Y-34829070D01*
X4337286Y-34757642D01*
X4480143Y-34757642D01*
X4694429Y-34829070D01*
X5551571Y-35686213D01*
X5551571Y-34757642D01*
X4051571Y-34257642D02*
X4051571Y-33257642D01*
X5551571Y-33900499D01*
X5480143Y-32614786D02*
X5551571Y-32614786D01*
X5694429Y-32686214D01*
X5765857Y-32757643D01*
X4694429Y-31757642D02*
X4623000Y-31900500D01*
X4551571Y-31971928D01*
X4408714Y-32043357D01*
X4337286Y-32043357D01*
X4194429Y-31971928D01*
X4123000Y-31900500D01*
X4051571Y-31757642D01*
X4051571Y-31471928D01*
X4123000Y-31329071D01*
X4194429Y-31257642D01*
X4337286Y-31186214D01*
X4408714Y-31186214D01*
X4551571Y-31257642D01*
X4623000Y-31329071D01*
X4694429Y-31471928D01*
X4694429Y-31757642D01*
X4765857Y-31900500D01*
X4837286Y-31971928D01*
X4980143Y-32043357D01*
X5265857Y-32043357D01*
X5408714Y-31971928D01*
X5480143Y-31900500D01*
X5551571Y-31757642D01*
X5551571Y-31471928D01*
X5480143Y-31329071D01*
X5408714Y-31257642D01*
X5265857Y-31186214D01*
X4980143Y-31186214D01*
X4837286Y-31257642D01*
X4765857Y-31329071D01*
X4694429Y-31471928D01*
X5551571Y-29757643D02*
X5551571Y-30614786D01*
X5551571Y-30186214D02*
X4051571Y-30186214D01*
X4265857Y-30329071D01*
X4408714Y-30471929D01*
X4480143Y-30614786D01*
X4051571Y-29257643D02*
X4051571Y-28329072D01*
X4623000Y-28829072D01*
X4623000Y-28614786D01*
X4694429Y-28471929D01*
X4765857Y-28400500D01*
X4908714Y-28329072D01*
X5265857Y-28329072D01*
X5408714Y-28400500D01*
X5480143Y-28471929D01*
X5551571Y-28614786D01*
X5551571Y-29043358D01*
X5480143Y-29186215D01*
X5408714Y-29257643D01*
X5551571Y-26543358D02*
X4551571Y-26543358D01*
X4694429Y-26543358D02*
X4623000Y-26471930D01*
X4551571Y-26329072D01*
X4551571Y-26114787D01*
X4623000Y-25971930D01*
X4765857Y-25900501D01*
X5551571Y-25900501D01*
X4765857Y-25900501D02*
X4623000Y-25829072D01*
X4551571Y-25686215D01*
X4551571Y-25471930D01*
X4623000Y-25329072D01*
X4765857Y-25257644D01*
X5551571Y-25257644D01*
X5551571Y-24543358D02*
X4551571Y-24543358D01*
X4694429Y-24543358D02*
X4623000Y-24471930D01*
X4551571Y-24329072D01*
X4551571Y-24114787D01*
X4623000Y-23971930D01*
X4765857Y-23900501D01*
X5551571Y-23900501D01*
X4765857Y-23900501D02*
X4623000Y-23829072D01*
X4551571Y-23686215D01*
X4551571Y-23471930D01*
X4623000Y-23329072D01*
X4765857Y-23257644D01*
X5551571Y-23257644D01*
X6223000Y-43307000D02*
X6223000Y-15494000D01*
X12065000Y-43307000D02*
X3523000Y-43307000D01*
X12065000Y-15494000D02*
X3523000Y-15494000D01*
X6223000Y-15494000D02*
X6809421Y-16620504D01*
X6223000Y-15494000D02*
X5636579Y-16620504D01*
X6223000Y-43307000D02*
X6809421Y-42180496D01*
X6223000Y-43307000D02*
X5636579Y-42180496D01*
X29769587Y-126584971D02*
X30698158Y-126584971D01*
X30198158Y-127156400D01*
X30412444Y-127156400D01*
X30555301Y-127227829D01*
X30626730Y-127299257D01*
X30698158Y-127442114D01*
X30698158Y-127799257D01*
X30626730Y-127942114D01*
X30555301Y-128013543D01*
X30412444Y-128084971D01*
X29983872Y-128084971D01*
X29841015Y-128013543D01*
X29769587Y-127942114D01*
X31198158Y-126584971D02*
X32198158Y-126584971D01*
X31555301Y-128084971D01*
X32841014Y-128013543D02*
X32841014Y-128084971D01*
X32769586Y-128227829D01*
X32698157Y-128299257D01*
X33341015Y-126584971D02*
X34341015Y-126584971D01*
X33698158Y-128084971D01*
X35698157Y-128084971D02*
X34841014Y-128084971D01*
X35269586Y-128084971D02*
X35269586Y-126584971D01*
X35126729Y-126799257D01*
X34983871Y-126942114D01*
X34841014Y-127013543D01*
X36412442Y-128084971D02*
X36698157Y-128084971D01*
X36841014Y-128013543D01*
X36912442Y-127942114D01*
X37055300Y-127727829D01*
X37126728Y-127442114D01*
X37126728Y-126870686D01*
X37055300Y-126727829D01*
X36983871Y-126656400D01*
X36841014Y-126584971D01*
X36555300Y-126584971D01*
X36412442Y-126656400D01*
X36341014Y-126727829D01*
X36269585Y-126870686D01*
X36269585Y-127227829D01*
X36341014Y-127370686D01*
X36412442Y-127442114D01*
X36555300Y-127513543D01*
X36841014Y-127513543D01*
X36983871Y-127442114D01*
X37055300Y-127370686D01*
X37126728Y-127227829D01*
X38912442Y-128084971D02*
X38912442Y-127084971D01*
X38912442Y-127227829D02*
X38983870Y-127156400D01*
X39126728Y-127084971D01*
X39341013Y-127084971D01*
X39483870Y-127156400D01*
X39555299Y-127299257D01*
X39555299Y-128084971D01*
X39555299Y-127299257D02*
X39626728Y-127156400D01*
X39769585Y-127084971D01*
X39983870Y-127084971D01*
X40126728Y-127156400D01*
X40198156Y-127299257D01*
X40198156Y-128084971D01*
X40912442Y-128084971D02*
X40912442Y-127084971D01*
X40912442Y-127227829D02*
X40983870Y-127156400D01*
X41126728Y-127084971D01*
X41341013Y-127084971D01*
X41483870Y-127156400D01*
X41555299Y-127299257D01*
X41555299Y-128084971D01*
X41555299Y-127299257D02*
X41626728Y-127156400D01*
X41769585Y-127084971D01*
X41983870Y-127084971D01*
X42126728Y-127156400D01*
X42198156Y-127299257D01*
X42198156Y-128084971D01*
X17106900Y-124853700D02*
X54825900Y-124853700D01*
X17106900Y-122821700D02*
X17106900Y-127553700D01*
X54825900Y-122821700D02*
X54825900Y-127553700D01*
X54825900Y-124853700D02*
X53699396Y-125440121D01*
X54825900Y-124853700D02*
X53699396Y-124267279D01*
X17106900Y-124853700D02*
X18233404Y-125440121D01*
X17106900Y-124853700D02*
X18233404Y-124267279D01*
M02*
