G04 #@! TF.FileFunction,Other,Fab,Top*
%FSLAX46Y46*%
G04 Gerber Fmt 4.6, Leading zero omitted, Abs format (unit mm)*
G04 Created by KiCad (PCBNEW 4.0.6-e0-6349~53~ubuntu16.04.1) date Mon Mar 13 12:37:26 2017*
%MOMM*%
%LPD*%
G01*
G04 APERTURE LIST*
%ADD10C,0.100000*%
G04 APERTURE END LIST*
D10*
X142899920Y-87729300D02*
X140299920Y-87729300D01*
X140299920Y-87729300D02*
X140299920Y-91529300D01*
X140299920Y-91529300D02*
X142899920Y-91529300D01*
X142899920Y-91529300D02*
X142899920Y-87729300D01*
X135396920Y-80485300D02*
X137896920Y-80485300D01*
X137896920Y-80485300D02*
X137896920Y-75485300D01*
X137896920Y-75485300D02*
X135396920Y-75485300D01*
X135396920Y-75485300D02*
X135396920Y-80485300D01*
X143778920Y-87256300D02*
X143778920Y-89756300D01*
X143778920Y-89756300D02*
X148778920Y-89756300D01*
X148778920Y-89756300D02*
X148778920Y-87256300D01*
X148778920Y-87256300D02*
X143778920Y-87256300D01*
X164947920Y-83934300D02*
G75*
G03X164947920Y-83934300I-1250000J0D01*
G01*
X163697920Y-83934300D02*
X161157920Y-83934300D01*
X163931920Y-79743300D02*
G75*
G03X163931920Y-79743300I-1250000J0D01*
G01*
X162681920Y-79743300D02*
X165221920Y-79743300D01*
X158597920Y-78854300D02*
G75*
G03X158597920Y-78854300I-1250000J0D01*
G01*
X157347920Y-78854300D02*
X159887920Y-78854300D01*
X166598920Y-87490300D02*
G75*
G03X166598920Y-87490300I-1250000J0D01*
G01*
X165348920Y-87490300D02*
X167888920Y-87490300D01*
X166217920Y-98158300D02*
G75*
G03X166217920Y-98158300I-1250000J0D01*
G01*
X164967920Y-98158300D02*
X164967920Y-95618300D01*
X169519920Y-92824300D02*
G75*
G03X169519920Y-92824300I-1250000J0D01*
G01*
X168269920Y-92824300D02*
X168269920Y-90284300D01*
X162915920Y-89395300D02*
G75*
G03X162915920Y-89395300I-1250000J0D01*
G01*
X161665920Y-89395300D02*
X161665920Y-86855300D01*
X166217920Y-92824300D02*
G75*
G03X166217920Y-92824300I-1250000J0D01*
G01*
X164967920Y-92824300D02*
X164967920Y-90284300D01*
X169519920Y-98158300D02*
G75*
G03X169519920Y-98158300I-1250000J0D01*
G01*
X168269920Y-98158300D02*
X168269920Y-95618300D01*
X148818920Y-97269300D02*
G75*
G03X148818920Y-97269300I-1250000J0D01*
G01*
X147568920Y-97269300D02*
X147568920Y-94729300D01*
X144881920Y-97396300D02*
G75*
G03X144881920Y-97396300I-1250000J0D01*
G01*
X143631920Y-97396300D02*
X143631920Y-94856300D01*
X148818920Y-91935300D02*
G75*
G03X148818920Y-91935300I-1250000J0D01*
G01*
X147568920Y-91935300D02*
X145028920Y-91935300D01*
X148818920Y-84696300D02*
G75*
G03X148818920Y-84696300I-1250000J0D01*
G01*
X147568920Y-84696300D02*
X147568920Y-82156300D01*
X145135920Y-82664300D02*
G75*
G03X145135920Y-82664300I-1250000J0D01*
G01*
X143885920Y-82664300D02*
X143885920Y-85204300D01*
X147675920Y-79362300D02*
G75*
G03X147675920Y-79362300I-1250000J0D01*
G01*
X146425920Y-79362300D02*
X148965920Y-79362300D01*
X141706920Y-79362300D02*
G75*
G03X141706920Y-79362300I-1250000J0D01*
G01*
X140456920Y-79362300D02*
X142996920Y-79362300D01*
X137896920Y-84696300D02*
G75*
G03X137896920Y-84696300I-1250000J0D01*
G01*
X136646920Y-84696300D02*
X136646920Y-82156300D01*
X141706920Y-82664300D02*
G75*
G03X141706920Y-82664300I-1250000J0D01*
G01*
X140456920Y-82664300D02*
X140456920Y-85204300D01*
X152505920Y-81013300D02*
X157855920Y-81013300D01*
X157855920Y-81013300D02*
X157855920Y-98793300D01*
X157855920Y-98793300D02*
X151505920Y-98793300D01*
X151505920Y-98793300D02*
X151505920Y-82013300D01*
X151505920Y-82013300D02*
X152505920Y-81013300D01*
X135781920Y-91661300D02*
X138781920Y-91661300D01*
X138781920Y-88661300D02*
X135781920Y-88661300D01*
X139431920Y-92711300D02*
X135131920Y-92711300D01*
X135131920Y-92711300D02*
X135131920Y-88061300D01*
X135131920Y-88061300D02*
X138781920Y-88061300D01*
X138781920Y-88061300D02*
X139431920Y-88711300D01*
X139431920Y-88711300D02*
X139431920Y-92711300D01*
X135781920Y-88661300D02*
X135781920Y-91661300D01*
X138781920Y-91661300D02*
X138781920Y-88661300D01*
X137661920Y-90661300D02*
X137661920Y-90921300D01*
X137661920Y-90661300D02*
X137921920Y-90661300D01*
X137661920Y-90161300D02*
X137661920Y-90411300D01*
X137661920Y-90161300D02*
X137921920Y-90161300D01*
X138421920Y-90921300D02*
X137661920Y-90161300D01*
X138421920Y-91431300D02*
X137661920Y-90661300D01*
X136641920Y-89901300D02*
X137281920Y-90541300D01*
X137281920Y-90541300D02*
X136011920Y-90541300D01*
X136011920Y-90541300D02*
X136641920Y-89901300D01*
X137281920Y-89901300D02*
X136011920Y-89901300D01*
X136641920Y-88891300D02*
X136641920Y-91431300D01*
X162965920Y-91412300D02*
X160365920Y-91412300D01*
X160365920Y-91412300D02*
X160365920Y-95212300D01*
X160365920Y-95212300D02*
X162965920Y-95212300D01*
X162965920Y-95212300D02*
X162965920Y-91412300D01*
X154837920Y-75664300D02*
X152237920Y-75664300D01*
X152237920Y-75664300D02*
X152237920Y-79464300D01*
X152237920Y-79464300D02*
X154837920Y-79464300D01*
X154837920Y-79464300D02*
X154837920Y-75664300D01*
X145648920Y-74760300D02*
X145648920Y-77360300D01*
X145648920Y-77360300D02*
X149448920Y-77360300D01*
X149448920Y-77360300D02*
X149448920Y-74760300D01*
X149448920Y-74760300D02*
X145648920Y-74760300D01*
X162965920Y-95984300D02*
X160365920Y-95984300D01*
X160365920Y-95984300D02*
X160365920Y-99784300D01*
X160365920Y-99784300D02*
X162965920Y-99784300D01*
X162965920Y-99784300D02*
X162965920Y-95984300D01*
X122709460Y-95984300D02*
X120109460Y-95984300D01*
X120109460Y-95984300D02*
X120109460Y-99784300D01*
X120109460Y-99784300D02*
X122709460Y-99784300D01*
X122709460Y-99784300D02*
X122709460Y-95984300D01*
X105392460Y-74760300D02*
X105392460Y-77360300D01*
X105392460Y-77360300D02*
X109192460Y-77360300D01*
X109192460Y-77360300D02*
X109192460Y-74760300D01*
X109192460Y-74760300D02*
X105392460Y-74760300D01*
X114581460Y-75664300D02*
X111981460Y-75664300D01*
X111981460Y-75664300D02*
X111981460Y-79464300D01*
X111981460Y-79464300D02*
X114581460Y-79464300D01*
X114581460Y-79464300D02*
X114581460Y-75664300D01*
X122709460Y-91412300D02*
X120109460Y-91412300D01*
X120109460Y-91412300D02*
X120109460Y-95212300D01*
X120109460Y-95212300D02*
X122709460Y-95212300D01*
X122709460Y-95212300D02*
X122709460Y-91412300D01*
X95525460Y-91661300D02*
X98525460Y-91661300D01*
X98525460Y-88661300D02*
X95525460Y-88661300D01*
X99175460Y-92711300D02*
X94875460Y-92711300D01*
X94875460Y-92711300D02*
X94875460Y-88061300D01*
X94875460Y-88061300D02*
X98525460Y-88061300D01*
X98525460Y-88061300D02*
X99175460Y-88711300D01*
X99175460Y-88711300D02*
X99175460Y-92711300D01*
X95525460Y-88661300D02*
X95525460Y-91661300D01*
X98525460Y-91661300D02*
X98525460Y-88661300D01*
X97405460Y-90661300D02*
X97405460Y-90921300D01*
X97405460Y-90661300D02*
X97665460Y-90661300D01*
X97405460Y-90161300D02*
X97405460Y-90411300D01*
X97405460Y-90161300D02*
X97665460Y-90161300D01*
X98165460Y-90921300D02*
X97405460Y-90161300D01*
X98165460Y-91431300D02*
X97405460Y-90661300D01*
X96385460Y-89901300D02*
X97025460Y-90541300D01*
X97025460Y-90541300D02*
X95755460Y-90541300D01*
X95755460Y-90541300D02*
X96385460Y-89901300D01*
X97025460Y-89901300D02*
X95755460Y-89901300D01*
X96385460Y-88891300D02*
X96385460Y-91431300D01*
X112249460Y-81013300D02*
X117599460Y-81013300D01*
X117599460Y-81013300D02*
X117599460Y-98793300D01*
X117599460Y-98793300D02*
X111249460Y-98793300D01*
X111249460Y-98793300D02*
X111249460Y-82013300D01*
X111249460Y-82013300D02*
X112249460Y-81013300D01*
X101450460Y-82664300D02*
G75*
G03X101450460Y-82664300I-1250000J0D01*
G01*
X100200460Y-82664300D02*
X100200460Y-85204300D01*
X97640460Y-84696300D02*
G75*
G03X97640460Y-84696300I-1250000J0D01*
G01*
X96390460Y-84696300D02*
X96390460Y-82156300D01*
X101450460Y-79362300D02*
G75*
G03X101450460Y-79362300I-1250000J0D01*
G01*
X100200460Y-79362300D02*
X102740460Y-79362300D01*
X107419460Y-79362300D02*
G75*
G03X107419460Y-79362300I-1250000J0D01*
G01*
X106169460Y-79362300D02*
X108709460Y-79362300D01*
X104879460Y-82664300D02*
G75*
G03X104879460Y-82664300I-1250000J0D01*
G01*
X103629460Y-82664300D02*
X103629460Y-85204300D01*
X108562460Y-84696300D02*
G75*
G03X108562460Y-84696300I-1250000J0D01*
G01*
X107312460Y-84696300D02*
X107312460Y-82156300D01*
X108562460Y-91935300D02*
G75*
G03X108562460Y-91935300I-1250000J0D01*
G01*
X107312460Y-91935300D02*
X104772460Y-91935300D01*
X104625460Y-97396300D02*
G75*
G03X104625460Y-97396300I-1250000J0D01*
G01*
X103375460Y-97396300D02*
X103375460Y-94856300D01*
X108562460Y-97269300D02*
G75*
G03X108562460Y-97269300I-1250000J0D01*
G01*
X107312460Y-97269300D02*
X107312460Y-94729300D01*
X129263460Y-98158300D02*
G75*
G03X129263460Y-98158300I-1250000J0D01*
G01*
X128013460Y-98158300D02*
X128013460Y-95618300D01*
X125961460Y-92824300D02*
G75*
G03X125961460Y-92824300I-1250000J0D01*
G01*
X124711460Y-92824300D02*
X124711460Y-90284300D01*
X122659460Y-89395300D02*
G75*
G03X122659460Y-89395300I-1250000J0D01*
G01*
X121409460Y-89395300D02*
X121409460Y-86855300D01*
X129263460Y-92824300D02*
G75*
G03X129263460Y-92824300I-1250000J0D01*
G01*
X128013460Y-92824300D02*
X128013460Y-90284300D01*
X125961460Y-98158300D02*
G75*
G03X125961460Y-98158300I-1250000J0D01*
G01*
X124711460Y-98158300D02*
X124711460Y-95618300D01*
X126342460Y-87490300D02*
G75*
G03X126342460Y-87490300I-1250000J0D01*
G01*
X125092460Y-87490300D02*
X127632460Y-87490300D01*
X118341460Y-78854300D02*
G75*
G03X118341460Y-78854300I-1250000J0D01*
G01*
X117091460Y-78854300D02*
X119631460Y-78854300D01*
X123675460Y-79743300D02*
G75*
G03X123675460Y-79743300I-1250000J0D01*
G01*
X122425460Y-79743300D02*
X124965460Y-79743300D01*
X124691460Y-83934300D02*
G75*
G03X124691460Y-83934300I-1250000J0D01*
G01*
X123441460Y-83934300D02*
X120901460Y-83934300D01*
X103522460Y-87256300D02*
X103522460Y-89756300D01*
X103522460Y-89756300D02*
X108522460Y-89756300D01*
X108522460Y-89756300D02*
X108522460Y-87256300D01*
X108522460Y-87256300D02*
X103522460Y-87256300D01*
X95140460Y-80485300D02*
X97640460Y-80485300D01*
X97640460Y-80485300D02*
X97640460Y-75485300D01*
X97640460Y-75485300D02*
X95140460Y-75485300D01*
X95140460Y-75485300D02*
X95140460Y-80485300D01*
X102643460Y-87729300D02*
X100043460Y-87729300D01*
X100043460Y-87729300D02*
X100043460Y-91529300D01*
X100043460Y-91529300D02*
X102643460Y-91529300D01*
X102643460Y-91529300D02*
X102643460Y-87729300D01*
X62387000Y-87729300D02*
X59787000Y-87729300D01*
X59787000Y-87729300D02*
X59787000Y-91529300D01*
X59787000Y-91529300D02*
X62387000Y-91529300D01*
X62387000Y-91529300D02*
X62387000Y-87729300D01*
X54884000Y-80485300D02*
X57384000Y-80485300D01*
X57384000Y-80485300D02*
X57384000Y-75485300D01*
X57384000Y-75485300D02*
X54884000Y-75485300D01*
X54884000Y-75485300D02*
X54884000Y-80485300D01*
X63266000Y-87256300D02*
X63266000Y-89756300D01*
X63266000Y-89756300D02*
X68266000Y-89756300D01*
X68266000Y-89756300D02*
X68266000Y-87256300D01*
X68266000Y-87256300D02*
X63266000Y-87256300D01*
X84435000Y-83934300D02*
G75*
G03X84435000Y-83934300I-1250000J0D01*
G01*
X83185000Y-83934300D02*
X80645000Y-83934300D01*
X83419000Y-79743300D02*
G75*
G03X83419000Y-79743300I-1250000J0D01*
G01*
X82169000Y-79743300D02*
X84709000Y-79743300D01*
X78085000Y-78854300D02*
G75*
G03X78085000Y-78854300I-1250000J0D01*
G01*
X76835000Y-78854300D02*
X79375000Y-78854300D01*
X86086000Y-87490300D02*
G75*
G03X86086000Y-87490300I-1250000J0D01*
G01*
X84836000Y-87490300D02*
X87376000Y-87490300D01*
X85705000Y-98158300D02*
G75*
G03X85705000Y-98158300I-1250000J0D01*
G01*
X84455000Y-98158300D02*
X84455000Y-95618300D01*
X89007000Y-92824300D02*
G75*
G03X89007000Y-92824300I-1250000J0D01*
G01*
X87757000Y-92824300D02*
X87757000Y-90284300D01*
X82403000Y-89395300D02*
G75*
G03X82403000Y-89395300I-1250000J0D01*
G01*
X81153000Y-89395300D02*
X81153000Y-86855300D01*
X85705000Y-92824300D02*
G75*
G03X85705000Y-92824300I-1250000J0D01*
G01*
X84455000Y-92824300D02*
X84455000Y-90284300D01*
X89007000Y-98158300D02*
G75*
G03X89007000Y-98158300I-1250000J0D01*
G01*
X87757000Y-98158300D02*
X87757000Y-95618300D01*
X68306000Y-97269300D02*
G75*
G03X68306000Y-97269300I-1250000J0D01*
G01*
X67056000Y-97269300D02*
X67056000Y-94729300D01*
X64369000Y-97396300D02*
G75*
G03X64369000Y-97396300I-1250000J0D01*
G01*
X63119000Y-97396300D02*
X63119000Y-94856300D01*
X68306000Y-91935300D02*
G75*
G03X68306000Y-91935300I-1250000J0D01*
G01*
X67056000Y-91935300D02*
X64516000Y-91935300D01*
X68306000Y-84696300D02*
G75*
G03X68306000Y-84696300I-1250000J0D01*
G01*
X67056000Y-84696300D02*
X67056000Y-82156300D01*
X64623000Y-82664300D02*
G75*
G03X64623000Y-82664300I-1250000J0D01*
G01*
X63373000Y-82664300D02*
X63373000Y-85204300D01*
X67163000Y-79362300D02*
G75*
G03X67163000Y-79362300I-1250000J0D01*
G01*
X65913000Y-79362300D02*
X68453000Y-79362300D01*
X61194000Y-79362300D02*
G75*
G03X61194000Y-79362300I-1250000J0D01*
G01*
X59944000Y-79362300D02*
X62484000Y-79362300D01*
X57384000Y-84696300D02*
G75*
G03X57384000Y-84696300I-1250000J0D01*
G01*
X56134000Y-84696300D02*
X56134000Y-82156300D01*
X61194000Y-82664300D02*
G75*
G03X61194000Y-82664300I-1250000J0D01*
G01*
X59944000Y-82664300D02*
X59944000Y-85204300D01*
X71993000Y-81013300D02*
X77343000Y-81013300D01*
X77343000Y-81013300D02*
X77343000Y-98793300D01*
X77343000Y-98793300D02*
X70993000Y-98793300D01*
X70993000Y-98793300D02*
X70993000Y-82013300D01*
X70993000Y-82013300D02*
X71993000Y-81013300D01*
X55269000Y-91661300D02*
X58269000Y-91661300D01*
X58269000Y-88661300D02*
X55269000Y-88661300D01*
X58919000Y-92711300D02*
X54619000Y-92711300D01*
X54619000Y-92711300D02*
X54619000Y-88061300D01*
X54619000Y-88061300D02*
X58269000Y-88061300D01*
X58269000Y-88061300D02*
X58919000Y-88711300D01*
X58919000Y-88711300D02*
X58919000Y-92711300D01*
X55269000Y-88661300D02*
X55269000Y-91661300D01*
X58269000Y-91661300D02*
X58269000Y-88661300D01*
X57149000Y-90661300D02*
X57149000Y-90921300D01*
X57149000Y-90661300D02*
X57409000Y-90661300D01*
X57149000Y-90161300D02*
X57149000Y-90411300D01*
X57149000Y-90161300D02*
X57409000Y-90161300D01*
X57909000Y-90921300D02*
X57149000Y-90161300D01*
X57909000Y-91431300D02*
X57149000Y-90661300D01*
X56129000Y-89901300D02*
X56769000Y-90541300D01*
X56769000Y-90541300D02*
X55499000Y-90541300D01*
X55499000Y-90541300D02*
X56129000Y-89901300D01*
X56769000Y-89901300D02*
X55499000Y-89901300D01*
X56129000Y-88891300D02*
X56129000Y-91431300D01*
X82453000Y-91412300D02*
X79853000Y-91412300D01*
X79853000Y-91412300D02*
X79853000Y-95212300D01*
X79853000Y-95212300D02*
X82453000Y-95212300D01*
X82453000Y-95212300D02*
X82453000Y-91412300D01*
X74325000Y-75664300D02*
X71725000Y-75664300D01*
X71725000Y-75664300D02*
X71725000Y-79464300D01*
X71725000Y-79464300D02*
X74325000Y-79464300D01*
X74325000Y-79464300D02*
X74325000Y-75664300D01*
X65136000Y-74760300D02*
X65136000Y-77360300D01*
X65136000Y-77360300D02*
X68936000Y-77360300D01*
X68936000Y-77360300D02*
X68936000Y-74760300D01*
X68936000Y-74760300D02*
X65136000Y-74760300D01*
X82453000Y-95984300D02*
X79853000Y-95984300D01*
X79853000Y-95984300D02*
X79853000Y-99784300D01*
X79853000Y-99784300D02*
X82453000Y-99784300D01*
X82453000Y-99784300D02*
X82453000Y-95984300D01*
X42194000Y-95984300D02*
X39594000Y-95984300D01*
X39594000Y-95984300D02*
X39594000Y-99784300D01*
X39594000Y-99784300D02*
X42194000Y-99784300D01*
X42194000Y-99784300D02*
X42194000Y-95984300D01*
X24877000Y-74760300D02*
X24877000Y-77360300D01*
X24877000Y-77360300D02*
X28677000Y-77360300D01*
X28677000Y-77360300D02*
X28677000Y-74760300D01*
X28677000Y-74760300D02*
X24877000Y-74760300D01*
X34066000Y-75664300D02*
X31466000Y-75664300D01*
X31466000Y-75664300D02*
X31466000Y-79464300D01*
X31466000Y-79464300D02*
X34066000Y-79464300D01*
X34066000Y-79464300D02*
X34066000Y-75664300D01*
X42194000Y-91412300D02*
X39594000Y-91412300D01*
X39594000Y-91412300D02*
X39594000Y-95212300D01*
X39594000Y-95212300D02*
X42194000Y-95212300D01*
X42194000Y-95212300D02*
X42194000Y-91412300D01*
X15010000Y-91661300D02*
X18010000Y-91661300D01*
X18010000Y-88661300D02*
X15010000Y-88661300D01*
X18660000Y-92711300D02*
X14360000Y-92711300D01*
X14360000Y-92711300D02*
X14360000Y-88061300D01*
X14360000Y-88061300D02*
X18010000Y-88061300D01*
X18010000Y-88061300D02*
X18660000Y-88711300D01*
X18660000Y-88711300D02*
X18660000Y-92711300D01*
X15010000Y-88661300D02*
X15010000Y-91661300D01*
X18010000Y-91661300D02*
X18010000Y-88661300D01*
X16890000Y-90661300D02*
X16890000Y-90921300D01*
X16890000Y-90661300D02*
X17150000Y-90661300D01*
X16890000Y-90161300D02*
X16890000Y-90411300D01*
X16890000Y-90161300D02*
X17150000Y-90161300D01*
X17650000Y-90921300D02*
X16890000Y-90161300D01*
X17650000Y-91431300D02*
X16890000Y-90661300D01*
X15870000Y-89901300D02*
X16510000Y-90541300D01*
X16510000Y-90541300D02*
X15240000Y-90541300D01*
X15240000Y-90541300D02*
X15870000Y-89901300D01*
X16510000Y-89901300D02*
X15240000Y-89901300D01*
X15870000Y-88891300D02*
X15870000Y-91431300D01*
X31734000Y-81013300D02*
X37084000Y-81013300D01*
X37084000Y-81013300D02*
X37084000Y-98793300D01*
X37084000Y-98793300D02*
X30734000Y-98793300D01*
X30734000Y-98793300D02*
X30734000Y-82013300D01*
X30734000Y-82013300D02*
X31734000Y-81013300D01*
X20935000Y-82664300D02*
G75*
G03X20935000Y-82664300I-1250000J0D01*
G01*
X19685000Y-82664300D02*
X19685000Y-85204300D01*
X17125000Y-84696300D02*
G75*
G03X17125000Y-84696300I-1250000J0D01*
G01*
X15875000Y-84696300D02*
X15875000Y-82156300D01*
X20935000Y-79362300D02*
G75*
G03X20935000Y-79362300I-1250000J0D01*
G01*
X19685000Y-79362300D02*
X22225000Y-79362300D01*
X26904000Y-79362300D02*
G75*
G03X26904000Y-79362300I-1250000J0D01*
G01*
X25654000Y-79362300D02*
X28194000Y-79362300D01*
X24364000Y-82664300D02*
G75*
G03X24364000Y-82664300I-1250000J0D01*
G01*
X23114000Y-82664300D02*
X23114000Y-85204300D01*
X28047000Y-84696300D02*
G75*
G03X28047000Y-84696300I-1250000J0D01*
G01*
X26797000Y-84696300D02*
X26797000Y-82156300D01*
X28047000Y-91935300D02*
G75*
G03X28047000Y-91935300I-1250000J0D01*
G01*
X26797000Y-91935300D02*
X24257000Y-91935300D01*
X24110000Y-97396300D02*
G75*
G03X24110000Y-97396300I-1250000J0D01*
G01*
X22860000Y-97396300D02*
X22860000Y-94856300D01*
X28047000Y-97269300D02*
G75*
G03X28047000Y-97269300I-1250000J0D01*
G01*
X26797000Y-97269300D02*
X26797000Y-94729300D01*
X48748000Y-98158300D02*
G75*
G03X48748000Y-98158300I-1250000J0D01*
G01*
X47498000Y-98158300D02*
X47498000Y-95618300D01*
X45446000Y-92824300D02*
G75*
G03X45446000Y-92824300I-1250000J0D01*
G01*
X44196000Y-92824300D02*
X44196000Y-90284300D01*
X42144000Y-89395300D02*
G75*
G03X42144000Y-89395300I-1250000J0D01*
G01*
X40894000Y-89395300D02*
X40894000Y-86855300D01*
X48748000Y-92824300D02*
G75*
G03X48748000Y-92824300I-1250000J0D01*
G01*
X47498000Y-92824300D02*
X47498000Y-90284300D01*
X45446000Y-98158300D02*
G75*
G03X45446000Y-98158300I-1250000J0D01*
G01*
X44196000Y-98158300D02*
X44196000Y-95618300D01*
X45827000Y-87490300D02*
G75*
G03X45827000Y-87490300I-1250000J0D01*
G01*
X44577000Y-87490300D02*
X47117000Y-87490300D01*
X37826000Y-78854300D02*
G75*
G03X37826000Y-78854300I-1250000J0D01*
G01*
X36576000Y-78854300D02*
X39116000Y-78854300D01*
X43160000Y-79743300D02*
G75*
G03X43160000Y-79743300I-1250000J0D01*
G01*
X41910000Y-79743300D02*
X44450000Y-79743300D01*
X44176000Y-83934300D02*
G75*
G03X44176000Y-83934300I-1250000J0D01*
G01*
X42926000Y-83934300D02*
X40386000Y-83934300D01*
X23007000Y-87256300D02*
X23007000Y-89756300D01*
X23007000Y-89756300D02*
X28007000Y-89756300D01*
X28007000Y-89756300D02*
X28007000Y-87256300D01*
X28007000Y-87256300D02*
X23007000Y-87256300D01*
X14625000Y-80485300D02*
X17125000Y-80485300D01*
X17125000Y-80485300D02*
X17125000Y-75485300D01*
X17125000Y-75485300D02*
X14625000Y-75485300D01*
X14625000Y-75485300D02*
X14625000Y-80485300D01*
X22128000Y-87729300D02*
X19528000Y-87729300D01*
X19528000Y-87729300D02*
X19528000Y-91529300D01*
X19528000Y-91529300D02*
X22128000Y-91529300D01*
X22128000Y-91529300D02*
X22128000Y-87729300D01*
X22128000Y-57942720D02*
X19528000Y-57942720D01*
X19528000Y-57942720D02*
X19528000Y-61742720D01*
X19528000Y-61742720D02*
X22128000Y-61742720D01*
X22128000Y-61742720D02*
X22128000Y-57942720D01*
X14625000Y-50698720D02*
X17125000Y-50698720D01*
X17125000Y-50698720D02*
X17125000Y-45698720D01*
X17125000Y-45698720D02*
X14625000Y-45698720D01*
X14625000Y-45698720D02*
X14625000Y-50698720D01*
X23007000Y-57469720D02*
X23007000Y-59969720D01*
X23007000Y-59969720D02*
X28007000Y-59969720D01*
X28007000Y-59969720D02*
X28007000Y-57469720D01*
X28007000Y-57469720D02*
X23007000Y-57469720D01*
X44176000Y-54147720D02*
G75*
G03X44176000Y-54147720I-1250000J0D01*
G01*
X42926000Y-54147720D02*
X40386000Y-54147720D01*
X43160000Y-49956720D02*
G75*
G03X43160000Y-49956720I-1250000J0D01*
G01*
X41910000Y-49956720D02*
X44450000Y-49956720D01*
X37826000Y-49067720D02*
G75*
G03X37826000Y-49067720I-1250000J0D01*
G01*
X36576000Y-49067720D02*
X39116000Y-49067720D01*
X45827000Y-57703720D02*
G75*
G03X45827000Y-57703720I-1250000J0D01*
G01*
X44577000Y-57703720D02*
X47117000Y-57703720D01*
X45446000Y-68371720D02*
G75*
G03X45446000Y-68371720I-1250000J0D01*
G01*
X44196000Y-68371720D02*
X44196000Y-65831720D01*
X48748000Y-63037720D02*
G75*
G03X48748000Y-63037720I-1250000J0D01*
G01*
X47498000Y-63037720D02*
X47498000Y-60497720D01*
X42144000Y-59608720D02*
G75*
G03X42144000Y-59608720I-1250000J0D01*
G01*
X40894000Y-59608720D02*
X40894000Y-57068720D01*
X45446000Y-63037720D02*
G75*
G03X45446000Y-63037720I-1250000J0D01*
G01*
X44196000Y-63037720D02*
X44196000Y-60497720D01*
X48748000Y-68371720D02*
G75*
G03X48748000Y-68371720I-1250000J0D01*
G01*
X47498000Y-68371720D02*
X47498000Y-65831720D01*
X28047000Y-67482720D02*
G75*
G03X28047000Y-67482720I-1250000J0D01*
G01*
X26797000Y-67482720D02*
X26797000Y-64942720D01*
X24110000Y-67609720D02*
G75*
G03X24110000Y-67609720I-1250000J0D01*
G01*
X22860000Y-67609720D02*
X22860000Y-65069720D01*
X28047000Y-62148720D02*
G75*
G03X28047000Y-62148720I-1250000J0D01*
G01*
X26797000Y-62148720D02*
X24257000Y-62148720D01*
X28047000Y-54909720D02*
G75*
G03X28047000Y-54909720I-1250000J0D01*
G01*
X26797000Y-54909720D02*
X26797000Y-52369720D01*
X24364000Y-52877720D02*
G75*
G03X24364000Y-52877720I-1250000J0D01*
G01*
X23114000Y-52877720D02*
X23114000Y-55417720D01*
X26904000Y-49575720D02*
G75*
G03X26904000Y-49575720I-1250000J0D01*
G01*
X25654000Y-49575720D02*
X28194000Y-49575720D01*
X20935000Y-49575720D02*
G75*
G03X20935000Y-49575720I-1250000J0D01*
G01*
X19685000Y-49575720D02*
X22225000Y-49575720D01*
X17125000Y-54909720D02*
G75*
G03X17125000Y-54909720I-1250000J0D01*
G01*
X15875000Y-54909720D02*
X15875000Y-52369720D01*
X20935000Y-52877720D02*
G75*
G03X20935000Y-52877720I-1250000J0D01*
G01*
X19685000Y-52877720D02*
X19685000Y-55417720D01*
X31734000Y-51226720D02*
X37084000Y-51226720D01*
X37084000Y-51226720D02*
X37084000Y-69006720D01*
X37084000Y-69006720D02*
X30734000Y-69006720D01*
X30734000Y-69006720D02*
X30734000Y-52226720D01*
X30734000Y-52226720D02*
X31734000Y-51226720D01*
X15010000Y-61874720D02*
X18010000Y-61874720D01*
X18010000Y-58874720D02*
X15010000Y-58874720D01*
X18660000Y-62924720D02*
X14360000Y-62924720D01*
X14360000Y-62924720D02*
X14360000Y-58274720D01*
X14360000Y-58274720D02*
X18010000Y-58274720D01*
X18010000Y-58274720D02*
X18660000Y-58924720D01*
X18660000Y-58924720D02*
X18660000Y-62924720D01*
X15010000Y-58874720D02*
X15010000Y-61874720D01*
X18010000Y-61874720D02*
X18010000Y-58874720D01*
X16890000Y-60874720D02*
X16890000Y-61134720D01*
X16890000Y-60874720D02*
X17150000Y-60874720D01*
X16890000Y-60374720D02*
X16890000Y-60624720D01*
X16890000Y-60374720D02*
X17150000Y-60374720D01*
X17650000Y-61134720D02*
X16890000Y-60374720D01*
X17650000Y-61644720D02*
X16890000Y-60874720D01*
X15870000Y-60114720D02*
X16510000Y-60754720D01*
X16510000Y-60754720D02*
X15240000Y-60754720D01*
X15240000Y-60754720D02*
X15870000Y-60114720D01*
X16510000Y-60114720D02*
X15240000Y-60114720D01*
X15870000Y-59104720D02*
X15870000Y-61644720D01*
X42194000Y-61625720D02*
X39594000Y-61625720D01*
X39594000Y-61625720D02*
X39594000Y-65425720D01*
X39594000Y-65425720D02*
X42194000Y-65425720D01*
X42194000Y-65425720D02*
X42194000Y-61625720D01*
X34066000Y-45877720D02*
X31466000Y-45877720D01*
X31466000Y-45877720D02*
X31466000Y-49677720D01*
X31466000Y-49677720D02*
X34066000Y-49677720D01*
X34066000Y-49677720D02*
X34066000Y-45877720D01*
X24877000Y-44973720D02*
X24877000Y-47573720D01*
X24877000Y-47573720D02*
X28677000Y-47573720D01*
X28677000Y-47573720D02*
X28677000Y-44973720D01*
X28677000Y-44973720D02*
X24877000Y-44973720D01*
X42194000Y-66197720D02*
X39594000Y-66197720D01*
X39594000Y-66197720D02*
X39594000Y-69997720D01*
X39594000Y-69997720D02*
X42194000Y-69997720D01*
X42194000Y-69997720D02*
X42194000Y-66197720D01*
X82453000Y-66197720D02*
X79853000Y-66197720D01*
X79853000Y-66197720D02*
X79853000Y-69997720D01*
X79853000Y-69997720D02*
X82453000Y-69997720D01*
X82453000Y-69997720D02*
X82453000Y-66197720D01*
X65136000Y-44973720D02*
X65136000Y-47573720D01*
X65136000Y-47573720D02*
X68936000Y-47573720D01*
X68936000Y-47573720D02*
X68936000Y-44973720D01*
X68936000Y-44973720D02*
X65136000Y-44973720D01*
X74325000Y-45877720D02*
X71725000Y-45877720D01*
X71725000Y-45877720D02*
X71725000Y-49677720D01*
X71725000Y-49677720D02*
X74325000Y-49677720D01*
X74325000Y-49677720D02*
X74325000Y-45877720D01*
X82453000Y-61625720D02*
X79853000Y-61625720D01*
X79853000Y-61625720D02*
X79853000Y-65425720D01*
X79853000Y-65425720D02*
X82453000Y-65425720D01*
X82453000Y-65425720D02*
X82453000Y-61625720D01*
X55269000Y-61874720D02*
X58269000Y-61874720D01*
X58269000Y-58874720D02*
X55269000Y-58874720D01*
X58919000Y-62924720D02*
X54619000Y-62924720D01*
X54619000Y-62924720D02*
X54619000Y-58274720D01*
X54619000Y-58274720D02*
X58269000Y-58274720D01*
X58269000Y-58274720D02*
X58919000Y-58924720D01*
X58919000Y-58924720D02*
X58919000Y-62924720D01*
X55269000Y-58874720D02*
X55269000Y-61874720D01*
X58269000Y-61874720D02*
X58269000Y-58874720D01*
X57149000Y-60874720D02*
X57149000Y-61134720D01*
X57149000Y-60874720D02*
X57409000Y-60874720D01*
X57149000Y-60374720D02*
X57149000Y-60624720D01*
X57149000Y-60374720D02*
X57409000Y-60374720D01*
X57909000Y-61134720D02*
X57149000Y-60374720D01*
X57909000Y-61644720D02*
X57149000Y-60874720D01*
X56129000Y-60114720D02*
X56769000Y-60754720D01*
X56769000Y-60754720D02*
X55499000Y-60754720D01*
X55499000Y-60754720D02*
X56129000Y-60114720D01*
X56769000Y-60114720D02*
X55499000Y-60114720D01*
X56129000Y-59104720D02*
X56129000Y-61644720D01*
X71993000Y-51226720D02*
X77343000Y-51226720D01*
X77343000Y-51226720D02*
X77343000Y-69006720D01*
X77343000Y-69006720D02*
X70993000Y-69006720D01*
X70993000Y-69006720D02*
X70993000Y-52226720D01*
X70993000Y-52226720D02*
X71993000Y-51226720D01*
X61194000Y-52877720D02*
G75*
G03X61194000Y-52877720I-1250000J0D01*
G01*
X59944000Y-52877720D02*
X59944000Y-55417720D01*
X57384000Y-54909720D02*
G75*
G03X57384000Y-54909720I-1250000J0D01*
G01*
X56134000Y-54909720D02*
X56134000Y-52369720D01*
X61194000Y-49575720D02*
G75*
G03X61194000Y-49575720I-1250000J0D01*
G01*
X59944000Y-49575720D02*
X62484000Y-49575720D01*
X67163000Y-49575720D02*
G75*
G03X67163000Y-49575720I-1250000J0D01*
G01*
X65913000Y-49575720D02*
X68453000Y-49575720D01*
X64623000Y-52877720D02*
G75*
G03X64623000Y-52877720I-1250000J0D01*
G01*
X63373000Y-52877720D02*
X63373000Y-55417720D01*
X68306000Y-54909720D02*
G75*
G03X68306000Y-54909720I-1250000J0D01*
G01*
X67056000Y-54909720D02*
X67056000Y-52369720D01*
X68306000Y-62148720D02*
G75*
G03X68306000Y-62148720I-1250000J0D01*
G01*
X67056000Y-62148720D02*
X64516000Y-62148720D01*
X64369000Y-67609720D02*
G75*
G03X64369000Y-67609720I-1250000J0D01*
G01*
X63119000Y-67609720D02*
X63119000Y-65069720D01*
X68306000Y-67482720D02*
G75*
G03X68306000Y-67482720I-1250000J0D01*
G01*
X67056000Y-67482720D02*
X67056000Y-64942720D01*
X89007000Y-68371720D02*
G75*
G03X89007000Y-68371720I-1250000J0D01*
G01*
X87757000Y-68371720D02*
X87757000Y-65831720D01*
X85705000Y-63037720D02*
G75*
G03X85705000Y-63037720I-1250000J0D01*
G01*
X84455000Y-63037720D02*
X84455000Y-60497720D01*
X82403000Y-59608720D02*
G75*
G03X82403000Y-59608720I-1250000J0D01*
G01*
X81153000Y-59608720D02*
X81153000Y-57068720D01*
X89007000Y-63037720D02*
G75*
G03X89007000Y-63037720I-1250000J0D01*
G01*
X87757000Y-63037720D02*
X87757000Y-60497720D01*
X85705000Y-68371720D02*
G75*
G03X85705000Y-68371720I-1250000J0D01*
G01*
X84455000Y-68371720D02*
X84455000Y-65831720D01*
X86086000Y-57703720D02*
G75*
G03X86086000Y-57703720I-1250000J0D01*
G01*
X84836000Y-57703720D02*
X87376000Y-57703720D01*
X78085000Y-49067720D02*
G75*
G03X78085000Y-49067720I-1250000J0D01*
G01*
X76835000Y-49067720D02*
X79375000Y-49067720D01*
X83419000Y-49956720D02*
G75*
G03X83419000Y-49956720I-1250000J0D01*
G01*
X82169000Y-49956720D02*
X84709000Y-49956720D01*
X84435000Y-54147720D02*
G75*
G03X84435000Y-54147720I-1250000J0D01*
G01*
X83185000Y-54147720D02*
X80645000Y-54147720D01*
X63266000Y-57469720D02*
X63266000Y-59969720D01*
X63266000Y-59969720D02*
X68266000Y-59969720D01*
X68266000Y-59969720D02*
X68266000Y-57469720D01*
X68266000Y-57469720D02*
X63266000Y-57469720D01*
X54884000Y-50698720D02*
X57384000Y-50698720D01*
X57384000Y-50698720D02*
X57384000Y-45698720D01*
X57384000Y-45698720D02*
X54884000Y-45698720D01*
X54884000Y-45698720D02*
X54884000Y-50698720D01*
X62387000Y-57942720D02*
X59787000Y-57942720D01*
X59787000Y-57942720D02*
X59787000Y-61742720D01*
X59787000Y-61742720D02*
X62387000Y-61742720D01*
X62387000Y-61742720D02*
X62387000Y-57942720D01*
X102643460Y-57942720D02*
X100043460Y-57942720D01*
X100043460Y-57942720D02*
X100043460Y-61742720D01*
X100043460Y-61742720D02*
X102643460Y-61742720D01*
X102643460Y-61742720D02*
X102643460Y-57942720D01*
X95140460Y-50698720D02*
X97640460Y-50698720D01*
X97640460Y-50698720D02*
X97640460Y-45698720D01*
X97640460Y-45698720D02*
X95140460Y-45698720D01*
X95140460Y-45698720D02*
X95140460Y-50698720D01*
X103522460Y-57469720D02*
X103522460Y-59969720D01*
X103522460Y-59969720D02*
X108522460Y-59969720D01*
X108522460Y-59969720D02*
X108522460Y-57469720D01*
X108522460Y-57469720D02*
X103522460Y-57469720D01*
X124691460Y-54147720D02*
G75*
G03X124691460Y-54147720I-1250000J0D01*
G01*
X123441460Y-54147720D02*
X120901460Y-54147720D01*
X123675460Y-49956720D02*
G75*
G03X123675460Y-49956720I-1250000J0D01*
G01*
X122425460Y-49956720D02*
X124965460Y-49956720D01*
X118341460Y-49067720D02*
G75*
G03X118341460Y-49067720I-1250000J0D01*
G01*
X117091460Y-49067720D02*
X119631460Y-49067720D01*
X126342460Y-57703720D02*
G75*
G03X126342460Y-57703720I-1250000J0D01*
G01*
X125092460Y-57703720D02*
X127632460Y-57703720D01*
X125961460Y-68371720D02*
G75*
G03X125961460Y-68371720I-1250000J0D01*
G01*
X124711460Y-68371720D02*
X124711460Y-65831720D01*
X129263460Y-63037720D02*
G75*
G03X129263460Y-63037720I-1250000J0D01*
G01*
X128013460Y-63037720D02*
X128013460Y-60497720D01*
X122659460Y-59608720D02*
G75*
G03X122659460Y-59608720I-1250000J0D01*
G01*
X121409460Y-59608720D02*
X121409460Y-57068720D01*
X125961460Y-63037720D02*
G75*
G03X125961460Y-63037720I-1250000J0D01*
G01*
X124711460Y-63037720D02*
X124711460Y-60497720D01*
X129263460Y-68371720D02*
G75*
G03X129263460Y-68371720I-1250000J0D01*
G01*
X128013460Y-68371720D02*
X128013460Y-65831720D01*
X108562460Y-67482720D02*
G75*
G03X108562460Y-67482720I-1250000J0D01*
G01*
X107312460Y-67482720D02*
X107312460Y-64942720D01*
X104625460Y-67609720D02*
G75*
G03X104625460Y-67609720I-1250000J0D01*
G01*
X103375460Y-67609720D02*
X103375460Y-65069720D01*
X108562460Y-62148720D02*
G75*
G03X108562460Y-62148720I-1250000J0D01*
G01*
X107312460Y-62148720D02*
X104772460Y-62148720D01*
X108562460Y-54909720D02*
G75*
G03X108562460Y-54909720I-1250000J0D01*
G01*
X107312460Y-54909720D02*
X107312460Y-52369720D01*
X104879460Y-52877720D02*
G75*
G03X104879460Y-52877720I-1250000J0D01*
G01*
X103629460Y-52877720D02*
X103629460Y-55417720D01*
X107419460Y-49575720D02*
G75*
G03X107419460Y-49575720I-1250000J0D01*
G01*
X106169460Y-49575720D02*
X108709460Y-49575720D01*
X101450460Y-49575720D02*
G75*
G03X101450460Y-49575720I-1250000J0D01*
G01*
X100200460Y-49575720D02*
X102740460Y-49575720D01*
X97640460Y-54909720D02*
G75*
G03X97640460Y-54909720I-1250000J0D01*
G01*
X96390460Y-54909720D02*
X96390460Y-52369720D01*
X101450460Y-52877720D02*
G75*
G03X101450460Y-52877720I-1250000J0D01*
G01*
X100200460Y-52877720D02*
X100200460Y-55417720D01*
X112249460Y-51226720D02*
X117599460Y-51226720D01*
X117599460Y-51226720D02*
X117599460Y-69006720D01*
X117599460Y-69006720D02*
X111249460Y-69006720D01*
X111249460Y-69006720D02*
X111249460Y-52226720D01*
X111249460Y-52226720D02*
X112249460Y-51226720D01*
X95525460Y-61874720D02*
X98525460Y-61874720D01*
X98525460Y-58874720D02*
X95525460Y-58874720D01*
X99175460Y-62924720D02*
X94875460Y-62924720D01*
X94875460Y-62924720D02*
X94875460Y-58274720D01*
X94875460Y-58274720D02*
X98525460Y-58274720D01*
X98525460Y-58274720D02*
X99175460Y-58924720D01*
X99175460Y-58924720D02*
X99175460Y-62924720D01*
X95525460Y-58874720D02*
X95525460Y-61874720D01*
X98525460Y-61874720D02*
X98525460Y-58874720D01*
X97405460Y-60874720D02*
X97405460Y-61134720D01*
X97405460Y-60874720D02*
X97665460Y-60874720D01*
X97405460Y-60374720D02*
X97405460Y-60624720D01*
X97405460Y-60374720D02*
X97665460Y-60374720D01*
X98165460Y-61134720D02*
X97405460Y-60374720D01*
X98165460Y-61644720D02*
X97405460Y-60874720D01*
X96385460Y-60114720D02*
X97025460Y-60754720D01*
X97025460Y-60754720D02*
X95755460Y-60754720D01*
X95755460Y-60754720D02*
X96385460Y-60114720D01*
X97025460Y-60114720D02*
X95755460Y-60114720D01*
X96385460Y-59104720D02*
X96385460Y-61644720D01*
X122709460Y-61625720D02*
X120109460Y-61625720D01*
X120109460Y-61625720D02*
X120109460Y-65425720D01*
X120109460Y-65425720D02*
X122709460Y-65425720D01*
X122709460Y-65425720D02*
X122709460Y-61625720D01*
X114581460Y-45877720D02*
X111981460Y-45877720D01*
X111981460Y-45877720D02*
X111981460Y-49677720D01*
X111981460Y-49677720D02*
X114581460Y-49677720D01*
X114581460Y-49677720D02*
X114581460Y-45877720D01*
X105392460Y-44973720D02*
X105392460Y-47573720D01*
X105392460Y-47573720D02*
X109192460Y-47573720D01*
X109192460Y-47573720D02*
X109192460Y-44973720D01*
X109192460Y-44973720D02*
X105392460Y-44973720D01*
X122709460Y-66197720D02*
X120109460Y-66197720D01*
X120109460Y-66197720D02*
X120109460Y-69997720D01*
X120109460Y-69997720D02*
X122709460Y-69997720D01*
X122709460Y-69997720D02*
X122709460Y-66197720D01*
X162965920Y-66197720D02*
X160365920Y-66197720D01*
X160365920Y-66197720D02*
X160365920Y-69997720D01*
X160365920Y-69997720D02*
X162965920Y-69997720D01*
X162965920Y-69997720D02*
X162965920Y-66197720D01*
X145648920Y-44973720D02*
X145648920Y-47573720D01*
X145648920Y-47573720D02*
X149448920Y-47573720D01*
X149448920Y-47573720D02*
X149448920Y-44973720D01*
X149448920Y-44973720D02*
X145648920Y-44973720D01*
X154837920Y-45877720D02*
X152237920Y-45877720D01*
X152237920Y-45877720D02*
X152237920Y-49677720D01*
X152237920Y-49677720D02*
X154837920Y-49677720D01*
X154837920Y-49677720D02*
X154837920Y-45877720D01*
X162965920Y-61625720D02*
X160365920Y-61625720D01*
X160365920Y-61625720D02*
X160365920Y-65425720D01*
X160365920Y-65425720D02*
X162965920Y-65425720D01*
X162965920Y-65425720D02*
X162965920Y-61625720D01*
X135781920Y-61874720D02*
X138781920Y-61874720D01*
X138781920Y-58874720D02*
X135781920Y-58874720D01*
X139431920Y-62924720D02*
X135131920Y-62924720D01*
X135131920Y-62924720D02*
X135131920Y-58274720D01*
X135131920Y-58274720D02*
X138781920Y-58274720D01*
X138781920Y-58274720D02*
X139431920Y-58924720D01*
X139431920Y-58924720D02*
X139431920Y-62924720D01*
X135781920Y-58874720D02*
X135781920Y-61874720D01*
X138781920Y-61874720D02*
X138781920Y-58874720D01*
X137661920Y-60874720D02*
X137661920Y-61134720D01*
X137661920Y-60874720D02*
X137921920Y-60874720D01*
X137661920Y-60374720D02*
X137661920Y-60624720D01*
X137661920Y-60374720D02*
X137921920Y-60374720D01*
X138421920Y-61134720D02*
X137661920Y-60374720D01*
X138421920Y-61644720D02*
X137661920Y-60874720D01*
X136641920Y-60114720D02*
X137281920Y-60754720D01*
X137281920Y-60754720D02*
X136011920Y-60754720D01*
X136011920Y-60754720D02*
X136641920Y-60114720D01*
X137281920Y-60114720D02*
X136011920Y-60114720D01*
X136641920Y-59104720D02*
X136641920Y-61644720D01*
X152505920Y-51226720D02*
X157855920Y-51226720D01*
X157855920Y-51226720D02*
X157855920Y-69006720D01*
X157855920Y-69006720D02*
X151505920Y-69006720D01*
X151505920Y-69006720D02*
X151505920Y-52226720D01*
X151505920Y-52226720D02*
X152505920Y-51226720D01*
X141706920Y-52877720D02*
G75*
G03X141706920Y-52877720I-1250000J0D01*
G01*
X140456920Y-52877720D02*
X140456920Y-55417720D01*
X137896920Y-54909720D02*
G75*
G03X137896920Y-54909720I-1250000J0D01*
G01*
X136646920Y-54909720D02*
X136646920Y-52369720D01*
X141706920Y-49575720D02*
G75*
G03X141706920Y-49575720I-1250000J0D01*
G01*
X140456920Y-49575720D02*
X142996920Y-49575720D01*
X147675920Y-49575720D02*
G75*
G03X147675920Y-49575720I-1250000J0D01*
G01*
X146425920Y-49575720D02*
X148965920Y-49575720D01*
X145135920Y-52877720D02*
G75*
G03X145135920Y-52877720I-1250000J0D01*
G01*
X143885920Y-52877720D02*
X143885920Y-55417720D01*
X148818920Y-54909720D02*
G75*
G03X148818920Y-54909720I-1250000J0D01*
G01*
X147568920Y-54909720D02*
X147568920Y-52369720D01*
X148818920Y-62148720D02*
G75*
G03X148818920Y-62148720I-1250000J0D01*
G01*
X147568920Y-62148720D02*
X145028920Y-62148720D01*
X144881920Y-67609720D02*
G75*
G03X144881920Y-67609720I-1250000J0D01*
G01*
X143631920Y-67609720D02*
X143631920Y-65069720D01*
X148818920Y-67482720D02*
G75*
G03X148818920Y-67482720I-1250000J0D01*
G01*
X147568920Y-67482720D02*
X147568920Y-64942720D01*
X169519920Y-68371720D02*
G75*
G03X169519920Y-68371720I-1250000J0D01*
G01*
X168269920Y-68371720D02*
X168269920Y-65831720D01*
X166217920Y-63037720D02*
G75*
G03X166217920Y-63037720I-1250000J0D01*
G01*
X164967920Y-63037720D02*
X164967920Y-60497720D01*
X162915920Y-59608720D02*
G75*
G03X162915920Y-59608720I-1250000J0D01*
G01*
X161665920Y-59608720D02*
X161665920Y-57068720D01*
X169519920Y-63037720D02*
G75*
G03X169519920Y-63037720I-1250000J0D01*
G01*
X168269920Y-63037720D02*
X168269920Y-60497720D01*
X166217920Y-68371720D02*
G75*
G03X166217920Y-68371720I-1250000J0D01*
G01*
X164967920Y-68371720D02*
X164967920Y-65831720D01*
X166598920Y-57703720D02*
G75*
G03X166598920Y-57703720I-1250000J0D01*
G01*
X165348920Y-57703720D02*
X167888920Y-57703720D01*
X158597920Y-49067720D02*
G75*
G03X158597920Y-49067720I-1250000J0D01*
G01*
X157347920Y-49067720D02*
X159887920Y-49067720D01*
X163931920Y-49956720D02*
G75*
G03X163931920Y-49956720I-1250000J0D01*
G01*
X162681920Y-49956720D02*
X165221920Y-49956720D01*
X164947920Y-54147720D02*
G75*
G03X164947920Y-54147720I-1250000J0D01*
G01*
X163697920Y-54147720D02*
X161157920Y-54147720D01*
X143778920Y-57469720D02*
X143778920Y-59969720D01*
X143778920Y-59969720D02*
X148778920Y-59969720D01*
X148778920Y-59969720D02*
X148778920Y-57469720D01*
X148778920Y-57469720D02*
X143778920Y-57469720D01*
X135396920Y-50698720D02*
X137896920Y-50698720D01*
X137896920Y-50698720D02*
X137896920Y-45698720D01*
X137896920Y-45698720D02*
X135396920Y-45698720D01*
X135396920Y-45698720D02*
X135396920Y-50698720D01*
X142899920Y-57942720D02*
X140299920Y-57942720D01*
X140299920Y-57942720D02*
X140299920Y-61742720D01*
X140299920Y-61742720D02*
X142899920Y-61742720D01*
X142899920Y-61742720D02*
X142899920Y-57942720D01*
X142899920Y-28179000D02*
X140299920Y-28179000D01*
X140299920Y-28179000D02*
X140299920Y-31979000D01*
X140299920Y-31979000D02*
X142899920Y-31979000D01*
X142899920Y-31979000D02*
X142899920Y-28179000D01*
X135396920Y-20935000D02*
X137896920Y-20935000D01*
X137896920Y-20935000D02*
X137896920Y-15935000D01*
X137896920Y-15935000D02*
X135396920Y-15935000D01*
X135396920Y-15935000D02*
X135396920Y-20935000D01*
X143778920Y-27706000D02*
X143778920Y-30206000D01*
X143778920Y-30206000D02*
X148778920Y-30206000D01*
X148778920Y-30206000D02*
X148778920Y-27706000D01*
X148778920Y-27706000D02*
X143778920Y-27706000D01*
X164947920Y-24384000D02*
G75*
G03X164947920Y-24384000I-1250000J0D01*
G01*
X163697920Y-24384000D02*
X161157920Y-24384000D01*
X163931920Y-20193000D02*
G75*
G03X163931920Y-20193000I-1250000J0D01*
G01*
X162681920Y-20193000D02*
X165221920Y-20193000D01*
X158597920Y-19304000D02*
G75*
G03X158597920Y-19304000I-1250000J0D01*
G01*
X157347920Y-19304000D02*
X159887920Y-19304000D01*
X166598920Y-27940000D02*
G75*
G03X166598920Y-27940000I-1250000J0D01*
G01*
X165348920Y-27940000D02*
X167888920Y-27940000D01*
X166217920Y-38608000D02*
G75*
G03X166217920Y-38608000I-1250000J0D01*
G01*
X164967920Y-38608000D02*
X164967920Y-36068000D01*
X169519920Y-33274000D02*
G75*
G03X169519920Y-33274000I-1250000J0D01*
G01*
X168269920Y-33274000D02*
X168269920Y-30734000D01*
X162915920Y-29845000D02*
G75*
G03X162915920Y-29845000I-1250000J0D01*
G01*
X161665920Y-29845000D02*
X161665920Y-27305000D01*
X166217920Y-33274000D02*
G75*
G03X166217920Y-33274000I-1250000J0D01*
G01*
X164967920Y-33274000D02*
X164967920Y-30734000D01*
X169519920Y-38608000D02*
G75*
G03X169519920Y-38608000I-1250000J0D01*
G01*
X168269920Y-38608000D02*
X168269920Y-36068000D01*
X148818920Y-37719000D02*
G75*
G03X148818920Y-37719000I-1250000J0D01*
G01*
X147568920Y-37719000D02*
X147568920Y-35179000D01*
X144881920Y-37846000D02*
G75*
G03X144881920Y-37846000I-1250000J0D01*
G01*
X143631920Y-37846000D02*
X143631920Y-35306000D01*
X148818920Y-32385000D02*
G75*
G03X148818920Y-32385000I-1250000J0D01*
G01*
X147568920Y-32385000D02*
X145028920Y-32385000D01*
X148818920Y-25146000D02*
G75*
G03X148818920Y-25146000I-1250000J0D01*
G01*
X147568920Y-25146000D02*
X147568920Y-22606000D01*
X145135920Y-23114000D02*
G75*
G03X145135920Y-23114000I-1250000J0D01*
G01*
X143885920Y-23114000D02*
X143885920Y-25654000D01*
X147675920Y-19812000D02*
G75*
G03X147675920Y-19812000I-1250000J0D01*
G01*
X146425920Y-19812000D02*
X148965920Y-19812000D01*
X141706920Y-19812000D02*
G75*
G03X141706920Y-19812000I-1250000J0D01*
G01*
X140456920Y-19812000D02*
X142996920Y-19812000D01*
X137896920Y-25146000D02*
G75*
G03X137896920Y-25146000I-1250000J0D01*
G01*
X136646920Y-25146000D02*
X136646920Y-22606000D01*
X141706920Y-23114000D02*
G75*
G03X141706920Y-23114000I-1250000J0D01*
G01*
X140456920Y-23114000D02*
X140456920Y-25654000D01*
X152505920Y-21463000D02*
X157855920Y-21463000D01*
X157855920Y-21463000D02*
X157855920Y-39243000D01*
X157855920Y-39243000D02*
X151505920Y-39243000D01*
X151505920Y-39243000D02*
X151505920Y-22463000D01*
X151505920Y-22463000D02*
X152505920Y-21463000D01*
X135781920Y-32111000D02*
X138781920Y-32111000D01*
X138781920Y-29111000D02*
X135781920Y-29111000D01*
X139431920Y-33161000D02*
X135131920Y-33161000D01*
X135131920Y-33161000D02*
X135131920Y-28511000D01*
X135131920Y-28511000D02*
X138781920Y-28511000D01*
X138781920Y-28511000D02*
X139431920Y-29161000D01*
X139431920Y-29161000D02*
X139431920Y-33161000D01*
X135781920Y-29111000D02*
X135781920Y-32111000D01*
X138781920Y-32111000D02*
X138781920Y-29111000D01*
X137661920Y-31111000D02*
X137661920Y-31371000D01*
X137661920Y-31111000D02*
X137921920Y-31111000D01*
X137661920Y-30611000D02*
X137661920Y-30861000D01*
X137661920Y-30611000D02*
X137921920Y-30611000D01*
X138421920Y-31371000D02*
X137661920Y-30611000D01*
X138421920Y-31881000D02*
X137661920Y-31111000D01*
X136641920Y-30351000D02*
X137281920Y-30991000D01*
X137281920Y-30991000D02*
X136011920Y-30991000D01*
X136011920Y-30991000D02*
X136641920Y-30351000D01*
X137281920Y-30351000D02*
X136011920Y-30351000D01*
X136641920Y-29341000D02*
X136641920Y-31881000D01*
X162965920Y-31862000D02*
X160365920Y-31862000D01*
X160365920Y-31862000D02*
X160365920Y-35662000D01*
X160365920Y-35662000D02*
X162965920Y-35662000D01*
X162965920Y-35662000D02*
X162965920Y-31862000D01*
X154837920Y-16114000D02*
X152237920Y-16114000D01*
X152237920Y-16114000D02*
X152237920Y-19914000D01*
X152237920Y-19914000D02*
X154837920Y-19914000D01*
X154837920Y-19914000D02*
X154837920Y-16114000D01*
X145648920Y-15210000D02*
X145648920Y-17810000D01*
X145648920Y-17810000D02*
X149448920Y-17810000D01*
X149448920Y-17810000D02*
X149448920Y-15210000D01*
X149448920Y-15210000D02*
X145648920Y-15210000D01*
X162965920Y-36434000D02*
X160365920Y-36434000D01*
X160365920Y-36434000D02*
X160365920Y-40234000D01*
X160365920Y-40234000D02*
X162965920Y-40234000D01*
X162965920Y-40234000D02*
X162965920Y-36434000D01*
X122709460Y-36434000D02*
X120109460Y-36434000D01*
X120109460Y-36434000D02*
X120109460Y-40234000D01*
X120109460Y-40234000D02*
X122709460Y-40234000D01*
X122709460Y-40234000D02*
X122709460Y-36434000D01*
X105392460Y-15210000D02*
X105392460Y-17810000D01*
X105392460Y-17810000D02*
X109192460Y-17810000D01*
X109192460Y-17810000D02*
X109192460Y-15210000D01*
X109192460Y-15210000D02*
X105392460Y-15210000D01*
X114581460Y-16114000D02*
X111981460Y-16114000D01*
X111981460Y-16114000D02*
X111981460Y-19914000D01*
X111981460Y-19914000D02*
X114581460Y-19914000D01*
X114581460Y-19914000D02*
X114581460Y-16114000D01*
X122709460Y-31862000D02*
X120109460Y-31862000D01*
X120109460Y-31862000D02*
X120109460Y-35662000D01*
X120109460Y-35662000D02*
X122709460Y-35662000D01*
X122709460Y-35662000D02*
X122709460Y-31862000D01*
X95525460Y-32111000D02*
X98525460Y-32111000D01*
X98525460Y-29111000D02*
X95525460Y-29111000D01*
X99175460Y-33161000D02*
X94875460Y-33161000D01*
X94875460Y-33161000D02*
X94875460Y-28511000D01*
X94875460Y-28511000D02*
X98525460Y-28511000D01*
X98525460Y-28511000D02*
X99175460Y-29161000D01*
X99175460Y-29161000D02*
X99175460Y-33161000D01*
X95525460Y-29111000D02*
X95525460Y-32111000D01*
X98525460Y-32111000D02*
X98525460Y-29111000D01*
X97405460Y-31111000D02*
X97405460Y-31371000D01*
X97405460Y-31111000D02*
X97665460Y-31111000D01*
X97405460Y-30611000D02*
X97405460Y-30861000D01*
X97405460Y-30611000D02*
X97665460Y-30611000D01*
X98165460Y-31371000D02*
X97405460Y-30611000D01*
X98165460Y-31881000D02*
X97405460Y-31111000D01*
X96385460Y-30351000D02*
X97025460Y-30991000D01*
X97025460Y-30991000D02*
X95755460Y-30991000D01*
X95755460Y-30991000D02*
X96385460Y-30351000D01*
X97025460Y-30351000D02*
X95755460Y-30351000D01*
X96385460Y-29341000D02*
X96385460Y-31881000D01*
X112249460Y-21463000D02*
X117599460Y-21463000D01*
X117599460Y-21463000D02*
X117599460Y-39243000D01*
X117599460Y-39243000D02*
X111249460Y-39243000D01*
X111249460Y-39243000D02*
X111249460Y-22463000D01*
X111249460Y-22463000D02*
X112249460Y-21463000D01*
X101450460Y-23114000D02*
G75*
G03X101450460Y-23114000I-1250000J0D01*
G01*
X100200460Y-23114000D02*
X100200460Y-25654000D01*
X97640460Y-25146000D02*
G75*
G03X97640460Y-25146000I-1250000J0D01*
G01*
X96390460Y-25146000D02*
X96390460Y-22606000D01*
X101450460Y-19812000D02*
G75*
G03X101450460Y-19812000I-1250000J0D01*
G01*
X100200460Y-19812000D02*
X102740460Y-19812000D01*
X107419460Y-19812000D02*
G75*
G03X107419460Y-19812000I-1250000J0D01*
G01*
X106169460Y-19812000D02*
X108709460Y-19812000D01*
X104879460Y-23114000D02*
G75*
G03X104879460Y-23114000I-1250000J0D01*
G01*
X103629460Y-23114000D02*
X103629460Y-25654000D01*
X108562460Y-25146000D02*
G75*
G03X108562460Y-25146000I-1250000J0D01*
G01*
X107312460Y-25146000D02*
X107312460Y-22606000D01*
X108562460Y-32385000D02*
G75*
G03X108562460Y-32385000I-1250000J0D01*
G01*
X107312460Y-32385000D02*
X104772460Y-32385000D01*
X104625460Y-37846000D02*
G75*
G03X104625460Y-37846000I-1250000J0D01*
G01*
X103375460Y-37846000D02*
X103375460Y-35306000D01*
X108562460Y-37719000D02*
G75*
G03X108562460Y-37719000I-1250000J0D01*
G01*
X107312460Y-37719000D02*
X107312460Y-35179000D01*
X129263460Y-38608000D02*
G75*
G03X129263460Y-38608000I-1250000J0D01*
G01*
X128013460Y-38608000D02*
X128013460Y-36068000D01*
X125961460Y-33274000D02*
G75*
G03X125961460Y-33274000I-1250000J0D01*
G01*
X124711460Y-33274000D02*
X124711460Y-30734000D01*
X122659460Y-29845000D02*
G75*
G03X122659460Y-29845000I-1250000J0D01*
G01*
X121409460Y-29845000D02*
X121409460Y-27305000D01*
X129263460Y-33274000D02*
G75*
G03X129263460Y-33274000I-1250000J0D01*
G01*
X128013460Y-33274000D02*
X128013460Y-30734000D01*
X125961460Y-38608000D02*
G75*
G03X125961460Y-38608000I-1250000J0D01*
G01*
X124711460Y-38608000D02*
X124711460Y-36068000D01*
X126342460Y-27940000D02*
G75*
G03X126342460Y-27940000I-1250000J0D01*
G01*
X125092460Y-27940000D02*
X127632460Y-27940000D01*
X118341460Y-19304000D02*
G75*
G03X118341460Y-19304000I-1250000J0D01*
G01*
X117091460Y-19304000D02*
X119631460Y-19304000D01*
X123675460Y-20193000D02*
G75*
G03X123675460Y-20193000I-1250000J0D01*
G01*
X122425460Y-20193000D02*
X124965460Y-20193000D01*
X124691460Y-24384000D02*
G75*
G03X124691460Y-24384000I-1250000J0D01*
G01*
X123441460Y-24384000D02*
X120901460Y-24384000D01*
X103522460Y-27706000D02*
X103522460Y-30206000D01*
X103522460Y-30206000D02*
X108522460Y-30206000D01*
X108522460Y-30206000D02*
X108522460Y-27706000D01*
X108522460Y-27706000D02*
X103522460Y-27706000D01*
X95140460Y-20935000D02*
X97640460Y-20935000D01*
X97640460Y-20935000D02*
X97640460Y-15935000D01*
X97640460Y-15935000D02*
X95140460Y-15935000D01*
X95140460Y-15935000D02*
X95140460Y-20935000D01*
X102643460Y-28179000D02*
X100043460Y-28179000D01*
X100043460Y-28179000D02*
X100043460Y-31979000D01*
X100043460Y-31979000D02*
X102643460Y-31979000D01*
X102643460Y-31979000D02*
X102643460Y-28179000D01*
X62387000Y-28179000D02*
X59787000Y-28179000D01*
X59787000Y-28179000D02*
X59787000Y-31979000D01*
X59787000Y-31979000D02*
X62387000Y-31979000D01*
X62387000Y-31979000D02*
X62387000Y-28179000D01*
X54884000Y-20935000D02*
X57384000Y-20935000D01*
X57384000Y-20935000D02*
X57384000Y-15935000D01*
X57384000Y-15935000D02*
X54884000Y-15935000D01*
X54884000Y-15935000D02*
X54884000Y-20935000D01*
X63266000Y-27706000D02*
X63266000Y-30206000D01*
X63266000Y-30206000D02*
X68266000Y-30206000D01*
X68266000Y-30206000D02*
X68266000Y-27706000D01*
X68266000Y-27706000D02*
X63266000Y-27706000D01*
X84435000Y-24384000D02*
G75*
G03X84435000Y-24384000I-1250000J0D01*
G01*
X83185000Y-24384000D02*
X80645000Y-24384000D01*
X83419000Y-20193000D02*
G75*
G03X83419000Y-20193000I-1250000J0D01*
G01*
X82169000Y-20193000D02*
X84709000Y-20193000D01*
X78085000Y-19304000D02*
G75*
G03X78085000Y-19304000I-1250000J0D01*
G01*
X76835000Y-19304000D02*
X79375000Y-19304000D01*
X86086000Y-27940000D02*
G75*
G03X86086000Y-27940000I-1250000J0D01*
G01*
X84836000Y-27940000D02*
X87376000Y-27940000D01*
X85705000Y-38608000D02*
G75*
G03X85705000Y-38608000I-1250000J0D01*
G01*
X84455000Y-38608000D02*
X84455000Y-36068000D01*
X89007000Y-33274000D02*
G75*
G03X89007000Y-33274000I-1250000J0D01*
G01*
X87757000Y-33274000D02*
X87757000Y-30734000D01*
X82403000Y-29845000D02*
G75*
G03X82403000Y-29845000I-1250000J0D01*
G01*
X81153000Y-29845000D02*
X81153000Y-27305000D01*
X85705000Y-33274000D02*
G75*
G03X85705000Y-33274000I-1250000J0D01*
G01*
X84455000Y-33274000D02*
X84455000Y-30734000D01*
X89007000Y-38608000D02*
G75*
G03X89007000Y-38608000I-1250000J0D01*
G01*
X87757000Y-38608000D02*
X87757000Y-36068000D01*
X68306000Y-37719000D02*
G75*
G03X68306000Y-37719000I-1250000J0D01*
G01*
X67056000Y-37719000D02*
X67056000Y-35179000D01*
X64369000Y-37846000D02*
G75*
G03X64369000Y-37846000I-1250000J0D01*
G01*
X63119000Y-37846000D02*
X63119000Y-35306000D01*
X68306000Y-32385000D02*
G75*
G03X68306000Y-32385000I-1250000J0D01*
G01*
X67056000Y-32385000D02*
X64516000Y-32385000D01*
X68306000Y-25146000D02*
G75*
G03X68306000Y-25146000I-1250000J0D01*
G01*
X67056000Y-25146000D02*
X67056000Y-22606000D01*
X64623000Y-23114000D02*
G75*
G03X64623000Y-23114000I-1250000J0D01*
G01*
X63373000Y-23114000D02*
X63373000Y-25654000D01*
X67163000Y-19812000D02*
G75*
G03X67163000Y-19812000I-1250000J0D01*
G01*
X65913000Y-19812000D02*
X68453000Y-19812000D01*
X61194000Y-19812000D02*
G75*
G03X61194000Y-19812000I-1250000J0D01*
G01*
X59944000Y-19812000D02*
X62484000Y-19812000D01*
X57384000Y-25146000D02*
G75*
G03X57384000Y-25146000I-1250000J0D01*
G01*
X56134000Y-25146000D02*
X56134000Y-22606000D01*
X61194000Y-23114000D02*
G75*
G03X61194000Y-23114000I-1250000J0D01*
G01*
X59944000Y-23114000D02*
X59944000Y-25654000D01*
X71993000Y-21463000D02*
X77343000Y-21463000D01*
X77343000Y-21463000D02*
X77343000Y-39243000D01*
X77343000Y-39243000D02*
X70993000Y-39243000D01*
X70993000Y-39243000D02*
X70993000Y-22463000D01*
X70993000Y-22463000D02*
X71993000Y-21463000D01*
X55269000Y-32111000D02*
X58269000Y-32111000D01*
X58269000Y-29111000D02*
X55269000Y-29111000D01*
X58919000Y-33161000D02*
X54619000Y-33161000D01*
X54619000Y-33161000D02*
X54619000Y-28511000D01*
X54619000Y-28511000D02*
X58269000Y-28511000D01*
X58269000Y-28511000D02*
X58919000Y-29161000D01*
X58919000Y-29161000D02*
X58919000Y-33161000D01*
X55269000Y-29111000D02*
X55269000Y-32111000D01*
X58269000Y-32111000D02*
X58269000Y-29111000D01*
X57149000Y-31111000D02*
X57149000Y-31371000D01*
X57149000Y-31111000D02*
X57409000Y-31111000D01*
X57149000Y-30611000D02*
X57149000Y-30861000D01*
X57149000Y-30611000D02*
X57409000Y-30611000D01*
X57909000Y-31371000D02*
X57149000Y-30611000D01*
X57909000Y-31881000D02*
X57149000Y-31111000D01*
X56129000Y-30351000D02*
X56769000Y-30991000D01*
X56769000Y-30991000D02*
X55499000Y-30991000D01*
X55499000Y-30991000D02*
X56129000Y-30351000D01*
X56769000Y-30351000D02*
X55499000Y-30351000D01*
X56129000Y-29341000D02*
X56129000Y-31881000D01*
X82453000Y-31862000D02*
X79853000Y-31862000D01*
X79853000Y-31862000D02*
X79853000Y-35662000D01*
X79853000Y-35662000D02*
X82453000Y-35662000D01*
X82453000Y-35662000D02*
X82453000Y-31862000D01*
X74325000Y-16114000D02*
X71725000Y-16114000D01*
X71725000Y-16114000D02*
X71725000Y-19914000D01*
X71725000Y-19914000D02*
X74325000Y-19914000D01*
X74325000Y-19914000D02*
X74325000Y-16114000D01*
X65136000Y-15210000D02*
X65136000Y-17810000D01*
X65136000Y-17810000D02*
X68936000Y-17810000D01*
X68936000Y-17810000D02*
X68936000Y-15210000D01*
X68936000Y-15210000D02*
X65136000Y-15210000D01*
X82453000Y-36434000D02*
X79853000Y-36434000D01*
X79853000Y-36434000D02*
X79853000Y-40234000D01*
X79853000Y-40234000D02*
X82453000Y-40234000D01*
X82453000Y-40234000D02*
X82453000Y-36434000D01*
X42194000Y-36434000D02*
X39594000Y-36434000D01*
X39594000Y-36434000D02*
X39594000Y-40234000D01*
X39594000Y-40234000D02*
X42194000Y-40234000D01*
X42194000Y-40234000D02*
X42194000Y-36434000D01*
X24877000Y-15210000D02*
X24877000Y-17810000D01*
X24877000Y-17810000D02*
X28677000Y-17810000D01*
X28677000Y-17810000D02*
X28677000Y-15210000D01*
X28677000Y-15210000D02*
X24877000Y-15210000D01*
X34066000Y-16114000D02*
X31466000Y-16114000D01*
X31466000Y-16114000D02*
X31466000Y-19914000D01*
X31466000Y-19914000D02*
X34066000Y-19914000D01*
X34066000Y-19914000D02*
X34066000Y-16114000D01*
X42194000Y-31862000D02*
X39594000Y-31862000D01*
X39594000Y-31862000D02*
X39594000Y-35662000D01*
X39594000Y-35662000D02*
X42194000Y-35662000D01*
X42194000Y-35662000D02*
X42194000Y-31862000D01*
X15010000Y-32111000D02*
X18010000Y-32111000D01*
X18010000Y-29111000D02*
X15010000Y-29111000D01*
X18660000Y-33161000D02*
X14360000Y-33161000D01*
X14360000Y-33161000D02*
X14360000Y-28511000D01*
X14360000Y-28511000D02*
X18010000Y-28511000D01*
X18010000Y-28511000D02*
X18660000Y-29161000D01*
X18660000Y-29161000D02*
X18660000Y-33161000D01*
X15010000Y-29111000D02*
X15010000Y-32111000D01*
X18010000Y-32111000D02*
X18010000Y-29111000D01*
X16890000Y-31111000D02*
X16890000Y-31371000D01*
X16890000Y-31111000D02*
X17150000Y-31111000D01*
X16890000Y-30611000D02*
X16890000Y-30861000D01*
X16890000Y-30611000D02*
X17150000Y-30611000D01*
X17650000Y-31371000D02*
X16890000Y-30611000D01*
X17650000Y-31881000D02*
X16890000Y-31111000D01*
X15870000Y-30351000D02*
X16510000Y-30991000D01*
X16510000Y-30991000D02*
X15240000Y-30991000D01*
X15240000Y-30991000D02*
X15870000Y-30351000D01*
X16510000Y-30351000D02*
X15240000Y-30351000D01*
X15870000Y-29341000D02*
X15870000Y-31881000D01*
X31734000Y-21463000D02*
X37084000Y-21463000D01*
X37084000Y-21463000D02*
X37084000Y-39243000D01*
X37084000Y-39243000D02*
X30734000Y-39243000D01*
X30734000Y-39243000D02*
X30734000Y-22463000D01*
X30734000Y-22463000D02*
X31734000Y-21463000D01*
X20935000Y-23114000D02*
G75*
G03X20935000Y-23114000I-1250000J0D01*
G01*
X19685000Y-23114000D02*
X19685000Y-25654000D01*
X17125000Y-25146000D02*
G75*
G03X17125000Y-25146000I-1250000J0D01*
G01*
X15875000Y-25146000D02*
X15875000Y-22606000D01*
X20935000Y-19812000D02*
G75*
G03X20935000Y-19812000I-1250000J0D01*
G01*
X19685000Y-19812000D02*
X22225000Y-19812000D01*
X26904000Y-19812000D02*
G75*
G03X26904000Y-19812000I-1250000J0D01*
G01*
X25654000Y-19812000D02*
X28194000Y-19812000D01*
X24364000Y-23114000D02*
G75*
G03X24364000Y-23114000I-1250000J0D01*
G01*
X23114000Y-23114000D02*
X23114000Y-25654000D01*
X28047000Y-25146000D02*
G75*
G03X28047000Y-25146000I-1250000J0D01*
G01*
X26797000Y-25146000D02*
X26797000Y-22606000D01*
X28047000Y-32385000D02*
G75*
G03X28047000Y-32385000I-1250000J0D01*
G01*
X26797000Y-32385000D02*
X24257000Y-32385000D01*
X24110000Y-37846000D02*
G75*
G03X24110000Y-37846000I-1250000J0D01*
G01*
X22860000Y-37846000D02*
X22860000Y-35306000D01*
X28047000Y-37719000D02*
G75*
G03X28047000Y-37719000I-1250000J0D01*
G01*
X26797000Y-37719000D02*
X26797000Y-35179000D01*
X48748000Y-38608000D02*
G75*
G03X48748000Y-38608000I-1250000J0D01*
G01*
X47498000Y-38608000D02*
X47498000Y-36068000D01*
X45446000Y-33274000D02*
G75*
G03X45446000Y-33274000I-1250000J0D01*
G01*
X44196000Y-33274000D02*
X44196000Y-30734000D01*
X42144000Y-29845000D02*
G75*
G03X42144000Y-29845000I-1250000J0D01*
G01*
X40894000Y-29845000D02*
X40894000Y-27305000D01*
X48748000Y-33274000D02*
G75*
G03X48748000Y-33274000I-1250000J0D01*
G01*
X47498000Y-33274000D02*
X47498000Y-30734000D01*
X45446000Y-38608000D02*
G75*
G03X45446000Y-38608000I-1250000J0D01*
G01*
X44196000Y-38608000D02*
X44196000Y-36068000D01*
X45827000Y-27940000D02*
G75*
G03X45827000Y-27940000I-1250000J0D01*
G01*
X44577000Y-27940000D02*
X47117000Y-27940000D01*
X37826000Y-19304000D02*
G75*
G03X37826000Y-19304000I-1250000J0D01*
G01*
X36576000Y-19304000D02*
X39116000Y-19304000D01*
X43160000Y-20193000D02*
G75*
G03X43160000Y-20193000I-1250000J0D01*
G01*
X41910000Y-20193000D02*
X44450000Y-20193000D01*
X44176000Y-24384000D02*
G75*
G03X44176000Y-24384000I-1250000J0D01*
G01*
X42926000Y-24384000D02*
X40386000Y-24384000D01*
X23007000Y-27706000D02*
X23007000Y-30206000D01*
X23007000Y-30206000D02*
X28007000Y-30206000D01*
X28007000Y-30206000D02*
X28007000Y-27706000D01*
X28007000Y-27706000D02*
X23007000Y-27706000D01*
X14625000Y-20935000D02*
X17125000Y-20935000D01*
X17125000Y-20935000D02*
X17125000Y-15935000D01*
X17125000Y-15935000D02*
X14625000Y-15935000D01*
X14625000Y-15935000D02*
X14625000Y-20935000D01*
X22128000Y-28179000D02*
X19528000Y-28179000D01*
X19528000Y-28179000D02*
X19528000Y-31979000D01*
X19528000Y-31979000D02*
X22128000Y-31979000D01*
X22128000Y-31979000D02*
X22128000Y-28179000D01*
M02*
