G04 #@! TF.FileFunction,Other,Comment*
%FSLAX46Y46*%
G04 Gerber Fmt 4.6, Leading zero omitted, Abs format (unit mm)*
G04 Created by KiCad (PCBNEW 4.0.6-e0-6349~53~ubuntu16.04.1) date Thu Mar 16 16:11:01 2017*
%MOMM*%
%LPD*%
G01*
G04 APERTURE LIST*
%ADD10C,0.100000*%
%ADD11C,0.300000*%
%ADD12C,0.150000*%
G04 APERTURE END LIST*
D10*
D11*
X2078572Y-52071430D02*
X2150001Y-51928572D01*
X2221430Y-51857144D01*
X2364287Y-51785715D01*
X2435715Y-51785715D01*
X2578572Y-51857144D01*
X2650001Y-51928572D01*
X2721430Y-52071430D01*
X2721430Y-52357144D01*
X2650001Y-52500001D01*
X2578572Y-52571430D01*
X2435715Y-52642858D01*
X2364287Y-52642858D01*
X2221430Y-52571430D01*
X2150001Y-52500001D01*
X2078572Y-52357144D01*
X2078572Y-52071430D01*
X2007144Y-51928572D01*
X1935715Y-51857144D01*
X1792858Y-51785715D01*
X1507144Y-51785715D01*
X1364287Y-51857144D01*
X1292858Y-51928572D01*
X1221430Y-52071430D01*
X1221430Y-52357144D01*
X1292858Y-52500001D01*
X1364287Y-52571430D01*
X1507144Y-52642858D01*
X1792858Y-52642858D01*
X1935715Y-52571430D01*
X2007144Y-52500001D01*
X2078572Y-52357144D01*
X2721430Y-53928572D02*
X2721430Y-53642858D01*
X2650001Y-53500001D01*
X2578572Y-53428572D01*
X2364287Y-53285715D01*
X2078572Y-53214286D01*
X1507144Y-53214286D01*
X1364287Y-53285715D01*
X1292858Y-53357143D01*
X1221430Y-53500001D01*
X1221430Y-53785715D01*
X1292858Y-53928572D01*
X1364287Y-54000001D01*
X1507144Y-54071429D01*
X1864287Y-54071429D01*
X2007144Y-54000001D01*
X2078572Y-53928572D01*
X2150001Y-53785715D01*
X2150001Y-53500001D01*
X2078572Y-53357143D01*
X2007144Y-53285715D01*
X1864287Y-53214286D01*
X1292858Y-54785714D02*
X1221430Y-54785714D01*
X1078572Y-54714286D01*
X1007144Y-54642857D01*
X2721430Y-55714286D02*
X2721430Y-55857143D01*
X2650001Y-56000000D01*
X2578572Y-56071429D01*
X2435715Y-56142858D01*
X2150001Y-56214286D01*
X1792858Y-56214286D01*
X1507144Y-56142858D01*
X1364287Y-56071429D01*
X1292858Y-56000000D01*
X1221430Y-55857143D01*
X1221430Y-55714286D01*
X1292858Y-55571429D01*
X1364287Y-55500000D01*
X1507144Y-55428572D01*
X1792858Y-55357143D01*
X2150001Y-55357143D01*
X2435715Y-55428572D01*
X2578572Y-55500000D01*
X2650001Y-55571429D01*
X2721430Y-55714286D01*
X2721430Y-57142857D02*
X2721430Y-57285714D01*
X2650001Y-57428571D01*
X2578572Y-57500000D01*
X2435715Y-57571429D01*
X2150001Y-57642857D01*
X1792858Y-57642857D01*
X1507144Y-57571429D01*
X1364287Y-57500000D01*
X1292858Y-57428571D01*
X1221430Y-57285714D01*
X1221430Y-57142857D01*
X1292858Y-57000000D01*
X1364287Y-56928571D01*
X1507144Y-56857143D01*
X1792858Y-56785714D01*
X2150001Y-56785714D01*
X2435715Y-56857143D01*
X2578572Y-56928571D01*
X2650001Y-57000000D01*
X2721430Y-57142857D01*
X2721430Y-58571428D02*
X2721430Y-58714285D01*
X2650001Y-58857142D01*
X2578572Y-58928571D01*
X2435715Y-59000000D01*
X2150001Y-59071428D01*
X1792858Y-59071428D01*
X1507144Y-59000000D01*
X1364287Y-58928571D01*
X1292858Y-58857142D01*
X1221430Y-58714285D01*
X1221430Y-58571428D01*
X1292858Y-58428571D01*
X1364287Y-58357142D01*
X1507144Y-58285714D01*
X1792858Y-58214285D01*
X2150001Y-58214285D01*
X2435715Y-58285714D01*
X2578572Y-58357142D01*
X2650001Y-58428571D01*
X2721430Y-58571428D01*
X1221430Y-60857142D02*
X2221430Y-60857142D01*
X2078572Y-60857142D02*
X2150001Y-60928570D01*
X2221430Y-61071428D01*
X2221430Y-61285713D01*
X2150001Y-61428570D01*
X2007144Y-61499999D01*
X1221430Y-61499999D01*
X2007144Y-61499999D02*
X2150001Y-61571428D01*
X2221430Y-61714285D01*
X2221430Y-61928570D01*
X2150001Y-62071428D01*
X2007144Y-62142856D01*
X1221430Y-62142856D01*
X1221430Y-62857142D02*
X2221430Y-62857142D01*
X2078572Y-62857142D02*
X2150001Y-62928570D01*
X2221430Y-63071428D01*
X2221430Y-63285713D01*
X2150001Y-63428570D01*
X2007144Y-63499999D01*
X1221430Y-63499999D01*
X2007144Y-63499999D02*
X2150001Y-63571428D01*
X2221430Y-63714285D01*
X2221430Y-63928570D01*
X2150001Y-64071428D01*
X2007144Y-64142856D01*
X1221430Y-64142856D01*
X3250001Y-15000000D02*
X3250001Y-101000000D01*
X15000000Y-15000000D02*
X550001Y-15000000D01*
X15000000Y-101000000D02*
X550001Y-101000000D01*
X3250001Y-101000000D02*
X2663580Y-99873496D01*
X3250001Y-101000000D02*
X3836422Y-99873496D01*
X3250001Y-15000000D02*
X2663580Y-16126504D01*
X3250001Y-15000000D02*
X3836422Y-16126504D01*
X85178573Y-3078571D02*
X84321430Y-3078571D01*
X84750002Y-3078571D02*
X84750002Y-1578571D01*
X84607145Y-1792857D01*
X84464287Y-1935714D01*
X84321430Y-2007143D01*
X86535716Y-1578571D02*
X85821430Y-1578571D01*
X85750001Y-2292857D01*
X85821430Y-2221429D01*
X85964287Y-2150000D01*
X86321430Y-2150000D01*
X86464287Y-2221429D01*
X86535716Y-2292857D01*
X86607144Y-2435714D01*
X86607144Y-2792857D01*
X86535716Y-2935714D01*
X86464287Y-3007143D01*
X86321430Y-3078571D01*
X85964287Y-3078571D01*
X85821430Y-3007143D01*
X85750001Y-2935714D01*
X87178572Y-1721429D02*
X87250001Y-1650000D01*
X87392858Y-1578571D01*
X87750001Y-1578571D01*
X87892858Y-1650000D01*
X87964287Y-1721429D01*
X88035715Y-1864286D01*
X88035715Y-2007143D01*
X87964287Y-2221429D01*
X87107144Y-3078571D01*
X88035715Y-3078571D01*
X88750000Y-3007143D02*
X88750000Y-3078571D01*
X88678572Y-3221429D01*
X88607143Y-3292857D01*
X90107144Y-1578571D02*
X89392858Y-1578571D01*
X89321429Y-2292857D01*
X89392858Y-2221429D01*
X89535715Y-2150000D01*
X89892858Y-2150000D01*
X90035715Y-2221429D01*
X90107144Y-2292857D01*
X90178572Y-2435714D01*
X90178572Y-2792857D01*
X90107144Y-2935714D01*
X90035715Y-3007143D01*
X89892858Y-3078571D01*
X89535715Y-3078571D01*
X89392858Y-3007143D01*
X89321429Y-2935714D01*
X91107143Y-1578571D02*
X91250000Y-1578571D01*
X91392857Y-1650000D01*
X91464286Y-1721429D01*
X91535715Y-1864286D01*
X91607143Y-2150000D01*
X91607143Y-2507143D01*
X91535715Y-2792857D01*
X91464286Y-2935714D01*
X91392857Y-3007143D01*
X91250000Y-3078571D01*
X91107143Y-3078571D01*
X90964286Y-3007143D01*
X90892857Y-2935714D01*
X90821429Y-2792857D01*
X90750000Y-2507143D01*
X90750000Y-2150000D01*
X90821429Y-1864286D01*
X90892857Y-1721429D01*
X90964286Y-1650000D01*
X91107143Y-1578571D01*
X92535714Y-1578571D02*
X92678571Y-1578571D01*
X92821428Y-1650000D01*
X92892857Y-1721429D01*
X92964286Y-1864286D01*
X93035714Y-2150000D01*
X93035714Y-2507143D01*
X92964286Y-2792857D01*
X92892857Y-2935714D01*
X92821428Y-3007143D01*
X92678571Y-3078571D01*
X92535714Y-3078571D01*
X92392857Y-3007143D01*
X92321428Y-2935714D01*
X92250000Y-2792857D01*
X92178571Y-2507143D01*
X92178571Y-2150000D01*
X92250000Y-1864286D01*
X92321428Y-1721429D01*
X92392857Y-1650000D01*
X92535714Y-1578571D01*
X94821428Y-3078571D02*
X94821428Y-2078571D01*
X94821428Y-2221429D02*
X94892856Y-2150000D01*
X95035714Y-2078571D01*
X95249999Y-2078571D01*
X95392856Y-2150000D01*
X95464285Y-2292857D01*
X95464285Y-3078571D01*
X95464285Y-2292857D02*
X95535714Y-2150000D01*
X95678571Y-2078571D01*
X95892856Y-2078571D01*
X96035714Y-2150000D01*
X96107142Y-2292857D01*
X96107142Y-3078571D01*
X96821428Y-3078571D02*
X96821428Y-2078571D01*
X96821428Y-2221429D02*
X96892856Y-2150000D01*
X97035714Y-2078571D01*
X97249999Y-2078571D01*
X97392856Y-2150000D01*
X97464285Y-2292857D01*
X97464285Y-3078571D01*
X97464285Y-2292857D02*
X97535714Y-2150000D01*
X97678571Y-2078571D01*
X97892856Y-2078571D01*
X98035714Y-2150000D01*
X98107142Y-2292857D01*
X98107142Y-3078571D01*
X15000000Y-3750000D02*
X167500000Y-3750000D01*
X15000000Y-15000000D02*
X15000000Y-1050000D01*
X167500000Y-15000000D02*
X167500000Y-1050000D01*
X167500000Y-3750000D02*
X166373496Y-4336421D01*
X167500000Y-3750000D02*
X166373496Y-3163579D01*
X15000000Y-3750000D02*
X16126504Y-4336421D01*
X15000000Y-3750000D02*
X16126504Y-3163579D01*
D12*
X167500800Y-101002920D02*
X131250800Y-101002920D01*
X167500800Y-71502920D02*
X131250800Y-71502920D01*
X167500800Y-42002920D02*
X131250800Y-42002920D01*
X128750800Y-101002920D02*
X92500800Y-101002920D01*
X128750800Y-71502920D02*
X92500800Y-71502920D01*
X128750800Y-42002920D02*
X92500800Y-42002920D01*
X90000800Y-101002920D02*
X53750800Y-101002920D01*
X90000800Y-71502920D02*
X53750800Y-71502920D01*
X90000800Y-42002920D02*
X53750800Y-42002920D01*
X51250800Y-101002920D02*
X15000800Y-101002920D01*
X51250800Y-71502920D02*
X15000800Y-71502920D01*
X167500800Y-74002920D02*
X167500800Y-101002920D01*
X167500800Y-44502920D02*
X167500800Y-71502920D01*
X167500800Y-15002920D02*
X167500800Y-42002920D01*
X128750800Y-74002920D02*
X128750800Y-101002920D01*
X128750800Y-44502920D02*
X128750800Y-71502920D01*
X128750800Y-15002920D02*
X128750800Y-42002920D01*
X90000800Y-74002920D02*
X90000800Y-101002920D01*
X90000800Y-44502920D02*
X90000800Y-71502920D01*
X90000800Y-15002920D02*
X90000800Y-42002920D01*
X51250800Y-74002920D02*
X51250800Y-101002920D01*
X51250800Y-44502920D02*
X51250800Y-71502920D01*
X131250800Y-101002920D02*
X131250800Y-74002920D01*
X131250800Y-71502920D02*
X131250800Y-44502920D01*
X131250800Y-42002920D02*
X131250800Y-15002920D01*
X92500800Y-101002920D02*
X92500800Y-74002920D01*
X92500800Y-71502920D02*
X92500800Y-44502920D01*
X92500800Y-42002920D02*
X92500800Y-15002920D01*
X53750800Y-101002920D02*
X53750800Y-74002920D01*
X53750800Y-71502920D02*
X53750800Y-44502920D01*
X53750800Y-42002920D02*
X53750800Y-15002920D01*
X15000800Y-101002920D02*
X15000800Y-74002920D01*
X15000800Y-71502920D02*
X15000800Y-44502920D01*
X167500800Y-74002920D02*
X131250800Y-74002920D01*
X167500800Y-44502920D02*
X131250800Y-44502920D01*
X167500800Y-15002920D02*
X131250800Y-15002920D01*
X128750800Y-74002920D02*
X92500800Y-74002920D01*
X128750800Y-44502920D02*
X92500800Y-44502920D01*
X128750800Y-15002920D02*
X92500800Y-15002920D01*
X90000800Y-74002920D02*
X53750800Y-74002920D01*
X90000800Y-44502920D02*
X53750800Y-44502920D01*
X90000800Y-15002920D02*
X53750800Y-15002920D01*
X51250800Y-74002920D02*
X15000800Y-74002920D01*
X51250800Y-44502920D02*
X15000800Y-44502920D01*
D11*
X7828571Y-22285715D02*
X7900000Y-22357144D01*
X7971429Y-22500001D01*
X7971429Y-22857144D01*
X7900000Y-23000001D01*
X7828571Y-23071430D01*
X7685714Y-23142858D01*
X7542857Y-23142858D01*
X7328571Y-23071430D01*
X6471429Y-22214287D01*
X6471429Y-23142858D01*
X7971429Y-23642858D02*
X7971429Y-24642858D01*
X6471429Y-24000001D01*
X6542857Y-25285714D02*
X6471429Y-25285714D01*
X6328571Y-25214286D01*
X6257143Y-25142857D01*
X7971429Y-26214286D02*
X7971429Y-26357143D01*
X7900000Y-26500000D01*
X7828571Y-26571429D01*
X7685714Y-26642858D01*
X7400000Y-26714286D01*
X7042857Y-26714286D01*
X6757143Y-26642858D01*
X6614286Y-26571429D01*
X6542857Y-26500000D01*
X6471429Y-26357143D01*
X6471429Y-26214286D01*
X6542857Y-26071429D01*
X6614286Y-26000000D01*
X6757143Y-25928572D01*
X7042857Y-25857143D01*
X7400000Y-25857143D01*
X7685714Y-25928572D01*
X7828571Y-26000000D01*
X7900000Y-26071429D01*
X7971429Y-26214286D01*
X7971429Y-27642857D02*
X7971429Y-27785714D01*
X7900000Y-27928571D01*
X7828571Y-28000000D01*
X7685714Y-28071429D01*
X7400000Y-28142857D01*
X7042857Y-28142857D01*
X6757143Y-28071429D01*
X6614286Y-28000000D01*
X6542857Y-27928571D01*
X6471429Y-27785714D01*
X6471429Y-27642857D01*
X6542857Y-27500000D01*
X6614286Y-27428571D01*
X6757143Y-27357143D01*
X7042857Y-27285714D01*
X7400000Y-27285714D01*
X7685714Y-27357143D01*
X7828571Y-27428571D01*
X7900000Y-27500000D01*
X7971429Y-27642857D01*
X7971429Y-29071428D02*
X7971429Y-29214285D01*
X7900000Y-29357142D01*
X7828571Y-29428571D01*
X7685714Y-29500000D01*
X7400000Y-29571428D01*
X7042857Y-29571428D01*
X6757143Y-29500000D01*
X6614286Y-29428571D01*
X6542857Y-29357142D01*
X6471429Y-29214285D01*
X6471429Y-29071428D01*
X6542857Y-28928571D01*
X6614286Y-28857142D01*
X6757143Y-28785714D01*
X7042857Y-28714285D01*
X7400000Y-28714285D01*
X7685714Y-28785714D01*
X7828571Y-28857142D01*
X7900000Y-28928571D01*
X7971429Y-29071428D01*
X6471429Y-31357142D02*
X7471429Y-31357142D01*
X7328571Y-31357142D02*
X7400000Y-31428570D01*
X7471429Y-31571428D01*
X7471429Y-31785713D01*
X7400000Y-31928570D01*
X7257143Y-31999999D01*
X6471429Y-31999999D01*
X7257143Y-31999999D02*
X7400000Y-32071428D01*
X7471429Y-32214285D01*
X7471429Y-32428570D01*
X7400000Y-32571428D01*
X7257143Y-32642856D01*
X6471429Y-32642856D01*
X6471429Y-33357142D02*
X7471429Y-33357142D01*
X7328571Y-33357142D02*
X7400000Y-33428570D01*
X7471429Y-33571428D01*
X7471429Y-33785713D01*
X7400000Y-33928570D01*
X7257143Y-33999999D01*
X6471429Y-33999999D01*
X7257143Y-33999999D02*
X7400000Y-34071428D01*
X7471429Y-34214285D01*
X7471429Y-34428570D01*
X7400000Y-34571428D01*
X7257143Y-34642856D01*
X6471429Y-34642856D01*
X8500000Y-15000000D02*
X8500000Y-42000000D01*
X15000000Y-15000000D02*
X5800000Y-15000000D01*
X15000000Y-42000000D02*
X5800000Y-42000000D01*
X8500000Y-42000000D02*
X7913579Y-40873496D01*
X8500000Y-42000000D02*
X9086421Y-40873496D01*
X8500000Y-15000000D02*
X7913579Y-16126504D01*
X8500000Y-15000000D02*
X9086421Y-16126504D01*
X26839287Y-6078571D02*
X27767858Y-6078571D01*
X27267858Y-6650000D01*
X27482144Y-6650000D01*
X27625001Y-6721429D01*
X27696430Y-6792857D01*
X27767858Y-6935714D01*
X27767858Y-7292857D01*
X27696430Y-7435714D01*
X27625001Y-7507143D01*
X27482144Y-7578571D01*
X27053572Y-7578571D01*
X26910715Y-7507143D01*
X26839287Y-7435714D01*
X29053572Y-6078571D02*
X28767858Y-6078571D01*
X28625001Y-6150000D01*
X28553572Y-6221429D01*
X28410715Y-6435714D01*
X28339286Y-6721429D01*
X28339286Y-7292857D01*
X28410715Y-7435714D01*
X28482143Y-7507143D01*
X28625001Y-7578571D01*
X28910715Y-7578571D01*
X29053572Y-7507143D01*
X29125001Y-7435714D01*
X29196429Y-7292857D01*
X29196429Y-6935714D01*
X29125001Y-6792857D01*
X29053572Y-6721429D01*
X28910715Y-6650000D01*
X28625001Y-6650000D01*
X28482143Y-6721429D01*
X28410715Y-6792857D01*
X28339286Y-6935714D01*
X29910714Y-7507143D02*
X29910714Y-7578571D01*
X29839286Y-7721429D01*
X29767857Y-7792857D01*
X30482143Y-6221429D02*
X30553572Y-6150000D01*
X30696429Y-6078571D01*
X31053572Y-6078571D01*
X31196429Y-6150000D01*
X31267858Y-6221429D01*
X31339286Y-6364286D01*
X31339286Y-6507143D01*
X31267858Y-6721429D01*
X30410715Y-7578571D01*
X31339286Y-7578571D01*
X32696429Y-6078571D02*
X31982143Y-6078571D01*
X31910714Y-6792857D01*
X31982143Y-6721429D01*
X32125000Y-6650000D01*
X32482143Y-6650000D01*
X32625000Y-6721429D01*
X32696429Y-6792857D01*
X32767857Y-6935714D01*
X32767857Y-7292857D01*
X32696429Y-7435714D01*
X32625000Y-7507143D01*
X32482143Y-7578571D01*
X32125000Y-7578571D01*
X31982143Y-7507143D01*
X31910714Y-7435714D01*
X33696428Y-6078571D02*
X33839285Y-6078571D01*
X33982142Y-6150000D01*
X34053571Y-6221429D01*
X34125000Y-6364286D01*
X34196428Y-6650000D01*
X34196428Y-7007143D01*
X34125000Y-7292857D01*
X34053571Y-7435714D01*
X33982142Y-7507143D01*
X33839285Y-7578571D01*
X33696428Y-7578571D01*
X33553571Y-7507143D01*
X33482142Y-7435714D01*
X33410714Y-7292857D01*
X33339285Y-7007143D01*
X33339285Y-6650000D01*
X33410714Y-6364286D01*
X33482142Y-6221429D01*
X33553571Y-6150000D01*
X33696428Y-6078571D01*
X35982142Y-7578571D02*
X35982142Y-6578571D01*
X35982142Y-6721429D02*
X36053570Y-6650000D01*
X36196428Y-6578571D01*
X36410713Y-6578571D01*
X36553570Y-6650000D01*
X36624999Y-6792857D01*
X36624999Y-7578571D01*
X36624999Y-6792857D02*
X36696428Y-6650000D01*
X36839285Y-6578571D01*
X37053570Y-6578571D01*
X37196428Y-6650000D01*
X37267856Y-6792857D01*
X37267856Y-7578571D01*
X37982142Y-7578571D02*
X37982142Y-6578571D01*
X37982142Y-6721429D02*
X38053570Y-6650000D01*
X38196428Y-6578571D01*
X38410713Y-6578571D01*
X38553570Y-6650000D01*
X38624999Y-6792857D01*
X38624999Y-7578571D01*
X38624999Y-6792857D02*
X38696428Y-6650000D01*
X38839285Y-6578571D01*
X39053570Y-6578571D01*
X39196428Y-6650000D01*
X39267856Y-6792857D01*
X39267856Y-7578571D01*
X15000000Y-8250000D02*
X51250000Y-8250000D01*
X15000000Y-15000000D02*
X15000000Y-5550000D01*
X51250000Y-15000000D02*
X51250000Y-5550000D01*
X51250000Y-8250000D02*
X50123496Y-8836421D01*
X51250000Y-8250000D02*
X50123496Y-7663579D01*
X15000000Y-8250000D02*
X16126504Y-8836421D01*
X15000000Y-8250000D02*
X16126504Y-7663579D01*
D12*
X51250800Y-15002920D02*
X15000800Y-15002920D01*
X51250800Y-42002920D02*
X15000800Y-42002920D01*
X51250800Y-15002920D02*
X51250800Y-42002920D01*
X15000800Y-42002920D02*
X15000800Y-15002920D01*
M02*
