M48
;DRILL file {KiCad 4.0.6-e0-6349~53~ubuntu16.04.1} date Thu Mar 16 16:11:13 2017
;FORMAT={-:-/ absolute / metric / decimal}
FMAT,2
METRIC,TZ
T1C0.700
T2C0.800
T3C0.800
%
G90
G05
M71
T1
X18.049Y-29.227
X18.049Y-34.307
X18.049Y-58.727
X18.049Y-63.807
X18.049Y-88.227
X18.049Y-93.307
X56.799Y-29.227
X56.799Y-34.307
X56.799Y-58.727
X56.799Y-63.807
X56.799Y-88.227
X56.799Y-93.307
X95.549Y-29.227
X95.549Y-34.307
X95.549Y-58.727
X95.549Y-63.807
X95.549Y-88.227
X95.549Y-93.307
X134.299Y-29.227
X134.299Y-34.307
X134.299Y-58.727
X134.299Y-63.807
X134.299Y-88.227
X134.299Y-93.307
T2
X18.049Y-18.599
X18.049Y-21.099
X18.049Y-23.893
X18.049Y-26.433
X18.049Y-48.099
X18.049Y-50.599
X18.049Y-53.393
X18.049Y-55.933
X18.049Y-77.599
X18.049Y-80.099
X18.049Y-82.893
X18.049Y-85.433
X21.351Y-18.559
X21.351Y-21.099
X21.351Y-23.893
X21.351Y-26.433
X21.351Y-36.466
X21.351Y-39.006
X21.351Y-48.059
X21.351Y-50.599
X21.351Y-53.393
X21.351Y-55.933
X21.351Y-65.966
X21.351Y-68.506
X21.351Y-77.559
X21.351Y-80.099
X21.351Y-82.893
X21.351Y-85.433
X21.351Y-95.466
X21.351Y-98.006
X22.113Y-29.1
X22.113Y-31.6
X22.113Y-58.6
X22.113Y-61.1
X22.113Y-88.1
X22.113Y-90.6
X24.653Y-18.051
X24.653Y-20.591
X24.653Y-23.893
X24.653Y-26.433
X24.653Y-36.506
X24.653Y-39.006
X24.653Y-47.551
X24.653Y-50.091
X24.653Y-53.393
X24.653Y-55.933
X24.653Y-66.006
X24.653Y-68.506
X24.653Y-77.051
X24.653Y-79.591
X24.653Y-82.893
X24.653Y-85.433
X24.653Y-95.506
X24.653Y-98.006
X25.161Y-32.91
X25.161Y-62.41
X25.161Y-91.91
X25.415Y-29.608
X25.415Y-59.108
X25.415Y-88.608
X27.701Y-32.91
X27.701Y-62.41
X27.701Y-91.91
X27.828Y-23.893
X27.828Y-26.433
X27.828Y-53.393
X27.828Y-55.933
X27.828Y-82.893
X27.828Y-85.433
X27.915Y-29.608
X27.915Y-59.108
X27.915Y-88.608
X27.955Y-18.051
X27.955Y-20.591
X27.955Y-36.466
X27.955Y-39.006
X27.955Y-47.551
X27.955Y-50.091
X27.955Y-65.966
X27.955Y-68.506
X27.955Y-77.051
X27.955Y-79.591
X27.955Y-95.466
X27.955Y-98.006
X30.749Y-23.766
X30.749Y-26.306
X30.749Y-28.846
X30.749Y-31.386
X30.749Y-33.926
X30.749Y-36.466
X30.749Y-39.006
X30.749Y-53.266
X30.749Y-55.806
X30.749Y-58.346
X30.749Y-60.886
X30.749Y-63.426
X30.749Y-65.966
X30.749Y-68.506
X30.749Y-82.766
X30.749Y-85.306
X30.749Y-87.846
X30.749Y-90.386
X30.749Y-92.926
X30.749Y-95.466
X30.749Y-98.006
X31.257Y-18.051
X31.257Y-20.551
X31.257Y-47.551
X31.257Y-50.051
X31.257Y-77.051
X31.257Y-79.551
X34.559Y-18.432
X34.559Y-20.972
X34.559Y-47.932
X34.559Y-50.472
X34.559Y-77.432
X34.559Y-79.972
X37.734Y-18.432
X37.734Y-20.972
X37.734Y-47.932
X37.734Y-50.472
X37.734Y-77.432
X37.734Y-79.972
X38.369Y-23.766
X38.369Y-26.306
X38.369Y-28.846
X38.369Y-31.386
X38.369Y-33.926
X38.369Y-36.466
X38.369Y-39.006
X38.369Y-53.266
X38.369Y-55.806
X38.369Y-58.346
X38.369Y-60.886
X38.369Y-63.426
X38.369Y-65.966
X38.369Y-68.506
X38.369Y-82.766
X38.369Y-85.306
X38.369Y-87.846
X38.369Y-90.386
X38.369Y-92.926
X38.369Y-95.466
X38.369Y-98.006
X40.401Y-20.464
X40.401Y-49.964
X40.401Y-79.464
X41.036Y-23.766
X41.036Y-26.941
X41.036Y-29.481
X41.036Y-31.64
X41.036Y-34.18
X41.036Y-36.847
X41.036Y-39.387
X41.036Y-53.266
X41.036Y-56.441
X41.036Y-58.981
X41.036Y-61.14
X41.036Y-63.68
X41.036Y-66.347
X41.036Y-68.887
X41.036Y-82.766
X41.036Y-85.941
X41.036Y-88.481
X41.036Y-90.64
X41.036Y-93.18
X41.036Y-95.847
X41.036Y-98.387
X42.901Y-20.464
X42.901Y-49.964
X42.901Y-79.464
X43.576Y-23.766
X43.576Y-53.266
X43.576Y-82.766
X44.211Y-31.64
X44.211Y-34.18
X44.211Y-61.14
X44.211Y-63.68
X44.211Y-90.64
X44.211Y-93.18
X44.338Y-36.847
X44.338Y-39.347
X44.338Y-66.347
X44.338Y-68.847
X44.338Y-95.847
X44.338Y-98.347
X45.608Y-20.337
X45.608Y-49.837
X45.608Y-79.337
X46.37Y-23.639
X46.37Y-26.179
X46.37Y-53.139
X46.37Y-55.679
X46.37Y-82.639
X46.37Y-85.179
X47.501Y-28.503
X47.501Y-36.123
X47.501Y-58.003
X47.501Y-65.623
X47.501Y-87.503
X47.501Y-95.123
X48.148Y-20.337
X48.148Y-49.837
X48.148Y-79.337
X56.799Y-18.599
X56.799Y-21.099
X56.799Y-23.893
X56.799Y-26.433
X56.799Y-48.099
X56.799Y-50.599
X56.799Y-53.393
X56.799Y-55.933
X56.799Y-77.599
X56.799Y-80.099
X56.799Y-82.893
X56.799Y-85.433
X60.101Y-18.559
X60.101Y-21.099
X60.101Y-23.893
X60.101Y-26.433
X60.101Y-36.466
X60.101Y-39.006
X60.101Y-48.059
X60.101Y-50.599
X60.101Y-53.393
X60.101Y-55.933
X60.101Y-65.966
X60.101Y-68.506
X60.101Y-77.559
X60.101Y-80.099
X60.101Y-82.893
X60.101Y-85.433
X60.101Y-95.466
X60.101Y-98.006
X60.863Y-29.1
X60.863Y-31.6
X60.863Y-58.6
X60.863Y-61.1
X60.863Y-88.1
X60.863Y-90.6
X63.403Y-18.051
X63.403Y-20.591
X63.403Y-23.893
X63.403Y-26.433
X63.403Y-36.506
X63.403Y-39.006
X63.403Y-47.551
X63.403Y-50.091
X63.403Y-53.393
X63.403Y-55.933
X63.403Y-66.006
X63.403Y-68.506
X63.403Y-77.051
X63.403Y-79.591
X63.403Y-82.893
X63.403Y-85.433
X63.403Y-95.506
X63.403Y-98.006
X63.911Y-32.91
X63.911Y-62.41
X63.911Y-91.91
X64.165Y-29.608
X64.165Y-59.108
X64.165Y-88.608
X66.451Y-32.91
X66.451Y-62.41
X66.451Y-91.91
X66.578Y-23.893
X66.578Y-26.433
X66.578Y-53.393
X66.578Y-55.933
X66.578Y-82.893
X66.578Y-85.433
X66.665Y-29.608
X66.665Y-59.108
X66.665Y-88.608
X66.705Y-18.051
X66.705Y-20.591
X66.705Y-36.466
X66.705Y-39.006
X66.705Y-47.551
X66.705Y-50.091
X66.705Y-65.966
X66.705Y-68.506
X66.705Y-77.051
X66.705Y-79.591
X66.705Y-95.466
X66.705Y-98.006
X69.499Y-23.766
X69.499Y-26.306
X69.499Y-28.846
X69.499Y-31.386
X69.499Y-33.926
X69.499Y-36.466
X69.499Y-39.006
X69.499Y-53.266
X69.499Y-55.806
X69.499Y-58.346
X69.499Y-60.886
X69.499Y-63.426
X69.499Y-65.966
X69.499Y-68.506
X69.499Y-82.766
X69.499Y-85.306
X69.499Y-87.846
X69.499Y-90.386
X69.499Y-92.926
X69.499Y-95.466
X69.499Y-98.006
X70.007Y-18.051
X70.007Y-20.551
X70.007Y-47.551
X70.007Y-50.051
X70.007Y-77.051
X70.007Y-79.551
X73.309Y-18.432
X73.309Y-20.972
X73.309Y-47.932
X73.309Y-50.472
X73.309Y-77.432
X73.309Y-79.972
X76.484Y-18.432
X76.484Y-20.972
X76.484Y-47.932
X76.484Y-50.472
X76.484Y-77.432
X76.484Y-79.972
X77.119Y-23.766
X77.119Y-26.306
X77.119Y-28.846
X77.119Y-31.386
X77.119Y-33.926
X77.119Y-36.466
X77.119Y-39.006
X77.119Y-53.266
X77.119Y-55.806
X77.119Y-58.346
X77.119Y-60.886
X77.119Y-63.426
X77.119Y-65.966
X77.119Y-68.506
X77.119Y-82.766
X77.119Y-85.306
X77.119Y-87.846
X77.119Y-90.386
X77.119Y-92.926
X77.119Y-95.466
X77.119Y-98.006
X79.151Y-20.464
X79.151Y-49.964
X79.151Y-79.464
X79.786Y-23.766
X79.786Y-26.941
X79.786Y-29.481
X79.786Y-31.64
X79.786Y-34.18
X79.786Y-36.847
X79.786Y-39.387
X79.786Y-53.266
X79.786Y-56.441
X79.786Y-58.981
X79.786Y-61.14
X79.786Y-63.68
X79.786Y-66.347
X79.786Y-68.887
X79.786Y-82.766
X79.786Y-85.941
X79.786Y-88.481
X79.786Y-90.64
X79.786Y-93.18
X79.786Y-95.847
X79.786Y-98.387
X81.651Y-20.464
X81.651Y-49.964
X81.651Y-79.464
X82.326Y-23.766
X82.326Y-53.266
X82.326Y-82.766
X82.961Y-31.64
X82.961Y-34.18
X82.961Y-61.14
X82.961Y-63.68
X82.961Y-90.64
X82.961Y-93.18
X83.088Y-36.847
X83.088Y-39.347
X83.088Y-66.347
X83.088Y-68.847
X83.088Y-95.847
X83.088Y-98.347
X84.358Y-20.337
X84.358Y-49.837
X84.358Y-79.337
X85.12Y-23.639
X85.12Y-26.179
X85.12Y-53.139
X85.12Y-55.679
X85.12Y-82.639
X85.12Y-85.179
X86.251Y-28.503
X86.251Y-36.123
X86.251Y-58.003
X86.251Y-65.623
X86.251Y-87.503
X86.251Y-95.123
X86.898Y-20.337
X86.898Y-49.837
X86.898Y-79.337
X95.549Y-18.599
X95.549Y-21.099
X95.549Y-23.893
X95.549Y-26.433
X95.549Y-48.099
X95.549Y-50.599
X95.549Y-53.393
X95.549Y-55.933
X95.549Y-77.599
X95.549Y-80.099
X95.549Y-82.893
X95.549Y-85.433
X98.851Y-18.559
X98.851Y-21.099
X98.851Y-23.893
X98.851Y-26.433
X98.851Y-36.466
X98.851Y-39.006
X98.851Y-48.059
X98.851Y-50.599
X98.851Y-53.393
X98.851Y-55.933
X98.851Y-65.966
X98.851Y-68.506
X98.851Y-77.559
X98.851Y-80.099
X98.851Y-82.893
X98.851Y-85.433
X98.851Y-95.466
X98.851Y-98.006
X99.613Y-29.1
X99.613Y-31.6
X99.613Y-58.6
X99.613Y-61.1
X99.613Y-88.1
X99.613Y-90.6
X102.153Y-18.051
X102.153Y-20.591
X102.153Y-23.893
X102.153Y-26.433
X102.153Y-36.506
X102.153Y-39.006
X102.153Y-47.551
X102.153Y-50.091
X102.153Y-53.393
X102.153Y-55.933
X102.153Y-66.006
X102.153Y-68.506
X102.153Y-77.051
X102.153Y-79.591
X102.153Y-82.893
X102.153Y-85.433
X102.153Y-95.506
X102.153Y-98.006
X102.661Y-32.91
X102.661Y-62.41
X102.661Y-91.91
X102.915Y-29.608
X102.915Y-59.108
X102.915Y-88.608
X105.201Y-32.91
X105.201Y-62.41
X105.201Y-91.91
X105.328Y-23.893
X105.328Y-26.433
X105.328Y-53.393
X105.328Y-55.933
X105.328Y-82.893
X105.328Y-85.433
X105.415Y-29.608
X105.415Y-59.108
X105.415Y-88.608
X105.455Y-18.051
X105.455Y-20.591
X105.455Y-36.466
X105.455Y-39.006
X105.455Y-47.551
X105.455Y-50.091
X105.455Y-65.966
X105.455Y-68.506
X105.455Y-77.051
X105.455Y-79.591
X105.455Y-95.466
X105.455Y-98.006
X108.249Y-23.766
X108.249Y-26.306
X108.249Y-28.846
X108.249Y-31.386
X108.249Y-33.926
X108.249Y-36.466
X108.249Y-39.006
X108.249Y-53.266
X108.249Y-55.806
X108.249Y-58.346
X108.249Y-60.886
X108.249Y-63.426
X108.249Y-65.966
X108.249Y-68.506
X108.249Y-82.766
X108.249Y-85.306
X108.249Y-87.846
X108.249Y-90.386
X108.249Y-92.926
X108.249Y-95.466
X108.249Y-98.006
X108.757Y-18.051
X108.757Y-20.551
X108.757Y-47.551
X108.757Y-50.051
X108.757Y-77.051
X108.757Y-79.551
X112.059Y-18.432
X112.059Y-20.972
X112.059Y-47.932
X112.059Y-50.472
X112.059Y-77.432
X112.059Y-79.972
X115.234Y-18.432
X115.234Y-20.972
X115.234Y-47.932
X115.234Y-50.472
X115.234Y-77.432
X115.234Y-79.972
X115.869Y-23.766
X115.869Y-26.306
X115.869Y-28.846
X115.869Y-31.386
X115.869Y-33.926
X115.869Y-36.466
X115.869Y-39.006
X115.869Y-53.266
X115.869Y-55.806
X115.869Y-58.346
X115.869Y-60.886
X115.869Y-63.426
X115.869Y-65.966
X115.869Y-68.506
X115.869Y-82.766
X115.869Y-85.306
X115.869Y-87.846
X115.869Y-90.386
X115.869Y-92.926
X115.869Y-95.466
X115.869Y-98.006
X117.901Y-20.464
X117.901Y-49.964
X117.901Y-79.464
X118.536Y-23.766
X118.536Y-26.941
X118.536Y-29.481
X118.536Y-31.64
X118.536Y-34.18
X118.536Y-36.847
X118.536Y-39.387
X118.536Y-53.266
X118.536Y-56.441
X118.536Y-58.981
X118.536Y-61.14
X118.536Y-63.68
X118.536Y-66.347
X118.536Y-68.887
X118.536Y-82.766
X118.536Y-85.941
X118.536Y-88.481
X118.536Y-90.64
X118.536Y-93.18
X118.536Y-95.847
X118.536Y-98.387
X120.401Y-20.464
X120.401Y-49.964
X120.401Y-79.464
X121.076Y-23.766
X121.076Y-53.266
X121.076Y-82.766
X121.711Y-31.64
X121.711Y-34.18
X121.711Y-61.14
X121.711Y-63.68
X121.711Y-90.64
X121.711Y-93.18
X121.838Y-36.847
X121.838Y-39.347
X121.838Y-66.347
X121.838Y-68.847
X121.838Y-95.847
X121.838Y-98.347
X123.108Y-20.337
X123.108Y-49.837
X123.108Y-79.337
X123.87Y-23.639
X123.87Y-26.179
X123.87Y-53.139
X123.87Y-55.679
X123.87Y-82.639
X123.87Y-85.179
X125.001Y-28.503
X125.001Y-36.123
X125.001Y-58.003
X125.001Y-65.623
X125.001Y-87.503
X125.001Y-95.123
X125.648Y-20.337
X125.648Y-49.837
X125.648Y-79.337
X134.299Y-18.599
X134.299Y-21.099
X134.299Y-23.893
X134.299Y-26.433
X134.299Y-48.099
X134.299Y-50.599
X134.299Y-53.393
X134.299Y-55.933
X134.299Y-77.599
X134.299Y-80.099
X134.299Y-82.893
X134.299Y-85.433
X137.601Y-18.559
X137.601Y-21.099
X137.601Y-23.893
X137.601Y-26.433
X137.601Y-36.466
X137.601Y-39.006
X137.601Y-48.059
X137.601Y-50.599
X137.601Y-53.393
X137.601Y-55.933
X137.601Y-65.966
X137.601Y-68.506
X137.601Y-77.559
X137.601Y-80.099
X137.601Y-82.893
X137.601Y-85.433
X137.601Y-95.466
X137.601Y-98.006
X138.363Y-29.1
X138.363Y-31.6
X138.363Y-58.6
X138.363Y-61.1
X138.363Y-88.1
X138.363Y-90.6
X140.903Y-18.051
X140.903Y-20.591
X140.903Y-23.893
X140.903Y-26.433
X140.903Y-36.506
X140.903Y-39.006
X140.903Y-47.551
X140.903Y-50.091
X140.903Y-53.393
X140.903Y-55.933
X140.903Y-66.006
X140.903Y-68.506
X140.903Y-77.051
X140.903Y-79.591
X140.903Y-82.893
X140.903Y-85.433
X140.903Y-95.506
X140.903Y-98.006
X141.411Y-32.91
X141.411Y-62.41
X141.411Y-91.91
X141.665Y-29.608
X141.665Y-59.108
X141.665Y-88.608
X143.951Y-32.91
X143.951Y-62.41
X143.951Y-91.91
X144.078Y-23.893
X144.078Y-26.433
X144.078Y-53.393
X144.078Y-55.933
X144.078Y-82.893
X144.078Y-85.433
X144.165Y-29.608
X144.165Y-59.108
X144.165Y-88.608
X144.205Y-18.051
X144.205Y-20.591
X144.205Y-36.466
X144.205Y-39.006
X144.205Y-47.551
X144.205Y-50.091
X144.205Y-65.966
X144.205Y-68.506
X144.205Y-77.051
X144.205Y-79.591
X144.205Y-95.466
X144.205Y-98.006
X146.999Y-23.766
X146.999Y-26.306
X146.999Y-28.846
X146.999Y-31.386
X146.999Y-33.926
X146.999Y-36.466
X146.999Y-39.006
X146.999Y-53.266
X146.999Y-55.806
X146.999Y-58.346
X146.999Y-60.886
X146.999Y-63.426
X146.999Y-65.966
X146.999Y-68.506
X146.999Y-82.766
X146.999Y-85.306
X146.999Y-87.846
X146.999Y-90.386
X146.999Y-92.926
X146.999Y-95.466
X146.999Y-98.006
X147.507Y-18.051
X147.507Y-20.551
X147.507Y-47.551
X147.507Y-50.051
X147.507Y-77.051
X147.507Y-79.551
X150.809Y-18.432
X150.809Y-20.972
X150.809Y-47.932
X150.809Y-50.472
X150.809Y-77.432
X150.809Y-79.972
X153.984Y-18.432
X153.984Y-20.972
X153.984Y-47.932
X153.984Y-50.472
X153.984Y-77.432
X153.984Y-79.972
X154.619Y-23.766
X154.619Y-26.306
X154.619Y-28.846
X154.619Y-31.386
X154.619Y-33.926
X154.619Y-36.466
X154.619Y-39.006
X154.619Y-53.266
X154.619Y-55.806
X154.619Y-58.346
X154.619Y-60.886
X154.619Y-63.426
X154.619Y-65.966
X154.619Y-68.506
X154.619Y-82.766
X154.619Y-85.306
X154.619Y-87.846
X154.619Y-90.386
X154.619Y-92.926
X154.619Y-95.466
X154.619Y-98.006
X156.651Y-20.464
X156.651Y-49.964
X156.651Y-79.464
X157.286Y-23.766
X157.286Y-26.941
X157.286Y-29.481
X157.286Y-31.64
X157.286Y-34.18
X157.286Y-36.847
X157.286Y-39.387
X157.286Y-53.266
X157.286Y-56.441
X157.286Y-58.981
X157.286Y-61.14
X157.286Y-63.68
X157.286Y-66.347
X157.286Y-68.887
X157.286Y-82.766
X157.286Y-85.941
X157.286Y-88.481
X157.286Y-90.64
X157.286Y-93.18
X157.286Y-95.847
X157.286Y-98.387
X159.151Y-20.464
X159.151Y-49.964
X159.151Y-79.464
X159.826Y-23.766
X159.826Y-53.266
X159.826Y-82.766
X160.461Y-31.64
X160.461Y-34.18
X160.461Y-61.14
X160.461Y-63.68
X160.461Y-90.64
X160.461Y-93.18
X160.588Y-36.847
X160.588Y-39.347
X160.588Y-66.347
X160.588Y-68.847
X160.588Y-95.847
X160.588Y-98.347
X161.858Y-20.337
X161.858Y-49.837
X161.858Y-79.337
X162.62Y-23.639
X162.62Y-26.179
X162.62Y-53.139
X162.62Y-55.679
X162.62Y-82.639
X162.62Y-85.179
X163.751Y-28.503
X163.751Y-36.123
X163.751Y-58.003
X163.751Y-65.623
X163.751Y-87.503
X163.751Y-95.123
X164.398Y-20.337
X164.398Y-49.837
X164.398Y-79.337
T3
X18.049Y-39.133
X18.049Y-68.633
X18.049Y-98.133
X41.001Y-17.253
X41.001Y-46.753
X41.001Y-76.253
X45.001Y-17.253
X45.001Y-46.753
X45.001Y-76.253
X49.001Y-17.253
X49.001Y-46.753
X49.001Y-76.253
X56.799Y-39.133
X56.799Y-68.633
X56.799Y-98.133
X79.751Y-17.253
X79.751Y-46.753
X79.751Y-76.253
X83.751Y-17.253
X83.751Y-46.753
X83.751Y-76.253
X87.751Y-17.253
X87.751Y-46.753
X87.751Y-76.253
X95.549Y-39.133
X95.549Y-68.633
X95.549Y-98.133
X118.501Y-17.253
X118.501Y-46.753
X118.501Y-76.253
X122.501Y-17.253
X122.501Y-46.753
X122.501Y-76.253
X126.501Y-17.253
X126.501Y-46.753
X126.501Y-76.253
X134.299Y-39.133
X134.299Y-68.633
X134.299Y-98.133
X157.251Y-17.253
X157.251Y-46.753
X157.251Y-76.253
X161.251Y-17.253
X161.251Y-46.753
X161.251Y-76.253
X165.251Y-17.253
X165.251Y-46.753
X165.251Y-76.253
T0
M30
