G04 #@! TF.FileFunction,Soldermask,Top*
%FSLAX46Y46*%
G04 Gerber Fmt 4.6, Leading zero omitted, Abs format (unit mm)*
G04 Created by KiCad (PCBNEW 4.0.6-e0-6349~53~ubuntu16.04.1) date Thu Mar 16 16:11:01 2017*
%MOMM*%
%LPD*%
G01*
G04 APERTURE LIST*
%ADD10C,0.100000*%
%ADD11C,0.150000*%
%ADD12C,2.000000*%
%ADD13O,2.000000X2.000000*%
%ADD14C,2.398980*%
%ADD15C,2.100000*%
%ADD16R,2.100000X2.100000*%
%ADD17R,2.000000X2.000000*%
G04 APERTURE END LIST*
D10*
D11*
X167500800Y-101002920D02*
X131250800Y-101002920D01*
X167500800Y-71502920D02*
X131250800Y-71502920D01*
X167500800Y-42002920D02*
X131250800Y-42002920D01*
X128750800Y-101002920D02*
X92500800Y-101002920D01*
X128750800Y-71502920D02*
X92500800Y-71502920D01*
X128750800Y-42002920D02*
X92500800Y-42002920D01*
X90000800Y-101002920D02*
X53750800Y-101002920D01*
X90000800Y-71502920D02*
X53750800Y-71502920D01*
X90000800Y-42002920D02*
X53750800Y-42002920D01*
X51250800Y-101002920D02*
X15000800Y-101002920D01*
X51250800Y-71502920D02*
X15000800Y-71502920D01*
X167500800Y-74002920D02*
X167500800Y-101002920D01*
X167500800Y-44502920D02*
X167500800Y-71502920D01*
X167500800Y-15002920D02*
X167500800Y-42002920D01*
X128750800Y-74002920D02*
X128750800Y-101002920D01*
X128750800Y-44502920D02*
X128750800Y-71502920D01*
X128750800Y-15002920D02*
X128750800Y-42002920D01*
X90000800Y-74002920D02*
X90000800Y-101002920D01*
X90000800Y-44502920D02*
X90000800Y-71502920D01*
X90000800Y-15002920D02*
X90000800Y-42002920D01*
X51250800Y-74002920D02*
X51250800Y-101002920D01*
X51250800Y-44502920D02*
X51250800Y-71502920D01*
X131250800Y-101002920D02*
X131250800Y-74002920D01*
X131250800Y-71502920D02*
X131250800Y-44502920D01*
X131250800Y-42002920D02*
X131250800Y-15002920D01*
X92500800Y-101002920D02*
X92500800Y-74002920D01*
X92500800Y-71502920D02*
X92500800Y-44502920D01*
X92500800Y-42002920D02*
X92500800Y-15002920D01*
X53750800Y-101002920D02*
X53750800Y-74002920D01*
X53750800Y-71502920D02*
X53750800Y-44502920D01*
X53750800Y-42002920D02*
X53750800Y-15002920D01*
X15000800Y-101002920D02*
X15000800Y-74002920D01*
X15000800Y-71502920D02*
X15000800Y-44502920D01*
X167500800Y-74002920D02*
X131250800Y-74002920D01*
X167500800Y-44502920D02*
X131250800Y-44502920D01*
X167500800Y-15002920D02*
X131250800Y-15002920D01*
X128750800Y-74002920D02*
X92500800Y-74002920D01*
X128750800Y-44502920D02*
X92500800Y-44502920D01*
X128750800Y-15002920D02*
X92500800Y-15002920D01*
X90000800Y-74002920D02*
X53750800Y-74002920D01*
X90000800Y-44502920D02*
X53750800Y-44502920D01*
X90000800Y-15002920D02*
X53750800Y-15002920D01*
X51250800Y-74002920D02*
X15000800Y-74002920D01*
X51250800Y-44502920D02*
X15000800Y-44502920D01*
X51250800Y-15002920D02*
X15000800Y-15002920D01*
X51250800Y-42002920D02*
X15000800Y-42002920D01*
X51250800Y-15002920D02*
X51250800Y-42002920D01*
X15000800Y-42002920D02*
X15000800Y-15002920D01*
D12*
X147506800Y-77050920D03*
X147506800Y-79550920D03*
X147506800Y-47550920D03*
X147506800Y-50050920D03*
X147506800Y-18050920D03*
X147506800Y-20550920D03*
X108756800Y-77050920D03*
X108756800Y-79550920D03*
X108756800Y-47550920D03*
X108756800Y-50050920D03*
X108756800Y-18050920D03*
X108756800Y-20550920D03*
X70006800Y-77050920D03*
X70006800Y-79550920D03*
X70006800Y-47550920D03*
X70006800Y-50050920D03*
X70006800Y-18050920D03*
X70006800Y-20550920D03*
X31256800Y-77050920D03*
X31256800Y-79550920D03*
X31256800Y-47550920D03*
X31256800Y-50050920D03*
X144077800Y-85432920D03*
D13*
X144077800Y-82892920D03*
D12*
X144077800Y-55932920D03*
D13*
X144077800Y-53392920D03*
D12*
X144077800Y-26432920D03*
D13*
X144077800Y-23892920D03*
D12*
X105327800Y-85432920D03*
D13*
X105327800Y-82892920D03*
D12*
X105327800Y-55932920D03*
D13*
X105327800Y-53392920D03*
D12*
X105327800Y-26432920D03*
D13*
X105327800Y-23892920D03*
D12*
X66577800Y-85432920D03*
D13*
X66577800Y-82892920D03*
D12*
X66577800Y-55932920D03*
D13*
X66577800Y-53392920D03*
D12*
X66577800Y-26432920D03*
D13*
X66577800Y-23892920D03*
D12*
X27827800Y-85432920D03*
D13*
X27827800Y-82892920D03*
D12*
X27827800Y-55932920D03*
D13*
X27827800Y-53392920D03*
D12*
X144204800Y-79590920D03*
D13*
X144204800Y-77050920D03*
D12*
X144204800Y-50090920D03*
D13*
X144204800Y-47550920D03*
D12*
X144204800Y-20590920D03*
D13*
X144204800Y-18050920D03*
D12*
X105454800Y-79590920D03*
D13*
X105454800Y-77050920D03*
D12*
X105454800Y-50090920D03*
D13*
X105454800Y-47550920D03*
D12*
X105454800Y-20590920D03*
D13*
X105454800Y-18050920D03*
D12*
X66704800Y-79590920D03*
D13*
X66704800Y-77050920D03*
D12*
X66704800Y-50090920D03*
D13*
X66704800Y-47550920D03*
D12*
X66704800Y-20590920D03*
D13*
X66704800Y-18050920D03*
D12*
X27954800Y-79590920D03*
D13*
X27954800Y-77050920D03*
D12*
X27954800Y-50090920D03*
D13*
X27954800Y-47550920D03*
D12*
X140902800Y-79590920D03*
X140902800Y-77050920D03*
X140902800Y-50090920D03*
X140902800Y-47550920D03*
X140902800Y-20590920D03*
X140902800Y-18050920D03*
X102152800Y-79590920D03*
X102152800Y-77050920D03*
X102152800Y-50090920D03*
X102152800Y-47550920D03*
X102152800Y-20590920D03*
X102152800Y-18050920D03*
X63402800Y-79590920D03*
X63402800Y-77050920D03*
X63402800Y-50090920D03*
X63402800Y-47550920D03*
X63402800Y-20590920D03*
X63402800Y-18050920D03*
X24652800Y-79590920D03*
X24652800Y-77050920D03*
X24652800Y-50090920D03*
X24652800Y-47550920D03*
X134298800Y-85432920D03*
D13*
X134298800Y-82892920D03*
D12*
X134298800Y-55932920D03*
D13*
X134298800Y-53392920D03*
D12*
X134298800Y-26432920D03*
D13*
X134298800Y-23892920D03*
D12*
X95548800Y-85432920D03*
D13*
X95548800Y-82892920D03*
D12*
X95548800Y-55932920D03*
D13*
X95548800Y-53392920D03*
D12*
X95548800Y-26432920D03*
D13*
X95548800Y-23892920D03*
D12*
X56798800Y-85432920D03*
D13*
X56798800Y-82892920D03*
D12*
X56798800Y-55932920D03*
D13*
X56798800Y-53392920D03*
D12*
X56798800Y-26432920D03*
D13*
X56798800Y-23892920D03*
D12*
X18048800Y-85432920D03*
D13*
X18048800Y-82892920D03*
D12*
X18048800Y-55932920D03*
D13*
X18048800Y-53392920D03*
D12*
X134298800Y-80098920D03*
X134298800Y-77598920D03*
X134298800Y-50598920D03*
X134298800Y-48098920D03*
X134298800Y-21098920D03*
X134298800Y-18598920D03*
X95548800Y-80098920D03*
X95548800Y-77598920D03*
X95548800Y-50598920D03*
X95548800Y-48098920D03*
X95548800Y-21098920D03*
X95548800Y-18598920D03*
X56798800Y-80098920D03*
X56798800Y-77598920D03*
X56798800Y-50598920D03*
X56798800Y-48098920D03*
X56798800Y-21098920D03*
X56798800Y-18598920D03*
X18048800Y-80098920D03*
X18048800Y-77598920D03*
X18048800Y-50598920D03*
X18048800Y-48098920D03*
X137600800Y-77558920D03*
D13*
X137600800Y-80098920D03*
D12*
X137600800Y-48058920D03*
D13*
X137600800Y-50598920D03*
D12*
X137600800Y-18558920D03*
D13*
X137600800Y-21098920D03*
D12*
X98850800Y-77558920D03*
D13*
X98850800Y-80098920D03*
D12*
X98850800Y-48058920D03*
D13*
X98850800Y-50598920D03*
D12*
X98850800Y-18558920D03*
D13*
X98850800Y-21098920D03*
D12*
X60100800Y-77558920D03*
D13*
X60100800Y-80098920D03*
D12*
X60100800Y-48058920D03*
D13*
X60100800Y-50598920D03*
D12*
X60100800Y-18558920D03*
D13*
X60100800Y-21098920D03*
D12*
X21350800Y-77558920D03*
D13*
X21350800Y-80098920D03*
D12*
X21350800Y-48058920D03*
D13*
X21350800Y-50598920D03*
D12*
X137600800Y-82892920D03*
D13*
X137600800Y-85432920D03*
D12*
X137600800Y-53392920D03*
D13*
X137600800Y-55932920D03*
D12*
X137600800Y-23892920D03*
D13*
X137600800Y-26432920D03*
D12*
X98850800Y-82892920D03*
D13*
X98850800Y-85432920D03*
D12*
X98850800Y-53392920D03*
D13*
X98850800Y-55932920D03*
D12*
X98850800Y-23892920D03*
D13*
X98850800Y-26432920D03*
D12*
X60100800Y-82892920D03*
D13*
X60100800Y-85432920D03*
D12*
X60100800Y-53392920D03*
D13*
X60100800Y-55932920D03*
D12*
X60100800Y-23892920D03*
D13*
X60100800Y-26432920D03*
D12*
X21350800Y-82892920D03*
D13*
X21350800Y-85432920D03*
D12*
X21350800Y-53392920D03*
D13*
X21350800Y-55932920D03*
D12*
X140902800Y-82892920D03*
D13*
X140902800Y-85432920D03*
D12*
X140902800Y-53392920D03*
D13*
X140902800Y-55932920D03*
D12*
X140902800Y-23892920D03*
D13*
X140902800Y-26432920D03*
D12*
X102152800Y-82892920D03*
D13*
X102152800Y-85432920D03*
D12*
X102152800Y-53392920D03*
D13*
X102152800Y-55932920D03*
D12*
X102152800Y-23892920D03*
D13*
X102152800Y-26432920D03*
D12*
X63402800Y-82892920D03*
D13*
X63402800Y-85432920D03*
D12*
X63402800Y-53392920D03*
D13*
X63402800Y-55932920D03*
D12*
X63402800Y-23892920D03*
D13*
X63402800Y-26432920D03*
D12*
X24652800Y-82892920D03*
D13*
X24652800Y-85432920D03*
D12*
X24652800Y-53392920D03*
D13*
X24652800Y-55932920D03*
D12*
X157285800Y-98386920D03*
D13*
X157285800Y-95846920D03*
D12*
X157285800Y-68886920D03*
D13*
X157285800Y-66346920D03*
D12*
X157285800Y-39386920D03*
D13*
X157285800Y-36846920D03*
D12*
X118535800Y-98386920D03*
D13*
X118535800Y-95846920D03*
D12*
X118535800Y-68886920D03*
D13*
X118535800Y-66346920D03*
D12*
X118535800Y-39386920D03*
D13*
X118535800Y-36846920D03*
D12*
X79785800Y-98386920D03*
D13*
X79785800Y-95846920D03*
D12*
X79785800Y-68886920D03*
D13*
X79785800Y-66346920D03*
D12*
X79785800Y-39386920D03*
D13*
X79785800Y-36846920D03*
D12*
X41035800Y-98386920D03*
D13*
X41035800Y-95846920D03*
D12*
X41035800Y-68886920D03*
D13*
X41035800Y-66346920D03*
D12*
X160460800Y-93179920D03*
D13*
X160460800Y-90639920D03*
D12*
X160460800Y-63679920D03*
D13*
X160460800Y-61139920D03*
D12*
X160460800Y-34179920D03*
D13*
X160460800Y-31639920D03*
D12*
X121710800Y-93179920D03*
D13*
X121710800Y-90639920D03*
D12*
X121710800Y-63679920D03*
D13*
X121710800Y-61139920D03*
D12*
X121710800Y-34179920D03*
D13*
X121710800Y-31639920D03*
D12*
X82960800Y-93179920D03*
D13*
X82960800Y-90639920D03*
D12*
X82960800Y-63679920D03*
D13*
X82960800Y-61139920D03*
D12*
X82960800Y-34179920D03*
D13*
X82960800Y-31639920D03*
D12*
X44210800Y-93179920D03*
D13*
X44210800Y-90639920D03*
D12*
X44210800Y-63679920D03*
D13*
X44210800Y-61139920D03*
D12*
X160587800Y-95846920D03*
X160587800Y-98346920D03*
X160587800Y-66346920D03*
X160587800Y-68846920D03*
X160587800Y-36846920D03*
X160587800Y-39346920D03*
X121837800Y-95846920D03*
X121837800Y-98346920D03*
X121837800Y-66346920D03*
X121837800Y-68846920D03*
X121837800Y-36846920D03*
X121837800Y-39346920D03*
X83087800Y-95846920D03*
X83087800Y-98346920D03*
X83087800Y-66346920D03*
X83087800Y-68846920D03*
X83087800Y-36846920D03*
X83087800Y-39346920D03*
X44337800Y-95846920D03*
X44337800Y-98346920D03*
X44337800Y-66346920D03*
X44337800Y-68846920D03*
X157285800Y-93179920D03*
D13*
X157285800Y-90639920D03*
D12*
X157285800Y-63679920D03*
D13*
X157285800Y-61139920D03*
D12*
X157285800Y-34179920D03*
D13*
X157285800Y-31639920D03*
D12*
X118535800Y-93179920D03*
D13*
X118535800Y-90639920D03*
D12*
X118535800Y-63679920D03*
D13*
X118535800Y-61139920D03*
D12*
X118535800Y-34179920D03*
D13*
X118535800Y-31639920D03*
D12*
X79785800Y-93179920D03*
D13*
X79785800Y-90639920D03*
D12*
X79785800Y-63679920D03*
D13*
X79785800Y-61139920D03*
D12*
X79785800Y-34179920D03*
D13*
X79785800Y-31639920D03*
D12*
X41035800Y-93179920D03*
D13*
X41035800Y-90639920D03*
D12*
X41035800Y-63679920D03*
D13*
X41035800Y-61139920D03*
D14*
X161250800Y-76252920D03*
X161250800Y-46752920D03*
X161250800Y-17252920D03*
X122500800Y-76252920D03*
X122500800Y-46752920D03*
X122500800Y-17252920D03*
X83750800Y-76252920D03*
X83750800Y-46752920D03*
X83750800Y-17252920D03*
X45000800Y-76252920D03*
X45000800Y-46752920D03*
D12*
X156650800Y-79463920D03*
X159150800Y-79463920D03*
X156650800Y-49963920D03*
X159150800Y-49963920D03*
X156650800Y-20463920D03*
X159150800Y-20463920D03*
X117900800Y-79463920D03*
X120400800Y-79463920D03*
X117900800Y-49963920D03*
X120400800Y-49963920D03*
X117900800Y-20463920D03*
X120400800Y-20463920D03*
X79150800Y-79463920D03*
X81650800Y-79463920D03*
X79150800Y-49963920D03*
X81650800Y-49963920D03*
X79150800Y-20463920D03*
X81650800Y-20463920D03*
X40400800Y-79463920D03*
X42900800Y-79463920D03*
X40400800Y-49963920D03*
X42900800Y-49963920D03*
X150808800Y-77431920D03*
D13*
X150808800Y-79971920D03*
D12*
X150808800Y-47931920D03*
D13*
X150808800Y-50471920D03*
D12*
X150808800Y-18431920D03*
D13*
X150808800Y-20971920D03*
D12*
X112058800Y-77431920D03*
D13*
X112058800Y-79971920D03*
D12*
X112058800Y-47931920D03*
D13*
X112058800Y-50471920D03*
D12*
X112058800Y-18431920D03*
D13*
X112058800Y-20971920D03*
D12*
X73308800Y-77431920D03*
D13*
X73308800Y-79971920D03*
D12*
X73308800Y-47931920D03*
D13*
X73308800Y-50471920D03*
D12*
X73308800Y-18431920D03*
D13*
X73308800Y-20971920D03*
D12*
X34558800Y-77431920D03*
D13*
X34558800Y-79971920D03*
D12*
X34558800Y-47931920D03*
D13*
X34558800Y-50471920D03*
D12*
X161857800Y-79336920D03*
D13*
X164397800Y-79336920D03*
D12*
X161857800Y-49836920D03*
D13*
X164397800Y-49836920D03*
D12*
X161857800Y-20336920D03*
D13*
X164397800Y-20336920D03*
D12*
X123107800Y-79336920D03*
D13*
X125647800Y-79336920D03*
D12*
X123107800Y-49836920D03*
D13*
X125647800Y-49836920D03*
D12*
X123107800Y-20336920D03*
D13*
X125647800Y-20336920D03*
D12*
X84357800Y-79336920D03*
D13*
X86897800Y-79336920D03*
D12*
X84357800Y-49836920D03*
D13*
X86897800Y-49836920D03*
D12*
X84357800Y-20336920D03*
D13*
X86897800Y-20336920D03*
D12*
X45607800Y-79336920D03*
D13*
X48147800Y-79336920D03*
D12*
X45607800Y-49836920D03*
D13*
X48147800Y-49836920D03*
D14*
X157250800Y-76252920D03*
X157250800Y-46752920D03*
X157250800Y-17252920D03*
X118500800Y-76252920D03*
X118500800Y-46752920D03*
X118500800Y-17252920D03*
X79750800Y-76252920D03*
X79750800Y-46752920D03*
X79750800Y-17252920D03*
X41000800Y-76252920D03*
X41000800Y-46752920D03*
D12*
X153983800Y-77431920D03*
D13*
X153983800Y-79971920D03*
D12*
X153983800Y-47931920D03*
D13*
X153983800Y-50471920D03*
D12*
X153983800Y-18431920D03*
D13*
X153983800Y-20971920D03*
D12*
X115233800Y-77431920D03*
D13*
X115233800Y-79971920D03*
D12*
X115233800Y-47931920D03*
D13*
X115233800Y-50471920D03*
D12*
X115233800Y-18431920D03*
D13*
X115233800Y-20971920D03*
D12*
X76483800Y-77431920D03*
D13*
X76483800Y-79971920D03*
D12*
X76483800Y-47931920D03*
D13*
X76483800Y-50471920D03*
D12*
X76483800Y-18431920D03*
D13*
X76483800Y-20971920D03*
D12*
X37733800Y-77431920D03*
D13*
X37733800Y-79971920D03*
D12*
X37733800Y-47931920D03*
D13*
X37733800Y-50471920D03*
D14*
X165250800Y-76252920D03*
X165250800Y-46752920D03*
X165250800Y-17252920D03*
X126500800Y-76252920D03*
X126500800Y-46752920D03*
X126500800Y-17252920D03*
X87750800Y-76252920D03*
X87750800Y-46752920D03*
X87750800Y-17252920D03*
X49000800Y-76252920D03*
X49000800Y-46752920D03*
D12*
X144204800Y-98005920D03*
D13*
X144204800Y-95465920D03*
D12*
X144204800Y-68505920D03*
D13*
X144204800Y-65965920D03*
D12*
X144204800Y-39005920D03*
D13*
X144204800Y-36465920D03*
D12*
X105454800Y-98005920D03*
D13*
X105454800Y-95465920D03*
D12*
X105454800Y-68505920D03*
D13*
X105454800Y-65965920D03*
D12*
X105454800Y-39005920D03*
D13*
X105454800Y-36465920D03*
D12*
X66704800Y-98005920D03*
D13*
X66704800Y-95465920D03*
D12*
X66704800Y-68505920D03*
D13*
X66704800Y-65965920D03*
D12*
X66704800Y-39005920D03*
D13*
X66704800Y-36465920D03*
D12*
X27954800Y-98005920D03*
D13*
X27954800Y-95465920D03*
D12*
X27954800Y-68505920D03*
D13*
X27954800Y-65965920D03*
D12*
X140902800Y-98005920D03*
X140902800Y-95505920D03*
X140902800Y-68505920D03*
X140902800Y-66005920D03*
X140902800Y-39005920D03*
X140902800Y-36505920D03*
X102152800Y-98005920D03*
X102152800Y-95505920D03*
X102152800Y-68505920D03*
X102152800Y-66005920D03*
X102152800Y-39005920D03*
X102152800Y-36505920D03*
X63402800Y-98005920D03*
X63402800Y-95505920D03*
X63402800Y-68505920D03*
X63402800Y-66005920D03*
X63402800Y-39005920D03*
X63402800Y-36505920D03*
X24652800Y-98005920D03*
X24652800Y-95505920D03*
X24652800Y-68505920D03*
X24652800Y-66005920D03*
X137600800Y-98005920D03*
D13*
X137600800Y-95465920D03*
D12*
X137600800Y-68505920D03*
D13*
X137600800Y-65965920D03*
D12*
X137600800Y-39005920D03*
D13*
X137600800Y-36465920D03*
D12*
X98850800Y-98005920D03*
D13*
X98850800Y-95465920D03*
D12*
X98850800Y-68505920D03*
D13*
X98850800Y-65965920D03*
D12*
X98850800Y-39005920D03*
D13*
X98850800Y-36465920D03*
D12*
X60100800Y-98005920D03*
D13*
X60100800Y-95465920D03*
D12*
X60100800Y-68505920D03*
D13*
X60100800Y-65965920D03*
D12*
X60100800Y-39005920D03*
D13*
X60100800Y-36465920D03*
D12*
X21350800Y-98005920D03*
D13*
X21350800Y-95465920D03*
D12*
X21350800Y-68505920D03*
D13*
X21350800Y-65965920D03*
D15*
X134298800Y-93306920D03*
D16*
X134298800Y-88226920D03*
D15*
X134298800Y-63806920D03*
D16*
X134298800Y-58726920D03*
D15*
X134298800Y-34306920D03*
D16*
X134298800Y-29226920D03*
D15*
X95548800Y-93306920D03*
D16*
X95548800Y-88226920D03*
D15*
X95548800Y-63806920D03*
D16*
X95548800Y-58726920D03*
D15*
X95548800Y-34306920D03*
D16*
X95548800Y-29226920D03*
D15*
X56798800Y-93306920D03*
D16*
X56798800Y-88226920D03*
D15*
X56798800Y-63806920D03*
D16*
X56798800Y-58726920D03*
D15*
X56798800Y-34306920D03*
D16*
X56798800Y-29226920D03*
D15*
X18048800Y-93306920D03*
D16*
X18048800Y-88226920D03*
D15*
X18048800Y-63806920D03*
D16*
X18048800Y-58726920D03*
D12*
X138362800Y-88099920D03*
X138362800Y-90599920D03*
X138362800Y-58599920D03*
X138362800Y-61099920D03*
X138362800Y-29099920D03*
X138362800Y-31599920D03*
X99612800Y-88099920D03*
X99612800Y-90599920D03*
X99612800Y-58599920D03*
X99612800Y-61099920D03*
X99612800Y-29099920D03*
X99612800Y-31599920D03*
X60862800Y-88099920D03*
X60862800Y-90599920D03*
X60862800Y-58599920D03*
X60862800Y-61099920D03*
X60862800Y-29099920D03*
X60862800Y-31599920D03*
X22112800Y-88099920D03*
X22112800Y-90599920D03*
X22112800Y-58599920D03*
X22112800Y-61099920D03*
X143950800Y-91909920D03*
D13*
X141410800Y-91909920D03*
D12*
X143950800Y-62409920D03*
D13*
X141410800Y-62409920D03*
D12*
X143950800Y-32909920D03*
D13*
X141410800Y-32909920D03*
D12*
X105200800Y-91909920D03*
D13*
X102660800Y-91909920D03*
D12*
X105200800Y-62409920D03*
D13*
X102660800Y-62409920D03*
D12*
X105200800Y-32909920D03*
D13*
X102660800Y-32909920D03*
D12*
X66450800Y-91909920D03*
D13*
X63910800Y-91909920D03*
D12*
X66450800Y-62409920D03*
D13*
X63910800Y-62409920D03*
D12*
X66450800Y-32909920D03*
D13*
X63910800Y-32909920D03*
D12*
X27700800Y-91909920D03*
D13*
X25160800Y-91909920D03*
D12*
X27700800Y-62409920D03*
D13*
X25160800Y-62409920D03*
D14*
X134298800Y-98132920D03*
X134298800Y-68632920D03*
X134298800Y-39132920D03*
X95548800Y-98132920D03*
X95548800Y-68632920D03*
X95548800Y-39132920D03*
X56798800Y-98132920D03*
X56798800Y-68632920D03*
X56798800Y-39132920D03*
X18048800Y-98132920D03*
X18048800Y-68632920D03*
D12*
X141664800Y-88607920D03*
X144164800Y-88607920D03*
X141664800Y-59107920D03*
X144164800Y-59107920D03*
X141664800Y-29607920D03*
X144164800Y-29607920D03*
X102914800Y-88607920D03*
X105414800Y-88607920D03*
X102914800Y-59107920D03*
X105414800Y-59107920D03*
X102914800Y-29607920D03*
X105414800Y-29607920D03*
X64164800Y-88607920D03*
X66664800Y-88607920D03*
X64164800Y-59107920D03*
X66664800Y-59107920D03*
X64164800Y-29607920D03*
X66664800Y-29607920D03*
X25414800Y-88607920D03*
X27914800Y-88607920D03*
X25414800Y-59107920D03*
X27914800Y-59107920D03*
X162619800Y-82638920D03*
D13*
X162619800Y-85178920D03*
D12*
X162619800Y-53138920D03*
D13*
X162619800Y-55678920D03*
D12*
X162619800Y-23638920D03*
D13*
X162619800Y-26178920D03*
D12*
X123869800Y-82638920D03*
D13*
X123869800Y-85178920D03*
D12*
X123869800Y-53138920D03*
D13*
X123869800Y-55678920D03*
D12*
X123869800Y-23638920D03*
D13*
X123869800Y-26178920D03*
D12*
X85119800Y-82638920D03*
D13*
X85119800Y-85178920D03*
D12*
X85119800Y-53138920D03*
D13*
X85119800Y-55678920D03*
D12*
X85119800Y-23638920D03*
D13*
X85119800Y-26178920D03*
D12*
X46369800Y-82638920D03*
D13*
X46369800Y-85178920D03*
D12*
X46369800Y-53138920D03*
D13*
X46369800Y-55678920D03*
D12*
X163750800Y-87502920D03*
D13*
X163750800Y-95122920D03*
D12*
X163750800Y-58002920D03*
D13*
X163750800Y-65622920D03*
D12*
X163750800Y-28502920D03*
D13*
X163750800Y-36122920D03*
D12*
X125000800Y-87502920D03*
D13*
X125000800Y-95122920D03*
D12*
X125000800Y-58002920D03*
D13*
X125000800Y-65622920D03*
D12*
X125000800Y-28502920D03*
D13*
X125000800Y-36122920D03*
D12*
X86250800Y-87502920D03*
D13*
X86250800Y-95122920D03*
D12*
X86250800Y-58002920D03*
D13*
X86250800Y-65622920D03*
D12*
X86250800Y-28502920D03*
D13*
X86250800Y-36122920D03*
D12*
X47500800Y-87502920D03*
D13*
X47500800Y-95122920D03*
D12*
X47500800Y-58002920D03*
D13*
X47500800Y-65622920D03*
D12*
X157285800Y-82765920D03*
D13*
X159825800Y-82765920D03*
D12*
X157285800Y-53265920D03*
D13*
X159825800Y-53265920D03*
D12*
X157285800Y-23765920D03*
D13*
X159825800Y-23765920D03*
D12*
X118535800Y-82765920D03*
D13*
X121075800Y-82765920D03*
D12*
X118535800Y-53265920D03*
D13*
X121075800Y-53265920D03*
D12*
X118535800Y-23765920D03*
D13*
X121075800Y-23765920D03*
D12*
X79785800Y-82765920D03*
D13*
X82325800Y-82765920D03*
D12*
X79785800Y-53265920D03*
D13*
X82325800Y-53265920D03*
D12*
X79785800Y-23765920D03*
D13*
X82325800Y-23765920D03*
D12*
X41035800Y-82765920D03*
D13*
X43575800Y-82765920D03*
D12*
X41035800Y-53265920D03*
D13*
X43575800Y-53265920D03*
D12*
X157285800Y-85940920D03*
D13*
X157285800Y-88480920D03*
D12*
X157285800Y-56440920D03*
D13*
X157285800Y-58980920D03*
D12*
X157285800Y-26940920D03*
D13*
X157285800Y-29480920D03*
D12*
X118535800Y-85940920D03*
D13*
X118535800Y-88480920D03*
D12*
X118535800Y-56440920D03*
D13*
X118535800Y-58980920D03*
D12*
X118535800Y-26940920D03*
D13*
X118535800Y-29480920D03*
D12*
X79785800Y-85940920D03*
D13*
X79785800Y-88480920D03*
D12*
X79785800Y-56440920D03*
D13*
X79785800Y-58980920D03*
D12*
X79785800Y-26940920D03*
D13*
X79785800Y-29480920D03*
D12*
X41035800Y-85940920D03*
D13*
X41035800Y-88480920D03*
D12*
X41035800Y-56440920D03*
D13*
X41035800Y-58980920D03*
D17*
X146998800Y-82765920D03*
D13*
X154618800Y-98005920D03*
X146998800Y-85305920D03*
X154618800Y-95465920D03*
X146998800Y-87845920D03*
X154618800Y-92925920D03*
X146998800Y-90385920D03*
X154618800Y-90385920D03*
X146998800Y-92925920D03*
X154618800Y-87845920D03*
X146998800Y-95465920D03*
X154618800Y-85305920D03*
X146998800Y-98005920D03*
X154618800Y-82765920D03*
D17*
X146998800Y-53265920D03*
D13*
X154618800Y-68505920D03*
X146998800Y-55805920D03*
X154618800Y-65965920D03*
X146998800Y-58345920D03*
X154618800Y-63425920D03*
X146998800Y-60885920D03*
X154618800Y-60885920D03*
X146998800Y-63425920D03*
X154618800Y-58345920D03*
X146998800Y-65965920D03*
X154618800Y-55805920D03*
X146998800Y-68505920D03*
X154618800Y-53265920D03*
D17*
X146998800Y-23765920D03*
D13*
X154618800Y-39005920D03*
X146998800Y-26305920D03*
X154618800Y-36465920D03*
X146998800Y-28845920D03*
X154618800Y-33925920D03*
X146998800Y-31385920D03*
X154618800Y-31385920D03*
X146998800Y-33925920D03*
X154618800Y-28845920D03*
X146998800Y-36465920D03*
X154618800Y-26305920D03*
X146998800Y-39005920D03*
X154618800Y-23765920D03*
D17*
X108248800Y-82765920D03*
D13*
X115868800Y-98005920D03*
X108248800Y-85305920D03*
X115868800Y-95465920D03*
X108248800Y-87845920D03*
X115868800Y-92925920D03*
X108248800Y-90385920D03*
X115868800Y-90385920D03*
X108248800Y-92925920D03*
X115868800Y-87845920D03*
X108248800Y-95465920D03*
X115868800Y-85305920D03*
X108248800Y-98005920D03*
X115868800Y-82765920D03*
D17*
X108248800Y-53265920D03*
D13*
X115868800Y-68505920D03*
X108248800Y-55805920D03*
X115868800Y-65965920D03*
X108248800Y-58345920D03*
X115868800Y-63425920D03*
X108248800Y-60885920D03*
X115868800Y-60885920D03*
X108248800Y-63425920D03*
X115868800Y-58345920D03*
X108248800Y-65965920D03*
X115868800Y-55805920D03*
X108248800Y-68505920D03*
X115868800Y-53265920D03*
D17*
X108248800Y-23765920D03*
D13*
X115868800Y-39005920D03*
X108248800Y-26305920D03*
X115868800Y-36465920D03*
X108248800Y-28845920D03*
X115868800Y-33925920D03*
X108248800Y-31385920D03*
X115868800Y-31385920D03*
X108248800Y-33925920D03*
X115868800Y-28845920D03*
X108248800Y-36465920D03*
X115868800Y-26305920D03*
X108248800Y-39005920D03*
X115868800Y-23765920D03*
D17*
X69498800Y-82765920D03*
D13*
X77118800Y-98005920D03*
X69498800Y-85305920D03*
X77118800Y-95465920D03*
X69498800Y-87845920D03*
X77118800Y-92925920D03*
X69498800Y-90385920D03*
X77118800Y-90385920D03*
X69498800Y-92925920D03*
X77118800Y-87845920D03*
X69498800Y-95465920D03*
X77118800Y-85305920D03*
X69498800Y-98005920D03*
X77118800Y-82765920D03*
D17*
X69498800Y-53265920D03*
D13*
X77118800Y-68505920D03*
X69498800Y-55805920D03*
X77118800Y-65965920D03*
X69498800Y-58345920D03*
X77118800Y-63425920D03*
X69498800Y-60885920D03*
X77118800Y-60885920D03*
X69498800Y-63425920D03*
X77118800Y-58345920D03*
X69498800Y-65965920D03*
X77118800Y-55805920D03*
X69498800Y-68505920D03*
X77118800Y-53265920D03*
D17*
X69498800Y-23765920D03*
D13*
X77118800Y-39005920D03*
X69498800Y-26305920D03*
X77118800Y-36465920D03*
X69498800Y-28845920D03*
X77118800Y-33925920D03*
X69498800Y-31385920D03*
X77118800Y-31385920D03*
X69498800Y-33925920D03*
X77118800Y-28845920D03*
X69498800Y-36465920D03*
X77118800Y-26305920D03*
X69498800Y-39005920D03*
X77118800Y-23765920D03*
D17*
X30748800Y-82765920D03*
D13*
X38368800Y-98005920D03*
X30748800Y-85305920D03*
X38368800Y-95465920D03*
X30748800Y-87845920D03*
X38368800Y-92925920D03*
X30748800Y-90385920D03*
X38368800Y-90385920D03*
X30748800Y-92925920D03*
X38368800Y-87845920D03*
X30748800Y-95465920D03*
X38368800Y-85305920D03*
X30748800Y-98005920D03*
X38368800Y-82765920D03*
D17*
X30748800Y-53265920D03*
D13*
X38368800Y-68505920D03*
X30748800Y-55805920D03*
X38368800Y-65965920D03*
X30748800Y-58345920D03*
X38368800Y-63425920D03*
X30748800Y-60885920D03*
X38368800Y-60885920D03*
X30748800Y-63425920D03*
X38368800Y-58345920D03*
X30748800Y-65965920D03*
X38368800Y-55805920D03*
X30748800Y-68505920D03*
X38368800Y-53265920D03*
D12*
X24652800Y-20590920D03*
X24652800Y-18050920D03*
X31256800Y-18050920D03*
X31256800Y-20550920D03*
X25414800Y-29607920D03*
X27914800Y-29607920D03*
X18048800Y-21098920D03*
X18048800Y-18598920D03*
X24652800Y-39005920D03*
X24652800Y-36505920D03*
X44337800Y-36846920D03*
X44337800Y-39346920D03*
X22112800Y-29099920D03*
X22112800Y-31599920D03*
X40400800Y-20463920D03*
X42900800Y-20463920D03*
D15*
X18048800Y-34306920D03*
D16*
X18048800Y-29226920D03*
D14*
X49000800Y-17252920D03*
X18048800Y-39132920D03*
X41000800Y-17252920D03*
X45000800Y-17252920D03*
D12*
X21350800Y-23892920D03*
D13*
X21350800Y-26432920D03*
D12*
X18048800Y-26432920D03*
D13*
X18048800Y-23892920D03*
D12*
X21350800Y-18558920D03*
D13*
X21350800Y-21098920D03*
D12*
X27954800Y-20590920D03*
D13*
X27954800Y-18050920D03*
D12*
X24652800Y-23892920D03*
D13*
X24652800Y-26432920D03*
D12*
X27827800Y-26432920D03*
D13*
X27827800Y-23892920D03*
D12*
X27700800Y-32909920D03*
D13*
X25160800Y-32909920D03*
D12*
X21350800Y-39005920D03*
D13*
X21350800Y-36465920D03*
D12*
X27954800Y-39005920D03*
D13*
X27954800Y-36465920D03*
D12*
X46369800Y-23638920D03*
D13*
X46369800Y-26178920D03*
D12*
X37733800Y-18431920D03*
D13*
X37733800Y-20971920D03*
D12*
X44210800Y-34179920D03*
D13*
X44210800Y-31639920D03*
D12*
X41035800Y-34179920D03*
D13*
X41035800Y-31639920D03*
D12*
X41035800Y-39386920D03*
D13*
X41035800Y-36846920D03*
D12*
X34558800Y-18431920D03*
D13*
X34558800Y-20971920D03*
D12*
X41035800Y-23765920D03*
D13*
X43575800Y-23765920D03*
D12*
X41035800Y-26940920D03*
D13*
X41035800Y-29480920D03*
D12*
X45607800Y-20336920D03*
D13*
X48147800Y-20336920D03*
D17*
X30748800Y-23765920D03*
D13*
X38368800Y-39005920D03*
X30748800Y-26305920D03*
X38368800Y-36465920D03*
X30748800Y-28845920D03*
X38368800Y-33925920D03*
X30748800Y-31385920D03*
X38368800Y-31385920D03*
X30748800Y-33925920D03*
X38368800Y-28845920D03*
X30748800Y-36465920D03*
X38368800Y-26305920D03*
X30748800Y-39005920D03*
X38368800Y-23765920D03*
D12*
X47500800Y-28502920D03*
D13*
X47500800Y-36122920D03*
M02*
