G04 #@! TF.FileFunction,Other,User*
%FSLAX46Y46*%
G04 Gerber Fmt 4.6, Leading zero omitted, Abs format (unit mm)*
G04 Created by KiCad (PCBNEW 4.0.6-e0-6349~53~ubuntu16.04.1) date Thu Mar 16 16:11:01 2017*
%MOMM*%
%LPD*%
G01*
G04 APERTURE LIST*
%ADD10C,0.100000*%
%ADD11C,0.150000*%
%ADD12C,0.050000*%
G04 APERTURE END LIST*
D10*
D11*
X167500800Y-101002920D02*
X131250800Y-101002920D01*
X167500800Y-71502920D02*
X131250800Y-71502920D01*
X167500800Y-42002920D02*
X131250800Y-42002920D01*
X128750800Y-101002920D02*
X92500800Y-101002920D01*
X128750800Y-71502920D02*
X92500800Y-71502920D01*
X128750800Y-42002920D02*
X92500800Y-42002920D01*
X90000800Y-101002920D02*
X53750800Y-101002920D01*
X90000800Y-71502920D02*
X53750800Y-71502920D01*
X90000800Y-42002920D02*
X53750800Y-42002920D01*
X51250800Y-101002920D02*
X15000800Y-101002920D01*
X51250800Y-71502920D02*
X15000800Y-71502920D01*
X167500800Y-74002920D02*
X167500800Y-101002920D01*
X167500800Y-44502920D02*
X167500800Y-71502920D01*
X167500800Y-15002920D02*
X167500800Y-42002920D01*
X128750800Y-74002920D02*
X128750800Y-101002920D01*
X128750800Y-44502920D02*
X128750800Y-71502920D01*
X128750800Y-15002920D02*
X128750800Y-42002920D01*
X90000800Y-74002920D02*
X90000800Y-101002920D01*
X90000800Y-44502920D02*
X90000800Y-71502920D01*
X90000800Y-15002920D02*
X90000800Y-42002920D01*
X51250800Y-74002920D02*
X51250800Y-101002920D01*
X51250800Y-44502920D02*
X51250800Y-71502920D01*
X131250800Y-101002920D02*
X131250800Y-74002920D01*
X131250800Y-71502920D02*
X131250800Y-44502920D01*
X131250800Y-42002920D02*
X131250800Y-15002920D01*
X92500800Y-101002920D02*
X92500800Y-74002920D01*
X92500800Y-71502920D02*
X92500800Y-44502920D01*
X92500800Y-42002920D02*
X92500800Y-15002920D01*
X53750800Y-101002920D02*
X53750800Y-74002920D01*
X53750800Y-71502920D02*
X53750800Y-44502920D01*
X53750800Y-42002920D02*
X53750800Y-15002920D01*
X15000800Y-101002920D02*
X15000800Y-74002920D01*
X15000800Y-71502920D02*
X15000800Y-44502920D01*
X167500800Y-74002920D02*
X131250800Y-74002920D01*
X167500800Y-44502920D02*
X131250800Y-44502920D01*
X167500800Y-15002920D02*
X131250800Y-15002920D01*
X128750800Y-74002920D02*
X92500800Y-74002920D01*
X128750800Y-44502920D02*
X92500800Y-44502920D01*
X128750800Y-15002920D02*
X92500800Y-15002920D01*
X90000800Y-74002920D02*
X53750800Y-74002920D01*
X90000800Y-44502920D02*
X53750800Y-44502920D01*
X90000800Y-15002920D02*
X53750800Y-15002920D01*
X51250800Y-74002920D02*
X15000800Y-74002920D01*
X51250800Y-44502920D02*
X15000800Y-44502920D01*
X51250800Y-15002920D02*
X15000800Y-15002920D01*
X51250800Y-42002920D02*
X15000800Y-42002920D01*
X51250800Y-15002920D02*
X51250800Y-42002920D01*
X15000800Y-42002920D02*
X15000800Y-15002920D01*
D12*
X149156800Y-76000920D02*
X145856800Y-76000920D01*
X145856800Y-76000920D02*
X145856800Y-80600920D01*
X145856800Y-80600920D02*
X149156800Y-80600920D01*
X149156800Y-80600920D02*
X149156800Y-76000920D01*
X149156800Y-46500920D02*
X145856800Y-46500920D01*
X145856800Y-46500920D02*
X145856800Y-51100920D01*
X145856800Y-51100920D02*
X149156800Y-51100920D01*
X149156800Y-51100920D02*
X149156800Y-46500920D01*
X149156800Y-17000920D02*
X145856800Y-17000920D01*
X145856800Y-17000920D02*
X145856800Y-21600920D01*
X145856800Y-21600920D02*
X149156800Y-21600920D01*
X149156800Y-21600920D02*
X149156800Y-17000920D01*
X110406800Y-76000920D02*
X107106800Y-76000920D01*
X107106800Y-76000920D02*
X107106800Y-80600920D01*
X107106800Y-80600920D02*
X110406800Y-80600920D01*
X110406800Y-80600920D02*
X110406800Y-76000920D01*
X110406800Y-46500920D02*
X107106800Y-46500920D01*
X107106800Y-46500920D02*
X107106800Y-51100920D01*
X107106800Y-51100920D02*
X110406800Y-51100920D01*
X110406800Y-51100920D02*
X110406800Y-46500920D01*
X110406800Y-17000920D02*
X107106800Y-17000920D01*
X107106800Y-17000920D02*
X107106800Y-21600920D01*
X107106800Y-21600920D02*
X110406800Y-21600920D01*
X110406800Y-21600920D02*
X110406800Y-17000920D01*
X71656800Y-76000920D02*
X68356800Y-76000920D01*
X68356800Y-76000920D02*
X68356800Y-80600920D01*
X68356800Y-80600920D02*
X71656800Y-80600920D01*
X71656800Y-80600920D02*
X71656800Y-76000920D01*
X71656800Y-46500920D02*
X68356800Y-46500920D01*
X68356800Y-46500920D02*
X68356800Y-51100920D01*
X68356800Y-51100920D02*
X71656800Y-51100920D01*
X71656800Y-51100920D02*
X71656800Y-46500920D01*
X71656800Y-17000920D02*
X68356800Y-17000920D01*
X68356800Y-17000920D02*
X68356800Y-21600920D01*
X68356800Y-21600920D02*
X71656800Y-21600920D01*
X71656800Y-21600920D02*
X71656800Y-17000920D01*
X32906800Y-76000920D02*
X29606800Y-76000920D01*
X29606800Y-76000920D02*
X29606800Y-80600920D01*
X29606800Y-80600920D02*
X32906800Y-80600920D01*
X32906800Y-80600920D02*
X32906800Y-76000920D01*
X32906800Y-46500920D02*
X29606800Y-46500920D01*
X29606800Y-46500920D02*
X29606800Y-51100920D01*
X29606800Y-51100920D02*
X32906800Y-51100920D01*
X32906800Y-51100920D02*
X32906800Y-46500920D01*
X142477800Y-87032920D02*
X145677800Y-87032920D01*
X145677800Y-87032920D02*
X145677800Y-81782920D01*
X145677800Y-81782920D02*
X142477800Y-81782920D01*
X142477800Y-81782920D02*
X142477800Y-87032920D01*
X142477800Y-57532920D02*
X145677800Y-57532920D01*
X145677800Y-57532920D02*
X145677800Y-52282920D01*
X145677800Y-52282920D02*
X142477800Y-52282920D01*
X142477800Y-52282920D02*
X142477800Y-57532920D01*
X142477800Y-28032920D02*
X145677800Y-28032920D01*
X145677800Y-28032920D02*
X145677800Y-22782920D01*
X145677800Y-22782920D02*
X142477800Y-22782920D01*
X142477800Y-22782920D02*
X142477800Y-28032920D01*
X103727800Y-87032920D02*
X106927800Y-87032920D01*
X106927800Y-87032920D02*
X106927800Y-81782920D01*
X106927800Y-81782920D02*
X103727800Y-81782920D01*
X103727800Y-81782920D02*
X103727800Y-87032920D01*
X103727800Y-57532920D02*
X106927800Y-57532920D01*
X106927800Y-57532920D02*
X106927800Y-52282920D01*
X106927800Y-52282920D02*
X103727800Y-52282920D01*
X103727800Y-52282920D02*
X103727800Y-57532920D01*
X103727800Y-28032920D02*
X106927800Y-28032920D01*
X106927800Y-28032920D02*
X106927800Y-22782920D01*
X106927800Y-22782920D02*
X103727800Y-22782920D01*
X103727800Y-22782920D02*
X103727800Y-28032920D01*
X64977800Y-87032920D02*
X68177800Y-87032920D01*
X68177800Y-87032920D02*
X68177800Y-81782920D01*
X68177800Y-81782920D02*
X64977800Y-81782920D01*
X64977800Y-81782920D02*
X64977800Y-87032920D01*
X64977800Y-57532920D02*
X68177800Y-57532920D01*
X68177800Y-57532920D02*
X68177800Y-52282920D01*
X68177800Y-52282920D02*
X64977800Y-52282920D01*
X64977800Y-52282920D02*
X64977800Y-57532920D01*
X64977800Y-28032920D02*
X68177800Y-28032920D01*
X68177800Y-28032920D02*
X68177800Y-22782920D01*
X68177800Y-22782920D02*
X64977800Y-22782920D01*
X64977800Y-22782920D02*
X64977800Y-28032920D01*
X26227800Y-87032920D02*
X29427800Y-87032920D01*
X29427800Y-87032920D02*
X29427800Y-81782920D01*
X29427800Y-81782920D02*
X26227800Y-81782920D01*
X26227800Y-81782920D02*
X26227800Y-87032920D01*
X26227800Y-57532920D02*
X29427800Y-57532920D01*
X29427800Y-57532920D02*
X29427800Y-52282920D01*
X29427800Y-52282920D02*
X26227800Y-52282920D01*
X26227800Y-52282920D02*
X26227800Y-57532920D01*
X142604800Y-81190920D02*
X145804800Y-81190920D01*
X145804800Y-81190920D02*
X145804800Y-75940920D01*
X145804800Y-75940920D02*
X142604800Y-75940920D01*
X142604800Y-75940920D02*
X142604800Y-81190920D01*
X142604800Y-51690920D02*
X145804800Y-51690920D01*
X145804800Y-51690920D02*
X145804800Y-46440920D01*
X145804800Y-46440920D02*
X142604800Y-46440920D01*
X142604800Y-46440920D02*
X142604800Y-51690920D01*
X142604800Y-22190920D02*
X145804800Y-22190920D01*
X145804800Y-22190920D02*
X145804800Y-16940920D01*
X145804800Y-16940920D02*
X142604800Y-16940920D01*
X142604800Y-16940920D02*
X142604800Y-22190920D01*
X103854800Y-81190920D02*
X107054800Y-81190920D01*
X107054800Y-81190920D02*
X107054800Y-75940920D01*
X107054800Y-75940920D02*
X103854800Y-75940920D01*
X103854800Y-75940920D02*
X103854800Y-81190920D01*
X103854800Y-51690920D02*
X107054800Y-51690920D01*
X107054800Y-51690920D02*
X107054800Y-46440920D01*
X107054800Y-46440920D02*
X103854800Y-46440920D01*
X103854800Y-46440920D02*
X103854800Y-51690920D01*
X103854800Y-22190920D02*
X107054800Y-22190920D01*
X107054800Y-22190920D02*
X107054800Y-16940920D01*
X107054800Y-16940920D02*
X103854800Y-16940920D01*
X103854800Y-16940920D02*
X103854800Y-22190920D01*
X65104800Y-81190920D02*
X68304800Y-81190920D01*
X68304800Y-81190920D02*
X68304800Y-75940920D01*
X68304800Y-75940920D02*
X65104800Y-75940920D01*
X65104800Y-75940920D02*
X65104800Y-81190920D01*
X65104800Y-51690920D02*
X68304800Y-51690920D01*
X68304800Y-51690920D02*
X68304800Y-46440920D01*
X68304800Y-46440920D02*
X65104800Y-46440920D01*
X65104800Y-46440920D02*
X65104800Y-51690920D01*
X65104800Y-22190920D02*
X68304800Y-22190920D01*
X68304800Y-22190920D02*
X68304800Y-16940920D01*
X68304800Y-16940920D02*
X65104800Y-16940920D01*
X65104800Y-16940920D02*
X65104800Y-22190920D01*
X26354800Y-81190920D02*
X29554800Y-81190920D01*
X29554800Y-81190920D02*
X29554800Y-75940920D01*
X29554800Y-75940920D02*
X26354800Y-75940920D01*
X26354800Y-75940920D02*
X26354800Y-81190920D01*
X26354800Y-51690920D02*
X29554800Y-51690920D01*
X29554800Y-51690920D02*
X29554800Y-46440920D01*
X29554800Y-46440920D02*
X26354800Y-46440920D01*
X26354800Y-46440920D02*
X26354800Y-51690920D01*
X139252800Y-80640920D02*
X142552800Y-80640920D01*
X142552800Y-80640920D02*
X142552800Y-76040920D01*
X142552800Y-76040920D02*
X139252800Y-76040920D01*
X139252800Y-76040920D02*
X139252800Y-80640920D01*
X139252800Y-51140920D02*
X142552800Y-51140920D01*
X142552800Y-51140920D02*
X142552800Y-46540920D01*
X142552800Y-46540920D02*
X139252800Y-46540920D01*
X139252800Y-46540920D02*
X139252800Y-51140920D01*
X139252800Y-21640920D02*
X142552800Y-21640920D01*
X142552800Y-21640920D02*
X142552800Y-17040920D01*
X142552800Y-17040920D02*
X139252800Y-17040920D01*
X139252800Y-17040920D02*
X139252800Y-21640920D01*
X100502800Y-80640920D02*
X103802800Y-80640920D01*
X103802800Y-80640920D02*
X103802800Y-76040920D01*
X103802800Y-76040920D02*
X100502800Y-76040920D01*
X100502800Y-76040920D02*
X100502800Y-80640920D01*
X100502800Y-51140920D02*
X103802800Y-51140920D01*
X103802800Y-51140920D02*
X103802800Y-46540920D01*
X103802800Y-46540920D02*
X100502800Y-46540920D01*
X100502800Y-46540920D02*
X100502800Y-51140920D01*
X100502800Y-21640920D02*
X103802800Y-21640920D01*
X103802800Y-21640920D02*
X103802800Y-17040920D01*
X103802800Y-17040920D02*
X100502800Y-17040920D01*
X100502800Y-17040920D02*
X100502800Y-21640920D01*
X61752800Y-80640920D02*
X65052800Y-80640920D01*
X65052800Y-80640920D02*
X65052800Y-76040920D01*
X65052800Y-76040920D02*
X61752800Y-76040920D01*
X61752800Y-76040920D02*
X61752800Y-80640920D01*
X61752800Y-51140920D02*
X65052800Y-51140920D01*
X65052800Y-51140920D02*
X65052800Y-46540920D01*
X65052800Y-46540920D02*
X61752800Y-46540920D01*
X61752800Y-46540920D02*
X61752800Y-51140920D01*
X61752800Y-21640920D02*
X65052800Y-21640920D01*
X65052800Y-21640920D02*
X65052800Y-17040920D01*
X65052800Y-17040920D02*
X61752800Y-17040920D01*
X61752800Y-17040920D02*
X61752800Y-21640920D01*
X23002800Y-80640920D02*
X26302800Y-80640920D01*
X26302800Y-80640920D02*
X26302800Y-76040920D01*
X26302800Y-76040920D02*
X23002800Y-76040920D01*
X23002800Y-76040920D02*
X23002800Y-80640920D01*
X23002800Y-51140920D02*
X26302800Y-51140920D01*
X26302800Y-51140920D02*
X26302800Y-46540920D01*
X26302800Y-46540920D02*
X23002800Y-46540920D01*
X23002800Y-46540920D02*
X23002800Y-51140920D01*
X132698800Y-87032920D02*
X135898800Y-87032920D01*
X135898800Y-87032920D02*
X135898800Y-81782920D01*
X135898800Y-81782920D02*
X132698800Y-81782920D01*
X132698800Y-81782920D02*
X132698800Y-87032920D01*
X132698800Y-57532920D02*
X135898800Y-57532920D01*
X135898800Y-57532920D02*
X135898800Y-52282920D01*
X135898800Y-52282920D02*
X132698800Y-52282920D01*
X132698800Y-52282920D02*
X132698800Y-57532920D01*
X132698800Y-28032920D02*
X135898800Y-28032920D01*
X135898800Y-28032920D02*
X135898800Y-22782920D01*
X135898800Y-22782920D02*
X132698800Y-22782920D01*
X132698800Y-22782920D02*
X132698800Y-28032920D01*
X93948800Y-87032920D02*
X97148800Y-87032920D01*
X97148800Y-87032920D02*
X97148800Y-81782920D01*
X97148800Y-81782920D02*
X93948800Y-81782920D01*
X93948800Y-81782920D02*
X93948800Y-87032920D01*
X93948800Y-57532920D02*
X97148800Y-57532920D01*
X97148800Y-57532920D02*
X97148800Y-52282920D01*
X97148800Y-52282920D02*
X93948800Y-52282920D01*
X93948800Y-52282920D02*
X93948800Y-57532920D01*
X93948800Y-28032920D02*
X97148800Y-28032920D01*
X97148800Y-28032920D02*
X97148800Y-22782920D01*
X97148800Y-22782920D02*
X93948800Y-22782920D01*
X93948800Y-22782920D02*
X93948800Y-28032920D01*
X55198800Y-87032920D02*
X58398800Y-87032920D01*
X58398800Y-87032920D02*
X58398800Y-81782920D01*
X58398800Y-81782920D02*
X55198800Y-81782920D01*
X55198800Y-81782920D02*
X55198800Y-87032920D01*
X55198800Y-57532920D02*
X58398800Y-57532920D01*
X58398800Y-57532920D02*
X58398800Y-52282920D01*
X58398800Y-52282920D02*
X55198800Y-52282920D01*
X55198800Y-52282920D02*
X55198800Y-57532920D01*
X55198800Y-28032920D02*
X58398800Y-28032920D01*
X58398800Y-28032920D02*
X58398800Y-22782920D01*
X58398800Y-22782920D02*
X55198800Y-22782920D01*
X55198800Y-22782920D02*
X55198800Y-28032920D01*
X16448800Y-87032920D02*
X19648800Y-87032920D01*
X19648800Y-87032920D02*
X19648800Y-81782920D01*
X19648800Y-81782920D02*
X16448800Y-81782920D01*
X16448800Y-81782920D02*
X16448800Y-87032920D01*
X16448800Y-57532920D02*
X19648800Y-57532920D01*
X19648800Y-57532920D02*
X19648800Y-52282920D01*
X19648800Y-52282920D02*
X16448800Y-52282920D01*
X16448800Y-52282920D02*
X16448800Y-57532920D01*
X132698800Y-81698920D02*
X135898800Y-81698920D01*
X135898800Y-81698920D02*
X135898800Y-75998920D01*
X135898800Y-75998920D02*
X132698800Y-75998920D01*
X132698800Y-75998920D02*
X132698800Y-81698920D01*
X132698800Y-52198920D02*
X135898800Y-52198920D01*
X135898800Y-52198920D02*
X135898800Y-46498920D01*
X135898800Y-46498920D02*
X132698800Y-46498920D01*
X132698800Y-46498920D02*
X132698800Y-52198920D01*
X132698800Y-22698920D02*
X135898800Y-22698920D01*
X135898800Y-22698920D02*
X135898800Y-16998920D01*
X135898800Y-16998920D02*
X132698800Y-16998920D01*
X132698800Y-16998920D02*
X132698800Y-22698920D01*
X93948800Y-81698920D02*
X97148800Y-81698920D01*
X97148800Y-81698920D02*
X97148800Y-75998920D01*
X97148800Y-75998920D02*
X93948800Y-75998920D01*
X93948800Y-75998920D02*
X93948800Y-81698920D01*
X93948800Y-52198920D02*
X97148800Y-52198920D01*
X97148800Y-52198920D02*
X97148800Y-46498920D01*
X97148800Y-46498920D02*
X93948800Y-46498920D01*
X93948800Y-46498920D02*
X93948800Y-52198920D01*
X93948800Y-22698920D02*
X97148800Y-22698920D01*
X97148800Y-22698920D02*
X97148800Y-16998920D01*
X97148800Y-16998920D02*
X93948800Y-16998920D01*
X93948800Y-16998920D02*
X93948800Y-22698920D01*
X55198800Y-81698920D02*
X58398800Y-81698920D01*
X58398800Y-81698920D02*
X58398800Y-75998920D01*
X58398800Y-75998920D02*
X55198800Y-75998920D01*
X55198800Y-75998920D02*
X55198800Y-81698920D01*
X55198800Y-52198920D02*
X58398800Y-52198920D01*
X58398800Y-52198920D02*
X58398800Y-46498920D01*
X58398800Y-46498920D02*
X55198800Y-46498920D01*
X55198800Y-46498920D02*
X55198800Y-52198920D01*
X55198800Y-22698920D02*
X58398800Y-22698920D01*
X58398800Y-22698920D02*
X58398800Y-16998920D01*
X58398800Y-16998920D02*
X55198800Y-16998920D01*
X55198800Y-16998920D02*
X55198800Y-22698920D01*
X16448800Y-81698920D02*
X19648800Y-81698920D01*
X19648800Y-81698920D02*
X19648800Y-75998920D01*
X19648800Y-75998920D02*
X16448800Y-75998920D01*
X16448800Y-75998920D02*
X16448800Y-81698920D01*
X16448800Y-52198920D02*
X19648800Y-52198920D01*
X19648800Y-52198920D02*
X19648800Y-46498920D01*
X19648800Y-46498920D02*
X16448800Y-46498920D01*
X16448800Y-46498920D02*
X16448800Y-52198920D01*
X139200800Y-75958920D02*
X136000800Y-75958920D01*
X136000800Y-75958920D02*
X136000800Y-81208920D01*
X136000800Y-81208920D02*
X139200800Y-81208920D01*
X139200800Y-81208920D02*
X139200800Y-75958920D01*
X139200800Y-46458920D02*
X136000800Y-46458920D01*
X136000800Y-46458920D02*
X136000800Y-51708920D01*
X136000800Y-51708920D02*
X139200800Y-51708920D01*
X139200800Y-51708920D02*
X139200800Y-46458920D01*
X139200800Y-16958920D02*
X136000800Y-16958920D01*
X136000800Y-16958920D02*
X136000800Y-22208920D01*
X136000800Y-22208920D02*
X139200800Y-22208920D01*
X139200800Y-22208920D02*
X139200800Y-16958920D01*
X100450800Y-75958920D02*
X97250800Y-75958920D01*
X97250800Y-75958920D02*
X97250800Y-81208920D01*
X97250800Y-81208920D02*
X100450800Y-81208920D01*
X100450800Y-81208920D02*
X100450800Y-75958920D01*
X100450800Y-46458920D02*
X97250800Y-46458920D01*
X97250800Y-46458920D02*
X97250800Y-51708920D01*
X97250800Y-51708920D02*
X100450800Y-51708920D01*
X100450800Y-51708920D02*
X100450800Y-46458920D01*
X100450800Y-16958920D02*
X97250800Y-16958920D01*
X97250800Y-16958920D02*
X97250800Y-22208920D01*
X97250800Y-22208920D02*
X100450800Y-22208920D01*
X100450800Y-22208920D02*
X100450800Y-16958920D01*
X61700800Y-75958920D02*
X58500800Y-75958920D01*
X58500800Y-75958920D02*
X58500800Y-81208920D01*
X58500800Y-81208920D02*
X61700800Y-81208920D01*
X61700800Y-81208920D02*
X61700800Y-75958920D01*
X61700800Y-46458920D02*
X58500800Y-46458920D01*
X58500800Y-46458920D02*
X58500800Y-51708920D01*
X58500800Y-51708920D02*
X61700800Y-51708920D01*
X61700800Y-51708920D02*
X61700800Y-46458920D01*
X61700800Y-16958920D02*
X58500800Y-16958920D01*
X58500800Y-16958920D02*
X58500800Y-22208920D01*
X58500800Y-22208920D02*
X61700800Y-22208920D01*
X61700800Y-22208920D02*
X61700800Y-16958920D01*
X22950800Y-75958920D02*
X19750800Y-75958920D01*
X19750800Y-75958920D02*
X19750800Y-81208920D01*
X19750800Y-81208920D02*
X22950800Y-81208920D01*
X22950800Y-81208920D02*
X22950800Y-75958920D01*
X22950800Y-46458920D02*
X19750800Y-46458920D01*
X19750800Y-46458920D02*
X19750800Y-51708920D01*
X19750800Y-51708920D02*
X22950800Y-51708920D01*
X22950800Y-51708920D02*
X22950800Y-46458920D01*
X139200800Y-81292920D02*
X136000800Y-81292920D01*
X136000800Y-81292920D02*
X136000800Y-86542920D01*
X136000800Y-86542920D02*
X139200800Y-86542920D01*
X139200800Y-86542920D02*
X139200800Y-81292920D01*
X139200800Y-51792920D02*
X136000800Y-51792920D01*
X136000800Y-51792920D02*
X136000800Y-57042920D01*
X136000800Y-57042920D02*
X139200800Y-57042920D01*
X139200800Y-57042920D02*
X139200800Y-51792920D01*
X139200800Y-22292920D02*
X136000800Y-22292920D01*
X136000800Y-22292920D02*
X136000800Y-27542920D01*
X136000800Y-27542920D02*
X139200800Y-27542920D01*
X139200800Y-27542920D02*
X139200800Y-22292920D01*
X100450800Y-81292920D02*
X97250800Y-81292920D01*
X97250800Y-81292920D02*
X97250800Y-86542920D01*
X97250800Y-86542920D02*
X100450800Y-86542920D01*
X100450800Y-86542920D02*
X100450800Y-81292920D01*
X100450800Y-51792920D02*
X97250800Y-51792920D01*
X97250800Y-51792920D02*
X97250800Y-57042920D01*
X97250800Y-57042920D02*
X100450800Y-57042920D01*
X100450800Y-57042920D02*
X100450800Y-51792920D01*
X100450800Y-22292920D02*
X97250800Y-22292920D01*
X97250800Y-22292920D02*
X97250800Y-27542920D01*
X97250800Y-27542920D02*
X100450800Y-27542920D01*
X100450800Y-27542920D02*
X100450800Y-22292920D01*
X61700800Y-81292920D02*
X58500800Y-81292920D01*
X58500800Y-81292920D02*
X58500800Y-86542920D01*
X58500800Y-86542920D02*
X61700800Y-86542920D01*
X61700800Y-86542920D02*
X61700800Y-81292920D01*
X61700800Y-51792920D02*
X58500800Y-51792920D01*
X58500800Y-51792920D02*
X58500800Y-57042920D01*
X58500800Y-57042920D02*
X61700800Y-57042920D01*
X61700800Y-57042920D02*
X61700800Y-51792920D01*
X61700800Y-22292920D02*
X58500800Y-22292920D01*
X58500800Y-22292920D02*
X58500800Y-27542920D01*
X58500800Y-27542920D02*
X61700800Y-27542920D01*
X61700800Y-27542920D02*
X61700800Y-22292920D01*
X22950800Y-81292920D02*
X19750800Y-81292920D01*
X19750800Y-81292920D02*
X19750800Y-86542920D01*
X19750800Y-86542920D02*
X22950800Y-86542920D01*
X22950800Y-86542920D02*
X22950800Y-81292920D01*
X22950800Y-51792920D02*
X19750800Y-51792920D01*
X19750800Y-51792920D02*
X19750800Y-57042920D01*
X19750800Y-57042920D02*
X22950800Y-57042920D01*
X22950800Y-57042920D02*
X22950800Y-51792920D01*
X142502800Y-81292920D02*
X139302800Y-81292920D01*
X139302800Y-81292920D02*
X139302800Y-86542920D01*
X139302800Y-86542920D02*
X142502800Y-86542920D01*
X142502800Y-86542920D02*
X142502800Y-81292920D01*
X142502800Y-51792920D02*
X139302800Y-51792920D01*
X139302800Y-51792920D02*
X139302800Y-57042920D01*
X139302800Y-57042920D02*
X142502800Y-57042920D01*
X142502800Y-57042920D02*
X142502800Y-51792920D01*
X142502800Y-22292920D02*
X139302800Y-22292920D01*
X139302800Y-22292920D02*
X139302800Y-27542920D01*
X139302800Y-27542920D02*
X142502800Y-27542920D01*
X142502800Y-27542920D02*
X142502800Y-22292920D01*
X103752800Y-81292920D02*
X100552800Y-81292920D01*
X100552800Y-81292920D02*
X100552800Y-86542920D01*
X100552800Y-86542920D02*
X103752800Y-86542920D01*
X103752800Y-86542920D02*
X103752800Y-81292920D01*
X103752800Y-51792920D02*
X100552800Y-51792920D01*
X100552800Y-51792920D02*
X100552800Y-57042920D01*
X100552800Y-57042920D02*
X103752800Y-57042920D01*
X103752800Y-57042920D02*
X103752800Y-51792920D01*
X103752800Y-22292920D02*
X100552800Y-22292920D01*
X100552800Y-22292920D02*
X100552800Y-27542920D01*
X100552800Y-27542920D02*
X103752800Y-27542920D01*
X103752800Y-27542920D02*
X103752800Y-22292920D01*
X65002800Y-81292920D02*
X61802800Y-81292920D01*
X61802800Y-81292920D02*
X61802800Y-86542920D01*
X61802800Y-86542920D02*
X65002800Y-86542920D01*
X65002800Y-86542920D02*
X65002800Y-81292920D01*
X65002800Y-51792920D02*
X61802800Y-51792920D01*
X61802800Y-51792920D02*
X61802800Y-57042920D01*
X61802800Y-57042920D02*
X65002800Y-57042920D01*
X65002800Y-57042920D02*
X65002800Y-51792920D01*
X65002800Y-22292920D02*
X61802800Y-22292920D01*
X61802800Y-22292920D02*
X61802800Y-27542920D01*
X61802800Y-27542920D02*
X65002800Y-27542920D01*
X65002800Y-27542920D02*
X65002800Y-22292920D01*
X26252800Y-81292920D02*
X23052800Y-81292920D01*
X23052800Y-81292920D02*
X23052800Y-86542920D01*
X23052800Y-86542920D02*
X26252800Y-86542920D01*
X26252800Y-86542920D02*
X26252800Y-81292920D01*
X26252800Y-51792920D02*
X23052800Y-51792920D01*
X23052800Y-51792920D02*
X23052800Y-57042920D01*
X23052800Y-57042920D02*
X26252800Y-57042920D01*
X26252800Y-57042920D02*
X26252800Y-51792920D01*
X155685800Y-99986920D02*
X158885800Y-99986920D01*
X158885800Y-99986920D02*
X158885800Y-94736920D01*
X158885800Y-94736920D02*
X155685800Y-94736920D01*
X155685800Y-94736920D02*
X155685800Y-99986920D01*
X155685800Y-70486920D02*
X158885800Y-70486920D01*
X158885800Y-70486920D02*
X158885800Y-65236920D01*
X158885800Y-65236920D02*
X155685800Y-65236920D01*
X155685800Y-65236920D02*
X155685800Y-70486920D01*
X155685800Y-40986920D02*
X158885800Y-40986920D01*
X158885800Y-40986920D02*
X158885800Y-35736920D01*
X158885800Y-35736920D02*
X155685800Y-35736920D01*
X155685800Y-35736920D02*
X155685800Y-40986920D01*
X116935800Y-99986920D02*
X120135800Y-99986920D01*
X120135800Y-99986920D02*
X120135800Y-94736920D01*
X120135800Y-94736920D02*
X116935800Y-94736920D01*
X116935800Y-94736920D02*
X116935800Y-99986920D01*
X116935800Y-70486920D02*
X120135800Y-70486920D01*
X120135800Y-70486920D02*
X120135800Y-65236920D01*
X120135800Y-65236920D02*
X116935800Y-65236920D01*
X116935800Y-65236920D02*
X116935800Y-70486920D01*
X116935800Y-40986920D02*
X120135800Y-40986920D01*
X120135800Y-40986920D02*
X120135800Y-35736920D01*
X120135800Y-35736920D02*
X116935800Y-35736920D01*
X116935800Y-35736920D02*
X116935800Y-40986920D01*
X78185800Y-99986920D02*
X81385800Y-99986920D01*
X81385800Y-99986920D02*
X81385800Y-94736920D01*
X81385800Y-94736920D02*
X78185800Y-94736920D01*
X78185800Y-94736920D02*
X78185800Y-99986920D01*
X78185800Y-70486920D02*
X81385800Y-70486920D01*
X81385800Y-70486920D02*
X81385800Y-65236920D01*
X81385800Y-65236920D02*
X78185800Y-65236920D01*
X78185800Y-65236920D02*
X78185800Y-70486920D01*
X78185800Y-40986920D02*
X81385800Y-40986920D01*
X81385800Y-40986920D02*
X81385800Y-35736920D01*
X81385800Y-35736920D02*
X78185800Y-35736920D01*
X78185800Y-35736920D02*
X78185800Y-40986920D01*
X39435800Y-99986920D02*
X42635800Y-99986920D01*
X42635800Y-99986920D02*
X42635800Y-94736920D01*
X42635800Y-94736920D02*
X39435800Y-94736920D01*
X39435800Y-94736920D02*
X39435800Y-99986920D01*
X39435800Y-70486920D02*
X42635800Y-70486920D01*
X42635800Y-70486920D02*
X42635800Y-65236920D01*
X42635800Y-65236920D02*
X39435800Y-65236920D01*
X39435800Y-65236920D02*
X39435800Y-70486920D01*
X158860800Y-94779920D02*
X162060800Y-94779920D01*
X162060800Y-94779920D02*
X162060800Y-89529920D01*
X162060800Y-89529920D02*
X158860800Y-89529920D01*
X158860800Y-89529920D02*
X158860800Y-94779920D01*
X158860800Y-65279920D02*
X162060800Y-65279920D01*
X162060800Y-65279920D02*
X162060800Y-60029920D01*
X162060800Y-60029920D02*
X158860800Y-60029920D01*
X158860800Y-60029920D02*
X158860800Y-65279920D01*
X158860800Y-35779920D02*
X162060800Y-35779920D01*
X162060800Y-35779920D02*
X162060800Y-30529920D01*
X162060800Y-30529920D02*
X158860800Y-30529920D01*
X158860800Y-30529920D02*
X158860800Y-35779920D01*
X120110800Y-94779920D02*
X123310800Y-94779920D01*
X123310800Y-94779920D02*
X123310800Y-89529920D01*
X123310800Y-89529920D02*
X120110800Y-89529920D01*
X120110800Y-89529920D02*
X120110800Y-94779920D01*
X120110800Y-65279920D02*
X123310800Y-65279920D01*
X123310800Y-65279920D02*
X123310800Y-60029920D01*
X123310800Y-60029920D02*
X120110800Y-60029920D01*
X120110800Y-60029920D02*
X120110800Y-65279920D01*
X120110800Y-35779920D02*
X123310800Y-35779920D01*
X123310800Y-35779920D02*
X123310800Y-30529920D01*
X123310800Y-30529920D02*
X120110800Y-30529920D01*
X120110800Y-30529920D02*
X120110800Y-35779920D01*
X81360800Y-94779920D02*
X84560800Y-94779920D01*
X84560800Y-94779920D02*
X84560800Y-89529920D01*
X84560800Y-89529920D02*
X81360800Y-89529920D01*
X81360800Y-89529920D02*
X81360800Y-94779920D01*
X81360800Y-65279920D02*
X84560800Y-65279920D01*
X84560800Y-65279920D02*
X84560800Y-60029920D01*
X84560800Y-60029920D02*
X81360800Y-60029920D01*
X81360800Y-60029920D02*
X81360800Y-65279920D01*
X81360800Y-35779920D02*
X84560800Y-35779920D01*
X84560800Y-35779920D02*
X84560800Y-30529920D01*
X84560800Y-30529920D02*
X81360800Y-30529920D01*
X81360800Y-30529920D02*
X81360800Y-35779920D01*
X42610800Y-94779920D02*
X45810800Y-94779920D01*
X45810800Y-94779920D02*
X45810800Y-89529920D01*
X45810800Y-89529920D02*
X42610800Y-89529920D01*
X42610800Y-89529920D02*
X42610800Y-94779920D01*
X42610800Y-65279920D02*
X45810800Y-65279920D01*
X45810800Y-65279920D02*
X45810800Y-60029920D01*
X45810800Y-60029920D02*
X42610800Y-60029920D01*
X42610800Y-60029920D02*
X42610800Y-65279920D01*
X162237800Y-94796920D02*
X158937800Y-94796920D01*
X158937800Y-94796920D02*
X158937800Y-99396920D01*
X158937800Y-99396920D02*
X162237800Y-99396920D01*
X162237800Y-99396920D02*
X162237800Y-94796920D01*
X162237800Y-65296920D02*
X158937800Y-65296920D01*
X158937800Y-65296920D02*
X158937800Y-69896920D01*
X158937800Y-69896920D02*
X162237800Y-69896920D01*
X162237800Y-69896920D02*
X162237800Y-65296920D01*
X162237800Y-35796920D02*
X158937800Y-35796920D01*
X158937800Y-35796920D02*
X158937800Y-40396920D01*
X158937800Y-40396920D02*
X162237800Y-40396920D01*
X162237800Y-40396920D02*
X162237800Y-35796920D01*
X123487800Y-94796920D02*
X120187800Y-94796920D01*
X120187800Y-94796920D02*
X120187800Y-99396920D01*
X120187800Y-99396920D02*
X123487800Y-99396920D01*
X123487800Y-99396920D02*
X123487800Y-94796920D01*
X123487800Y-65296920D02*
X120187800Y-65296920D01*
X120187800Y-65296920D02*
X120187800Y-69896920D01*
X120187800Y-69896920D02*
X123487800Y-69896920D01*
X123487800Y-69896920D02*
X123487800Y-65296920D01*
X123487800Y-35796920D02*
X120187800Y-35796920D01*
X120187800Y-35796920D02*
X120187800Y-40396920D01*
X120187800Y-40396920D02*
X123487800Y-40396920D01*
X123487800Y-40396920D02*
X123487800Y-35796920D01*
X84737800Y-94796920D02*
X81437800Y-94796920D01*
X81437800Y-94796920D02*
X81437800Y-99396920D01*
X81437800Y-99396920D02*
X84737800Y-99396920D01*
X84737800Y-99396920D02*
X84737800Y-94796920D01*
X84737800Y-65296920D02*
X81437800Y-65296920D01*
X81437800Y-65296920D02*
X81437800Y-69896920D01*
X81437800Y-69896920D02*
X84737800Y-69896920D01*
X84737800Y-69896920D02*
X84737800Y-65296920D01*
X84737800Y-35796920D02*
X81437800Y-35796920D01*
X81437800Y-35796920D02*
X81437800Y-40396920D01*
X81437800Y-40396920D02*
X84737800Y-40396920D01*
X84737800Y-40396920D02*
X84737800Y-35796920D01*
X45987800Y-94796920D02*
X42687800Y-94796920D01*
X42687800Y-94796920D02*
X42687800Y-99396920D01*
X42687800Y-99396920D02*
X45987800Y-99396920D01*
X45987800Y-99396920D02*
X45987800Y-94796920D01*
X45987800Y-65296920D02*
X42687800Y-65296920D01*
X42687800Y-65296920D02*
X42687800Y-69896920D01*
X42687800Y-69896920D02*
X45987800Y-69896920D01*
X45987800Y-69896920D02*
X45987800Y-65296920D01*
X155685800Y-94779920D02*
X158885800Y-94779920D01*
X158885800Y-94779920D02*
X158885800Y-89529920D01*
X158885800Y-89529920D02*
X155685800Y-89529920D01*
X155685800Y-89529920D02*
X155685800Y-94779920D01*
X155685800Y-65279920D02*
X158885800Y-65279920D01*
X158885800Y-65279920D02*
X158885800Y-60029920D01*
X158885800Y-60029920D02*
X155685800Y-60029920D01*
X155685800Y-60029920D02*
X155685800Y-65279920D01*
X155685800Y-35779920D02*
X158885800Y-35779920D01*
X158885800Y-35779920D02*
X158885800Y-30529920D01*
X158885800Y-30529920D02*
X155685800Y-30529920D01*
X155685800Y-30529920D02*
X155685800Y-35779920D01*
X116935800Y-94779920D02*
X120135800Y-94779920D01*
X120135800Y-94779920D02*
X120135800Y-89529920D01*
X120135800Y-89529920D02*
X116935800Y-89529920D01*
X116935800Y-89529920D02*
X116935800Y-94779920D01*
X116935800Y-65279920D02*
X120135800Y-65279920D01*
X120135800Y-65279920D02*
X120135800Y-60029920D01*
X120135800Y-60029920D02*
X116935800Y-60029920D01*
X116935800Y-60029920D02*
X116935800Y-65279920D01*
X116935800Y-35779920D02*
X120135800Y-35779920D01*
X120135800Y-35779920D02*
X120135800Y-30529920D01*
X120135800Y-30529920D02*
X116935800Y-30529920D01*
X116935800Y-30529920D02*
X116935800Y-35779920D01*
X78185800Y-94779920D02*
X81385800Y-94779920D01*
X81385800Y-94779920D02*
X81385800Y-89529920D01*
X81385800Y-89529920D02*
X78185800Y-89529920D01*
X78185800Y-89529920D02*
X78185800Y-94779920D01*
X78185800Y-65279920D02*
X81385800Y-65279920D01*
X81385800Y-65279920D02*
X81385800Y-60029920D01*
X81385800Y-60029920D02*
X78185800Y-60029920D01*
X78185800Y-60029920D02*
X78185800Y-65279920D01*
X78185800Y-35779920D02*
X81385800Y-35779920D01*
X81385800Y-35779920D02*
X81385800Y-30529920D01*
X81385800Y-30529920D02*
X78185800Y-30529920D01*
X78185800Y-30529920D02*
X78185800Y-35779920D01*
X39435800Y-94779920D02*
X42635800Y-94779920D01*
X42635800Y-94779920D02*
X42635800Y-89529920D01*
X42635800Y-89529920D02*
X39435800Y-89529920D01*
X39435800Y-89529920D02*
X39435800Y-94779920D01*
X39435800Y-65279920D02*
X42635800Y-65279920D01*
X42635800Y-65279920D02*
X42635800Y-60029920D01*
X42635800Y-60029920D02*
X39435800Y-60029920D01*
X39435800Y-60029920D02*
X39435800Y-65279920D01*
X155600800Y-77813920D02*
X155600800Y-81113920D01*
X155600800Y-81113920D02*
X160200800Y-81113920D01*
X160200800Y-81113920D02*
X160200800Y-77813920D01*
X160200800Y-77813920D02*
X155600800Y-77813920D01*
X155600800Y-48313920D02*
X155600800Y-51613920D01*
X155600800Y-51613920D02*
X160200800Y-51613920D01*
X160200800Y-51613920D02*
X160200800Y-48313920D01*
X160200800Y-48313920D02*
X155600800Y-48313920D01*
X155600800Y-18813920D02*
X155600800Y-22113920D01*
X155600800Y-22113920D02*
X160200800Y-22113920D01*
X160200800Y-22113920D02*
X160200800Y-18813920D01*
X160200800Y-18813920D02*
X155600800Y-18813920D01*
X116850800Y-77813920D02*
X116850800Y-81113920D01*
X116850800Y-81113920D02*
X121450800Y-81113920D01*
X121450800Y-81113920D02*
X121450800Y-77813920D01*
X121450800Y-77813920D02*
X116850800Y-77813920D01*
X116850800Y-48313920D02*
X116850800Y-51613920D01*
X116850800Y-51613920D02*
X121450800Y-51613920D01*
X121450800Y-51613920D02*
X121450800Y-48313920D01*
X121450800Y-48313920D02*
X116850800Y-48313920D01*
X116850800Y-18813920D02*
X116850800Y-22113920D01*
X116850800Y-22113920D02*
X121450800Y-22113920D01*
X121450800Y-22113920D02*
X121450800Y-18813920D01*
X121450800Y-18813920D02*
X116850800Y-18813920D01*
X78100800Y-77813920D02*
X78100800Y-81113920D01*
X78100800Y-81113920D02*
X82700800Y-81113920D01*
X82700800Y-81113920D02*
X82700800Y-77813920D01*
X82700800Y-77813920D02*
X78100800Y-77813920D01*
X78100800Y-48313920D02*
X78100800Y-51613920D01*
X78100800Y-51613920D02*
X82700800Y-51613920D01*
X82700800Y-51613920D02*
X82700800Y-48313920D01*
X82700800Y-48313920D02*
X78100800Y-48313920D01*
X78100800Y-18813920D02*
X78100800Y-22113920D01*
X78100800Y-22113920D02*
X82700800Y-22113920D01*
X82700800Y-22113920D02*
X82700800Y-18813920D01*
X82700800Y-18813920D02*
X78100800Y-18813920D01*
X39350800Y-77813920D02*
X39350800Y-81113920D01*
X39350800Y-81113920D02*
X43950800Y-81113920D01*
X43950800Y-81113920D02*
X43950800Y-77813920D01*
X43950800Y-77813920D02*
X39350800Y-77813920D01*
X39350800Y-48313920D02*
X39350800Y-51613920D01*
X39350800Y-51613920D02*
X43950800Y-51613920D01*
X43950800Y-51613920D02*
X43950800Y-48313920D01*
X43950800Y-48313920D02*
X39350800Y-48313920D01*
X152408800Y-75831920D02*
X149208800Y-75831920D01*
X149208800Y-75831920D02*
X149208800Y-81081920D01*
X149208800Y-81081920D02*
X152408800Y-81081920D01*
X152408800Y-81081920D02*
X152408800Y-75831920D01*
X152408800Y-46331920D02*
X149208800Y-46331920D01*
X149208800Y-46331920D02*
X149208800Y-51581920D01*
X149208800Y-51581920D02*
X152408800Y-51581920D01*
X152408800Y-51581920D02*
X152408800Y-46331920D01*
X152408800Y-16831920D02*
X149208800Y-16831920D01*
X149208800Y-16831920D02*
X149208800Y-22081920D01*
X149208800Y-22081920D02*
X152408800Y-22081920D01*
X152408800Y-22081920D02*
X152408800Y-16831920D01*
X113658800Y-75831920D02*
X110458800Y-75831920D01*
X110458800Y-75831920D02*
X110458800Y-81081920D01*
X110458800Y-81081920D02*
X113658800Y-81081920D01*
X113658800Y-81081920D02*
X113658800Y-75831920D01*
X113658800Y-46331920D02*
X110458800Y-46331920D01*
X110458800Y-46331920D02*
X110458800Y-51581920D01*
X110458800Y-51581920D02*
X113658800Y-51581920D01*
X113658800Y-51581920D02*
X113658800Y-46331920D01*
X113658800Y-16831920D02*
X110458800Y-16831920D01*
X110458800Y-16831920D02*
X110458800Y-22081920D01*
X110458800Y-22081920D02*
X113658800Y-22081920D01*
X113658800Y-22081920D02*
X113658800Y-16831920D01*
X74908800Y-75831920D02*
X71708800Y-75831920D01*
X71708800Y-75831920D02*
X71708800Y-81081920D01*
X71708800Y-81081920D02*
X74908800Y-81081920D01*
X74908800Y-81081920D02*
X74908800Y-75831920D01*
X74908800Y-46331920D02*
X71708800Y-46331920D01*
X71708800Y-46331920D02*
X71708800Y-51581920D01*
X71708800Y-51581920D02*
X74908800Y-51581920D01*
X74908800Y-51581920D02*
X74908800Y-46331920D01*
X74908800Y-16831920D02*
X71708800Y-16831920D01*
X71708800Y-16831920D02*
X71708800Y-22081920D01*
X71708800Y-22081920D02*
X74908800Y-22081920D01*
X74908800Y-22081920D02*
X74908800Y-16831920D01*
X36158800Y-75831920D02*
X32958800Y-75831920D01*
X32958800Y-75831920D02*
X32958800Y-81081920D01*
X32958800Y-81081920D02*
X36158800Y-81081920D01*
X36158800Y-81081920D02*
X36158800Y-75831920D01*
X36158800Y-46331920D02*
X32958800Y-46331920D01*
X32958800Y-46331920D02*
X32958800Y-51581920D01*
X32958800Y-51581920D02*
X36158800Y-51581920D01*
X36158800Y-51581920D02*
X36158800Y-46331920D01*
X160257800Y-77736920D02*
X160257800Y-80936920D01*
X160257800Y-80936920D02*
X165507800Y-80936920D01*
X165507800Y-80936920D02*
X165507800Y-77736920D01*
X165507800Y-77736920D02*
X160257800Y-77736920D01*
X160257800Y-48236920D02*
X160257800Y-51436920D01*
X160257800Y-51436920D02*
X165507800Y-51436920D01*
X165507800Y-51436920D02*
X165507800Y-48236920D01*
X165507800Y-48236920D02*
X160257800Y-48236920D01*
X160257800Y-18736920D02*
X160257800Y-21936920D01*
X160257800Y-21936920D02*
X165507800Y-21936920D01*
X165507800Y-21936920D02*
X165507800Y-18736920D01*
X165507800Y-18736920D02*
X160257800Y-18736920D01*
X121507800Y-77736920D02*
X121507800Y-80936920D01*
X121507800Y-80936920D02*
X126757800Y-80936920D01*
X126757800Y-80936920D02*
X126757800Y-77736920D01*
X126757800Y-77736920D02*
X121507800Y-77736920D01*
X121507800Y-48236920D02*
X121507800Y-51436920D01*
X121507800Y-51436920D02*
X126757800Y-51436920D01*
X126757800Y-51436920D02*
X126757800Y-48236920D01*
X126757800Y-48236920D02*
X121507800Y-48236920D01*
X121507800Y-18736920D02*
X121507800Y-21936920D01*
X121507800Y-21936920D02*
X126757800Y-21936920D01*
X126757800Y-21936920D02*
X126757800Y-18736920D01*
X126757800Y-18736920D02*
X121507800Y-18736920D01*
X82757800Y-77736920D02*
X82757800Y-80936920D01*
X82757800Y-80936920D02*
X88007800Y-80936920D01*
X88007800Y-80936920D02*
X88007800Y-77736920D01*
X88007800Y-77736920D02*
X82757800Y-77736920D01*
X82757800Y-48236920D02*
X82757800Y-51436920D01*
X82757800Y-51436920D02*
X88007800Y-51436920D01*
X88007800Y-51436920D02*
X88007800Y-48236920D01*
X88007800Y-48236920D02*
X82757800Y-48236920D01*
X82757800Y-18736920D02*
X82757800Y-21936920D01*
X82757800Y-21936920D02*
X88007800Y-21936920D01*
X88007800Y-21936920D02*
X88007800Y-18736920D01*
X88007800Y-18736920D02*
X82757800Y-18736920D01*
X44007800Y-77736920D02*
X44007800Y-80936920D01*
X44007800Y-80936920D02*
X49257800Y-80936920D01*
X49257800Y-80936920D02*
X49257800Y-77736920D01*
X49257800Y-77736920D02*
X44007800Y-77736920D01*
X44007800Y-48236920D02*
X44007800Y-51436920D01*
X44007800Y-51436920D02*
X49257800Y-51436920D01*
X49257800Y-51436920D02*
X49257800Y-48236920D01*
X49257800Y-48236920D02*
X44007800Y-48236920D01*
X155583800Y-75831920D02*
X152383800Y-75831920D01*
X152383800Y-75831920D02*
X152383800Y-81081920D01*
X152383800Y-81081920D02*
X155583800Y-81081920D01*
X155583800Y-81081920D02*
X155583800Y-75831920D01*
X155583800Y-46331920D02*
X152383800Y-46331920D01*
X152383800Y-46331920D02*
X152383800Y-51581920D01*
X152383800Y-51581920D02*
X155583800Y-51581920D01*
X155583800Y-51581920D02*
X155583800Y-46331920D01*
X155583800Y-16831920D02*
X152383800Y-16831920D01*
X152383800Y-16831920D02*
X152383800Y-22081920D01*
X152383800Y-22081920D02*
X155583800Y-22081920D01*
X155583800Y-22081920D02*
X155583800Y-16831920D01*
X116833800Y-75831920D02*
X113633800Y-75831920D01*
X113633800Y-75831920D02*
X113633800Y-81081920D01*
X113633800Y-81081920D02*
X116833800Y-81081920D01*
X116833800Y-81081920D02*
X116833800Y-75831920D01*
X116833800Y-46331920D02*
X113633800Y-46331920D01*
X113633800Y-46331920D02*
X113633800Y-51581920D01*
X113633800Y-51581920D02*
X116833800Y-51581920D01*
X116833800Y-51581920D02*
X116833800Y-46331920D01*
X116833800Y-16831920D02*
X113633800Y-16831920D01*
X113633800Y-16831920D02*
X113633800Y-22081920D01*
X113633800Y-22081920D02*
X116833800Y-22081920D01*
X116833800Y-22081920D02*
X116833800Y-16831920D01*
X78083800Y-75831920D02*
X74883800Y-75831920D01*
X74883800Y-75831920D02*
X74883800Y-81081920D01*
X74883800Y-81081920D02*
X78083800Y-81081920D01*
X78083800Y-81081920D02*
X78083800Y-75831920D01*
X78083800Y-46331920D02*
X74883800Y-46331920D01*
X74883800Y-46331920D02*
X74883800Y-51581920D01*
X74883800Y-51581920D02*
X78083800Y-51581920D01*
X78083800Y-51581920D02*
X78083800Y-46331920D01*
X78083800Y-16831920D02*
X74883800Y-16831920D01*
X74883800Y-16831920D02*
X74883800Y-22081920D01*
X74883800Y-22081920D02*
X78083800Y-22081920D01*
X78083800Y-22081920D02*
X78083800Y-16831920D01*
X39333800Y-75831920D02*
X36133800Y-75831920D01*
X36133800Y-75831920D02*
X36133800Y-81081920D01*
X36133800Y-81081920D02*
X39333800Y-81081920D01*
X39333800Y-81081920D02*
X39333800Y-75831920D01*
X39333800Y-46331920D02*
X36133800Y-46331920D01*
X36133800Y-46331920D02*
X36133800Y-51581920D01*
X36133800Y-51581920D02*
X39333800Y-51581920D01*
X39333800Y-51581920D02*
X39333800Y-46331920D01*
X142604800Y-99605920D02*
X145804800Y-99605920D01*
X145804800Y-99605920D02*
X145804800Y-94355920D01*
X145804800Y-94355920D02*
X142604800Y-94355920D01*
X142604800Y-94355920D02*
X142604800Y-99605920D01*
X142604800Y-70105920D02*
X145804800Y-70105920D01*
X145804800Y-70105920D02*
X145804800Y-64855920D01*
X145804800Y-64855920D02*
X142604800Y-64855920D01*
X142604800Y-64855920D02*
X142604800Y-70105920D01*
X142604800Y-40605920D02*
X145804800Y-40605920D01*
X145804800Y-40605920D02*
X145804800Y-35355920D01*
X145804800Y-35355920D02*
X142604800Y-35355920D01*
X142604800Y-35355920D02*
X142604800Y-40605920D01*
X103854800Y-99605920D02*
X107054800Y-99605920D01*
X107054800Y-99605920D02*
X107054800Y-94355920D01*
X107054800Y-94355920D02*
X103854800Y-94355920D01*
X103854800Y-94355920D02*
X103854800Y-99605920D01*
X103854800Y-70105920D02*
X107054800Y-70105920D01*
X107054800Y-70105920D02*
X107054800Y-64855920D01*
X107054800Y-64855920D02*
X103854800Y-64855920D01*
X103854800Y-64855920D02*
X103854800Y-70105920D01*
X103854800Y-40605920D02*
X107054800Y-40605920D01*
X107054800Y-40605920D02*
X107054800Y-35355920D01*
X107054800Y-35355920D02*
X103854800Y-35355920D01*
X103854800Y-35355920D02*
X103854800Y-40605920D01*
X65104800Y-99605920D02*
X68304800Y-99605920D01*
X68304800Y-99605920D02*
X68304800Y-94355920D01*
X68304800Y-94355920D02*
X65104800Y-94355920D01*
X65104800Y-94355920D02*
X65104800Y-99605920D01*
X65104800Y-70105920D02*
X68304800Y-70105920D01*
X68304800Y-70105920D02*
X68304800Y-64855920D01*
X68304800Y-64855920D02*
X65104800Y-64855920D01*
X65104800Y-64855920D02*
X65104800Y-70105920D01*
X65104800Y-40605920D02*
X68304800Y-40605920D01*
X68304800Y-40605920D02*
X68304800Y-35355920D01*
X68304800Y-35355920D02*
X65104800Y-35355920D01*
X65104800Y-35355920D02*
X65104800Y-40605920D01*
X26354800Y-99605920D02*
X29554800Y-99605920D01*
X29554800Y-99605920D02*
X29554800Y-94355920D01*
X29554800Y-94355920D02*
X26354800Y-94355920D01*
X26354800Y-94355920D02*
X26354800Y-99605920D01*
X26354800Y-70105920D02*
X29554800Y-70105920D01*
X29554800Y-70105920D02*
X29554800Y-64855920D01*
X29554800Y-64855920D02*
X26354800Y-64855920D01*
X26354800Y-64855920D02*
X26354800Y-70105920D01*
X139252800Y-99055920D02*
X142552800Y-99055920D01*
X142552800Y-99055920D02*
X142552800Y-94455920D01*
X142552800Y-94455920D02*
X139252800Y-94455920D01*
X139252800Y-94455920D02*
X139252800Y-99055920D01*
X139252800Y-69555920D02*
X142552800Y-69555920D01*
X142552800Y-69555920D02*
X142552800Y-64955920D01*
X142552800Y-64955920D02*
X139252800Y-64955920D01*
X139252800Y-64955920D02*
X139252800Y-69555920D01*
X139252800Y-40055920D02*
X142552800Y-40055920D01*
X142552800Y-40055920D02*
X142552800Y-35455920D01*
X142552800Y-35455920D02*
X139252800Y-35455920D01*
X139252800Y-35455920D02*
X139252800Y-40055920D01*
X100502800Y-99055920D02*
X103802800Y-99055920D01*
X103802800Y-99055920D02*
X103802800Y-94455920D01*
X103802800Y-94455920D02*
X100502800Y-94455920D01*
X100502800Y-94455920D02*
X100502800Y-99055920D01*
X100502800Y-69555920D02*
X103802800Y-69555920D01*
X103802800Y-69555920D02*
X103802800Y-64955920D01*
X103802800Y-64955920D02*
X100502800Y-64955920D01*
X100502800Y-64955920D02*
X100502800Y-69555920D01*
X100502800Y-40055920D02*
X103802800Y-40055920D01*
X103802800Y-40055920D02*
X103802800Y-35455920D01*
X103802800Y-35455920D02*
X100502800Y-35455920D01*
X100502800Y-35455920D02*
X100502800Y-40055920D01*
X61752800Y-99055920D02*
X65052800Y-99055920D01*
X65052800Y-99055920D02*
X65052800Y-94455920D01*
X65052800Y-94455920D02*
X61752800Y-94455920D01*
X61752800Y-94455920D02*
X61752800Y-99055920D01*
X61752800Y-69555920D02*
X65052800Y-69555920D01*
X65052800Y-69555920D02*
X65052800Y-64955920D01*
X65052800Y-64955920D02*
X61752800Y-64955920D01*
X61752800Y-64955920D02*
X61752800Y-69555920D01*
X61752800Y-40055920D02*
X65052800Y-40055920D01*
X65052800Y-40055920D02*
X65052800Y-35455920D01*
X65052800Y-35455920D02*
X61752800Y-35455920D01*
X61752800Y-35455920D02*
X61752800Y-40055920D01*
X23002800Y-99055920D02*
X26302800Y-99055920D01*
X26302800Y-99055920D02*
X26302800Y-94455920D01*
X26302800Y-94455920D02*
X23002800Y-94455920D01*
X23002800Y-94455920D02*
X23002800Y-99055920D01*
X23002800Y-69555920D02*
X26302800Y-69555920D01*
X26302800Y-69555920D02*
X26302800Y-64955920D01*
X26302800Y-64955920D02*
X23002800Y-64955920D01*
X23002800Y-64955920D02*
X23002800Y-69555920D01*
X136000800Y-99605920D02*
X139200800Y-99605920D01*
X139200800Y-99605920D02*
X139200800Y-94355920D01*
X139200800Y-94355920D02*
X136000800Y-94355920D01*
X136000800Y-94355920D02*
X136000800Y-99605920D01*
X136000800Y-70105920D02*
X139200800Y-70105920D01*
X139200800Y-70105920D02*
X139200800Y-64855920D01*
X139200800Y-64855920D02*
X136000800Y-64855920D01*
X136000800Y-64855920D02*
X136000800Y-70105920D01*
X136000800Y-40605920D02*
X139200800Y-40605920D01*
X139200800Y-40605920D02*
X139200800Y-35355920D01*
X139200800Y-35355920D02*
X136000800Y-35355920D01*
X136000800Y-35355920D02*
X136000800Y-40605920D01*
X97250800Y-99605920D02*
X100450800Y-99605920D01*
X100450800Y-99605920D02*
X100450800Y-94355920D01*
X100450800Y-94355920D02*
X97250800Y-94355920D01*
X97250800Y-94355920D02*
X97250800Y-99605920D01*
X97250800Y-70105920D02*
X100450800Y-70105920D01*
X100450800Y-70105920D02*
X100450800Y-64855920D01*
X100450800Y-64855920D02*
X97250800Y-64855920D01*
X97250800Y-64855920D02*
X97250800Y-70105920D01*
X97250800Y-40605920D02*
X100450800Y-40605920D01*
X100450800Y-40605920D02*
X100450800Y-35355920D01*
X100450800Y-35355920D02*
X97250800Y-35355920D01*
X97250800Y-35355920D02*
X97250800Y-40605920D01*
X58500800Y-99605920D02*
X61700800Y-99605920D01*
X61700800Y-99605920D02*
X61700800Y-94355920D01*
X61700800Y-94355920D02*
X58500800Y-94355920D01*
X58500800Y-94355920D02*
X58500800Y-99605920D01*
X58500800Y-70105920D02*
X61700800Y-70105920D01*
X61700800Y-70105920D02*
X61700800Y-64855920D01*
X61700800Y-64855920D02*
X58500800Y-64855920D01*
X58500800Y-64855920D02*
X58500800Y-70105920D01*
X58500800Y-40605920D02*
X61700800Y-40605920D01*
X61700800Y-40605920D02*
X61700800Y-35355920D01*
X61700800Y-35355920D02*
X58500800Y-35355920D01*
X58500800Y-35355920D02*
X58500800Y-40605920D01*
X19750800Y-99605920D02*
X22950800Y-99605920D01*
X22950800Y-99605920D02*
X22950800Y-94355920D01*
X22950800Y-94355920D02*
X19750800Y-94355920D01*
X19750800Y-94355920D02*
X19750800Y-99605920D01*
X19750800Y-70105920D02*
X22950800Y-70105920D01*
X22950800Y-70105920D02*
X22950800Y-64855920D01*
X22950800Y-64855920D02*
X19750800Y-64855920D01*
X19750800Y-64855920D02*
X19750800Y-70105920D01*
X136698800Y-87126920D02*
X136698800Y-94406920D01*
X136698800Y-87126920D02*
X131898800Y-87126920D01*
X131898800Y-94406920D02*
X136698800Y-94406920D01*
X131898800Y-94406920D02*
X131898800Y-87126920D01*
X136698800Y-57626920D02*
X136698800Y-64906920D01*
X136698800Y-57626920D02*
X131898800Y-57626920D01*
X131898800Y-64906920D02*
X136698800Y-64906920D01*
X131898800Y-64906920D02*
X131898800Y-57626920D01*
X136698800Y-28126920D02*
X136698800Y-35406920D01*
X136698800Y-28126920D02*
X131898800Y-28126920D01*
X131898800Y-35406920D02*
X136698800Y-35406920D01*
X131898800Y-35406920D02*
X131898800Y-28126920D01*
X97948800Y-87126920D02*
X97948800Y-94406920D01*
X97948800Y-87126920D02*
X93148800Y-87126920D01*
X93148800Y-94406920D02*
X97948800Y-94406920D01*
X93148800Y-94406920D02*
X93148800Y-87126920D01*
X97948800Y-57626920D02*
X97948800Y-64906920D01*
X97948800Y-57626920D02*
X93148800Y-57626920D01*
X93148800Y-64906920D02*
X97948800Y-64906920D01*
X93148800Y-64906920D02*
X93148800Y-57626920D01*
X97948800Y-28126920D02*
X97948800Y-35406920D01*
X97948800Y-28126920D02*
X93148800Y-28126920D01*
X93148800Y-35406920D02*
X97948800Y-35406920D01*
X93148800Y-35406920D02*
X93148800Y-28126920D01*
X59198800Y-87126920D02*
X59198800Y-94406920D01*
X59198800Y-87126920D02*
X54398800Y-87126920D01*
X54398800Y-94406920D02*
X59198800Y-94406920D01*
X54398800Y-94406920D02*
X54398800Y-87126920D01*
X59198800Y-57626920D02*
X59198800Y-64906920D01*
X59198800Y-57626920D02*
X54398800Y-57626920D01*
X54398800Y-64906920D02*
X59198800Y-64906920D01*
X54398800Y-64906920D02*
X54398800Y-57626920D01*
X59198800Y-28126920D02*
X59198800Y-35406920D01*
X59198800Y-28126920D02*
X54398800Y-28126920D01*
X54398800Y-35406920D02*
X59198800Y-35406920D01*
X54398800Y-35406920D02*
X54398800Y-28126920D01*
X20448800Y-87126920D02*
X20448800Y-94406920D01*
X20448800Y-87126920D02*
X15648800Y-87126920D01*
X15648800Y-94406920D02*
X20448800Y-94406920D01*
X15648800Y-94406920D02*
X15648800Y-87126920D01*
X20448800Y-57626920D02*
X20448800Y-64906920D01*
X20448800Y-57626920D02*
X15648800Y-57626920D01*
X15648800Y-64906920D02*
X20448800Y-64906920D01*
X15648800Y-64906920D02*
X15648800Y-57626920D01*
X140012800Y-87049920D02*
X136712800Y-87049920D01*
X136712800Y-87049920D02*
X136712800Y-91649920D01*
X136712800Y-91649920D02*
X140012800Y-91649920D01*
X140012800Y-91649920D02*
X140012800Y-87049920D01*
X140012800Y-57549920D02*
X136712800Y-57549920D01*
X136712800Y-57549920D02*
X136712800Y-62149920D01*
X136712800Y-62149920D02*
X140012800Y-62149920D01*
X140012800Y-62149920D02*
X140012800Y-57549920D01*
X140012800Y-28049920D02*
X136712800Y-28049920D01*
X136712800Y-28049920D02*
X136712800Y-32649920D01*
X136712800Y-32649920D02*
X140012800Y-32649920D01*
X140012800Y-32649920D02*
X140012800Y-28049920D01*
X101262800Y-87049920D02*
X97962800Y-87049920D01*
X97962800Y-87049920D02*
X97962800Y-91649920D01*
X97962800Y-91649920D02*
X101262800Y-91649920D01*
X101262800Y-91649920D02*
X101262800Y-87049920D01*
X101262800Y-57549920D02*
X97962800Y-57549920D01*
X97962800Y-57549920D02*
X97962800Y-62149920D01*
X97962800Y-62149920D02*
X101262800Y-62149920D01*
X101262800Y-62149920D02*
X101262800Y-57549920D01*
X101262800Y-28049920D02*
X97962800Y-28049920D01*
X97962800Y-28049920D02*
X97962800Y-32649920D01*
X97962800Y-32649920D02*
X101262800Y-32649920D01*
X101262800Y-32649920D02*
X101262800Y-28049920D01*
X62512800Y-87049920D02*
X59212800Y-87049920D01*
X59212800Y-87049920D02*
X59212800Y-91649920D01*
X59212800Y-91649920D02*
X62512800Y-91649920D01*
X62512800Y-91649920D02*
X62512800Y-87049920D01*
X62512800Y-57549920D02*
X59212800Y-57549920D01*
X59212800Y-57549920D02*
X59212800Y-62149920D01*
X59212800Y-62149920D02*
X62512800Y-62149920D01*
X62512800Y-62149920D02*
X62512800Y-57549920D01*
X62512800Y-28049920D02*
X59212800Y-28049920D01*
X59212800Y-28049920D02*
X59212800Y-32649920D01*
X59212800Y-32649920D02*
X62512800Y-32649920D01*
X62512800Y-32649920D02*
X62512800Y-28049920D01*
X23762800Y-87049920D02*
X20462800Y-87049920D01*
X20462800Y-87049920D02*
X20462800Y-91649920D01*
X20462800Y-91649920D02*
X23762800Y-91649920D01*
X23762800Y-91649920D02*
X23762800Y-87049920D01*
X23762800Y-57549920D02*
X20462800Y-57549920D01*
X20462800Y-57549920D02*
X20462800Y-62149920D01*
X20462800Y-62149920D02*
X23762800Y-62149920D01*
X23762800Y-62149920D02*
X23762800Y-57549920D01*
X145550800Y-93509920D02*
X145550800Y-90309920D01*
X145550800Y-90309920D02*
X140300800Y-90309920D01*
X140300800Y-90309920D02*
X140300800Y-93509920D01*
X140300800Y-93509920D02*
X145550800Y-93509920D01*
X145550800Y-64009920D02*
X145550800Y-60809920D01*
X145550800Y-60809920D02*
X140300800Y-60809920D01*
X140300800Y-60809920D02*
X140300800Y-64009920D01*
X140300800Y-64009920D02*
X145550800Y-64009920D01*
X145550800Y-34509920D02*
X145550800Y-31309920D01*
X145550800Y-31309920D02*
X140300800Y-31309920D01*
X140300800Y-31309920D02*
X140300800Y-34509920D01*
X140300800Y-34509920D02*
X145550800Y-34509920D01*
X106800800Y-93509920D02*
X106800800Y-90309920D01*
X106800800Y-90309920D02*
X101550800Y-90309920D01*
X101550800Y-90309920D02*
X101550800Y-93509920D01*
X101550800Y-93509920D02*
X106800800Y-93509920D01*
X106800800Y-64009920D02*
X106800800Y-60809920D01*
X106800800Y-60809920D02*
X101550800Y-60809920D01*
X101550800Y-60809920D02*
X101550800Y-64009920D01*
X101550800Y-64009920D02*
X106800800Y-64009920D01*
X106800800Y-34509920D02*
X106800800Y-31309920D01*
X106800800Y-31309920D02*
X101550800Y-31309920D01*
X101550800Y-31309920D02*
X101550800Y-34509920D01*
X101550800Y-34509920D02*
X106800800Y-34509920D01*
X68050800Y-93509920D02*
X68050800Y-90309920D01*
X68050800Y-90309920D02*
X62800800Y-90309920D01*
X62800800Y-90309920D02*
X62800800Y-93509920D01*
X62800800Y-93509920D02*
X68050800Y-93509920D01*
X68050800Y-64009920D02*
X68050800Y-60809920D01*
X68050800Y-60809920D02*
X62800800Y-60809920D01*
X62800800Y-60809920D02*
X62800800Y-64009920D01*
X62800800Y-64009920D02*
X68050800Y-64009920D01*
X68050800Y-34509920D02*
X68050800Y-31309920D01*
X68050800Y-31309920D02*
X62800800Y-31309920D01*
X62800800Y-31309920D02*
X62800800Y-34509920D01*
X62800800Y-34509920D02*
X68050800Y-34509920D01*
X29300800Y-93509920D02*
X29300800Y-90309920D01*
X29300800Y-90309920D02*
X24050800Y-90309920D01*
X24050800Y-90309920D02*
X24050800Y-93509920D01*
X24050800Y-93509920D02*
X29300800Y-93509920D01*
X29300800Y-64009920D02*
X29300800Y-60809920D01*
X29300800Y-60809920D02*
X24050800Y-60809920D01*
X24050800Y-60809920D02*
X24050800Y-64009920D01*
X24050800Y-64009920D02*
X29300800Y-64009920D01*
X140064800Y-87007920D02*
X140064800Y-90207920D01*
X140064800Y-90207920D02*
X145764800Y-90207920D01*
X145764800Y-90207920D02*
X145764800Y-87007920D01*
X145764800Y-87007920D02*
X140064800Y-87007920D01*
X140064800Y-57507920D02*
X140064800Y-60707920D01*
X140064800Y-60707920D02*
X145764800Y-60707920D01*
X145764800Y-60707920D02*
X145764800Y-57507920D01*
X145764800Y-57507920D02*
X140064800Y-57507920D01*
X140064800Y-28007920D02*
X140064800Y-31207920D01*
X140064800Y-31207920D02*
X145764800Y-31207920D01*
X145764800Y-31207920D02*
X145764800Y-28007920D01*
X145764800Y-28007920D02*
X140064800Y-28007920D01*
X101314800Y-87007920D02*
X101314800Y-90207920D01*
X101314800Y-90207920D02*
X107014800Y-90207920D01*
X107014800Y-90207920D02*
X107014800Y-87007920D01*
X107014800Y-87007920D02*
X101314800Y-87007920D01*
X101314800Y-57507920D02*
X101314800Y-60707920D01*
X101314800Y-60707920D02*
X107014800Y-60707920D01*
X107014800Y-60707920D02*
X107014800Y-57507920D01*
X107014800Y-57507920D02*
X101314800Y-57507920D01*
X101314800Y-28007920D02*
X101314800Y-31207920D01*
X101314800Y-31207920D02*
X107014800Y-31207920D01*
X107014800Y-31207920D02*
X107014800Y-28007920D01*
X107014800Y-28007920D02*
X101314800Y-28007920D01*
X62564800Y-87007920D02*
X62564800Y-90207920D01*
X62564800Y-90207920D02*
X68264800Y-90207920D01*
X68264800Y-90207920D02*
X68264800Y-87007920D01*
X68264800Y-87007920D02*
X62564800Y-87007920D01*
X62564800Y-57507920D02*
X62564800Y-60707920D01*
X62564800Y-60707920D02*
X68264800Y-60707920D01*
X68264800Y-60707920D02*
X68264800Y-57507920D01*
X68264800Y-57507920D02*
X62564800Y-57507920D01*
X62564800Y-28007920D02*
X62564800Y-31207920D01*
X62564800Y-31207920D02*
X68264800Y-31207920D01*
X68264800Y-31207920D02*
X68264800Y-28007920D01*
X68264800Y-28007920D02*
X62564800Y-28007920D01*
X23814800Y-87007920D02*
X23814800Y-90207920D01*
X23814800Y-90207920D02*
X29514800Y-90207920D01*
X29514800Y-90207920D02*
X29514800Y-87007920D01*
X29514800Y-87007920D02*
X23814800Y-87007920D01*
X23814800Y-57507920D02*
X23814800Y-60707920D01*
X23814800Y-60707920D02*
X29514800Y-60707920D01*
X29514800Y-60707920D02*
X29514800Y-57507920D01*
X29514800Y-57507920D02*
X23814800Y-57507920D01*
X164219800Y-81038920D02*
X161019800Y-81038920D01*
X161019800Y-81038920D02*
X161019800Y-86288920D01*
X161019800Y-86288920D02*
X164219800Y-86288920D01*
X164219800Y-86288920D02*
X164219800Y-81038920D01*
X164219800Y-51538920D02*
X161019800Y-51538920D01*
X161019800Y-51538920D02*
X161019800Y-56788920D01*
X161019800Y-56788920D02*
X164219800Y-56788920D01*
X164219800Y-56788920D02*
X164219800Y-51538920D01*
X164219800Y-22038920D02*
X161019800Y-22038920D01*
X161019800Y-22038920D02*
X161019800Y-27288920D01*
X161019800Y-27288920D02*
X164219800Y-27288920D01*
X164219800Y-27288920D02*
X164219800Y-22038920D01*
X125469800Y-81038920D02*
X122269800Y-81038920D01*
X122269800Y-81038920D02*
X122269800Y-86288920D01*
X122269800Y-86288920D02*
X125469800Y-86288920D01*
X125469800Y-86288920D02*
X125469800Y-81038920D01*
X125469800Y-51538920D02*
X122269800Y-51538920D01*
X122269800Y-51538920D02*
X122269800Y-56788920D01*
X122269800Y-56788920D02*
X125469800Y-56788920D01*
X125469800Y-56788920D02*
X125469800Y-51538920D01*
X125469800Y-22038920D02*
X122269800Y-22038920D01*
X122269800Y-22038920D02*
X122269800Y-27288920D01*
X122269800Y-27288920D02*
X125469800Y-27288920D01*
X125469800Y-27288920D02*
X125469800Y-22038920D01*
X86719800Y-81038920D02*
X83519800Y-81038920D01*
X83519800Y-81038920D02*
X83519800Y-86288920D01*
X83519800Y-86288920D02*
X86719800Y-86288920D01*
X86719800Y-86288920D02*
X86719800Y-81038920D01*
X86719800Y-51538920D02*
X83519800Y-51538920D01*
X83519800Y-51538920D02*
X83519800Y-56788920D01*
X83519800Y-56788920D02*
X86719800Y-56788920D01*
X86719800Y-56788920D02*
X86719800Y-51538920D01*
X86719800Y-22038920D02*
X83519800Y-22038920D01*
X83519800Y-22038920D02*
X83519800Y-27288920D01*
X83519800Y-27288920D02*
X86719800Y-27288920D01*
X86719800Y-27288920D02*
X86719800Y-22038920D01*
X47969800Y-81038920D02*
X44769800Y-81038920D01*
X44769800Y-81038920D02*
X44769800Y-86288920D01*
X44769800Y-86288920D02*
X47969800Y-86288920D01*
X47969800Y-86288920D02*
X47969800Y-81038920D01*
X47969800Y-51538920D02*
X44769800Y-51538920D01*
X44769800Y-51538920D02*
X44769800Y-56788920D01*
X44769800Y-56788920D02*
X47969800Y-56788920D01*
X47969800Y-56788920D02*
X47969800Y-51538920D01*
X165350800Y-86452920D02*
X162150800Y-86452920D01*
X162150800Y-86452920D02*
X162150800Y-96202920D01*
X162150800Y-96202920D02*
X165350800Y-96202920D01*
X165350800Y-96202920D02*
X165350800Y-86452920D01*
X165350800Y-56952920D02*
X162150800Y-56952920D01*
X162150800Y-56952920D02*
X162150800Y-66702920D01*
X162150800Y-66702920D02*
X165350800Y-66702920D01*
X165350800Y-66702920D02*
X165350800Y-56952920D01*
X165350800Y-27452920D02*
X162150800Y-27452920D01*
X162150800Y-27452920D02*
X162150800Y-37202920D01*
X162150800Y-37202920D02*
X165350800Y-37202920D01*
X165350800Y-37202920D02*
X165350800Y-27452920D01*
X126600800Y-86452920D02*
X123400800Y-86452920D01*
X123400800Y-86452920D02*
X123400800Y-96202920D01*
X123400800Y-96202920D02*
X126600800Y-96202920D01*
X126600800Y-96202920D02*
X126600800Y-86452920D01*
X126600800Y-56952920D02*
X123400800Y-56952920D01*
X123400800Y-56952920D02*
X123400800Y-66702920D01*
X123400800Y-66702920D02*
X126600800Y-66702920D01*
X126600800Y-66702920D02*
X126600800Y-56952920D01*
X126600800Y-27452920D02*
X123400800Y-27452920D01*
X123400800Y-27452920D02*
X123400800Y-37202920D01*
X123400800Y-37202920D02*
X126600800Y-37202920D01*
X126600800Y-37202920D02*
X126600800Y-27452920D01*
X87850800Y-86452920D02*
X84650800Y-86452920D01*
X84650800Y-86452920D02*
X84650800Y-96202920D01*
X84650800Y-96202920D02*
X87850800Y-96202920D01*
X87850800Y-96202920D02*
X87850800Y-86452920D01*
X87850800Y-56952920D02*
X84650800Y-56952920D01*
X84650800Y-56952920D02*
X84650800Y-66702920D01*
X84650800Y-66702920D02*
X87850800Y-66702920D01*
X87850800Y-66702920D02*
X87850800Y-56952920D01*
X87850800Y-27452920D02*
X84650800Y-27452920D01*
X84650800Y-27452920D02*
X84650800Y-37202920D01*
X84650800Y-37202920D02*
X87850800Y-37202920D01*
X87850800Y-37202920D02*
X87850800Y-27452920D01*
X49100800Y-86452920D02*
X45900800Y-86452920D01*
X45900800Y-86452920D02*
X45900800Y-96202920D01*
X45900800Y-96202920D02*
X49100800Y-96202920D01*
X49100800Y-96202920D02*
X49100800Y-86452920D01*
X49100800Y-56952920D02*
X45900800Y-56952920D01*
X45900800Y-56952920D02*
X45900800Y-66702920D01*
X45900800Y-66702920D02*
X49100800Y-66702920D01*
X49100800Y-66702920D02*
X49100800Y-56952920D01*
X155685800Y-81165920D02*
X155685800Y-84365920D01*
X155685800Y-84365920D02*
X160935800Y-84365920D01*
X160935800Y-84365920D02*
X160935800Y-81165920D01*
X160935800Y-81165920D02*
X155685800Y-81165920D01*
X155685800Y-51665920D02*
X155685800Y-54865920D01*
X155685800Y-54865920D02*
X160935800Y-54865920D01*
X160935800Y-54865920D02*
X160935800Y-51665920D01*
X160935800Y-51665920D02*
X155685800Y-51665920D01*
X155685800Y-22165920D02*
X155685800Y-25365920D01*
X155685800Y-25365920D02*
X160935800Y-25365920D01*
X160935800Y-25365920D02*
X160935800Y-22165920D01*
X160935800Y-22165920D02*
X155685800Y-22165920D01*
X116935800Y-81165920D02*
X116935800Y-84365920D01*
X116935800Y-84365920D02*
X122185800Y-84365920D01*
X122185800Y-84365920D02*
X122185800Y-81165920D01*
X122185800Y-81165920D02*
X116935800Y-81165920D01*
X116935800Y-51665920D02*
X116935800Y-54865920D01*
X116935800Y-54865920D02*
X122185800Y-54865920D01*
X122185800Y-54865920D02*
X122185800Y-51665920D01*
X122185800Y-51665920D02*
X116935800Y-51665920D01*
X116935800Y-22165920D02*
X116935800Y-25365920D01*
X116935800Y-25365920D02*
X122185800Y-25365920D01*
X122185800Y-25365920D02*
X122185800Y-22165920D01*
X122185800Y-22165920D02*
X116935800Y-22165920D01*
X78185800Y-81165920D02*
X78185800Y-84365920D01*
X78185800Y-84365920D02*
X83435800Y-84365920D01*
X83435800Y-84365920D02*
X83435800Y-81165920D01*
X83435800Y-81165920D02*
X78185800Y-81165920D01*
X78185800Y-51665920D02*
X78185800Y-54865920D01*
X78185800Y-54865920D02*
X83435800Y-54865920D01*
X83435800Y-54865920D02*
X83435800Y-51665920D01*
X83435800Y-51665920D02*
X78185800Y-51665920D01*
X78185800Y-22165920D02*
X78185800Y-25365920D01*
X78185800Y-25365920D02*
X83435800Y-25365920D01*
X83435800Y-25365920D02*
X83435800Y-22165920D01*
X83435800Y-22165920D02*
X78185800Y-22165920D01*
X39435800Y-81165920D02*
X39435800Y-84365920D01*
X39435800Y-84365920D02*
X44685800Y-84365920D01*
X44685800Y-84365920D02*
X44685800Y-81165920D01*
X44685800Y-81165920D02*
X39435800Y-81165920D01*
X39435800Y-51665920D02*
X39435800Y-54865920D01*
X39435800Y-54865920D02*
X44685800Y-54865920D01*
X44685800Y-54865920D02*
X44685800Y-51665920D01*
X44685800Y-51665920D02*
X39435800Y-51665920D01*
X158885800Y-84340920D02*
X155685800Y-84340920D01*
X155685800Y-84340920D02*
X155685800Y-89590920D01*
X155685800Y-89590920D02*
X158885800Y-89590920D01*
X158885800Y-89590920D02*
X158885800Y-84340920D01*
X158885800Y-54840920D02*
X155685800Y-54840920D01*
X155685800Y-54840920D02*
X155685800Y-60090920D01*
X155685800Y-60090920D02*
X158885800Y-60090920D01*
X158885800Y-60090920D02*
X158885800Y-54840920D01*
X158885800Y-25340920D02*
X155685800Y-25340920D01*
X155685800Y-25340920D02*
X155685800Y-30590920D01*
X155685800Y-30590920D02*
X158885800Y-30590920D01*
X158885800Y-30590920D02*
X158885800Y-25340920D01*
X120135800Y-84340920D02*
X116935800Y-84340920D01*
X116935800Y-84340920D02*
X116935800Y-89590920D01*
X116935800Y-89590920D02*
X120135800Y-89590920D01*
X120135800Y-89590920D02*
X120135800Y-84340920D01*
X120135800Y-54840920D02*
X116935800Y-54840920D01*
X116935800Y-54840920D02*
X116935800Y-60090920D01*
X116935800Y-60090920D02*
X120135800Y-60090920D01*
X120135800Y-60090920D02*
X120135800Y-54840920D01*
X120135800Y-25340920D02*
X116935800Y-25340920D01*
X116935800Y-25340920D02*
X116935800Y-30590920D01*
X116935800Y-30590920D02*
X120135800Y-30590920D01*
X120135800Y-30590920D02*
X120135800Y-25340920D01*
X81385800Y-84340920D02*
X78185800Y-84340920D01*
X78185800Y-84340920D02*
X78185800Y-89590920D01*
X78185800Y-89590920D02*
X81385800Y-89590920D01*
X81385800Y-89590920D02*
X81385800Y-84340920D01*
X81385800Y-54840920D02*
X78185800Y-54840920D01*
X78185800Y-54840920D02*
X78185800Y-60090920D01*
X78185800Y-60090920D02*
X81385800Y-60090920D01*
X81385800Y-60090920D02*
X81385800Y-54840920D01*
X81385800Y-25340920D02*
X78185800Y-25340920D01*
X78185800Y-25340920D02*
X78185800Y-30590920D01*
X78185800Y-30590920D02*
X81385800Y-30590920D01*
X81385800Y-30590920D02*
X81385800Y-25340920D01*
X42635800Y-84340920D02*
X39435800Y-84340920D01*
X39435800Y-84340920D02*
X39435800Y-89590920D01*
X39435800Y-89590920D02*
X42635800Y-89590920D01*
X42635800Y-89590920D02*
X42635800Y-84340920D01*
X42635800Y-54840920D02*
X39435800Y-54840920D01*
X39435800Y-54840920D02*
X39435800Y-60090920D01*
X39435800Y-60090920D02*
X42635800Y-60090920D01*
X42635800Y-60090920D02*
X42635800Y-54840920D01*
X145898800Y-81165920D02*
X145898800Y-99565920D01*
X145898800Y-99565920D02*
X155698800Y-99565920D01*
X155698800Y-99565920D02*
X155698800Y-81165920D01*
X155698800Y-81165920D02*
X145898800Y-81165920D01*
X145898800Y-51665920D02*
X145898800Y-70065920D01*
X145898800Y-70065920D02*
X155698800Y-70065920D01*
X155698800Y-70065920D02*
X155698800Y-51665920D01*
X155698800Y-51665920D02*
X145898800Y-51665920D01*
X145898800Y-22165920D02*
X145898800Y-40565920D01*
X145898800Y-40565920D02*
X155698800Y-40565920D01*
X155698800Y-40565920D02*
X155698800Y-22165920D01*
X155698800Y-22165920D02*
X145898800Y-22165920D01*
X107148800Y-81165920D02*
X107148800Y-99565920D01*
X107148800Y-99565920D02*
X116948800Y-99565920D01*
X116948800Y-99565920D02*
X116948800Y-81165920D01*
X116948800Y-81165920D02*
X107148800Y-81165920D01*
X107148800Y-51665920D02*
X107148800Y-70065920D01*
X107148800Y-70065920D02*
X116948800Y-70065920D01*
X116948800Y-70065920D02*
X116948800Y-51665920D01*
X116948800Y-51665920D02*
X107148800Y-51665920D01*
X107148800Y-22165920D02*
X107148800Y-40565920D01*
X107148800Y-40565920D02*
X116948800Y-40565920D01*
X116948800Y-40565920D02*
X116948800Y-22165920D01*
X116948800Y-22165920D02*
X107148800Y-22165920D01*
X68398800Y-81165920D02*
X68398800Y-99565920D01*
X68398800Y-99565920D02*
X78198800Y-99565920D01*
X78198800Y-99565920D02*
X78198800Y-81165920D01*
X78198800Y-81165920D02*
X68398800Y-81165920D01*
X68398800Y-51665920D02*
X68398800Y-70065920D01*
X68398800Y-70065920D02*
X78198800Y-70065920D01*
X78198800Y-70065920D02*
X78198800Y-51665920D01*
X78198800Y-51665920D02*
X68398800Y-51665920D01*
X68398800Y-22165920D02*
X68398800Y-40565920D01*
X68398800Y-40565920D02*
X78198800Y-40565920D01*
X78198800Y-40565920D02*
X78198800Y-22165920D01*
X78198800Y-22165920D02*
X68398800Y-22165920D01*
X29648800Y-81165920D02*
X29648800Y-99565920D01*
X29648800Y-99565920D02*
X39448800Y-99565920D01*
X39448800Y-99565920D02*
X39448800Y-81165920D01*
X39448800Y-81165920D02*
X29648800Y-81165920D01*
X29648800Y-51665920D02*
X29648800Y-70065920D01*
X29648800Y-70065920D02*
X39448800Y-70065920D01*
X39448800Y-70065920D02*
X39448800Y-51665920D01*
X39448800Y-51665920D02*
X29648800Y-51665920D01*
X23002800Y-21640920D02*
X26302800Y-21640920D01*
X26302800Y-21640920D02*
X26302800Y-17040920D01*
X26302800Y-17040920D02*
X23002800Y-17040920D01*
X23002800Y-17040920D02*
X23002800Y-21640920D01*
X32906800Y-17000920D02*
X29606800Y-17000920D01*
X29606800Y-17000920D02*
X29606800Y-21600920D01*
X29606800Y-21600920D02*
X32906800Y-21600920D01*
X32906800Y-21600920D02*
X32906800Y-17000920D01*
X23814800Y-28007920D02*
X23814800Y-31207920D01*
X23814800Y-31207920D02*
X29514800Y-31207920D01*
X29514800Y-31207920D02*
X29514800Y-28007920D01*
X29514800Y-28007920D02*
X23814800Y-28007920D01*
X16448800Y-22698920D02*
X19648800Y-22698920D01*
X19648800Y-22698920D02*
X19648800Y-16998920D01*
X19648800Y-16998920D02*
X16448800Y-16998920D01*
X16448800Y-16998920D02*
X16448800Y-22698920D01*
X23002800Y-40055920D02*
X26302800Y-40055920D01*
X26302800Y-40055920D02*
X26302800Y-35455920D01*
X26302800Y-35455920D02*
X23002800Y-35455920D01*
X23002800Y-35455920D02*
X23002800Y-40055920D01*
X45987800Y-35796920D02*
X42687800Y-35796920D01*
X42687800Y-35796920D02*
X42687800Y-40396920D01*
X42687800Y-40396920D02*
X45987800Y-40396920D01*
X45987800Y-40396920D02*
X45987800Y-35796920D01*
X23762800Y-28049920D02*
X20462800Y-28049920D01*
X20462800Y-28049920D02*
X20462800Y-32649920D01*
X20462800Y-32649920D02*
X23762800Y-32649920D01*
X23762800Y-32649920D02*
X23762800Y-28049920D01*
X39350800Y-18813920D02*
X39350800Y-22113920D01*
X39350800Y-22113920D02*
X43950800Y-22113920D01*
X43950800Y-22113920D02*
X43950800Y-18813920D01*
X43950800Y-18813920D02*
X39350800Y-18813920D01*
X20448800Y-28126920D02*
X20448800Y-35406920D01*
X20448800Y-28126920D02*
X15648800Y-28126920D01*
X15648800Y-35406920D02*
X20448800Y-35406920D01*
X15648800Y-35406920D02*
X15648800Y-28126920D01*
X22950800Y-22292920D02*
X19750800Y-22292920D01*
X19750800Y-22292920D02*
X19750800Y-27542920D01*
X19750800Y-27542920D02*
X22950800Y-27542920D01*
X22950800Y-27542920D02*
X22950800Y-22292920D01*
X16448800Y-28032920D02*
X19648800Y-28032920D01*
X19648800Y-28032920D02*
X19648800Y-22782920D01*
X19648800Y-22782920D02*
X16448800Y-22782920D01*
X16448800Y-22782920D02*
X16448800Y-28032920D01*
X22950800Y-16958920D02*
X19750800Y-16958920D01*
X19750800Y-16958920D02*
X19750800Y-22208920D01*
X19750800Y-22208920D02*
X22950800Y-22208920D01*
X22950800Y-22208920D02*
X22950800Y-16958920D01*
X26354800Y-22190920D02*
X29554800Y-22190920D01*
X29554800Y-22190920D02*
X29554800Y-16940920D01*
X29554800Y-16940920D02*
X26354800Y-16940920D01*
X26354800Y-16940920D02*
X26354800Y-22190920D01*
X26252800Y-22292920D02*
X23052800Y-22292920D01*
X23052800Y-22292920D02*
X23052800Y-27542920D01*
X23052800Y-27542920D02*
X26252800Y-27542920D01*
X26252800Y-27542920D02*
X26252800Y-22292920D01*
X26227800Y-28032920D02*
X29427800Y-28032920D01*
X29427800Y-28032920D02*
X29427800Y-22782920D01*
X29427800Y-22782920D02*
X26227800Y-22782920D01*
X26227800Y-22782920D02*
X26227800Y-28032920D01*
X29300800Y-34509920D02*
X29300800Y-31309920D01*
X29300800Y-31309920D02*
X24050800Y-31309920D01*
X24050800Y-31309920D02*
X24050800Y-34509920D01*
X24050800Y-34509920D02*
X29300800Y-34509920D01*
X19750800Y-40605920D02*
X22950800Y-40605920D01*
X22950800Y-40605920D02*
X22950800Y-35355920D01*
X22950800Y-35355920D02*
X19750800Y-35355920D01*
X19750800Y-35355920D02*
X19750800Y-40605920D01*
X26354800Y-40605920D02*
X29554800Y-40605920D01*
X29554800Y-40605920D02*
X29554800Y-35355920D01*
X29554800Y-35355920D02*
X26354800Y-35355920D01*
X26354800Y-35355920D02*
X26354800Y-40605920D01*
X47969800Y-22038920D02*
X44769800Y-22038920D01*
X44769800Y-22038920D02*
X44769800Y-27288920D01*
X44769800Y-27288920D02*
X47969800Y-27288920D01*
X47969800Y-27288920D02*
X47969800Y-22038920D01*
X39333800Y-16831920D02*
X36133800Y-16831920D01*
X36133800Y-16831920D02*
X36133800Y-22081920D01*
X36133800Y-22081920D02*
X39333800Y-22081920D01*
X39333800Y-22081920D02*
X39333800Y-16831920D01*
X42610800Y-35779920D02*
X45810800Y-35779920D01*
X45810800Y-35779920D02*
X45810800Y-30529920D01*
X45810800Y-30529920D02*
X42610800Y-30529920D01*
X42610800Y-30529920D02*
X42610800Y-35779920D01*
X39435800Y-35779920D02*
X42635800Y-35779920D01*
X42635800Y-35779920D02*
X42635800Y-30529920D01*
X42635800Y-30529920D02*
X39435800Y-30529920D01*
X39435800Y-30529920D02*
X39435800Y-35779920D01*
X39435800Y-40986920D02*
X42635800Y-40986920D01*
X42635800Y-40986920D02*
X42635800Y-35736920D01*
X42635800Y-35736920D02*
X39435800Y-35736920D01*
X39435800Y-35736920D02*
X39435800Y-40986920D01*
X36158800Y-16831920D02*
X32958800Y-16831920D01*
X32958800Y-16831920D02*
X32958800Y-22081920D01*
X32958800Y-22081920D02*
X36158800Y-22081920D01*
X36158800Y-22081920D02*
X36158800Y-16831920D01*
X39435800Y-22165920D02*
X39435800Y-25365920D01*
X39435800Y-25365920D02*
X44685800Y-25365920D01*
X44685800Y-25365920D02*
X44685800Y-22165920D01*
X44685800Y-22165920D02*
X39435800Y-22165920D01*
X42635800Y-25340920D02*
X39435800Y-25340920D01*
X39435800Y-25340920D02*
X39435800Y-30590920D01*
X39435800Y-30590920D02*
X42635800Y-30590920D01*
X42635800Y-30590920D02*
X42635800Y-25340920D01*
X44007800Y-18736920D02*
X44007800Y-21936920D01*
X44007800Y-21936920D02*
X49257800Y-21936920D01*
X49257800Y-21936920D02*
X49257800Y-18736920D01*
X49257800Y-18736920D02*
X44007800Y-18736920D01*
X29648800Y-22165920D02*
X29648800Y-40565920D01*
X29648800Y-40565920D02*
X39448800Y-40565920D01*
X39448800Y-40565920D02*
X39448800Y-22165920D01*
X39448800Y-22165920D02*
X29648800Y-22165920D01*
X49100800Y-27452920D02*
X45900800Y-27452920D01*
X45900800Y-27452920D02*
X45900800Y-37202920D01*
X45900800Y-37202920D02*
X49100800Y-37202920D01*
X49100800Y-37202920D02*
X49100800Y-27452920D01*
M02*
