%FSLAX45Y45*%
G04 Gerber Fmt 4.5, Leading zero omitted, Abs format (unit mm)*
G04 Created by KiCad (PCBNEW 4.0.6-e0-6349~53~ubuntu16.04.1) date Thu Mar 16 16:11:15 2017*
%MOMM*%
%LPD*%
G01*
G04 APERTURE LIST*
%ADD10C,0.127000*%
%ADD11C,0.150000*%
%ADD12C,0.200000*%
%ADD13C,0.300000*%
G04 APERTURE END LIST*
D10*
D11*
X16750080Y-10100292D02*
X13125080Y-10100292D01*
X16750080Y-7150292D02*
X13125080Y-7150292D01*
X16750080Y-4200292D02*
X13125080Y-4200292D01*
X12875080Y-10100292D02*
X9250080Y-10100292D01*
X12875080Y-7150292D02*
X9250080Y-7150292D01*
X12875080Y-4200292D02*
X9250080Y-4200292D01*
X9000080Y-10100292D02*
X5375080Y-10100292D01*
X9000080Y-7150292D02*
X5375080Y-7150292D01*
X9000080Y-4200292D02*
X5375080Y-4200292D01*
X5125080Y-10100292D02*
X1500080Y-10100292D01*
X5125080Y-7150292D02*
X1500080Y-7150292D01*
X16750080Y-7400292D02*
X16750080Y-10100292D01*
X16750080Y-4450292D02*
X16750080Y-7150292D01*
X16750080Y-1500292D02*
X16750080Y-4200292D01*
X12875080Y-7400292D02*
X12875080Y-10100292D01*
X12875080Y-4450292D02*
X12875080Y-7150292D01*
X12875080Y-1500292D02*
X12875080Y-4200292D01*
X9000080Y-7400292D02*
X9000080Y-10100292D01*
X9000080Y-4450292D02*
X9000080Y-7150292D01*
X9000080Y-1500292D02*
X9000080Y-4200292D01*
X5125080Y-7400292D02*
X5125080Y-10100292D01*
X5125080Y-4450292D02*
X5125080Y-7150292D01*
X13125080Y-10100292D02*
X13125080Y-7400292D01*
X13125080Y-7150292D02*
X13125080Y-4450292D01*
X13125080Y-4200292D02*
X13125080Y-1500292D01*
X9250080Y-10100292D02*
X9250080Y-7400292D01*
X9250080Y-7150292D02*
X9250080Y-4450292D01*
X9250080Y-4200292D02*
X9250080Y-1500292D01*
X5375080Y-10100292D02*
X5375080Y-7400292D01*
X5375080Y-7150292D02*
X5375080Y-4450292D01*
X5375080Y-4200292D02*
X5375080Y-1500292D01*
X1500080Y-10100292D02*
X1500080Y-7400292D01*
X1500080Y-7150292D02*
X1500080Y-4450292D01*
X16750080Y-7400292D02*
X13125080Y-7400292D01*
X16750080Y-4450292D02*
X13125080Y-4450292D01*
X16750080Y-1500292D02*
X13125080Y-1500292D01*
X12875080Y-7400292D02*
X9250080Y-7400292D01*
X12875080Y-4450292D02*
X9250080Y-4450292D01*
X12875080Y-1500292D02*
X9250080Y-1500292D01*
X9000080Y-7400292D02*
X5375080Y-7400292D01*
X9000080Y-4450292D02*
X5375080Y-4450292D01*
X9000080Y-1500292D02*
X5375080Y-1500292D01*
X5125080Y-7400292D02*
X1500080Y-7400292D01*
X5125080Y-4450292D02*
X1500080Y-4450292D01*
X5125080Y-1500292D02*
X1500080Y-1500292D01*
X5125080Y-4200292D02*
X1500080Y-4200292D01*
X5125080Y-1500292D02*
X5125080Y-4200292D01*
X1500080Y-4200292D02*
X1500080Y-1500292D01*
D12*
X1769880Y-2887692D02*
X1839880Y-2957692D01*
X1839880Y-2887692D02*
X1769880Y-2957692D01*
X1769880Y-3395692D02*
X1839880Y-3465692D01*
X1839880Y-3395692D02*
X1769880Y-3465692D01*
X1769880Y-5837692D02*
X1839880Y-5907692D01*
X1839880Y-5837692D02*
X1769880Y-5907692D01*
X1769880Y-6345692D02*
X1839880Y-6415692D01*
X1839880Y-6345692D02*
X1769880Y-6415692D01*
X1769880Y-8787692D02*
X1839880Y-8857692D01*
X1839880Y-8787692D02*
X1769880Y-8857692D01*
X1769880Y-9295692D02*
X1839880Y-9365692D01*
X1839880Y-9295692D02*
X1769880Y-9365692D01*
X5644880Y-2887692D02*
X5714880Y-2957692D01*
X5714880Y-2887692D02*
X5644880Y-2957692D01*
X5644880Y-3395692D02*
X5714880Y-3465692D01*
X5714880Y-3395692D02*
X5644880Y-3465692D01*
X5644880Y-5837692D02*
X5714880Y-5907692D01*
X5714880Y-5837692D02*
X5644880Y-5907692D01*
X5644880Y-6345692D02*
X5714880Y-6415692D01*
X5714880Y-6345692D02*
X5644880Y-6415692D01*
X5644880Y-8787692D02*
X5714880Y-8857692D01*
X5714880Y-8787692D02*
X5644880Y-8857692D01*
X5644880Y-9295692D02*
X5714880Y-9365692D01*
X5714880Y-9295692D02*
X5644880Y-9365692D01*
X9519880Y-2887692D02*
X9589880Y-2957692D01*
X9589880Y-2887692D02*
X9519880Y-2957692D01*
X9519880Y-3395692D02*
X9589880Y-3465692D01*
X9589880Y-3395692D02*
X9519880Y-3465692D01*
X9519880Y-5837692D02*
X9589880Y-5907692D01*
X9589880Y-5837692D02*
X9519880Y-5907692D01*
X9519880Y-6345692D02*
X9589880Y-6415692D01*
X9589880Y-6345692D02*
X9519880Y-6415692D01*
X9519880Y-8787692D02*
X9589880Y-8857692D01*
X9589880Y-8787692D02*
X9519880Y-8857692D01*
X9519880Y-9295692D02*
X9589880Y-9365692D01*
X9589880Y-9295692D02*
X9519880Y-9365692D01*
X13394880Y-2887692D02*
X13464880Y-2957692D01*
X13464880Y-2887692D02*
X13394880Y-2957692D01*
X13394880Y-3395692D02*
X13464880Y-3465692D01*
X13464880Y-3395692D02*
X13394880Y-3465692D01*
X13394880Y-5837692D02*
X13464880Y-5907692D01*
X13464880Y-5837692D02*
X13394880Y-5907692D01*
X13394880Y-6345692D02*
X13464880Y-6415692D01*
X13464880Y-6345692D02*
X13394880Y-6415692D01*
X13394880Y-8787692D02*
X13464880Y-8857692D01*
X13464880Y-8787692D02*
X13394880Y-8857692D01*
X13394880Y-9295692D02*
X13464880Y-9365692D01*
X13464880Y-9295692D02*
X13394880Y-9365692D01*
X1844880Y-1859892D02*
G75*
G03X1844880Y-1859892I-40000J0D01*
G01*
X1844880Y-2109892D02*
G75*
G03X1844880Y-2109892I-40000J0D01*
G01*
X1844880Y-2389292D02*
G75*
G03X1844880Y-2389292I-40000J0D01*
G01*
X1844880Y-2643292D02*
G75*
G03X1844880Y-2643292I-40000J0D01*
G01*
X1844880Y-4809892D02*
G75*
G03X1844880Y-4809892I-40000J0D01*
G01*
X1844880Y-5059892D02*
G75*
G03X1844880Y-5059892I-40000J0D01*
G01*
X1844880Y-5339292D02*
G75*
G03X1844880Y-5339292I-40000J0D01*
G01*
X1844880Y-5593292D02*
G75*
G03X1844880Y-5593292I-40000J0D01*
G01*
X1844880Y-7759892D02*
G75*
G03X1844880Y-7759892I-40000J0D01*
G01*
X1844880Y-8009892D02*
G75*
G03X1844880Y-8009892I-40000J0D01*
G01*
X1844880Y-8289292D02*
G75*
G03X1844880Y-8289292I-40000J0D01*
G01*
X1844880Y-8543292D02*
G75*
G03X1844880Y-8543292I-40000J0D01*
G01*
X2175080Y-1855892D02*
G75*
G03X2175080Y-1855892I-40000J0D01*
G01*
X2175080Y-2109892D02*
G75*
G03X2175080Y-2109892I-40000J0D01*
G01*
X2175080Y-2389292D02*
G75*
G03X2175080Y-2389292I-40000J0D01*
G01*
X2175080Y-2643292D02*
G75*
G03X2175080Y-2643292I-40000J0D01*
G01*
X2175080Y-3646592D02*
G75*
G03X2175080Y-3646592I-40000J0D01*
G01*
X2175080Y-3900592D02*
G75*
G03X2175080Y-3900592I-40000J0D01*
G01*
X2175080Y-4805892D02*
G75*
G03X2175080Y-4805892I-40000J0D01*
G01*
X2175080Y-5059892D02*
G75*
G03X2175080Y-5059892I-40000J0D01*
G01*
X2175080Y-5339292D02*
G75*
G03X2175080Y-5339292I-40000J0D01*
G01*
X2175080Y-5593292D02*
G75*
G03X2175080Y-5593292I-40000J0D01*
G01*
X2175080Y-6596592D02*
G75*
G03X2175080Y-6596592I-40000J0D01*
G01*
X2175080Y-6850592D02*
G75*
G03X2175080Y-6850592I-40000J0D01*
G01*
X2175080Y-7755892D02*
G75*
G03X2175080Y-7755892I-40000J0D01*
G01*
X2175080Y-8009892D02*
G75*
G03X2175080Y-8009892I-40000J0D01*
G01*
X2175080Y-8289292D02*
G75*
G03X2175080Y-8289292I-40000J0D01*
G01*
X2175080Y-8543292D02*
G75*
G03X2175080Y-8543292I-40000J0D01*
G01*
X2175080Y-9546592D02*
G75*
G03X2175080Y-9546592I-40000J0D01*
G01*
X2175080Y-9800592D02*
G75*
G03X2175080Y-9800592I-40000J0D01*
G01*
X2251280Y-2909992D02*
G75*
G03X2251280Y-2909992I-40000J0D01*
G01*
X2251280Y-3159992D02*
G75*
G03X2251280Y-3159992I-40000J0D01*
G01*
X2251280Y-5859992D02*
G75*
G03X2251280Y-5859992I-40000J0D01*
G01*
X2251280Y-6109992D02*
G75*
G03X2251280Y-6109992I-40000J0D01*
G01*
X2251280Y-8809992D02*
G75*
G03X2251280Y-8809992I-40000J0D01*
G01*
X2251280Y-9059992D02*
G75*
G03X2251280Y-9059992I-40000J0D01*
G01*
X2505280Y-1805092D02*
G75*
G03X2505280Y-1805092I-40000J0D01*
G01*
X2505280Y-2059092D02*
G75*
G03X2505280Y-2059092I-40000J0D01*
G01*
X2505280Y-2389292D02*
G75*
G03X2505280Y-2389292I-40000J0D01*
G01*
X2505280Y-2643292D02*
G75*
G03X2505280Y-2643292I-40000J0D01*
G01*
X2505280Y-3650592D02*
G75*
G03X2505280Y-3650592I-40000J0D01*
G01*
X2505280Y-3900592D02*
G75*
G03X2505280Y-3900592I-40000J0D01*
G01*
X2505280Y-4755092D02*
G75*
G03X2505280Y-4755092I-40000J0D01*
G01*
X2505280Y-5009092D02*
G75*
G03X2505280Y-5009092I-40000J0D01*
G01*
X2505280Y-5339292D02*
G75*
G03X2505280Y-5339292I-40000J0D01*
G01*
X2505280Y-5593292D02*
G75*
G03X2505280Y-5593292I-40000J0D01*
G01*
X2505280Y-6600592D02*
G75*
G03X2505280Y-6600592I-40000J0D01*
G01*
X2505280Y-6850592D02*
G75*
G03X2505280Y-6850592I-40000J0D01*
G01*
X2505280Y-7705092D02*
G75*
G03X2505280Y-7705092I-40000J0D01*
G01*
X2505280Y-7959092D02*
G75*
G03X2505280Y-7959092I-40000J0D01*
G01*
X2505280Y-8289292D02*
G75*
G03X2505280Y-8289292I-40000J0D01*
G01*
X2505280Y-8543292D02*
G75*
G03X2505280Y-8543292I-40000J0D01*
G01*
X2505280Y-9550592D02*
G75*
G03X2505280Y-9550592I-40000J0D01*
G01*
X2505280Y-9800592D02*
G75*
G03X2505280Y-9800592I-40000J0D01*
G01*
X2556080Y-3290992D02*
G75*
G03X2556080Y-3290992I-40000J0D01*
G01*
X2556080Y-6240992D02*
G75*
G03X2556080Y-6240992I-40000J0D01*
G01*
X2556080Y-9190992D02*
G75*
G03X2556080Y-9190992I-40000J0D01*
G01*
X2581480Y-2960792D02*
G75*
G03X2581480Y-2960792I-40000J0D01*
G01*
X2581480Y-5910792D02*
G75*
G03X2581480Y-5910792I-40000J0D01*
G01*
X2581480Y-8860792D02*
G75*
G03X2581480Y-8860792I-40000J0D01*
G01*
X2810080Y-3290992D02*
G75*
G03X2810080Y-3290992I-40000J0D01*
G01*
X2810080Y-6240992D02*
G75*
G03X2810080Y-6240992I-40000J0D01*
G01*
X2810080Y-9190992D02*
G75*
G03X2810080Y-9190992I-40000J0D01*
G01*
X2822780Y-2389292D02*
G75*
G03X2822780Y-2389292I-40000J0D01*
G01*
X2822780Y-2643292D02*
G75*
G03X2822780Y-2643292I-40000J0D01*
G01*
X2822780Y-5339292D02*
G75*
G03X2822780Y-5339292I-40000J0D01*
G01*
X2822780Y-5593292D02*
G75*
G03X2822780Y-5593292I-40000J0D01*
G01*
X2822780Y-8289292D02*
G75*
G03X2822780Y-8289292I-40000J0D01*
G01*
X2822780Y-8543292D02*
G75*
G03X2822780Y-8543292I-40000J0D01*
G01*
X2831480Y-2960792D02*
G75*
G03X2831480Y-2960792I-40000J0D01*
G01*
X2831480Y-5910792D02*
G75*
G03X2831480Y-5910792I-40000J0D01*
G01*
X2831480Y-8860792D02*
G75*
G03X2831480Y-8860792I-40000J0D01*
G01*
X2835480Y-1805092D02*
G75*
G03X2835480Y-1805092I-40000J0D01*
G01*
X2835480Y-2059092D02*
G75*
G03X2835480Y-2059092I-40000J0D01*
G01*
X2835480Y-3646592D02*
G75*
G03X2835480Y-3646592I-40000J0D01*
G01*
X2835480Y-3900592D02*
G75*
G03X2835480Y-3900592I-40000J0D01*
G01*
X2835480Y-4755092D02*
G75*
G03X2835480Y-4755092I-40000J0D01*
G01*
X2835480Y-5009092D02*
G75*
G03X2835480Y-5009092I-40000J0D01*
G01*
X2835480Y-6596592D02*
G75*
G03X2835480Y-6596592I-40000J0D01*
G01*
X2835480Y-6850592D02*
G75*
G03X2835480Y-6850592I-40000J0D01*
G01*
X2835480Y-7705092D02*
G75*
G03X2835480Y-7705092I-40000J0D01*
G01*
X2835480Y-7959092D02*
G75*
G03X2835480Y-7959092I-40000J0D01*
G01*
X2835480Y-9546592D02*
G75*
G03X2835480Y-9546592I-40000J0D01*
G01*
X2835480Y-9800592D02*
G75*
G03X2835480Y-9800592I-40000J0D01*
G01*
X3114880Y-2376592D02*
G75*
G03X3114880Y-2376592I-40000J0D01*
G01*
X3114880Y-2630592D02*
G75*
G03X3114880Y-2630592I-40000J0D01*
G01*
X3114880Y-2884592D02*
G75*
G03X3114880Y-2884592I-40000J0D01*
G01*
X3114880Y-3138592D02*
G75*
G03X3114880Y-3138592I-40000J0D01*
G01*
X3114880Y-3392592D02*
G75*
G03X3114880Y-3392592I-40000J0D01*
G01*
X3114880Y-3646592D02*
G75*
G03X3114880Y-3646592I-40000J0D01*
G01*
X3114880Y-3900592D02*
G75*
G03X3114880Y-3900592I-40000J0D01*
G01*
X3114880Y-5326592D02*
G75*
G03X3114880Y-5326592I-40000J0D01*
G01*
X3114880Y-5580592D02*
G75*
G03X3114880Y-5580592I-40000J0D01*
G01*
X3114880Y-5834592D02*
G75*
G03X3114880Y-5834592I-40000J0D01*
G01*
X3114880Y-6088592D02*
G75*
G03X3114880Y-6088592I-40000J0D01*
G01*
X3114880Y-6342592D02*
G75*
G03X3114880Y-6342592I-40000J0D01*
G01*
X3114880Y-6596592D02*
G75*
G03X3114880Y-6596592I-40000J0D01*
G01*
X3114880Y-6850592D02*
G75*
G03X3114880Y-6850592I-40000J0D01*
G01*
X3114880Y-8276592D02*
G75*
G03X3114880Y-8276592I-40000J0D01*
G01*
X3114880Y-8530592D02*
G75*
G03X3114880Y-8530592I-40000J0D01*
G01*
X3114880Y-8784592D02*
G75*
G03X3114880Y-8784592I-40000J0D01*
G01*
X3114880Y-9038592D02*
G75*
G03X3114880Y-9038592I-40000J0D01*
G01*
X3114880Y-9292592D02*
G75*
G03X3114880Y-9292592I-40000J0D01*
G01*
X3114880Y-9546592D02*
G75*
G03X3114880Y-9546592I-40000J0D01*
G01*
X3114880Y-9800592D02*
G75*
G03X3114880Y-9800592I-40000J0D01*
G01*
X3165680Y-1805092D02*
G75*
G03X3165680Y-1805092I-40000J0D01*
G01*
X3165680Y-2055092D02*
G75*
G03X3165680Y-2055092I-40000J0D01*
G01*
X3165680Y-4755092D02*
G75*
G03X3165680Y-4755092I-40000J0D01*
G01*
X3165680Y-5005092D02*
G75*
G03X3165680Y-5005092I-40000J0D01*
G01*
X3165680Y-7705092D02*
G75*
G03X3165680Y-7705092I-40000J0D01*
G01*
X3165680Y-7955092D02*
G75*
G03X3165680Y-7955092I-40000J0D01*
G01*
X3495880Y-1843192D02*
G75*
G03X3495880Y-1843192I-40000J0D01*
G01*
X3495880Y-2097192D02*
G75*
G03X3495880Y-2097192I-40000J0D01*
G01*
X3495880Y-4793192D02*
G75*
G03X3495880Y-4793192I-40000J0D01*
G01*
X3495880Y-5047192D02*
G75*
G03X3495880Y-5047192I-40000J0D01*
G01*
X3495880Y-7743192D02*
G75*
G03X3495880Y-7743192I-40000J0D01*
G01*
X3495880Y-7997192D02*
G75*
G03X3495880Y-7997192I-40000J0D01*
G01*
X3813380Y-1843192D02*
G75*
G03X3813380Y-1843192I-40000J0D01*
G01*
X3813380Y-2097192D02*
G75*
G03X3813380Y-2097192I-40000J0D01*
G01*
X3813380Y-4793192D02*
G75*
G03X3813380Y-4793192I-40000J0D01*
G01*
X3813380Y-5047192D02*
G75*
G03X3813380Y-5047192I-40000J0D01*
G01*
X3813380Y-7743192D02*
G75*
G03X3813380Y-7743192I-40000J0D01*
G01*
X3813380Y-7997192D02*
G75*
G03X3813380Y-7997192I-40000J0D01*
G01*
X3876880Y-2376592D02*
G75*
G03X3876880Y-2376592I-40000J0D01*
G01*
X3876880Y-2630592D02*
G75*
G03X3876880Y-2630592I-40000J0D01*
G01*
X3876880Y-2884592D02*
G75*
G03X3876880Y-2884592I-40000J0D01*
G01*
X3876880Y-3138592D02*
G75*
G03X3876880Y-3138592I-40000J0D01*
G01*
X3876880Y-3392592D02*
G75*
G03X3876880Y-3392592I-40000J0D01*
G01*
X3876880Y-3646592D02*
G75*
G03X3876880Y-3646592I-40000J0D01*
G01*
X3876880Y-3900592D02*
G75*
G03X3876880Y-3900592I-40000J0D01*
G01*
X3876880Y-5326592D02*
G75*
G03X3876880Y-5326592I-40000J0D01*
G01*
X3876880Y-5580592D02*
G75*
G03X3876880Y-5580592I-40000J0D01*
G01*
X3876880Y-5834592D02*
G75*
G03X3876880Y-5834592I-40000J0D01*
G01*
X3876880Y-6088592D02*
G75*
G03X3876880Y-6088592I-40000J0D01*
G01*
X3876880Y-6342592D02*
G75*
G03X3876880Y-6342592I-40000J0D01*
G01*
X3876880Y-6596592D02*
G75*
G03X3876880Y-6596592I-40000J0D01*
G01*
X3876880Y-6850592D02*
G75*
G03X3876880Y-6850592I-40000J0D01*
G01*
X3876880Y-8276592D02*
G75*
G03X3876880Y-8276592I-40000J0D01*
G01*
X3876880Y-8530592D02*
G75*
G03X3876880Y-8530592I-40000J0D01*
G01*
X3876880Y-8784592D02*
G75*
G03X3876880Y-8784592I-40000J0D01*
G01*
X3876880Y-9038592D02*
G75*
G03X3876880Y-9038592I-40000J0D01*
G01*
X3876880Y-9292592D02*
G75*
G03X3876880Y-9292592I-40000J0D01*
G01*
X3876880Y-9546592D02*
G75*
G03X3876880Y-9546592I-40000J0D01*
G01*
X3876880Y-9800592D02*
G75*
G03X3876880Y-9800592I-40000J0D01*
G01*
X4080080Y-2046392D02*
G75*
G03X4080080Y-2046392I-40000J0D01*
G01*
X4080080Y-4996392D02*
G75*
G03X4080080Y-4996392I-40000J0D01*
G01*
X4080080Y-7946392D02*
G75*
G03X4080080Y-7946392I-40000J0D01*
G01*
X4143580Y-2376592D02*
G75*
G03X4143580Y-2376592I-40000J0D01*
G01*
X4143580Y-2694092D02*
G75*
G03X4143580Y-2694092I-40000J0D01*
G01*
X4143580Y-2948092D02*
G75*
G03X4143580Y-2948092I-40000J0D01*
G01*
X4143580Y-3163992D02*
G75*
G03X4143580Y-3163992I-40000J0D01*
G01*
X4143580Y-3417992D02*
G75*
G03X4143580Y-3417992I-40000J0D01*
G01*
X4143580Y-3684692D02*
G75*
G03X4143580Y-3684692I-40000J0D01*
G01*
X4143580Y-3938692D02*
G75*
G03X4143580Y-3938692I-40000J0D01*
G01*
X4143580Y-5326592D02*
G75*
G03X4143580Y-5326592I-40000J0D01*
G01*
X4143580Y-5644092D02*
G75*
G03X4143580Y-5644092I-40000J0D01*
G01*
X4143580Y-5898092D02*
G75*
G03X4143580Y-5898092I-40000J0D01*
G01*
X4143580Y-6113992D02*
G75*
G03X4143580Y-6113992I-40000J0D01*
G01*
X4143580Y-6367992D02*
G75*
G03X4143580Y-6367992I-40000J0D01*
G01*
X4143580Y-6634692D02*
G75*
G03X4143580Y-6634692I-40000J0D01*
G01*
X4143580Y-6888692D02*
G75*
G03X4143580Y-6888692I-40000J0D01*
G01*
X4143580Y-8276592D02*
G75*
G03X4143580Y-8276592I-40000J0D01*
G01*
X4143580Y-8594092D02*
G75*
G03X4143580Y-8594092I-40000J0D01*
G01*
X4143580Y-8848092D02*
G75*
G03X4143580Y-8848092I-40000J0D01*
G01*
X4143580Y-9063992D02*
G75*
G03X4143580Y-9063992I-40000J0D01*
G01*
X4143580Y-9317992D02*
G75*
G03X4143580Y-9317992I-40000J0D01*
G01*
X4143580Y-9584692D02*
G75*
G03X4143580Y-9584692I-40000J0D01*
G01*
X4143580Y-9838692D02*
G75*
G03X4143580Y-9838692I-40000J0D01*
G01*
X4330080Y-2046392D02*
G75*
G03X4330080Y-2046392I-40000J0D01*
G01*
X4330080Y-4996392D02*
G75*
G03X4330080Y-4996392I-40000J0D01*
G01*
X4330080Y-7946392D02*
G75*
G03X4330080Y-7946392I-40000J0D01*
G01*
X4397580Y-2376592D02*
G75*
G03X4397580Y-2376592I-40000J0D01*
G01*
X4397580Y-5326592D02*
G75*
G03X4397580Y-5326592I-40000J0D01*
G01*
X4397580Y-8276592D02*
G75*
G03X4397580Y-8276592I-40000J0D01*
G01*
X4461080Y-3163992D02*
G75*
G03X4461080Y-3163992I-40000J0D01*
G01*
X4461080Y-3417992D02*
G75*
G03X4461080Y-3417992I-40000J0D01*
G01*
X4461080Y-6113992D02*
G75*
G03X4461080Y-6113992I-40000J0D01*
G01*
X4461080Y-6367992D02*
G75*
G03X4461080Y-6367992I-40000J0D01*
G01*
X4461080Y-9063992D02*
G75*
G03X4461080Y-9063992I-40000J0D01*
G01*
X4461080Y-9317992D02*
G75*
G03X4461080Y-9317992I-40000J0D01*
G01*
X4473780Y-3684692D02*
G75*
G03X4473780Y-3684692I-40000J0D01*
G01*
X4473780Y-3934692D02*
G75*
G03X4473780Y-3934692I-40000J0D01*
G01*
X4473780Y-6634692D02*
G75*
G03X4473780Y-6634692I-40000J0D01*
G01*
X4473780Y-6884692D02*
G75*
G03X4473780Y-6884692I-40000J0D01*
G01*
X4473780Y-9584692D02*
G75*
G03X4473780Y-9584692I-40000J0D01*
G01*
X4473780Y-9834692D02*
G75*
G03X4473780Y-9834692I-40000J0D01*
G01*
X4600780Y-2033692D02*
G75*
G03X4600780Y-2033692I-40000J0D01*
G01*
X4600780Y-4983692D02*
G75*
G03X4600780Y-4983692I-40000J0D01*
G01*
X4600780Y-7933692D02*
G75*
G03X4600780Y-7933692I-40000J0D01*
G01*
X4676980Y-2363892D02*
G75*
G03X4676980Y-2363892I-40000J0D01*
G01*
X4676980Y-2617892D02*
G75*
G03X4676980Y-2617892I-40000J0D01*
G01*
X4676980Y-5313892D02*
G75*
G03X4676980Y-5313892I-40000J0D01*
G01*
X4676980Y-5567892D02*
G75*
G03X4676980Y-5567892I-40000J0D01*
G01*
X4676980Y-8263892D02*
G75*
G03X4676980Y-8263892I-40000J0D01*
G01*
X4676980Y-8517892D02*
G75*
G03X4676980Y-8517892I-40000J0D01*
G01*
X4790080Y-2850292D02*
G75*
G03X4790080Y-2850292I-40000J0D01*
G01*
X4790080Y-3612292D02*
G75*
G03X4790080Y-3612292I-40000J0D01*
G01*
X4790080Y-5800292D02*
G75*
G03X4790080Y-5800292I-40000J0D01*
G01*
X4790080Y-6562292D02*
G75*
G03X4790080Y-6562292I-40000J0D01*
G01*
X4790080Y-8750292D02*
G75*
G03X4790080Y-8750292I-40000J0D01*
G01*
X4790080Y-9512292D02*
G75*
G03X4790080Y-9512292I-40000J0D01*
G01*
X4854780Y-2033692D02*
G75*
G03X4854780Y-2033692I-40000J0D01*
G01*
X4854780Y-4983692D02*
G75*
G03X4854780Y-4983692I-40000J0D01*
G01*
X4854780Y-7933692D02*
G75*
G03X4854780Y-7933692I-40000J0D01*
G01*
X5719880Y-1859892D02*
G75*
G03X5719880Y-1859892I-40000J0D01*
G01*
X5719880Y-2109892D02*
G75*
G03X5719880Y-2109892I-40000J0D01*
G01*
X5719880Y-2389292D02*
G75*
G03X5719880Y-2389292I-40000J0D01*
G01*
X5719880Y-2643292D02*
G75*
G03X5719880Y-2643292I-40000J0D01*
G01*
X5719880Y-4809892D02*
G75*
G03X5719880Y-4809892I-40000J0D01*
G01*
X5719880Y-5059892D02*
G75*
G03X5719880Y-5059892I-40000J0D01*
G01*
X5719880Y-5339292D02*
G75*
G03X5719880Y-5339292I-40000J0D01*
G01*
X5719880Y-5593292D02*
G75*
G03X5719880Y-5593292I-40000J0D01*
G01*
X5719880Y-7759892D02*
G75*
G03X5719880Y-7759892I-40000J0D01*
G01*
X5719880Y-8009892D02*
G75*
G03X5719880Y-8009892I-40000J0D01*
G01*
X5719880Y-8289292D02*
G75*
G03X5719880Y-8289292I-40000J0D01*
G01*
X5719880Y-8543292D02*
G75*
G03X5719880Y-8543292I-40000J0D01*
G01*
X6050080Y-1855892D02*
G75*
G03X6050080Y-1855892I-40000J0D01*
G01*
X6050080Y-2109892D02*
G75*
G03X6050080Y-2109892I-40000J0D01*
G01*
X6050080Y-2389292D02*
G75*
G03X6050080Y-2389292I-40000J0D01*
G01*
X6050080Y-2643292D02*
G75*
G03X6050080Y-2643292I-40000J0D01*
G01*
X6050080Y-3646592D02*
G75*
G03X6050080Y-3646592I-40000J0D01*
G01*
X6050080Y-3900592D02*
G75*
G03X6050080Y-3900592I-40000J0D01*
G01*
X6050080Y-4805892D02*
G75*
G03X6050080Y-4805892I-40000J0D01*
G01*
X6050080Y-5059892D02*
G75*
G03X6050080Y-5059892I-40000J0D01*
G01*
X6050080Y-5339292D02*
G75*
G03X6050080Y-5339292I-40000J0D01*
G01*
X6050080Y-5593292D02*
G75*
G03X6050080Y-5593292I-40000J0D01*
G01*
X6050080Y-6596592D02*
G75*
G03X6050080Y-6596592I-40000J0D01*
G01*
X6050080Y-6850592D02*
G75*
G03X6050080Y-6850592I-40000J0D01*
G01*
X6050080Y-7755892D02*
G75*
G03X6050080Y-7755892I-40000J0D01*
G01*
X6050080Y-8009892D02*
G75*
G03X6050080Y-8009892I-40000J0D01*
G01*
X6050080Y-8289292D02*
G75*
G03X6050080Y-8289292I-40000J0D01*
G01*
X6050080Y-8543292D02*
G75*
G03X6050080Y-8543292I-40000J0D01*
G01*
X6050080Y-9546592D02*
G75*
G03X6050080Y-9546592I-40000J0D01*
G01*
X6050080Y-9800592D02*
G75*
G03X6050080Y-9800592I-40000J0D01*
G01*
X6126280Y-2909992D02*
G75*
G03X6126280Y-2909992I-40000J0D01*
G01*
X6126280Y-3159992D02*
G75*
G03X6126280Y-3159992I-40000J0D01*
G01*
X6126280Y-5859992D02*
G75*
G03X6126280Y-5859992I-40000J0D01*
G01*
X6126280Y-6109992D02*
G75*
G03X6126280Y-6109992I-40000J0D01*
G01*
X6126280Y-8809992D02*
G75*
G03X6126280Y-8809992I-40000J0D01*
G01*
X6126280Y-9059992D02*
G75*
G03X6126280Y-9059992I-40000J0D01*
G01*
X6380280Y-1805092D02*
G75*
G03X6380280Y-1805092I-40000J0D01*
G01*
X6380280Y-2059092D02*
G75*
G03X6380280Y-2059092I-40000J0D01*
G01*
X6380280Y-2389292D02*
G75*
G03X6380280Y-2389292I-40000J0D01*
G01*
X6380280Y-2643292D02*
G75*
G03X6380280Y-2643292I-40000J0D01*
G01*
X6380280Y-3650592D02*
G75*
G03X6380280Y-3650592I-40000J0D01*
G01*
X6380280Y-3900592D02*
G75*
G03X6380280Y-3900592I-40000J0D01*
G01*
X6380280Y-4755092D02*
G75*
G03X6380280Y-4755092I-40000J0D01*
G01*
X6380280Y-5009092D02*
G75*
G03X6380280Y-5009092I-40000J0D01*
G01*
X6380280Y-5339292D02*
G75*
G03X6380280Y-5339292I-40000J0D01*
G01*
X6380280Y-5593292D02*
G75*
G03X6380280Y-5593292I-40000J0D01*
G01*
X6380280Y-6600592D02*
G75*
G03X6380280Y-6600592I-40000J0D01*
G01*
X6380280Y-6850592D02*
G75*
G03X6380280Y-6850592I-40000J0D01*
G01*
X6380280Y-7705092D02*
G75*
G03X6380280Y-7705092I-40000J0D01*
G01*
X6380280Y-7959092D02*
G75*
G03X6380280Y-7959092I-40000J0D01*
G01*
X6380280Y-8289292D02*
G75*
G03X6380280Y-8289292I-40000J0D01*
G01*
X6380280Y-8543292D02*
G75*
G03X6380280Y-8543292I-40000J0D01*
G01*
X6380280Y-9550592D02*
G75*
G03X6380280Y-9550592I-40000J0D01*
G01*
X6380280Y-9800592D02*
G75*
G03X6380280Y-9800592I-40000J0D01*
G01*
X6431080Y-3290992D02*
G75*
G03X6431080Y-3290992I-40000J0D01*
G01*
X6431080Y-6240992D02*
G75*
G03X6431080Y-6240992I-40000J0D01*
G01*
X6431080Y-9190992D02*
G75*
G03X6431080Y-9190992I-40000J0D01*
G01*
X6456480Y-2960792D02*
G75*
G03X6456480Y-2960792I-40000J0D01*
G01*
X6456480Y-5910792D02*
G75*
G03X6456480Y-5910792I-40000J0D01*
G01*
X6456480Y-8860792D02*
G75*
G03X6456480Y-8860792I-40000J0D01*
G01*
X6685080Y-3290992D02*
G75*
G03X6685080Y-3290992I-40000J0D01*
G01*
X6685080Y-6240992D02*
G75*
G03X6685080Y-6240992I-40000J0D01*
G01*
X6685080Y-9190992D02*
G75*
G03X6685080Y-9190992I-40000J0D01*
G01*
X6697780Y-2389292D02*
G75*
G03X6697780Y-2389292I-40000J0D01*
G01*
X6697780Y-2643292D02*
G75*
G03X6697780Y-2643292I-40000J0D01*
G01*
X6697780Y-5339292D02*
G75*
G03X6697780Y-5339292I-40000J0D01*
G01*
X6697780Y-5593292D02*
G75*
G03X6697780Y-5593292I-40000J0D01*
G01*
X6697780Y-8289292D02*
G75*
G03X6697780Y-8289292I-40000J0D01*
G01*
X6697780Y-8543292D02*
G75*
G03X6697780Y-8543292I-40000J0D01*
G01*
X6706480Y-2960792D02*
G75*
G03X6706480Y-2960792I-40000J0D01*
G01*
X6706480Y-5910792D02*
G75*
G03X6706480Y-5910792I-40000J0D01*
G01*
X6706480Y-8860792D02*
G75*
G03X6706480Y-8860792I-40000J0D01*
G01*
X6710480Y-1805092D02*
G75*
G03X6710480Y-1805092I-40000J0D01*
G01*
X6710480Y-2059092D02*
G75*
G03X6710480Y-2059092I-40000J0D01*
G01*
X6710480Y-3646592D02*
G75*
G03X6710480Y-3646592I-40000J0D01*
G01*
X6710480Y-3900592D02*
G75*
G03X6710480Y-3900592I-40000J0D01*
G01*
X6710480Y-4755092D02*
G75*
G03X6710480Y-4755092I-40000J0D01*
G01*
X6710480Y-5009092D02*
G75*
G03X6710480Y-5009092I-40000J0D01*
G01*
X6710480Y-6596592D02*
G75*
G03X6710480Y-6596592I-40000J0D01*
G01*
X6710480Y-6850592D02*
G75*
G03X6710480Y-6850592I-40000J0D01*
G01*
X6710480Y-7705092D02*
G75*
G03X6710480Y-7705092I-40000J0D01*
G01*
X6710480Y-7959092D02*
G75*
G03X6710480Y-7959092I-40000J0D01*
G01*
X6710480Y-9546592D02*
G75*
G03X6710480Y-9546592I-40000J0D01*
G01*
X6710480Y-9800592D02*
G75*
G03X6710480Y-9800592I-40000J0D01*
G01*
X6989880Y-2376592D02*
G75*
G03X6989880Y-2376592I-40000J0D01*
G01*
X6989880Y-2630592D02*
G75*
G03X6989880Y-2630592I-40000J0D01*
G01*
X6989880Y-2884592D02*
G75*
G03X6989880Y-2884592I-40000J0D01*
G01*
X6989880Y-3138592D02*
G75*
G03X6989880Y-3138592I-40000J0D01*
G01*
X6989880Y-3392592D02*
G75*
G03X6989880Y-3392592I-40000J0D01*
G01*
X6989880Y-3646592D02*
G75*
G03X6989880Y-3646592I-40000J0D01*
G01*
X6989880Y-3900592D02*
G75*
G03X6989880Y-3900592I-40000J0D01*
G01*
X6989880Y-5326592D02*
G75*
G03X6989880Y-5326592I-40000J0D01*
G01*
X6989880Y-5580592D02*
G75*
G03X6989880Y-5580592I-40000J0D01*
G01*
X6989880Y-5834592D02*
G75*
G03X6989880Y-5834592I-40000J0D01*
G01*
X6989880Y-6088592D02*
G75*
G03X6989880Y-6088592I-40000J0D01*
G01*
X6989880Y-6342592D02*
G75*
G03X6989880Y-6342592I-40000J0D01*
G01*
X6989880Y-6596592D02*
G75*
G03X6989880Y-6596592I-40000J0D01*
G01*
X6989880Y-6850592D02*
G75*
G03X6989880Y-6850592I-40000J0D01*
G01*
X6989880Y-8276592D02*
G75*
G03X6989880Y-8276592I-40000J0D01*
G01*
X6989880Y-8530592D02*
G75*
G03X6989880Y-8530592I-40000J0D01*
G01*
X6989880Y-8784592D02*
G75*
G03X6989880Y-8784592I-40000J0D01*
G01*
X6989880Y-9038592D02*
G75*
G03X6989880Y-9038592I-40000J0D01*
G01*
X6989880Y-9292592D02*
G75*
G03X6989880Y-9292592I-40000J0D01*
G01*
X6989880Y-9546592D02*
G75*
G03X6989880Y-9546592I-40000J0D01*
G01*
X6989880Y-9800592D02*
G75*
G03X6989880Y-9800592I-40000J0D01*
G01*
X7040680Y-1805092D02*
G75*
G03X7040680Y-1805092I-40000J0D01*
G01*
X7040680Y-2055092D02*
G75*
G03X7040680Y-2055092I-40000J0D01*
G01*
X7040680Y-4755092D02*
G75*
G03X7040680Y-4755092I-40000J0D01*
G01*
X7040680Y-5005092D02*
G75*
G03X7040680Y-5005092I-40000J0D01*
G01*
X7040680Y-7705092D02*
G75*
G03X7040680Y-7705092I-40000J0D01*
G01*
X7040680Y-7955092D02*
G75*
G03X7040680Y-7955092I-40000J0D01*
G01*
X7370880Y-1843192D02*
G75*
G03X7370880Y-1843192I-40000J0D01*
G01*
X7370880Y-2097192D02*
G75*
G03X7370880Y-2097192I-40000J0D01*
G01*
X7370880Y-4793192D02*
G75*
G03X7370880Y-4793192I-40000J0D01*
G01*
X7370880Y-5047192D02*
G75*
G03X7370880Y-5047192I-40000J0D01*
G01*
X7370880Y-7743192D02*
G75*
G03X7370880Y-7743192I-40000J0D01*
G01*
X7370880Y-7997192D02*
G75*
G03X7370880Y-7997192I-40000J0D01*
G01*
X7688380Y-1843192D02*
G75*
G03X7688380Y-1843192I-40000J0D01*
G01*
X7688380Y-2097192D02*
G75*
G03X7688380Y-2097192I-40000J0D01*
G01*
X7688380Y-4793192D02*
G75*
G03X7688380Y-4793192I-40000J0D01*
G01*
X7688380Y-5047192D02*
G75*
G03X7688380Y-5047192I-40000J0D01*
G01*
X7688380Y-7743192D02*
G75*
G03X7688380Y-7743192I-40000J0D01*
G01*
X7688380Y-7997192D02*
G75*
G03X7688380Y-7997192I-40000J0D01*
G01*
X7751880Y-2376592D02*
G75*
G03X7751880Y-2376592I-40000J0D01*
G01*
X7751880Y-2630592D02*
G75*
G03X7751880Y-2630592I-40000J0D01*
G01*
X7751880Y-2884592D02*
G75*
G03X7751880Y-2884592I-40000J0D01*
G01*
X7751880Y-3138592D02*
G75*
G03X7751880Y-3138592I-40000J0D01*
G01*
X7751880Y-3392592D02*
G75*
G03X7751880Y-3392592I-40000J0D01*
G01*
X7751880Y-3646592D02*
G75*
G03X7751880Y-3646592I-40000J0D01*
G01*
X7751880Y-3900592D02*
G75*
G03X7751880Y-3900592I-40000J0D01*
G01*
X7751880Y-5326592D02*
G75*
G03X7751880Y-5326592I-40000J0D01*
G01*
X7751880Y-5580592D02*
G75*
G03X7751880Y-5580592I-40000J0D01*
G01*
X7751880Y-5834592D02*
G75*
G03X7751880Y-5834592I-40000J0D01*
G01*
X7751880Y-6088592D02*
G75*
G03X7751880Y-6088592I-40000J0D01*
G01*
X7751880Y-6342592D02*
G75*
G03X7751880Y-6342592I-40000J0D01*
G01*
X7751880Y-6596592D02*
G75*
G03X7751880Y-6596592I-40000J0D01*
G01*
X7751880Y-6850592D02*
G75*
G03X7751880Y-6850592I-40000J0D01*
G01*
X7751880Y-8276592D02*
G75*
G03X7751880Y-8276592I-40000J0D01*
G01*
X7751880Y-8530592D02*
G75*
G03X7751880Y-8530592I-40000J0D01*
G01*
X7751880Y-8784592D02*
G75*
G03X7751880Y-8784592I-40000J0D01*
G01*
X7751880Y-9038592D02*
G75*
G03X7751880Y-9038592I-40000J0D01*
G01*
X7751880Y-9292592D02*
G75*
G03X7751880Y-9292592I-40000J0D01*
G01*
X7751880Y-9546592D02*
G75*
G03X7751880Y-9546592I-40000J0D01*
G01*
X7751880Y-9800592D02*
G75*
G03X7751880Y-9800592I-40000J0D01*
G01*
X7955080Y-2046392D02*
G75*
G03X7955080Y-2046392I-40000J0D01*
G01*
X7955080Y-4996392D02*
G75*
G03X7955080Y-4996392I-40000J0D01*
G01*
X7955080Y-7946392D02*
G75*
G03X7955080Y-7946392I-40000J0D01*
G01*
X8018580Y-2376592D02*
G75*
G03X8018580Y-2376592I-40000J0D01*
G01*
X8018580Y-2694092D02*
G75*
G03X8018580Y-2694092I-40000J0D01*
G01*
X8018580Y-2948092D02*
G75*
G03X8018580Y-2948092I-40000J0D01*
G01*
X8018580Y-3163992D02*
G75*
G03X8018580Y-3163992I-40000J0D01*
G01*
X8018580Y-3417992D02*
G75*
G03X8018580Y-3417992I-40000J0D01*
G01*
X8018580Y-3684692D02*
G75*
G03X8018580Y-3684692I-40000J0D01*
G01*
X8018580Y-3938692D02*
G75*
G03X8018580Y-3938692I-40000J0D01*
G01*
X8018580Y-5326592D02*
G75*
G03X8018580Y-5326592I-40000J0D01*
G01*
X8018580Y-5644092D02*
G75*
G03X8018580Y-5644092I-40000J0D01*
G01*
X8018580Y-5898092D02*
G75*
G03X8018580Y-5898092I-40000J0D01*
G01*
X8018580Y-6113992D02*
G75*
G03X8018580Y-6113992I-40000J0D01*
G01*
X8018580Y-6367992D02*
G75*
G03X8018580Y-6367992I-40000J0D01*
G01*
X8018580Y-6634692D02*
G75*
G03X8018580Y-6634692I-40000J0D01*
G01*
X8018580Y-6888692D02*
G75*
G03X8018580Y-6888692I-40000J0D01*
G01*
X8018580Y-8276592D02*
G75*
G03X8018580Y-8276592I-40000J0D01*
G01*
X8018580Y-8594092D02*
G75*
G03X8018580Y-8594092I-40000J0D01*
G01*
X8018580Y-8848092D02*
G75*
G03X8018580Y-8848092I-40000J0D01*
G01*
X8018580Y-9063992D02*
G75*
G03X8018580Y-9063992I-40000J0D01*
G01*
X8018580Y-9317992D02*
G75*
G03X8018580Y-9317992I-40000J0D01*
G01*
X8018580Y-9584692D02*
G75*
G03X8018580Y-9584692I-40000J0D01*
G01*
X8018580Y-9838692D02*
G75*
G03X8018580Y-9838692I-40000J0D01*
G01*
X8205080Y-2046392D02*
G75*
G03X8205080Y-2046392I-40000J0D01*
G01*
X8205080Y-4996392D02*
G75*
G03X8205080Y-4996392I-40000J0D01*
G01*
X8205080Y-7946392D02*
G75*
G03X8205080Y-7946392I-40000J0D01*
G01*
X8272580Y-2376592D02*
G75*
G03X8272580Y-2376592I-40000J0D01*
G01*
X8272580Y-5326592D02*
G75*
G03X8272580Y-5326592I-40000J0D01*
G01*
X8272580Y-8276592D02*
G75*
G03X8272580Y-8276592I-40000J0D01*
G01*
X8336080Y-3163992D02*
G75*
G03X8336080Y-3163992I-40000J0D01*
G01*
X8336080Y-3417992D02*
G75*
G03X8336080Y-3417992I-40000J0D01*
G01*
X8336080Y-6113992D02*
G75*
G03X8336080Y-6113992I-40000J0D01*
G01*
X8336080Y-6367992D02*
G75*
G03X8336080Y-6367992I-40000J0D01*
G01*
X8336080Y-9063992D02*
G75*
G03X8336080Y-9063992I-40000J0D01*
G01*
X8336080Y-9317992D02*
G75*
G03X8336080Y-9317992I-40000J0D01*
G01*
X8348780Y-3684692D02*
G75*
G03X8348780Y-3684692I-40000J0D01*
G01*
X8348780Y-3934692D02*
G75*
G03X8348780Y-3934692I-40000J0D01*
G01*
X8348780Y-6634692D02*
G75*
G03X8348780Y-6634692I-40000J0D01*
G01*
X8348780Y-6884692D02*
G75*
G03X8348780Y-6884692I-40000J0D01*
G01*
X8348780Y-9584692D02*
G75*
G03X8348780Y-9584692I-40000J0D01*
G01*
X8348780Y-9834692D02*
G75*
G03X8348780Y-9834692I-40000J0D01*
G01*
X8475780Y-2033692D02*
G75*
G03X8475780Y-2033692I-40000J0D01*
G01*
X8475780Y-4983692D02*
G75*
G03X8475780Y-4983692I-40000J0D01*
G01*
X8475780Y-7933692D02*
G75*
G03X8475780Y-7933692I-40000J0D01*
G01*
X8551980Y-2363892D02*
G75*
G03X8551980Y-2363892I-40000J0D01*
G01*
X8551980Y-2617892D02*
G75*
G03X8551980Y-2617892I-40000J0D01*
G01*
X8551980Y-5313892D02*
G75*
G03X8551980Y-5313892I-40000J0D01*
G01*
X8551980Y-5567892D02*
G75*
G03X8551980Y-5567892I-40000J0D01*
G01*
X8551980Y-8263892D02*
G75*
G03X8551980Y-8263892I-40000J0D01*
G01*
X8551980Y-8517892D02*
G75*
G03X8551980Y-8517892I-40000J0D01*
G01*
X8665080Y-2850292D02*
G75*
G03X8665080Y-2850292I-40000J0D01*
G01*
X8665080Y-3612292D02*
G75*
G03X8665080Y-3612292I-40000J0D01*
G01*
X8665080Y-5800292D02*
G75*
G03X8665080Y-5800292I-40000J0D01*
G01*
X8665080Y-6562292D02*
G75*
G03X8665080Y-6562292I-40000J0D01*
G01*
X8665080Y-8750292D02*
G75*
G03X8665080Y-8750292I-40000J0D01*
G01*
X8665080Y-9512292D02*
G75*
G03X8665080Y-9512292I-40000J0D01*
G01*
X8729780Y-2033692D02*
G75*
G03X8729780Y-2033692I-40000J0D01*
G01*
X8729780Y-4983692D02*
G75*
G03X8729780Y-4983692I-40000J0D01*
G01*
X8729780Y-7933692D02*
G75*
G03X8729780Y-7933692I-40000J0D01*
G01*
X9594880Y-1859892D02*
G75*
G03X9594880Y-1859892I-40000J0D01*
G01*
X9594880Y-2109892D02*
G75*
G03X9594880Y-2109892I-40000J0D01*
G01*
X9594880Y-2389292D02*
G75*
G03X9594880Y-2389292I-40000J0D01*
G01*
X9594880Y-2643292D02*
G75*
G03X9594880Y-2643292I-40000J0D01*
G01*
X9594880Y-4809892D02*
G75*
G03X9594880Y-4809892I-40000J0D01*
G01*
X9594880Y-5059892D02*
G75*
G03X9594880Y-5059892I-40000J0D01*
G01*
X9594880Y-5339292D02*
G75*
G03X9594880Y-5339292I-40000J0D01*
G01*
X9594880Y-5593292D02*
G75*
G03X9594880Y-5593292I-40000J0D01*
G01*
X9594880Y-7759892D02*
G75*
G03X9594880Y-7759892I-40000J0D01*
G01*
X9594880Y-8009892D02*
G75*
G03X9594880Y-8009892I-40000J0D01*
G01*
X9594880Y-8289292D02*
G75*
G03X9594880Y-8289292I-40000J0D01*
G01*
X9594880Y-8543292D02*
G75*
G03X9594880Y-8543292I-40000J0D01*
G01*
X9925080Y-1855892D02*
G75*
G03X9925080Y-1855892I-40000J0D01*
G01*
X9925080Y-2109892D02*
G75*
G03X9925080Y-2109892I-40000J0D01*
G01*
X9925080Y-2389292D02*
G75*
G03X9925080Y-2389292I-40000J0D01*
G01*
X9925080Y-2643292D02*
G75*
G03X9925080Y-2643292I-40000J0D01*
G01*
X9925080Y-3646592D02*
G75*
G03X9925080Y-3646592I-40000J0D01*
G01*
X9925080Y-3900592D02*
G75*
G03X9925080Y-3900592I-40000J0D01*
G01*
X9925080Y-4805892D02*
G75*
G03X9925080Y-4805892I-40000J0D01*
G01*
X9925080Y-5059892D02*
G75*
G03X9925080Y-5059892I-40000J0D01*
G01*
X9925080Y-5339292D02*
G75*
G03X9925080Y-5339292I-40000J0D01*
G01*
X9925080Y-5593292D02*
G75*
G03X9925080Y-5593292I-40000J0D01*
G01*
X9925080Y-6596592D02*
G75*
G03X9925080Y-6596592I-40000J0D01*
G01*
X9925080Y-6850592D02*
G75*
G03X9925080Y-6850592I-40000J0D01*
G01*
X9925080Y-7755892D02*
G75*
G03X9925080Y-7755892I-40000J0D01*
G01*
X9925080Y-8009892D02*
G75*
G03X9925080Y-8009892I-40000J0D01*
G01*
X9925080Y-8289292D02*
G75*
G03X9925080Y-8289292I-40000J0D01*
G01*
X9925080Y-8543292D02*
G75*
G03X9925080Y-8543292I-40000J0D01*
G01*
X9925080Y-9546592D02*
G75*
G03X9925080Y-9546592I-40000J0D01*
G01*
X9925080Y-9800592D02*
G75*
G03X9925080Y-9800592I-40000J0D01*
G01*
X10001280Y-2909992D02*
G75*
G03X10001280Y-2909992I-40000J0D01*
G01*
X10001280Y-3159992D02*
G75*
G03X10001280Y-3159992I-40000J0D01*
G01*
X10001280Y-5859992D02*
G75*
G03X10001280Y-5859992I-40000J0D01*
G01*
X10001280Y-6109992D02*
G75*
G03X10001280Y-6109992I-40000J0D01*
G01*
X10001280Y-8809992D02*
G75*
G03X10001280Y-8809992I-40000J0D01*
G01*
X10001280Y-9059992D02*
G75*
G03X10001280Y-9059992I-40000J0D01*
G01*
X10255280Y-1805092D02*
G75*
G03X10255280Y-1805092I-40000J0D01*
G01*
X10255280Y-2059092D02*
G75*
G03X10255280Y-2059092I-40000J0D01*
G01*
X10255280Y-2389292D02*
G75*
G03X10255280Y-2389292I-40000J0D01*
G01*
X10255280Y-2643292D02*
G75*
G03X10255280Y-2643292I-40000J0D01*
G01*
X10255280Y-3650592D02*
G75*
G03X10255280Y-3650592I-40000J0D01*
G01*
X10255280Y-3900592D02*
G75*
G03X10255280Y-3900592I-40000J0D01*
G01*
X10255280Y-4755092D02*
G75*
G03X10255280Y-4755092I-40000J0D01*
G01*
X10255280Y-5009092D02*
G75*
G03X10255280Y-5009092I-40000J0D01*
G01*
X10255280Y-5339292D02*
G75*
G03X10255280Y-5339292I-40000J0D01*
G01*
X10255280Y-5593292D02*
G75*
G03X10255280Y-5593292I-40000J0D01*
G01*
X10255280Y-6600592D02*
G75*
G03X10255280Y-6600592I-40000J0D01*
G01*
X10255280Y-6850592D02*
G75*
G03X10255280Y-6850592I-40000J0D01*
G01*
X10255280Y-7705092D02*
G75*
G03X10255280Y-7705092I-40000J0D01*
G01*
X10255280Y-7959092D02*
G75*
G03X10255280Y-7959092I-40000J0D01*
G01*
X10255280Y-8289292D02*
G75*
G03X10255280Y-8289292I-40000J0D01*
G01*
X10255280Y-8543292D02*
G75*
G03X10255280Y-8543292I-40000J0D01*
G01*
X10255280Y-9550592D02*
G75*
G03X10255280Y-9550592I-40000J0D01*
G01*
X10255280Y-9800592D02*
G75*
G03X10255280Y-9800592I-40000J0D01*
G01*
X10306080Y-3290992D02*
G75*
G03X10306080Y-3290992I-40000J0D01*
G01*
X10306080Y-6240992D02*
G75*
G03X10306080Y-6240992I-40000J0D01*
G01*
X10306080Y-9190992D02*
G75*
G03X10306080Y-9190992I-40000J0D01*
G01*
X10331480Y-2960792D02*
G75*
G03X10331480Y-2960792I-40000J0D01*
G01*
X10331480Y-5910792D02*
G75*
G03X10331480Y-5910792I-40000J0D01*
G01*
X10331480Y-8860792D02*
G75*
G03X10331480Y-8860792I-40000J0D01*
G01*
X10560080Y-3290992D02*
G75*
G03X10560080Y-3290992I-40000J0D01*
G01*
X10560080Y-6240992D02*
G75*
G03X10560080Y-6240992I-40000J0D01*
G01*
X10560080Y-9190992D02*
G75*
G03X10560080Y-9190992I-40000J0D01*
G01*
X10572780Y-2389292D02*
G75*
G03X10572780Y-2389292I-40000J0D01*
G01*
X10572780Y-2643292D02*
G75*
G03X10572780Y-2643292I-40000J0D01*
G01*
X10572780Y-5339292D02*
G75*
G03X10572780Y-5339292I-40000J0D01*
G01*
X10572780Y-5593292D02*
G75*
G03X10572780Y-5593292I-40000J0D01*
G01*
X10572780Y-8289292D02*
G75*
G03X10572780Y-8289292I-40000J0D01*
G01*
X10572780Y-8543292D02*
G75*
G03X10572780Y-8543292I-40000J0D01*
G01*
X10581480Y-2960792D02*
G75*
G03X10581480Y-2960792I-40000J0D01*
G01*
X10581480Y-5910792D02*
G75*
G03X10581480Y-5910792I-40000J0D01*
G01*
X10581480Y-8860792D02*
G75*
G03X10581480Y-8860792I-40000J0D01*
G01*
X10585480Y-1805092D02*
G75*
G03X10585480Y-1805092I-40000J0D01*
G01*
X10585480Y-2059092D02*
G75*
G03X10585480Y-2059092I-40000J0D01*
G01*
X10585480Y-3646592D02*
G75*
G03X10585480Y-3646592I-40000J0D01*
G01*
X10585480Y-3900592D02*
G75*
G03X10585480Y-3900592I-40000J0D01*
G01*
X10585480Y-4755092D02*
G75*
G03X10585480Y-4755092I-40000J0D01*
G01*
X10585480Y-5009092D02*
G75*
G03X10585480Y-5009092I-40000J0D01*
G01*
X10585480Y-6596592D02*
G75*
G03X10585480Y-6596592I-40000J0D01*
G01*
X10585480Y-6850592D02*
G75*
G03X10585480Y-6850592I-40000J0D01*
G01*
X10585480Y-7705092D02*
G75*
G03X10585480Y-7705092I-40000J0D01*
G01*
X10585480Y-7959092D02*
G75*
G03X10585480Y-7959092I-40000J0D01*
G01*
X10585480Y-9546592D02*
G75*
G03X10585480Y-9546592I-40000J0D01*
G01*
X10585480Y-9800592D02*
G75*
G03X10585480Y-9800592I-40000J0D01*
G01*
X10864880Y-2376592D02*
G75*
G03X10864880Y-2376592I-40000J0D01*
G01*
X10864880Y-2630592D02*
G75*
G03X10864880Y-2630592I-40000J0D01*
G01*
X10864880Y-2884592D02*
G75*
G03X10864880Y-2884592I-40000J0D01*
G01*
X10864880Y-3138592D02*
G75*
G03X10864880Y-3138592I-40000J0D01*
G01*
X10864880Y-3392592D02*
G75*
G03X10864880Y-3392592I-40000J0D01*
G01*
X10864880Y-3646592D02*
G75*
G03X10864880Y-3646592I-40000J0D01*
G01*
X10864880Y-3900592D02*
G75*
G03X10864880Y-3900592I-40000J0D01*
G01*
X10864880Y-5326592D02*
G75*
G03X10864880Y-5326592I-40000J0D01*
G01*
X10864880Y-5580592D02*
G75*
G03X10864880Y-5580592I-40000J0D01*
G01*
X10864880Y-5834592D02*
G75*
G03X10864880Y-5834592I-40000J0D01*
G01*
X10864880Y-6088592D02*
G75*
G03X10864880Y-6088592I-40000J0D01*
G01*
X10864880Y-6342592D02*
G75*
G03X10864880Y-6342592I-40000J0D01*
G01*
X10864880Y-6596592D02*
G75*
G03X10864880Y-6596592I-40000J0D01*
G01*
X10864880Y-6850592D02*
G75*
G03X10864880Y-6850592I-40000J0D01*
G01*
X10864880Y-8276592D02*
G75*
G03X10864880Y-8276592I-40000J0D01*
G01*
X10864880Y-8530592D02*
G75*
G03X10864880Y-8530592I-40000J0D01*
G01*
X10864880Y-8784592D02*
G75*
G03X10864880Y-8784592I-40000J0D01*
G01*
X10864880Y-9038592D02*
G75*
G03X10864880Y-9038592I-40000J0D01*
G01*
X10864880Y-9292592D02*
G75*
G03X10864880Y-9292592I-40000J0D01*
G01*
X10864880Y-9546592D02*
G75*
G03X10864880Y-9546592I-40000J0D01*
G01*
X10864880Y-9800592D02*
G75*
G03X10864880Y-9800592I-40000J0D01*
G01*
X10915680Y-1805092D02*
G75*
G03X10915680Y-1805092I-40000J0D01*
G01*
X10915680Y-2055092D02*
G75*
G03X10915680Y-2055092I-40000J0D01*
G01*
X10915680Y-4755092D02*
G75*
G03X10915680Y-4755092I-40000J0D01*
G01*
X10915680Y-5005092D02*
G75*
G03X10915680Y-5005092I-40000J0D01*
G01*
X10915680Y-7705092D02*
G75*
G03X10915680Y-7705092I-40000J0D01*
G01*
X10915680Y-7955092D02*
G75*
G03X10915680Y-7955092I-40000J0D01*
G01*
X11245880Y-1843192D02*
G75*
G03X11245880Y-1843192I-40000J0D01*
G01*
X11245880Y-2097192D02*
G75*
G03X11245880Y-2097192I-40000J0D01*
G01*
X11245880Y-4793192D02*
G75*
G03X11245880Y-4793192I-40000J0D01*
G01*
X11245880Y-5047192D02*
G75*
G03X11245880Y-5047192I-40000J0D01*
G01*
X11245880Y-7743192D02*
G75*
G03X11245880Y-7743192I-40000J0D01*
G01*
X11245880Y-7997192D02*
G75*
G03X11245880Y-7997192I-40000J0D01*
G01*
X11563380Y-1843192D02*
G75*
G03X11563380Y-1843192I-40000J0D01*
G01*
X11563380Y-2097192D02*
G75*
G03X11563380Y-2097192I-40000J0D01*
G01*
X11563380Y-4793192D02*
G75*
G03X11563380Y-4793192I-40000J0D01*
G01*
X11563380Y-5047192D02*
G75*
G03X11563380Y-5047192I-40000J0D01*
G01*
X11563380Y-7743192D02*
G75*
G03X11563380Y-7743192I-40000J0D01*
G01*
X11563380Y-7997192D02*
G75*
G03X11563380Y-7997192I-40000J0D01*
G01*
X11626880Y-2376592D02*
G75*
G03X11626880Y-2376592I-40000J0D01*
G01*
X11626880Y-2630592D02*
G75*
G03X11626880Y-2630592I-40000J0D01*
G01*
X11626880Y-2884592D02*
G75*
G03X11626880Y-2884592I-40000J0D01*
G01*
X11626880Y-3138592D02*
G75*
G03X11626880Y-3138592I-40000J0D01*
G01*
X11626880Y-3392592D02*
G75*
G03X11626880Y-3392592I-40000J0D01*
G01*
X11626880Y-3646592D02*
G75*
G03X11626880Y-3646592I-40000J0D01*
G01*
X11626880Y-3900592D02*
G75*
G03X11626880Y-3900592I-40000J0D01*
G01*
X11626880Y-5326592D02*
G75*
G03X11626880Y-5326592I-40000J0D01*
G01*
X11626880Y-5580592D02*
G75*
G03X11626880Y-5580592I-40000J0D01*
G01*
X11626880Y-5834592D02*
G75*
G03X11626880Y-5834592I-40000J0D01*
G01*
X11626880Y-6088592D02*
G75*
G03X11626880Y-6088592I-40000J0D01*
G01*
X11626880Y-6342592D02*
G75*
G03X11626880Y-6342592I-40000J0D01*
G01*
X11626880Y-6596592D02*
G75*
G03X11626880Y-6596592I-40000J0D01*
G01*
X11626880Y-6850592D02*
G75*
G03X11626880Y-6850592I-40000J0D01*
G01*
X11626880Y-8276592D02*
G75*
G03X11626880Y-8276592I-40000J0D01*
G01*
X11626880Y-8530592D02*
G75*
G03X11626880Y-8530592I-40000J0D01*
G01*
X11626880Y-8784592D02*
G75*
G03X11626880Y-8784592I-40000J0D01*
G01*
X11626880Y-9038592D02*
G75*
G03X11626880Y-9038592I-40000J0D01*
G01*
X11626880Y-9292592D02*
G75*
G03X11626880Y-9292592I-40000J0D01*
G01*
X11626880Y-9546592D02*
G75*
G03X11626880Y-9546592I-40000J0D01*
G01*
X11626880Y-9800592D02*
G75*
G03X11626880Y-9800592I-40000J0D01*
G01*
X11830080Y-2046392D02*
G75*
G03X11830080Y-2046392I-40000J0D01*
G01*
X11830080Y-4996392D02*
G75*
G03X11830080Y-4996392I-40000J0D01*
G01*
X11830080Y-7946392D02*
G75*
G03X11830080Y-7946392I-40000J0D01*
G01*
X11893580Y-2376592D02*
G75*
G03X11893580Y-2376592I-40000J0D01*
G01*
X11893580Y-2694092D02*
G75*
G03X11893580Y-2694092I-40000J0D01*
G01*
X11893580Y-2948092D02*
G75*
G03X11893580Y-2948092I-40000J0D01*
G01*
X11893580Y-3163992D02*
G75*
G03X11893580Y-3163992I-40000J0D01*
G01*
X11893580Y-3417992D02*
G75*
G03X11893580Y-3417992I-40000J0D01*
G01*
X11893580Y-3684692D02*
G75*
G03X11893580Y-3684692I-40000J0D01*
G01*
X11893580Y-3938692D02*
G75*
G03X11893580Y-3938692I-40000J0D01*
G01*
X11893580Y-5326592D02*
G75*
G03X11893580Y-5326592I-40000J0D01*
G01*
X11893580Y-5644092D02*
G75*
G03X11893580Y-5644092I-40000J0D01*
G01*
X11893580Y-5898092D02*
G75*
G03X11893580Y-5898092I-40000J0D01*
G01*
X11893580Y-6113992D02*
G75*
G03X11893580Y-6113992I-40000J0D01*
G01*
X11893580Y-6367992D02*
G75*
G03X11893580Y-6367992I-40000J0D01*
G01*
X11893580Y-6634692D02*
G75*
G03X11893580Y-6634692I-40000J0D01*
G01*
X11893580Y-6888692D02*
G75*
G03X11893580Y-6888692I-40000J0D01*
G01*
X11893580Y-8276592D02*
G75*
G03X11893580Y-8276592I-40000J0D01*
G01*
X11893580Y-8594092D02*
G75*
G03X11893580Y-8594092I-40000J0D01*
G01*
X11893580Y-8848092D02*
G75*
G03X11893580Y-8848092I-40000J0D01*
G01*
X11893580Y-9063992D02*
G75*
G03X11893580Y-9063992I-40000J0D01*
G01*
X11893580Y-9317992D02*
G75*
G03X11893580Y-9317992I-40000J0D01*
G01*
X11893580Y-9584692D02*
G75*
G03X11893580Y-9584692I-40000J0D01*
G01*
X11893580Y-9838692D02*
G75*
G03X11893580Y-9838692I-40000J0D01*
G01*
X12080080Y-2046392D02*
G75*
G03X12080080Y-2046392I-40000J0D01*
G01*
X12080080Y-4996392D02*
G75*
G03X12080080Y-4996392I-40000J0D01*
G01*
X12080080Y-7946392D02*
G75*
G03X12080080Y-7946392I-40000J0D01*
G01*
X12147580Y-2376592D02*
G75*
G03X12147580Y-2376592I-40000J0D01*
G01*
X12147580Y-5326592D02*
G75*
G03X12147580Y-5326592I-40000J0D01*
G01*
X12147580Y-8276592D02*
G75*
G03X12147580Y-8276592I-40000J0D01*
G01*
X12211080Y-3163992D02*
G75*
G03X12211080Y-3163992I-40000J0D01*
G01*
X12211080Y-3417992D02*
G75*
G03X12211080Y-3417992I-40000J0D01*
G01*
X12211080Y-6113992D02*
G75*
G03X12211080Y-6113992I-40000J0D01*
G01*
X12211080Y-6367992D02*
G75*
G03X12211080Y-6367992I-40000J0D01*
G01*
X12211080Y-9063992D02*
G75*
G03X12211080Y-9063992I-40000J0D01*
G01*
X12211080Y-9317992D02*
G75*
G03X12211080Y-9317992I-40000J0D01*
G01*
X12223780Y-3684692D02*
G75*
G03X12223780Y-3684692I-40000J0D01*
G01*
X12223780Y-3934692D02*
G75*
G03X12223780Y-3934692I-40000J0D01*
G01*
X12223780Y-6634692D02*
G75*
G03X12223780Y-6634692I-40000J0D01*
G01*
X12223780Y-6884692D02*
G75*
G03X12223780Y-6884692I-40000J0D01*
G01*
X12223780Y-9584692D02*
G75*
G03X12223780Y-9584692I-40000J0D01*
G01*
X12223780Y-9834692D02*
G75*
G03X12223780Y-9834692I-40000J0D01*
G01*
X12350780Y-2033692D02*
G75*
G03X12350780Y-2033692I-40000J0D01*
G01*
X12350780Y-4983692D02*
G75*
G03X12350780Y-4983692I-40000J0D01*
G01*
X12350780Y-7933692D02*
G75*
G03X12350780Y-7933692I-40000J0D01*
G01*
X12426980Y-2363892D02*
G75*
G03X12426980Y-2363892I-40000J0D01*
G01*
X12426980Y-2617892D02*
G75*
G03X12426980Y-2617892I-40000J0D01*
G01*
X12426980Y-5313892D02*
G75*
G03X12426980Y-5313892I-40000J0D01*
G01*
X12426980Y-5567892D02*
G75*
G03X12426980Y-5567892I-40000J0D01*
G01*
X12426980Y-8263892D02*
G75*
G03X12426980Y-8263892I-40000J0D01*
G01*
X12426980Y-8517892D02*
G75*
G03X12426980Y-8517892I-40000J0D01*
G01*
X12540080Y-2850292D02*
G75*
G03X12540080Y-2850292I-40000J0D01*
G01*
X12540080Y-3612292D02*
G75*
G03X12540080Y-3612292I-40000J0D01*
G01*
X12540080Y-5800292D02*
G75*
G03X12540080Y-5800292I-40000J0D01*
G01*
X12540080Y-6562292D02*
G75*
G03X12540080Y-6562292I-40000J0D01*
G01*
X12540080Y-8750292D02*
G75*
G03X12540080Y-8750292I-40000J0D01*
G01*
X12540080Y-9512292D02*
G75*
G03X12540080Y-9512292I-40000J0D01*
G01*
X12604780Y-2033692D02*
G75*
G03X12604780Y-2033692I-40000J0D01*
G01*
X12604780Y-4983692D02*
G75*
G03X12604780Y-4983692I-40000J0D01*
G01*
X12604780Y-7933692D02*
G75*
G03X12604780Y-7933692I-40000J0D01*
G01*
X13469880Y-1859892D02*
G75*
G03X13469880Y-1859892I-40000J0D01*
G01*
X13469880Y-2109892D02*
G75*
G03X13469880Y-2109892I-40000J0D01*
G01*
X13469880Y-2389292D02*
G75*
G03X13469880Y-2389292I-40000J0D01*
G01*
X13469880Y-2643292D02*
G75*
G03X13469880Y-2643292I-40000J0D01*
G01*
X13469880Y-4809892D02*
G75*
G03X13469880Y-4809892I-40000J0D01*
G01*
X13469880Y-5059892D02*
G75*
G03X13469880Y-5059892I-40000J0D01*
G01*
X13469880Y-5339292D02*
G75*
G03X13469880Y-5339292I-40000J0D01*
G01*
X13469880Y-5593292D02*
G75*
G03X13469880Y-5593292I-40000J0D01*
G01*
X13469880Y-7759892D02*
G75*
G03X13469880Y-7759892I-40000J0D01*
G01*
X13469880Y-8009892D02*
G75*
G03X13469880Y-8009892I-40000J0D01*
G01*
X13469880Y-8289292D02*
G75*
G03X13469880Y-8289292I-40000J0D01*
G01*
X13469880Y-8543292D02*
G75*
G03X13469880Y-8543292I-40000J0D01*
G01*
X13800080Y-1855892D02*
G75*
G03X13800080Y-1855892I-40000J0D01*
G01*
X13800080Y-2109892D02*
G75*
G03X13800080Y-2109892I-40000J0D01*
G01*
X13800080Y-2389292D02*
G75*
G03X13800080Y-2389292I-40000J0D01*
G01*
X13800080Y-2643292D02*
G75*
G03X13800080Y-2643292I-40000J0D01*
G01*
X13800080Y-3646592D02*
G75*
G03X13800080Y-3646592I-40000J0D01*
G01*
X13800080Y-3900592D02*
G75*
G03X13800080Y-3900592I-40000J0D01*
G01*
X13800080Y-4805892D02*
G75*
G03X13800080Y-4805892I-40000J0D01*
G01*
X13800080Y-5059892D02*
G75*
G03X13800080Y-5059892I-40000J0D01*
G01*
X13800080Y-5339292D02*
G75*
G03X13800080Y-5339292I-40000J0D01*
G01*
X13800080Y-5593292D02*
G75*
G03X13800080Y-5593292I-40000J0D01*
G01*
X13800080Y-6596592D02*
G75*
G03X13800080Y-6596592I-40000J0D01*
G01*
X13800080Y-6850592D02*
G75*
G03X13800080Y-6850592I-40000J0D01*
G01*
X13800080Y-7755892D02*
G75*
G03X13800080Y-7755892I-40000J0D01*
G01*
X13800080Y-8009892D02*
G75*
G03X13800080Y-8009892I-40000J0D01*
G01*
X13800080Y-8289292D02*
G75*
G03X13800080Y-8289292I-40000J0D01*
G01*
X13800080Y-8543292D02*
G75*
G03X13800080Y-8543292I-40000J0D01*
G01*
X13800080Y-9546592D02*
G75*
G03X13800080Y-9546592I-40000J0D01*
G01*
X13800080Y-9800592D02*
G75*
G03X13800080Y-9800592I-40000J0D01*
G01*
X13876280Y-2909992D02*
G75*
G03X13876280Y-2909992I-40000J0D01*
G01*
X13876280Y-3159992D02*
G75*
G03X13876280Y-3159992I-40000J0D01*
G01*
X13876280Y-5859992D02*
G75*
G03X13876280Y-5859992I-40000J0D01*
G01*
X13876280Y-6109992D02*
G75*
G03X13876280Y-6109992I-40000J0D01*
G01*
X13876280Y-8809992D02*
G75*
G03X13876280Y-8809992I-40000J0D01*
G01*
X13876280Y-9059992D02*
G75*
G03X13876280Y-9059992I-40000J0D01*
G01*
X14130280Y-1805092D02*
G75*
G03X14130280Y-1805092I-40000J0D01*
G01*
X14130280Y-2059092D02*
G75*
G03X14130280Y-2059092I-40000J0D01*
G01*
X14130280Y-2389292D02*
G75*
G03X14130280Y-2389292I-40000J0D01*
G01*
X14130280Y-2643292D02*
G75*
G03X14130280Y-2643292I-40000J0D01*
G01*
X14130280Y-3650592D02*
G75*
G03X14130280Y-3650592I-40000J0D01*
G01*
X14130280Y-3900592D02*
G75*
G03X14130280Y-3900592I-40000J0D01*
G01*
X14130280Y-4755092D02*
G75*
G03X14130280Y-4755092I-40000J0D01*
G01*
X14130280Y-5009092D02*
G75*
G03X14130280Y-5009092I-40000J0D01*
G01*
X14130280Y-5339292D02*
G75*
G03X14130280Y-5339292I-40000J0D01*
G01*
X14130280Y-5593292D02*
G75*
G03X14130280Y-5593292I-40000J0D01*
G01*
X14130280Y-6600592D02*
G75*
G03X14130280Y-6600592I-40000J0D01*
G01*
X14130280Y-6850592D02*
G75*
G03X14130280Y-6850592I-40000J0D01*
G01*
X14130280Y-7705092D02*
G75*
G03X14130280Y-7705092I-40000J0D01*
G01*
X14130280Y-7959092D02*
G75*
G03X14130280Y-7959092I-40000J0D01*
G01*
X14130280Y-8289292D02*
G75*
G03X14130280Y-8289292I-40000J0D01*
G01*
X14130280Y-8543292D02*
G75*
G03X14130280Y-8543292I-40000J0D01*
G01*
X14130280Y-9550592D02*
G75*
G03X14130280Y-9550592I-40000J0D01*
G01*
X14130280Y-9800592D02*
G75*
G03X14130280Y-9800592I-40000J0D01*
G01*
X14181080Y-3290992D02*
G75*
G03X14181080Y-3290992I-40000J0D01*
G01*
X14181080Y-6240992D02*
G75*
G03X14181080Y-6240992I-40000J0D01*
G01*
X14181080Y-9190992D02*
G75*
G03X14181080Y-9190992I-40000J0D01*
G01*
X14206480Y-2960792D02*
G75*
G03X14206480Y-2960792I-40000J0D01*
G01*
X14206480Y-5910792D02*
G75*
G03X14206480Y-5910792I-40000J0D01*
G01*
X14206480Y-8860792D02*
G75*
G03X14206480Y-8860792I-40000J0D01*
G01*
X14435080Y-3290992D02*
G75*
G03X14435080Y-3290992I-40000J0D01*
G01*
X14435080Y-6240992D02*
G75*
G03X14435080Y-6240992I-40000J0D01*
G01*
X14435080Y-9190992D02*
G75*
G03X14435080Y-9190992I-40000J0D01*
G01*
X14447780Y-2389292D02*
G75*
G03X14447780Y-2389292I-40000J0D01*
G01*
X14447780Y-2643292D02*
G75*
G03X14447780Y-2643292I-40000J0D01*
G01*
X14447780Y-5339292D02*
G75*
G03X14447780Y-5339292I-40000J0D01*
G01*
X14447780Y-5593292D02*
G75*
G03X14447780Y-5593292I-40000J0D01*
G01*
X14447780Y-8289292D02*
G75*
G03X14447780Y-8289292I-40000J0D01*
G01*
X14447780Y-8543292D02*
G75*
G03X14447780Y-8543292I-40000J0D01*
G01*
X14456480Y-2960792D02*
G75*
G03X14456480Y-2960792I-40000J0D01*
G01*
X14456480Y-5910792D02*
G75*
G03X14456480Y-5910792I-40000J0D01*
G01*
X14456480Y-8860792D02*
G75*
G03X14456480Y-8860792I-40000J0D01*
G01*
X14460480Y-1805092D02*
G75*
G03X14460480Y-1805092I-40000J0D01*
G01*
X14460480Y-2059092D02*
G75*
G03X14460480Y-2059092I-40000J0D01*
G01*
X14460480Y-3646592D02*
G75*
G03X14460480Y-3646592I-40000J0D01*
G01*
X14460480Y-3900592D02*
G75*
G03X14460480Y-3900592I-40000J0D01*
G01*
X14460480Y-4755092D02*
G75*
G03X14460480Y-4755092I-40000J0D01*
G01*
X14460480Y-5009092D02*
G75*
G03X14460480Y-5009092I-40000J0D01*
G01*
X14460480Y-6596592D02*
G75*
G03X14460480Y-6596592I-40000J0D01*
G01*
X14460480Y-6850592D02*
G75*
G03X14460480Y-6850592I-40000J0D01*
G01*
X14460480Y-7705092D02*
G75*
G03X14460480Y-7705092I-40000J0D01*
G01*
X14460480Y-7959092D02*
G75*
G03X14460480Y-7959092I-40000J0D01*
G01*
X14460480Y-9546592D02*
G75*
G03X14460480Y-9546592I-40000J0D01*
G01*
X14460480Y-9800592D02*
G75*
G03X14460480Y-9800592I-40000J0D01*
G01*
X14739880Y-2376592D02*
G75*
G03X14739880Y-2376592I-40000J0D01*
G01*
X14739880Y-2630592D02*
G75*
G03X14739880Y-2630592I-40000J0D01*
G01*
X14739880Y-2884592D02*
G75*
G03X14739880Y-2884592I-40000J0D01*
G01*
X14739880Y-3138592D02*
G75*
G03X14739880Y-3138592I-40000J0D01*
G01*
X14739880Y-3392592D02*
G75*
G03X14739880Y-3392592I-40000J0D01*
G01*
X14739880Y-3646592D02*
G75*
G03X14739880Y-3646592I-40000J0D01*
G01*
X14739880Y-3900592D02*
G75*
G03X14739880Y-3900592I-40000J0D01*
G01*
X14739880Y-5326592D02*
G75*
G03X14739880Y-5326592I-40000J0D01*
G01*
X14739880Y-5580592D02*
G75*
G03X14739880Y-5580592I-40000J0D01*
G01*
X14739880Y-5834592D02*
G75*
G03X14739880Y-5834592I-40000J0D01*
G01*
X14739880Y-6088592D02*
G75*
G03X14739880Y-6088592I-40000J0D01*
G01*
X14739880Y-6342592D02*
G75*
G03X14739880Y-6342592I-40000J0D01*
G01*
X14739880Y-6596592D02*
G75*
G03X14739880Y-6596592I-40000J0D01*
G01*
X14739880Y-6850592D02*
G75*
G03X14739880Y-6850592I-40000J0D01*
G01*
X14739880Y-8276592D02*
G75*
G03X14739880Y-8276592I-40000J0D01*
G01*
X14739880Y-8530592D02*
G75*
G03X14739880Y-8530592I-40000J0D01*
G01*
X14739880Y-8784592D02*
G75*
G03X14739880Y-8784592I-40000J0D01*
G01*
X14739880Y-9038592D02*
G75*
G03X14739880Y-9038592I-40000J0D01*
G01*
X14739880Y-9292592D02*
G75*
G03X14739880Y-9292592I-40000J0D01*
G01*
X14739880Y-9546592D02*
G75*
G03X14739880Y-9546592I-40000J0D01*
G01*
X14739880Y-9800592D02*
G75*
G03X14739880Y-9800592I-40000J0D01*
G01*
X14790680Y-1805092D02*
G75*
G03X14790680Y-1805092I-40000J0D01*
G01*
X14790680Y-2055092D02*
G75*
G03X14790680Y-2055092I-40000J0D01*
G01*
X14790680Y-4755092D02*
G75*
G03X14790680Y-4755092I-40000J0D01*
G01*
X14790680Y-5005092D02*
G75*
G03X14790680Y-5005092I-40000J0D01*
G01*
X14790680Y-7705092D02*
G75*
G03X14790680Y-7705092I-40000J0D01*
G01*
X14790680Y-7955092D02*
G75*
G03X14790680Y-7955092I-40000J0D01*
G01*
X15120880Y-1843192D02*
G75*
G03X15120880Y-1843192I-40000J0D01*
G01*
X15120880Y-2097192D02*
G75*
G03X15120880Y-2097192I-40000J0D01*
G01*
X15120880Y-4793192D02*
G75*
G03X15120880Y-4793192I-40000J0D01*
G01*
X15120880Y-5047192D02*
G75*
G03X15120880Y-5047192I-40000J0D01*
G01*
X15120880Y-7743192D02*
G75*
G03X15120880Y-7743192I-40000J0D01*
G01*
X15120880Y-7997192D02*
G75*
G03X15120880Y-7997192I-40000J0D01*
G01*
X15438380Y-1843192D02*
G75*
G03X15438380Y-1843192I-40000J0D01*
G01*
X15438380Y-2097192D02*
G75*
G03X15438380Y-2097192I-40000J0D01*
G01*
X15438380Y-4793192D02*
G75*
G03X15438380Y-4793192I-40000J0D01*
G01*
X15438380Y-5047192D02*
G75*
G03X15438380Y-5047192I-40000J0D01*
G01*
X15438380Y-7743192D02*
G75*
G03X15438380Y-7743192I-40000J0D01*
G01*
X15438380Y-7997192D02*
G75*
G03X15438380Y-7997192I-40000J0D01*
G01*
X15501880Y-2376592D02*
G75*
G03X15501880Y-2376592I-40000J0D01*
G01*
X15501880Y-2630592D02*
G75*
G03X15501880Y-2630592I-40000J0D01*
G01*
X15501880Y-2884592D02*
G75*
G03X15501880Y-2884592I-40000J0D01*
G01*
X15501880Y-3138592D02*
G75*
G03X15501880Y-3138592I-40000J0D01*
G01*
X15501880Y-3392592D02*
G75*
G03X15501880Y-3392592I-40000J0D01*
G01*
X15501880Y-3646592D02*
G75*
G03X15501880Y-3646592I-40000J0D01*
G01*
X15501880Y-3900592D02*
G75*
G03X15501880Y-3900592I-40000J0D01*
G01*
X15501880Y-5326592D02*
G75*
G03X15501880Y-5326592I-40000J0D01*
G01*
X15501880Y-5580592D02*
G75*
G03X15501880Y-5580592I-40000J0D01*
G01*
X15501880Y-5834592D02*
G75*
G03X15501880Y-5834592I-40000J0D01*
G01*
X15501880Y-6088592D02*
G75*
G03X15501880Y-6088592I-40000J0D01*
G01*
X15501880Y-6342592D02*
G75*
G03X15501880Y-6342592I-40000J0D01*
G01*
X15501880Y-6596592D02*
G75*
G03X15501880Y-6596592I-40000J0D01*
G01*
X15501880Y-6850592D02*
G75*
G03X15501880Y-6850592I-40000J0D01*
G01*
X15501880Y-8276592D02*
G75*
G03X15501880Y-8276592I-40000J0D01*
G01*
X15501880Y-8530592D02*
G75*
G03X15501880Y-8530592I-40000J0D01*
G01*
X15501880Y-8784592D02*
G75*
G03X15501880Y-8784592I-40000J0D01*
G01*
X15501880Y-9038592D02*
G75*
G03X15501880Y-9038592I-40000J0D01*
G01*
X15501880Y-9292592D02*
G75*
G03X15501880Y-9292592I-40000J0D01*
G01*
X15501880Y-9546592D02*
G75*
G03X15501880Y-9546592I-40000J0D01*
G01*
X15501880Y-9800592D02*
G75*
G03X15501880Y-9800592I-40000J0D01*
G01*
X15705080Y-2046392D02*
G75*
G03X15705080Y-2046392I-40000J0D01*
G01*
X15705080Y-4996392D02*
G75*
G03X15705080Y-4996392I-40000J0D01*
G01*
X15705080Y-7946392D02*
G75*
G03X15705080Y-7946392I-40000J0D01*
G01*
X15768580Y-2376592D02*
G75*
G03X15768580Y-2376592I-40000J0D01*
G01*
X15768580Y-2694092D02*
G75*
G03X15768580Y-2694092I-40000J0D01*
G01*
X15768580Y-2948092D02*
G75*
G03X15768580Y-2948092I-40000J0D01*
G01*
X15768580Y-3163992D02*
G75*
G03X15768580Y-3163992I-40000J0D01*
G01*
X15768580Y-3417992D02*
G75*
G03X15768580Y-3417992I-40000J0D01*
G01*
X15768580Y-3684692D02*
G75*
G03X15768580Y-3684692I-40000J0D01*
G01*
X15768580Y-3938692D02*
G75*
G03X15768580Y-3938692I-40000J0D01*
G01*
X15768580Y-5326592D02*
G75*
G03X15768580Y-5326592I-40000J0D01*
G01*
X15768580Y-5644092D02*
G75*
G03X15768580Y-5644092I-40000J0D01*
G01*
X15768580Y-5898092D02*
G75*
G03X15768580Y-5898092I-40000J0D01*
G01*
X15768580Y-6113992D02*
G75*
G03X15768580Y-6113992I-40000J0D01*
G01*
X15768580Y-6367992D02*
G75*
G03X15768580Y-6367992I-40000J0D01*
G01*
X15768580Y-6634692D02*
G75*
G03X15768580Y-6634692I-40000J0D01*
G01*
X15768580Y-6888692D02*
G75*
G03X15768580Y-6888692I-40000J0D01*
G01*
X15768580Y-8276592D02*
G75*
G03X15768580Y-8276592I-40000J0D01*
G01*
X15768580Y-8594092D02*
G75*
G03X15768580Y-8594092I-40000J0D01*
G01*
X15768580Y-8848092D02*
G75*
G03X15768580Y-8848092I-40000J0D01*
G01*
X15768580Y-9063992D02*
G75*
G03X15768580Y-9063992I-40000J0D01*
G01*
X15768580Y-9317992D02*
G75*
G03X15768580Y-9317992I-40000J0D01*
G01*
X15768580Y-9584692D02*
G75*
G03X15768580Y-9584692I-40000J0D01*
G01*
X15768580Y-9838692D02*
G75*
G03X15768580Y-9838692I-40000J0D01*
G01*
X15955080Y-2046392D02*
G75*
G03X15955080Y-2046392I-40000J0D01*
G01*
X15955080Y-4996392D02*
G75*
G03X15955080Y-4996392I-40000J0D01*
G01*
X15955080Y-7946392D02*
G75*
G03X15955080Y-7946392I-40000J0D01*
G01*
X16022580Y-2376592D02*
G75*
G03X16022580Y-2376592I-40000J0D01*
G01*
X16022580Y-5326592D02*
G75*
G03X16022580Y-5326592I-40000J0D01*
G01*
X16022580Y-8276592D02*
G75*
G03X16022580Y-8276592I-40000J0D01*
G01*
X16086080Y-3163992D02*
G75*
G03X16086080Y-3163992I-40000J0D01*
G01*
X16086080Y-3417992D02*
G75*
G03X16086080Y-3417992I-40000J0D01*
G01*
X16086080Y-6113992D02*
G75*
G03X16086080Y-6113992I-40000J0D01*
G01*
X16086080Y-6367992D02*
G75*
G03X16086080Y-6367992I-40000J0D01*
G01*
X16086080Y-9063992D02*
G75*
G03X16086080Y-9063992I-40000J0D01*
G01*
X16086080Y-9317992D02*
G75*
G03X16086080Y-9317992I-40000J0D01*
G01*
X16098780Y-3684692D02*
G75*
G03X16098780Y-3684692I-40000J0D01*
G01*
X16098780Y-3934692D02*
G75*
G03X16098780Y-3934692I-40000J0D01*
G01*
X16098780Y-6634692D02*
G75*
G03X16098780Y-6634692I-40000J0D01*
G01*
X16098780Y-6884692D02*
G75*
G03X16098780Y-6884692I-40000J0D01*
G01*
X16098780Y-9584692D02*
G75*
G03X16098780Y-9584692I-40000J0D01*
G01*
X16098780Y-9834692D02*
G75*
G03X16098780Y-9834692I-40000J0D01*
G01*
X16225780Y-2033692D02*
G75*
G03X16225780Y-2033692I-40000J0D01*
G01*
X16225780Y-4983692D02*
G75*
G03X16225780Y-4983692I-40000J0D01*
G01*
X16225780Y-7933692D02*
G75*
G03X16225780Y-7933692I-40000J0D01*
G01*
X16301980Y-2363892D02*
G75*
G03X16301980Y-2363892I-40000J0D01*
G01*
X16301980Y-2617892D02*
G75*
G03X16301980Y-2617892I-40000J0D01*
G01*
X16301980Y-5313892D02*
G75*
G03X16301980Y-5313892I-40000J0D01*
G01*
X16301980Y-5567892D02*
G75*
G03X16301980Y-5567892I-40000J0D01*
G01*
X16301980Y-8263892D02*
G75*
G03X16301980Y-8263892I-40000J0D01*
G01*
X16301980Y-8517892D02*
G75*
G03X16301980Y-8517892I-40000J0D01*
G01*
X16415080Y-2850292D02*
G75*
G03X16415080Y-2850292I-40000J0D01*
G01*
X16415080Y-3612292D02*
G75*
G03X16415080Y-3612292I-40000J0D01*
G01*
X16415080Y-5800292D02*
G75*
G03X16415080Y-5800292I-40000J0D01*
G01*
X16415080Y-6562292D02*
G75*
G03X16415080Y-6562292I-40000J0D01*
G01*
X16415080Y-8750292D02*
G75*
G03X16415080Y-8750292I-40000J0D01*
G01*
X16415080Y-9512292D02*
G75*
G03X16415080Y-9512292I-40000J0D01*
G01*
X16479780Y-2033692D02*
G75*
G03X16479780Y-2033692I-40000J0D01*
G01*
X16479780Y-4983692D02*
G75*
G03X16479780Y-4983692I-40000J0D01*
G01*
X16479780Y-7933692D02*
G75*
G03X16479780Y-7933692I-40000J0D01*
G01*
X1804880Y-3873287D02*
X1804880Y-3953297D01*
X1764875Y-3913292D02*
X1844885Y-3913292D01*
X1804880Y-6823287D02*
X1804880Y-6903297D01*
X1764875Y-6863292D02*
X1844885Y-6863292D01*
X1804880Y-9773287D02*
X1804880Y-9853297D01*
X1764875Y-9813292D02*
X1844885Y-9813292D01*
X4100080Y-1685287D02*
X4100080Y-1765297D01*
X4060075Y-1725292D02*
X4140085Y-1725292D01*
X4100080Y-4635287D02*
X4100080Y-4715297D01*
X4060075Y-4675292D02*
X4140085Y-4675292D01*
X4100080Y-7585287D02*
X4100080Y-7665297D01*
X4060075Y-7625292D02*
X4140085Y-7625292D01*
X4500080Y-1685287D02*
X4500080Y-1765297D01*
X4460075Y-1725292D02*
X4540085Y-1725292D01*
X4500080Y-4635287D02*
X4500080Y-4715297D01*
X4460075Y-4675292D02*
X4540085Y-4675292D01*
X4500080Y-7585287D02*
X4500080Y-7665297D01*
X4460075Y-7625292D02*
X4540085Y-7625292D01*
X4900080Y-1685287D02*
X4900080Y-1765297D01*
X4860075Y-1725292D02*
X4940085Y-1725292D01*
X4900080Y-4635287D02*
X4900080Y-4715297D01*
X4860075Y-4675292D02*
X4940085Y-4675292D01*
X4900080Y-7585287D02*
X4900080Y-7665297D01*
X4860075Y-7625292D02*
X4940085Y-7625292D01*
X5679880Y-3873287D02*
X5679880Y-3953297D01*
X5639875Y-3913292D02*
X5719885Y-3913292D01*
X5679880Y-6823287D02*
X5679880Y-6903297D01*
X5639875Y-6863292D02*
X5719885Y-6863292D01*
X5679880Y-9773287D02*
X5679880Y-9853297D01*
X5639875Y-9813292D02*
X5719885Y-9813292D01*
X7975080Y-1685287D02*
X7975080Y-1765297D01*
X7935075Y-1725292D02*
X8015085Y-1725292D01*
X7975080Y-4635287D02*
X7975080Y-4715297D01*
X7935075Y-4675292D02*
X8015085Y-4675292D01*
X7975080Y-7585287D02*
X7975080Y-7665297D01*
X7935075Y-7625292D02*
X8015085Y-7625292D01*
X8375080Y-1685287D02*
X8375080Y-1765297D01*
X8335075Y-1725292D02*
X8415085Y-1725292D01*
X8375080Y-4635287D02*
X8375080Y-4715297D01*
X8335075Y-4675292D02*
X8415085Y-4675292D01*
X8375080Y-7585287D02*
X8375080Y-7665297D01*
X8335075Y-7625292D02*
X8415085Y-7625292D01*
X8775080Y-1685287D02*
X8775080Y-1765297D01*
X8735075Y-1725292D02*
X8815085Y-1725292D01*
X8775080Y-4635287D02*
X8775080Y-4715297D01*
X8735075Y-4675292D02*
X8815085Y-4675292D01*
X8775080Y-7585287D02*
X8775080Y-7665297D01*
X8735075Y-7625292D02*
X8815085Y-7625292D01*
X9554880Y-3873287D02*
X9554880Y-3953297D01*
X9514875Y-3913292D02*
X9594885Y-3913292D01*
X9554880Y-6823287D02*
X9554880Y-6903297D01*
X9514875Y-6863292D02*
X9594885Y-6863292D01*
X9554880Y-9773287D02*
X9554880Y-9853297D01*
X9514875Y-9813292D02*
X9594885Y-9813292D01*
X11850080Y-1685287D02*
X11850080Y-1765297D01*
X11810075Y-1725292D02*
X11890085Y-1725292D01*
X11850080Y-4635287D02*
X11850080Y-4715297D01*
X11810075Y-4675292D02*
X11890085Y-4675292D01*
X11850080Y-7585287D02*
X11850080Y-7665297D01*
X11810075Y-7625292D02*
X11890085Y-7625292D01*
X12250080Y-1685287D02*
X12250080Y-1765297D01*
X12210075Y-1725292D02*
X12290085Y-1725292D01*
X12250080Y-4635287D02*
X12250080Y-4715297D01*
X12210075Y-4675292D02*
X12290085Y-4675292D01*
X12250080Y-7585287D02*
X12250080Y-7665297D01*
X12210075Y-7625292D02*
X12290085Y-7625292D01*
X12650080Y-1685287D02*
X12650080Y-1765297D01*
X12610075Y-1725292D02*
X12690085Y-1725292D01*
X12650080Y-4635287D02*
X12650080Y-4715297D01*
X12610075Y-4675292D02*
X12690085Y-4675292D01*
X12650080Y-7585287D02*
X12650080Y-7665297D01*
X12610075Y-7625292D02*
X12690085Y-7625292D01*
X13429880Y-3873287D02*
X13429880Y-3953297D01*
X13389875Y-3913292D02*
X13469885Y-3913292D01*
X13429880Y-6823287D02*
X13429880Y-6903297D01*
X13389875Y-6863292D02*
X13469885Y-6863292D01*
X13429880Y-9773287D02*
X13429880Y-9853297D01*
X13389875Y-9813292D02*
X13469885Y-9813292D01*
X15725080Y-1685287D02*
X15725080Y-1765297D01*
X15685075Y-1725292D02*
X15765085Y-1725292D01*
X15725080Y-4635287D02*
X15725080Y-4715297D01*
X15685075Y-4675292D02*
X15765085Y-4675292D01*
X15725080Y-7585287D02*
X15725080Y-7665297D01*
X15685075Y-7625292D02*
X15765085Y-7625292D01*
X16125080Y-1685287D02*
X16125080Y-1765297D01*
X16085075Y-1725292D02*
X16165085Y-1725292D01*
X16125080Y-4635287D02*
X16125080Y-4715297D01*
X16085075Y-4675292D02*
X16165085Y-4675292D01*
X16125080Y-7585287D02*
X16125080Y-7665297D01*
X16085075Y-7625292D02*
X16165085Y-7625292D01*
X16525080Y-1685287D02*
X16525080Y-1765297D01*
X16485075Y-1725292D02*
X16565085Y-1725292D01*
X16525080Y-4635287D02*
X16525080Y-4715297D01*
X16485075Y-4675292D02*
X16565085Y-4675292D01*
X16525080Y-7585287D02*
X16525080Y-7665297D01*
X16485075Y-7625292D02*
X16565085Y-7625292D01*
D13*
X1764008Y-10573506D02*
X1764008Y-10273506D01*
X1835437Y-10273506D01*
X1878294Y-10287792D01*
X1906866Y-10316364D01*
X1921151Y-10344935D01*
X1935437Y-10402078D01*
X1935437Y-10444935D01*
X1921151Y-10502078D01*
X1906866Y-10530649D01*
X1878294Y-10559221D01*
X1835437Y-10573506D01*
X1764008Y-10573506D01*
X2064008Y-10573506D02*
X2064008Y-10373506D01*
X2064008Y-10430649D02*
X2078294Y-10402078D01*
X2092580Y-10387792D01*
X2121151Y-10373506D01*
X2149723Y-10373506D01*
X2249723Y-10573506D02*
X2249723Y-10373506D01*
X2249723Y-10273506D02*
X2235437Y-10287792D01*
X2249723Y-10302078D01*
X2264009Y-10287792D01*
X2249723Y-10273506D01*
X2249723Y-10302078D01*
X2435437Y-10573506D02*
X2406866Y-10559221D01*
X2392580Y-10530649D01*
X2392580Y-10273506D01*
X2592580Y-10573506D02*
X2564009Y-10559221D01*
X2549723Y-10530649D01*
X2549723Y-10273506D01*
X2935437Y-10573506D02*
X2935437Y-10273506D01*
X3035437Y-10487792D01*
X3135437Y-10273506D01*
X3135437Y-10573506D01*
X3406866Y-10573506D02*
X3406866Y-10416364D01*
X3392580Y-10387792D01*
X3364008Y-10373506D01*
X3306866Y-10373506D01*
X3278294Y-10387792D01*
X3406866Y-10559221D02*
X3378294Y-10573506D01*
X3306866Y-10573506D01*
X3278294Y-10559221D01*
X3264008Y-10530649D01*
X3264008Y-10502078D01*
X3278294Y-10473506D01*
X3306866Y-10459221D01*
X3378294Y-10459221D01*
X3406866Y-10444935D01*
X3549723Y-10373506D02*
X3549723Y-10673506D01*
X3549723Y-10387792D02*
X3578294Y-10373506D01*
X3635437Y-10373506D01*
X3664008Y-10387792D01*
X3678294Y-10402078D01*
X3692580Y-10430649D01*
X3692580Y-10516364D01*
X3678294Y-10544935D01*
X3664008Y-10559221D01*
X3635437Y-10573506D01*
X3578294Y-10573506D01*
X3549723Y-10559221D01*
X3821151Y-10544935D02*
X3835437Y-10559221D01*
X3821151Y-10573506D01*
X3806866Y-10559221D01*
X3821151Y-10544935D01*
X3821151Y-10573506D01*
X3821151Y-10387792D02*
X3835437Y-10402078D01*
X3821151Y-10416364D01*
X3806866Y-10402078D01*
X3821151Y-10387792D01*
X3821151Y-10416364D01*
X1422580Y-11032792D02*
X1492580Y-11102792D01*
X1492580Y-11032792D02*
X1422580Y-11102792D01*
X1821151Y-10903506D02*
X1849723Y-10903506D01*
X1878294Y-10917792D01*
X1892580Y-10932078D01*
X1906866Y-10960649D01*
X1921151Y-11017792D01*
X1921151Y-11089221D01*
X1906866Y-11146364D01*
X1892580Y-11174935D01*
X1878294Y-11189221D01*
X1849723Y-11203506D01*
X1821151Y-11203506D01*
X1792580Y-11189221D01*
X1778294Y-11174935D01*
X1764008Y-11146364D01*
X1749723Y-11089221D01*
X1749723Y-11017792D01*
X1764008Y-10960649D01*
X1778294Y-10932078D01*
X1792580Y-10917792D01*
X1821151Y-10903506D01*
X2049723Y-11174935D02*
X2064008Y-11189221D01*
X2049723Y-11203506D01*
X2035437Y-11189221D01*
X2049723Y-11174935D01*
X2049723Y-11203506D01*
X2164008Y-10903506D02*
X2364008Y-10903506D01*
X2235437Y-11203506D01*
X2535437Y-10903506D02*
X2564009Y-10903506D01*
X2592580Y-10917792D01*
X2606866Y-10932078D01*
X2621151Y-10960649D01*
X2635437Y-11017792D01*
X2635437Y-11089221D01*
X2621151Y-11146364D01*
X2606866Y-11174935D01*
X2592580Y-11189221D01*
X2564009Y-11203506D01*
X2535437Y-11203506D01*
X2506866Y-11189221D01*
X2492580Y-11174935D01*
X2478294Y-11146364D01*
X2464009Y-11089221D01*
X2464009Y-11017792D01*
X2478294Y-10960649D01*
X2492580Y-10932078D01*
X2506866Y-10917792D01*
X2535437Y-10903506D01*
X2764009Y-11203506D02*
X2764009Y-11003506D01*
X2764009Y-11032078D02*
X2778294Y-11017792D01*
X2806866Y-11003506D01*
X2849723Y-11003506D01*
X2878294Y-11017792D01*
X2892580Y-11046364D01*
X2892580Y-11203506D01*
X2892580Y-11046364D02*
X2906866Y-11017792D01*
X2935437Y-11003506D01*
X2978294Y-11003506D01*
X3006866Y-11017792D01*
X3021151Y-11046364D01*
X3021151Y-11203506D01*
X3164008Y-11203506D02*
X3164008Y-11003506D01*
X3164008Y-11032078D02*
X3178294Y-11017792D01*
X3206866Y-11003506D01*
X3249723Y-11003506D01*
X3278294Y-11017792D01*
X3292580Y-11046364D01*
X3292580Y-11203506D01*
X3292580Y-11046364D02*
X3306866Y-11017792D01*
X3335437Y-11003506D01*
X3378294Y-11003506D01*
X3406866Y-11017792D01*
X3421151Y-11046364D01*
X3421151Y-11203506D01*
X4006866Y-10889221D02*
X3749723Y-11274935D01*
X4392580Y-10903506D02*
X4421151Y-10903506D01*
X4449723Y-10917792D01*
X4464008Y-10932078D01*
X4478294Y-10960649D01*
X4492580Y-11017792D01*
X4492580Y-11089221D01*
X4478294Y-11146364D01*
X4464008Y-11174935D01*
X4449723Y-11189221D01*
X4421151Y-11203506D01*
X4392580Y-11203506D01*
X4364008Y-11189221D01*
X4349723Y-11174935D01*
X4335437Y-11146364D01*
X4321151Y-11089221D01*
X4321151Y-11017792D01*
X4335437Y-10960649D01*
X4349723Y-10932078D01*
X4364008Y-10917792D01*
X4392580Y-10903506D01*
X4621151Y-11174935D02*
X4635437Y-11189221D01*
X4621151Y-11203506D01*
X4606866Y-11189221D01*
X4621151Y-11174935D01*
X4621151Y-11203506D01*
X4821151Y-10903506D02*
X4849723Y-10903506D01*
X4878294Y-10917792D01*
X4892580Y-10932078D01*
X4906866Y-10960649D01*
X4921151Y-11017792D01*
X4921151Y-11089221D01*
X4906866Y-11146364D01*
X4892580Y-11174935D01*
X4878294Y-11189221D01*
X4849723Y-11203506D01*
X4821151Y-11203506D01*
X4792580Y-11189221D01*
X4778294Y-11174935D01*
X4764008Y-11146364D01*
X4749723Y-11089221D01*
X4749723Y-11017792D01*
X4764008Y-10960649D01*
X4778294Y-10932078D01*
X4792580Y-10917792D01*
X4821151Y-10903506D01*
X5035437Y-10932078D02*
X5049723Y-10917792D01*
X5078294Y-10903506D01*
X5149723Y-10903506D01*
X5178294Y-10917792D01*
X5192580Y-10932078D01*
X5206866Y-10960649D01*
X5206866Y-10989221D01*
X5192580Y-11032078D01*
X5021151Y-11203506D01*
X5206866Y-11203506D01*
X5378294Y-11032078D02*
X5349723Y-11017792D01*
X5335437Y-11003506D01*
X5321151Y-10974935D01*
X5321151Y-10960649D01*
X5335437Y-10932078D01*
X5349723Y-10917792D01*
X5378294Y-10903506D01*
X5435437Y-10903506D01*
X5464008Y-10917792D01*
X5478294Y-10932078D01*
X5492580Y-10960649D01*
X5492580Y-10974935D01*
X5478294Y-11003506D01*
X5464008Y-11017792D01*
X5435437Y-11032078D01*
X5378294Y-11032078D01*
X5349723Y-11046364D01*
X5335437Y-11060649D01*
X5321151Y-11089221D01*
X5321151Y-11146364D01*
X5335437Y-11174935D01*
X5349723Y-11189221D01*
X5378294Y-11203506D01*
X5435437Y-11203506D01*
X5464008Y-11189221D01*
X5478294Y-11174935D01*
X5492580Y-11146364D01*
X5492580Y-11089221D01*
X5478294Y-11060649D01*
X5464008Y-11046364D01*
X5435437Y-11032078D01*
X5606866Y-10903506D02*
X5606866Y-10960649D01*
X5721151Y-10903506D02*
X5721151Y-10960649D01*
X6164008Y-11317792D02*
X6149723Y-11303506D01*
X6121151Y-11260649D01*
X6106865Y-11232078D01*
X6092580Y-11189221D01*
X6078294Y-11117792D01*
X6078294Y-11060649D01*
X6092580Y-10989221D01*
X6106865Y-10946364D01*
X6121151Y-10917792D01*
X6149723Y-10874935D01*
X6164008Y-10860649D01*
X6264008Y-10932078D02*
X6278294Y-10917792D01*
X6306865Y-10903506D01*
X6378294Y-10903506D01*
X6406865Y-10917792D01*
X6421151Y-10932078D01*
X6435437Y-10960649D01*
X6435437Y-10989221D01*
X6421151Y-11032078D01*
X6249723Y-11203506D01*
X6435437Y-11203506D01*
X6692580Y-11003506D02*
X6692580Y-11203506D01*
X6621151Y-10889221D02*
X6549723Y-11103506D01*
X6735437Y-11103506D01*
X7078294Y-11203506D02*
X7078294Y-10903506D01*
X7206865Y-11203506D02*
X7206865Y-11046364D01*
X7192580Y-11017792D01*
X7164008Y-11003506D01*
X7121151Y-11003506D01*
X7092580Y-11017792D01*
X7078294Y-11032078D01*
X7392580Y-11203506D02*
X7364008Y-11189221D01*
X7349723Y-11174935D01*
X7335437Y-11146364D01*
X7335437Y-11060649D01*
X7349723Y-11032078D01*
X7364008Y-11017792D01*
X7392580Y-11003506D01*
X7435437Y-11003506D01*
X7464008Y-11017792D01*
X7478294Y-11032078D01*
X7492580Y-11060649D01*
X7492580Y-11146364D01*
X7478294Y-11174935D01*
X7464008Y-11189221D01*
X7435437Y-11203506D01*
X7392580Y-11203506D01*
X7664008Y-11203506D02*
X7635437Y-11189221D01*
X7621151Y-11160649D01*
X7621151Y-10903506D01*
X7892580Y-11189221D02*
X7864008Y-11203506D01*
X7806866Y-11203506D01*
X7778294Y-11189221D01*
X7764008Y-11160649D01*
X7764008Y-11046364D01*
X7778294Y-11017792D01*
X7806866Y-11003506D01*
X7864008Y-11003506D01*
X7892580Y-11017792D01*
X7906866Y-11046364D01*
X7906866Y-11074935D01*
X7764008Y-11103506D01*
X8021151Y-11189221D02*
X8049723Y-11203506D01*
X8106866Y-11203506D01*
X8135437Y-11189221D01*
X8149723Y-11160649D01*
X8149723Y-11146364D01*
X8135437Y-11117792D01*
X8106866Y-11103506D01*
X8064008Y-11103506D01*
X8035437Y-11089221D01*
X8021151Y-11060649D01*
X8021151Y-11046364D01*
X8035437Y-11017792D01*
X8064008Y-11003506D01*
X8106866Y-11003506D01*
X8135437Y-11017792D01*
X8249723Y-11317792D02*
X8264008Y-11303506D01*
X8292580Y-11260649D01*
X8306866Y-11232078D01*
X8321151Y-11189221D01*
X8335437Y-11117792D01*
X8335437Y-11060649D01*
X8321151Y-10989221D01*
X8306866Y-10946364D01*
X8292580Y-10917792D01*
X8264008Y-10874935D01*
X8249723Y-10860649D01*
X1492580Y-11463792D02*
G75*
G03X1492580Y-11463792I-40000J0D01*
G01*
X1821151Y-11299506D02*
X1849723Y-11299506D01*
X1878294Y-11313792D01*
X1892580Y-11328078D01*
X1906866Y-11356649D01*
X1921151Y-11413792D01*
X1921151Y-11485221D01*
X1906866Y-11542363D01*
X1892580Y-11570935D01*
X1878294Y-11585221D01*
X1849723Y-11599506D01*
X1821151Y-11599506D01*
X1792580Y-11585221D01*
X1778294Y-11570935D01*
X1764008Y-11542363D01*
X1749723Y-11485221D01*
X1749723Y-11413792D01*
X1764008Y-11356649D01*
X1778294Y-11328078D01*
X1792580Y-11313792D01*
X1821151Y-11299506D01*
X2049723Y-11570935D02*
X2064008Y-11585221D01*
X2049723Y-11599506D01*
X2035437Y-11585221D01*
X2049723Y-11570935D01*
X2049723Y-11599506D01*
X2235437Y-11428078D02*
X2206866Y-11413792D01*
X2192580Y-11399506D01*
X2178294Y-11370935D01*
X2178294Y-11356649D01*
X2192580Y-11328078D01*
X2206866Y-11313792D01*
X2235437Y-11299506D01*
X2292580Y-11299506D01*
X2321151Y-11313792D01*
X2335437Y-11328078D01*
X2349723Y-11356649D01*
X2349723Y-11370935D01*
X2335437Y-11399506D01*
X2321151Y-11413792D01*
X2292580Y-11428078D01*
X2235437Y-11428078D01*
X2206866Y-11442363D01*
X2192580Y-11456649D01*
X2178294Y-11485221D01*
X2178294Y-11542363D01*
X2192580Y-11570935D01*
X2206866Y-11585221D01*
X2235437Y-11599506D01*
X2292580Y-11599506D01*
X2321151Y-11585221D01*
X2335437Y-11570935D01*
X2349723Y-11542363D01*
X2349723Y-11485221D01*
X2335437Y-11456649D01*
X2321151Y-11442363D01*
X2292580Y-11428078D01*
X2535437Y-11299506D02*
X2564009Y-11299506D01*
X2592580Y-11313792D01*
X2606866Y-11328078D01*
X2621151Y-11356649D01*
X2635437Y-11413792D01*
X2635437Y-11485221D01*
X2621151Y-11542363D01*
X2606866Y-11570935D01*
X2592580Y-11585221D01*
X2564009Y-11599506D01*
X2535437Y-11599506D01*
X2506866Y-11585221D01*
X2492580Y-11570935D01*
X2478294Y-11542363D01*
X2464009Y-11485221D01*
X2464009Y-11413792D01*
X2478294Y-11356649D01*
X2492580Y-11328078D01*
X2506866Y-11313792D01*
X2535437Y-11299506D01*
X2764009Y-11599506D02*
X2764009Y-11399506D01*
X2764009Y-11428078D02*
X2778294Y-11413792D01*
X2806866Y-11399506D01*
X2849723Y-11399506D01*
X2878294Y-11413792D01*
X2892580Y-11442363D01*
X2892580Y-11599506D01*
X2892580Y-11442363D02*
X2906866Y-11413792D01*
X2935437Y-11399506D01*
X2978294Y-11399506D01*
X3006866Y-11413792D01*
X3021151Y-11442363D01*
X3021151Y-11599506D01*
X3164008Y-11599506D02*
X3164008Y-11399506D01*
X3164008Y-11428078D02*
X3178294Y-11413792D01*
X3206866Y-11399506D01*
X3249723Y-11399506D01*
X3278294Y-11413792D01*
X3292580Y-11442363D01*
X3292580Y-11599506D01*
X3292580Y-11442363D02*
X3306866Y-11413792D01*
X3335437Y-11399506D01*
X3378294Y-11399506D01*
X3406866Y-11413792D01*
X3421151Y-11442363D01*
X3421151Y-11599506D01*
X4006866Y-11285221D02*
X3749723Y-11670935D01*
X4392580Y-11299506D02*
X4421151Y-11299506D01*
X4449723Y-11313792D01*
X4464008Y-11328078D01*
X4478294Y-11356649D01*
X4492580Y-11413792D01*
X4492580Y-11485221D01*
X4478294Y-11542363D01*
X4464008Y-11570935D01*
X4449723Y-11585221D01*
X4421151Y-11599506D01*
X4392580Y-11599506D01*
X4364008Y-11585221D01*
X4349723Y-11570935D01*
X4335437Y-11542363D01*
X4321151Y-11485221D01*
X4321151Y-11413792D01*
X4335437Y-11356649D01*
X4349723Y-11328078D01*
X4364008Y-11313792D01*
X4392580Y-11299506D01*
X4621151Y-11570935D02*
X4635437Y-11585221D01*
X4621151Y-11599506D01*
X4606866Y-11585221D01*
X4621151Y-11570935D01*
X4621151Y-11599506D01*
X4821151Y-11299506D02*
X4849723Y-11299506D01*
X4878294Y-11313792D01*
X4892580Y-11328078D01*
X4906866Y-11356649D01*
X4921151Y-11413792D01*
X4921151Y-11485221D01*
X4906866Y-11542363D01*
X4892580Y-11570935D01*
X4878294Y-11585221D01*
X4849723Y-11599506D01*
X4821151Y-11599506D01*
X4792580Y-11585221D01*
X4778294Y-11570935D01*
X4764008Y-11542363D01*
X4749723Y-11485221D01*
X4749723Y-11413792D01*
X4764008Y-11356649D01*
X4778294Y-11328078D01*
X4792580Y-11313792D01*
X4821151Y-11299506D01*
X5021151Y-11299506D02*
X5206866Y-11299506D01*
X5106866Y-11413792D01*
X5149723Y-11413792D01*
X5178294Y-11428078D01*
X5192580Y-11442363D01*
X5206866Y-11470935D01*
X5206866Y-11542363D01*
X5192580Y-11570935D01*
X5178294Y-11585221D01*
X5149723Y-11599506D01*
X5064008Y-11599506D01*
X5035437Y-11585221D01*
X5021151Y-11570935D01*
X5492580Y-11599506D02*
X5321151Y-11599506D01*
X5406866Y-11599506D02*
X5406866Y-11299506D01*
X5378294Y-11342363D01*
X5349723Y-11370935D01*
X5321151Y-11385221D01*
X5606866Y-11299506D02*
X5606866Y-11356649D01*
X5721151Y-11299506D02*
X5721151Y-11356649D01*
X6164008Y-11713792D02*
X6149723Y-11699506D01*
X6121151Y-11656649D01*
X6106865Y-11628078D01*
X6092580Y-11585221D01*
X6078294Y-11513792D01*
X6078294Y-11456649D01*
X6092580Y-11385221D01*
X6106865Y-11342363D01*
X6121151Y-11313792D01*
X6149723Y-11270935D01*
X6164008Y-11256649D01*
X6321151Y-11428078D02*
X6292580Y-11413792D01*
X6278294Y-11399506D01*
X6264008Y-11370935D01*
X6264008Y-11356649D01*
X6278294Y-11328078D01*
X6292580Y-11313792D01*
X6321151Y-11299506D01*
X6378294Y-11299506D01*
X6406865Y-11313792D01*
X6421151Y-11328078D01*
X6435437Y-11356649D01*
X6435437Y-11370935D01*
X6421151Y-11399506D01*
X6406865Y-11413792D01*
X6378294Y-11428078D01*
X6321151Y-11428078D01*
X6292580Y-11442363D01*
X6278294Y-11456649D01*
X6264008Y-11485221D01*
X6264008Y-11542363D01*
X6278294Y-11570935D01*
X6292580Y-11585221D01*
X6321151Y-11599506D01*
X6378294Y-11599506D01*
X6406865Y-11585221D01*
X6421151Y-11570935D01*
X6435437Y-11542363D01*
X6435437Y-11485221D01*
X6421151Y-11456649D01*
X6406865Y-11442363D01*
X6378294Y-11428078D01*
X6721151Y-11599506D02*
X6549723Y-11599506D01*
X6635437Y-11599506D02*
X6635437Y-11299506D01*
X6606865Y-11342363D01*
X6578294Y-11370935D01*
X6549723Y-11385221D01*
X6978294Y-11299506D02*
X6921151Y-11299506D01*
X6892580Y-11313792D01*
X6878294Y-11328078D01*
X6849723Y-11370935D01*
X6835437Y-11428078D01*
X6835437Y-11542363D01*
X6849723Y-11570935D01*
X6864008Y-11585221D01*
X6892580Y-11599506D01*
X6949723Y-11599506D01*
X6978294Y-11585221D01*
X6992580Y-11570935D01*
X7006865Y-11542363D01*
X7006865Y-11470935D01*
X6992580Y-11442363D01*
X6978294Y-11428078D01*
X6949723Y-11413792D01*
X6892580Y-11413792D01*
X6864008Y-11428078D01*
X6849723Y-11442363D01*
X6835437Y-11470935D01*
X7364008Y-11599506D02*
X7364008Y-11299506D01*
X7492580Y-11599506D02*
X7492580Y-11442363D01*
X7478294Y-11413792D01*
X7449723Y-11399506D01*
X7406865Y-11399506D01*
X7378294Y-11413792D01*
X7364008Y-11428078D01*
X7678294Y-11599506D02*
X7649723Y-11585221D01*
X7635437Y-11570935D01*
X7621151Y-11542363D01*
X7621151Y-11456649D01*
X7635437Y-11428078D01*
X7649723Y-11413792D01*
X7678294Y-11399506D01*
X7721151Y-11399506D01*
X7749723Y-11413792D01*
X7764008Y-11428078D01*
X7778294Y-11456649D01*
X7778294Y-11542363D01*
X7764008Y-11570935D01*
X7749723Y-11585221D01*
X7721151Y-11599506D01*
X7678294Y-11599506D01*
X7949723Y-11599506D02*
X7921151Y-11585221D01*
X7906866Y-11556649D01*
X7906866Y-11299506D01*
X8178294Y-11585221D02*
X8149723Y-11599506D01*
X8092580Y-11599506D01*
X8064008Y-11585221D01*
X8049723Y-11556649D01*
X8049723Y-11442363D01*
X8064008Y-11413792D01*
X8092580Y-11399506D01*
X8149723Y-11399506D01*
X8178294Y-11413792D01*
X8192580Y-11442363D01*
X8192580Y-11470935D01*
X8049723Y-11499506D01*
X8306866Y-11585221D02*
X8335437Y-11599506D01*
X8392580Y-11599506D01*
X8421151Y-11585221D01*
X8435437Y-11556649D01*
X8435437Y-11542363D01*
X8421151Y-11513792D01*
X8392580Y-11499506D01*
X8349723Y-11499506D01*
X8321151Y-11485221D01*
X8306866Y-11456649D01*
X8306866Y-11442363D01*
X8321151Y-11413792D01*
X8349723Y-11399506D01*
X8392580Y-11399506D01*
X8421151Y-11413792D01*
X8535437Y-11713792D02*
X8549723Y-11699506D01*
X8578294Y-11656649D01*
X8592580Y-11628078D01*
X8606866Y-11585221D01*
X8621151Y-11513792D01*
X8621151Y-11456649D01*
X8606866Y-11385221D01*
X8592580Y-11342363D01*
X8578294Y-11313792D01*
X8549723Y-11270935D01*
X8535437Y-11256649D01*
X1452575Y-11819787D02*
X1452575Y-11899797D01*
X1412570Y-11859792D02*
X1492580Y-11859792D01*
X1821151Y-11695506D02*
X1849723Y-11695506D01*
X1878294Y-11709792D01*
X1892580Y-11724078D01*
X1906866Y-11752649D01*
X1921151Y-11809792D01*
X1921151Y-11881221D01*
X1906866Y-11938363D01*
X1892580Y-11966935D01*
X1878294Y-11981221D01*
X1849723Y-11995506D01*
X1821151Y-11995506D01*
X1792580Y-11981221D01*
X1778294Y-11966935D01*
X1764008Y-11938363D01*
X1749723Y-11881221D01*
X1749723Y-11809792D01*
X1764008Y-11752649D01*
X1778294Y-11724078D01*
X1792580Y-11709792D01*
X1821151Y-11695506D01*
X2049723Y-11966935D02*
X2064008Y-11981221D01*
X2049723Y-11995506D01*
X2035437Y-11981221D01*
X2049723Y-11966935D01*
X2049723Y-11995506D01*
X2235437Y-11824078D02*
X2206866Y-11809792D01*
X2192580Y-11795506D01*
X2178294Y-11766935D01*
X2178294Y-11752649D01*
X2192580Y-11724078D01*
X2206866Y-11709792D01*
X2235437Y-11695506D01*
X2292580Y-11695506D01*
X2321151Y-11709792D01*
X2335437Y-11724078D01*
X2349723Y-11752649D01*
X2349723Y-11766935D01*
X2335437Y-11795506D01*
X2321151Y-11809792D01*
X2292580Y-11824078D01*
X2235437Y-11824078D01*
X2206866Y-11838363D01*
X2192580Y-11852649D01*
X2178294Y-11881221D01*
X2178294Y-11938363D01*
X2192580Y-11966935D01*
X2206866Y-11981221D01*
X2235437Y-11995506D01*
X2292580Y-11995506D01*
X2321151Y-11981221D01*
X2335437Y-11966935D01*
X2349723Y-11938363D01*
X2349723Y-11881221D01*
X2335437Y-11852649D01*
X2321151Y-11838363D01*
X2292580Y-11824078D01*
X2535437Y-11695506D02*
X2564009Y-11695506D01*
X2592580Y-11709792D01*
X2606866Y-11724078D01*
X2621151Y-11752649D01*
X2635437Y-11809792D01*
X2635437Y-11881221D01*
X2621151Y-11938363D01*
X2606866Y-11966935D01*
X2592580Y-11981221D01*
X2564009Y-11995506D01*
X2535437Y-11995506D01*
X2506866Y-11981221D01*
X2492580Y-11966935D01*
X2478294Y-11938363D01*
X2464009Y-11881221D01*
X2464009Y-11809792D01*
X2478294Y-11752649D01*
X2492580Y-11724078D01*
X2506866Y-11709792D01*
X2535437Y-11695506D01*
X2764009Y-11995506D02*
X2764009Y-11795506D01*
X2764009Y-11824078D02*
X2778294Y-11809792D01*
X2806866Y-11795506D01*
X2849723Y-11795506D01*
X2878294Y-11809792D01*
X2892580Y-11838363D01*
X2892580Y-11995506D01*
X2892580Y-11838363D02*
X2906866Y-11809792D01*
X2935437Y-11795506D01*
X2978294Y-11795506D01*
X3006866Y-11809792D01*
X3021151Y-11838363D01*
X3021151Y-11995506D01*
X3164008Y-11995506D02*
X3164008Y-11795506D01*
X3164008Y-11824078D02*
X3178294Y-11809792D01*
X3206866Y-11795506D01*
X3249723Y-11795506D01*
X3278294Y-11809792D01*
X3292580Y-11838363D01*
X3292580Y-11995506D01*
X3292580Y-11838363D02*
X3306866Y-11809792D01*
X3335437Y-11795506D01*
X3378294Y-11795506D01*
X3406866Y-11809792D01*
X3421151Y-11838363D01*
X3421151Y-11995506D01*
X4006866Y-11681221D02*
X3749723Y-12066935D01*
X4392580Y-11695506D02*
X4421151Y-11695506D01*
X4449723Y-11709792D01*
X4464008Y-11724078D01*
X4478294Y-11752649D01*
X4492580Y-11809792D01*
X4492580Y-11881221D01*
X4478294Y-11938363D01*
X4464008Y-11966935D01*
X4449723Y-11981221D01*
X4421151Y-11995506D01*
X4392580Y-11995506D01*
X4364008Y-11981221D01*
X4349723Y-11966935D01*
X4335437Y-11938363D01*
X4321151Y-11881221D01*
X4321151Y-11809792D01*
X4335437Y-11752649D01*
X4349723Y-11724078D01*
X4364008Y-11709792D01*
X4392580Y-11695506D01*
X4621151Y-11966935D02*
X4635437Y-11981221D01*
X4621151Y-11995506D01*
X4606866Y-11981221D01*
X4621151Y-11966935D01*
X4621151Y-11995506D01*
X4821151Y-11695506D02*
X4849723Y-11695506D01*
X4878294Y-11709792D01*
X4892580Y-11724078D01*
X4906866Y-11752649D01*
X4921151Y-11809792D01*
X4921151Y-11881221D01*
X4906866Y-11938363D01*
X4892580Y-11966935D01*
X4878294Y-11981221D01*
X4849723Y-11995506D01*
X4821151Y-11995506D01*
X4792580Y-11981221D01*
X4778294Y-11966935D01*
X4764008Y-11938363D01*
X4749723Y-11881221D01*
X4749723Y-11809792D01*
X4764008Y-11752649D01*
X4778294Y-11724078D01*
X4792580Y-11709792D01*
X4821151Y-11695506D01*
X5021151Y-11695506D02*
X5206866Y-11695506D01*
X5106866Y-11809792D01*
X5149723Y-11809792D01*
X5178294Y-11824078D01*
X5192580Y-11838363D01*
X5206866Y-11866935D01*
X5206866Y-11938363D01*
X5192580Y-11966935D01*
X5178294Y-11981221D01*
X5149723Y-11995506D01*
X5064008Y-11995506D01*
X5035437Y-11981221D01*
X5021151Y-11966935D01*
X5321151Y-11724078D02*
X5335437Y-11709792D01*
X5364008Y-11695506D01*
X5435437Y-11695506D01*
X5464008Y-11709792D01*
X5478294Y-11724078D01*
X5492580Y-11752649D01*
X5492580Y-11781221D01*
X5478294Y-11824078D01*
X5306866Y-11995506D01*
X5492580Y-11995506D01*
X5606866Y-11695506D02*
X5606866Y-11752649D01*
X5721151Y-11695506D02*
X5721151Y-11752649D01*
X6164008Y-12109792D02*
X6149723Y-12095506D01*
X6121151Y-12052649D01*
X6106865Y-12024078D01*
X6092580Y-11981221D01*
X6078294Y-11909792D01*
X6078294Y-11852649D01*
X6092580Y-11781221D01*
X6106865Y-11738363D01*
X6121151Y-11709792D01*
X6149723Y-11666935D01*
X6164008Y-11652649D01*
X6406865Y-11795506D02*
X6406865Y-11995506D01*
X6335437Y-11681221D02*
X6264008Y-11895506D01*
X6449723Y-11895506D01*
X6606865Y-11824078D02*
X6578294Y-11809792D01*
X6564008Y-11795506D01*
X6549723Y-11766935D01*
X6549723Y-11752649D01*
X6564008Y-11724078D01*
X6578294Y-11709792D01*
X6606865Y-11695506D01*
X6664008Y-11695506D01*
X6692580Y-11709792D01*
X6706865Y-11724078D01*
X6721151Y-11752649D01*
X6721151Y-11766935D01*
X6706865Y-11795506D01*
X6692580Y-11809792D01*
X6664008Y-11824078D01*
X6606865Y-11824078D01*
X6578294Y-11838363D01*
X6564008Y-11852649D01*
X6549723Y-11881221D01*
X6549723Y-11938363D01*
X6564008Y-11966935D01*
X6578294Y-11981221D01*
X6606865Y-11995506D01*
X6664008Y-11995506D01*
X6692580Y-11981221D01*
X6706865Y-11966935D01*
X6721151Y-11938363D01*
X6721151Y-11881221D01*
X6706865Y-11852649D01*
X6692580Y-11838363D01*
X6664008Y-11824078D01*
X7078294Y-11995506D02*
X7078294Y-11695506D01*
X7206865Y-11995506D02*
X7206865Y-11838363D01*
X7192580Y-11809792D01*
X7164008Y-11795506D01*
X7121151Y-11795506D01*
X7092580Y-11809792D01*
X7078294Y-11824078D01*
X7392580Y-11995506D02*
X7364008Y-11981221D01*
X7349723Y-11966935D01*
X7335437Y-11938363D01*
X7335437Y-11852649D01*
X7349723Y-11824078D01*
X7364008Y-11809792D01*
X7392580Y-11795506D01*
X7435437Y-11795506D01*
X7464008Y-11809792D01*
X7478294Y-11824078D01*
X7492580Y-11852649D01*
X7492580Y-11938363D01*
X7478294Y-11966935D01*
X7464008Y-11981221D01*
X7435437Y-11995506D01*
X7392580Y-11995506D01*
X7664008Y-11995506D02*
X7635437Y-11981221D01*
X7621151Y-11952649D01*
X7621151Y-11695506D01*
X7892580Y-11981221D02*
X7864008Y-11995506D01*
X7806866Y-11995506D01*
X7778294Y-11981221D01*
X7764008Y-11952649D01*
X7764008Y-11838363D01*
X7778294Y-11809792D01*
X7806866Y-11795506D01*
X7864008Y-11795506D01*
X7892580Y-11809792D01*
X7906866Y-11838363D01*
X7906866Y-11866935D01*
X7764008Y-11895506D01*
X8021151Y-11981221D02*
X8049723Y-11995506D01*
X8106866Y-11995506D01*
X8135437Y-11981221D01*
X8149723Y-11952649D01*
X8149723Y-11938363D01*
X8135437Y-11909792D01*
X8106866Y-11895506D01*
X8064008Y-11895506D01*
X8035437Y-11881221D01*
X8021151Y-11852649D01*
X8021151Y-11838363D01*
X8035437Y-11809792D01*
X8064008Y-11795506D01*
X8106866Y-11795506D01*
X8135437Y-11809792D01*
X8249723Y-12109792D02*
X8264008Y-12095506D01*
X8292580Y-12052649D01*
X8306866Y-12024078D01*
X8321151Y-11981221D01*
X8335437Y-11909792D01*
X8335437Y-11852649D01*
X8321151Y-11781221D01*
X8306866Y-11738363D01*
X8292580Y-11709792D01*
X8264008Y-11666935D01*
X8249723Y-11652649D01*
M02*
