<?xml version="1.0" standalone="no"?>
 <!DOCTYPE svg PUBLIC "-//W3C//DTD SVG 1.1//EN" 
 "http://www.w3.org/Graphics/SVG/1.1/DTD/svg11.dtd"> 
<svg xmlns="http://www.w3.org/2000/svg" version="1.1" 
    width="29.7002cm" height="21.0007cm" viewBox="0 0 116930 82680 ">
<title>SVG Picture created as Vive_sensors-F.Cu.svg date 2017/01/20 18:42:52 </title>
  <desc>Picture generated by PCBNEW </desc>
<g style="fill:#000000; fill-opacity:1;stroke:#000000; stroke-opacity:1;
stroke-linecap:round; stroke-linejoin:round; "
 transform="translate(0 0) scale(1 1)">
</g>
<g style="fill:#000000; fill-opacity:0.0; 
stroke:#000000; stroke-width:-0.000393701; stroke-opacity:1; 
stroke-linecap:round; stroke-linejoin:round;">
</g>
<g style="fill:#000000; fill-opacity:1.0; 
stroke:#000000; stroke-width:39.3701; stroke-opacity:1; 
stroke-linecap:round; stroke-linejoin:round;">
<rect x="41940.9" y="31511.8" width="29797.2" height="22269.7" rx="0" />
</g>
<g style="fill:#FFFFFF; fill-opacity:1.0; 
stroke:#FFFFFF; stroke-width:39.3701; stroke-opacity:1; 
stroke-linecap:round; stroke-linejoin:round;">
</g>
<g style="fill:#FFFFFF; fill-opacity:1.0; 
stroke:#FFFFFF; stroke-width:0; stroke-opacity:1; 
stroke-linecap:round; stroke-linejoin:round;">
<circle cx="56500" cy="46000" r="314.961" /> 
</g>
<g style="fill:#FFFFFF; fill-opacity:1.0; 
stroke:#FFFFFF; stroke-width:39.3701; stroke-opacity:1; 
stroke-linecap:round; stroke-linejoin:round;">
</g>
<g style="fill:#FFFFFF; fill-opacity:1.0; 
stroke:#FFFFFF; stroke-width:0; stroke-opacity:1; 
stroke-linecap:round; stroke-linejoin:round;">
<circle cx="57484.3" cy="46000" r="314.961" /> 
</g>
<g style="fill:#FFFFFF; fill-opacity:1.0; 
stroke:#FFFFFF; stroke-width:39.3701; stroke-opacity:1; 
stroke-linecap:round; stroke-linejoin:round;">
</g>
<g style="fill:#FFFFFF; fill-opacity:1.0; 
stroke:#FFFFFF; stroke-width:0; stroke-opacity:1; 
stroke-linecap:round; stroke-linejoin:round;">
<circle cx="61500" cy="43500" r="314.961" /> 
</g>
<g style="fill:#FFFFFF; fill-opacity:1.0; 
stroke:#FFFFFF; stroke-width:39.3701; stroke-opacity:1; 
stroke-linecap:round; stroke-linejoin:round;">
</g>
<g style="fill:#FFFFFF; fill-opacity:1.0; 
stroke:#FFFFFF; stroke-width:0; stroke-opacity:1; 
stroke-linecap:round; stroke-linejoin:round;">
<circle cx="61500" cy="42515.7" r="314.961" /> 
</g>
<g style="fill:#FFFFFF; fill-opacity:1.0; 
stroke:#FFFFFF; stroke-width:39.3701; stroke-opacity:1; 
stroke-linecap:round; stroke-linejoin:round;">
</g>
<g style="fill:#FFFFFF; fill-opacity:1.0; 
stroke:#FFFFFF; stroke-width:0; stroke-opacity:1; 
stroke-linecap:round; stroke-linejoin:round;">
<polyline style="fill-rule:evenodd;"
points="53606,39106
54393,39106
54393,39893
53606,39893
53606,39106
" /> 
</g>
<g style="fill:#FFFFFF; fill-opacity:1.0; 
stroke:#FFFFFF; stroke-width:787.402; stroke-opacity:1; 
stroke-linecap:round; stroke-linejoin:round;">
</g>
<g style="fill:#FFFFFF; fill-opacity:0.0; 
stroke:#FFFFFF; stroke-width:787.402; stroke-opacity:1; 
stroke-linecap:round; stroke-linejoin:round;">
<path d="M54000 41500
L54000 41500
" />
</g>
<g style="fill:#FFFFFF; fill-opacity:1.0; 
stroke:#FFFFFF; stroke-width:0; stroke-opacity:1; 
stroke-linecap:round; stroke-linejoin:round;">
<circle cx="59500" cy="37500" r="275.591" /> 
</g>
<g style="fill:#FFFFFF; fill-opacity:1.0; 
stroke:#FFFFFF; stroke-width:39.3701; stroke-opacity:1; 
stroke-linecap:round; stroke-linejoin:round;">
</g>
<g style="fill:#FFFFFF; fill-opacity:1.0; 
stroke:#FFFFFF; stroke-width:551.181; stroke-opacity:1; 
stroke-linecap:round; stroke-linejoin:round;">
</g>
<g style="fill:#FFFFFF; fill-opacity:0.0; 
stroke:#FFFFFF; stroke-width:551.181; stroke-opacity:1; 
stroke-linecap:round; stroke-linejoin:round;">
<path d="M56500 37500
L56500 37500
" />
</g>
<g style="fill:#FFFFFF; fill-opacity:1.0; 
stroke:#FFFFFF; stroke-width:0; stroke-opacity:1; 
stroke-linecap:round; stroke-linejoin:round;">
<circle cx="56500" cy="39500" r="275.591" /> 
</g>
<g style="fill:#FFFFFF; fill-opacity:1.0; 
stroke:#FFFFFF; stroke-width:39.3701; stroke-opacity:1; 
stroke-linecap:round; stroke-linejoin:round;">
</g>
<g style="fill:#FFFFFF; fill-opacity:1.0; 
stroke:#FFFFFF; stroke-width:551.181; stroke-opacity:1; 
stroke-linecap:round; stroke-linejoin:round;">
</g>
<g style="fill:#FFFFFF; fill-opacity:0.0; 
stroke:#FFFFFF; stroke-width:551.181; stroke-opacity:1; 
stroke-linecap:round; stroke-linejoin:round;">
<path d="M59500 39500
L59500 39500
" />
</g>
<g style="fill:#FFFFFF; fill-opacity:1.0; 
stroke:#FFFFFF; stroke-width:0; stroke-opacity:1; 
stroke-linecap:round; stroke-linejoin:round;">
<circle cx="59500" cy="41500" r="275.591" /> 
</g>
<g style="fill:#FFFFFF; fill-opacity:1.0; 
stroke:#FFFFFF; stroke-width:39.3701; stroke-opacity:1; 
stroke-linecap:round; stroke-linejoin:round;">
</g>
<g style="fill:#FFFFFF; fill-opacity:1.0; 
stroke:#FFFFFF; stroke-width:551.181; stroke-opacity:1; 
stroke-linecap:round; stroke-linejoin:round;">
</g>
<g style="fill:#FFFFFF; fill-opacity:0.0; 
stroke:#FFFFFF; stroke-width:551.181; stroke-opacity:1; 
stroke-linecap:round; stroke-linejoin:round;">
<path d="M59500 44500
L59500 44500
" />
</g>
<g style="fill:#FFFFFF; fill-opacity:1.0; 
stroke:#FFFFFF; stroke-width:0; stroke-opacity:1; 
stroke-linecap:round; stroke-linejoin:round;">
<circle cx="56500" cy="44500" r="275.591" /> 
</g>
<g style="fill:#FFFFFF; fill-opacity:1.0; 
stroke:#FFFFFF; stroke-width:39.3701; stroke-opacity:1; 
stroke-linecap:round; stroke-linejoin:round;">
</g>
<g style="fill:#FFFFFF; fill-opacity:1.0; 
stroke:#FFFFFF; stroke-width:551.181; stroke-opacity:1; 
stroke-linecap:round; stroke-linejoin:round;">
</g>
<g style="fill:#FFFFFF; fill-opacity:0.0; 
stroke:#FFFFFF; stroke-width:551.181; stroke-opacity:1; 
stroke-linecap:round; stroke-linejoin:round;">
<path d="M56500 41500
L56500 41500
" />
</g>
<g style="fill:#FFFFFF; fill-opacity:1.0; 
stroke:#FFFFFF; stroke-width:0; stroke-opacity:1; 
stroke-linecap:round; stroke-linejoin:round;">
<circle cx="61500" cy="38500" r="275.591" /> 
</g>
<g style="fill:#FFFFFF; fill-opacity:1.0; 
stroke:#FFFFFF; stroke-width:39.3701; stroke-opacity:1; 
stroke-linecap:round; stroke-linejoin:round;">
</g>
<g style="fill:#FFFFFF; fill-opacity:1.0; 
stroke:#FFFFFF; stroke-width:551.181; stroke-opacity:1; 
stroke-linecap:round; stroke-linejoin:round;">
</g>
<g style="fill:#FFFFFF; fill-opacity:0.0; 
stroke:#FFFFFF; stroke-width:551.181; stroke-opacity:1; 
stroke-linecap:round; stroke-linejoin:round;">
<path d="M61500 41500
L61500 41500
" />
</g>
<g style="fill:#FFFFFF; fill-opacity:1.0; 
stroke:#FFFFFF; stroke-width:0; stroke-opacity:1; 
stroke-linecap:round; stroke-linejoin:round;">
<circle cx="63000" cy="40250" r="275.591" /> 
</g>
<g style="fill:#FFFFFF; fill-opacity:1.0; 
stroke:#FFFFFF; stroke-width:39.3701; stroke-opacity:1; 
stroke-linecap:round; stroke-linejoin:round;">
</g>
<g style="fill:#FFFFFF; fill-opacity:1.0; 
stroke:#FFFFFF; stroke-width:551.181; stroke-opacity:1; 
stroke-linecap:round; stroke-linejoin:round;">
</g>
<g style="fill:#FFFFFF; fill-opacity:0.0; 
stroke:#FFFFFF; stroke-width:551.181; stroke-opacity:1; 
stroke-linecap:round; stroke-linejoin:round;">
<path d="M63000 43250
L63000 43250
" />
</g>
<g style="fill:#FFFFFF; fill-opacity:1.0; 
stroke:#FFFFFF; stroke-width:0; stroke-opacity:1; 
stroke-linecap:round; stroke-linejoin:round;">
<circle cx="59000" cy="46000" r="275.591" /> 
</g>
<g style="fill:#FFFFFF; fill-opacity:1.0; 
stroke:#FFFFFF; stroke-width:39.3701; stroke-opacity:1; 
stroke-linecap:round; stroke-linejoin:round;">
</g>
<g style="fill:#FFFFFF; fill-opacity:1.0; 
stroke:#FFFFFF; stroke-width:551.181; stroke-opacity:1; 
stroke-linecap:round; stroke-linejoin:round;">
</g>
<g style="fill:#FFFFFF; fill-opacity:0.0; 
stroke:#FFFFFF; stroke-width:551.181; stroke-opacity:1; 
stroke-linecap:round; stroke-linejoin:round;">
<path d="M62000 46000
L62000 46000
" />
</g>
<g style="fill:#FFFFFF; fill-opacity:1.0; 
stroke:#FFFFFF; stroke-width:0; stroke-opacity:1; 
stroke-linecap:round; stroke-linejoin:round;">
<circle cx="62000" cy="47500" r="275.591" /> 
</g>
<g style="fill:#FFFFFF; fill-opacity:1.0; 
stroke:#FFFFFF; stroke-width:39.3701; stroke-opacity:1; 
stroke-linecap:round; stroke-linejoin:round;">
</g>
<g style="fill:#FFFFFF; fill-opacity:1.0; 
stroke:#FFFFFF; stroke-width:551.181; stroke-opacity:1; 
stroke-linecap:round; stroke-linejoin:round;">
</g>
<g style="fill:#FFFFFF; fill-opacity:0.0; 
stroke:#FFFFFF; stroke-width:551.181; stroke-opacity:1; 
stroke-linecap:round; stroke-linejoin:round;">
<path d="M65000 47500
L65000 47500
" />
</g>
<g style="fill:#FFFFFF; fill-opacity:1.0; 
stroke:#FFFFFF; stroke-width:0; stroke-opacity:1; 
stroke-linecap:round; stroke-linejoin:round;">
<circle cx="65000" cy="45500" r="275.591" /> 
</g>
<g style="fill:#FFFFFF; fill-opacity:1.0; 
stroke:#FFFFFF; stroke-width:39.3701; stroke-opacity:1; 
stroke-linecap:round; stroke-linejoin:round;">
</g>
<g style="fill:#FFFFFF; fill-opacity:1.0; 
stroke:#FFFFFF; stroke-width:551.181; stroke-opacity:1; 
stroke-linecap:round; stroke-linejoin:round;">
</g>
<g style="fill:#FFFFFF; fill-opacity:0.0; 
stroke:#FFFFFF; stroke-width:551.181; stroke-opacity:1; 
stroke-linecap:round; stroke-linejoin:round;">
<path d="M68000 45500
L68000 45500
" />
</g>
<g style="fill:#FFFFFF; fill-opacity:1.0; 
stroke:#FFFFFF; stroke-width:0; stroke-opacity:1; 
stroke-linecap:round; stroke-linejoin:round;">
<circle cx="66000" cy="39500" r="393.5" /> 
</g>
<g style="fill:#FFFFFF; fill-opacity:1.0; 
stroke:#FFFFFF; stroke-width:39.3701; stroke-opacity:1; 
stroke-linecap:round; stroke-linejoin:round;">
</g>
<g style="fill:#FFFFFF; fill-opacity:1.0; 
stroke:#FFFFFF; stroke-width:0; stroke-opacity:1; 
stroke-linecap:round; stroke-linejoin:round;">
<circle cx="67000" cy="39500" r="393.5" /> 
</g>
<g style="fill:#FFFFFF; fill-opacity:1.0; 
stroke:#FFFFFF; stroke-width:39.3701; stroke-opacity:1; 
stroke-linecap:round; stroke-linejoin:round;">
</g>
<g style="fill:#FFFFFF; fill-opacity:1.0; 
stroke:#FFFFFF; stroke-width:0; stroke-opacity:1; 
stroke-linecap:round; stroke-linejoin:round;">
<circle cx="65000" cy="39500" r="393.5" /> 
</g>
<g style="fill:#FFFFFF; fill-opacity:1.0; 
stroke:#FFFFFF; stroke-width:39.3701; stroke-opacity:1; 
stroke-linecap:round; stroke-linejoin:round;">
</g>
<g style="fill:#FFFFFF; fill-opacity:1.0; 
stroke:#FFFFFF; stroke-width:0; stroke-opacity:1; 
stroke-linecap:round; stroke-linejoin:round;">
<polyline style="fill-rule:evenodd;"
points="64553,41320
64553,41143
65124,41143
65124,41320
64553,41320
" /> 
<polyline style="fill-rule:evenodd;"
points="64553,41576
64553,41399
65124,41399
65124,41576
64553,41576
" /> 
<polyline style="fill-rule:evenodd;"
points="64553,41832
64553,41655
65124,41655
65124,41832
64553,41832
" /> 
<polyline style="fill-rule:evenodd;"
points="64553,42088
64553,41911
65124,41911
65124,42088
64553,42088
" /> 
<polyline style="fill-rule:evenodd;"
points="64553,42344
64553,42167
65124,42167
65124,42344
64553,42344
" /> 
<polyline style="fill-rule:evenodd;"
points="64553,42600
64553,42423
65124,42423
65124,42600
64553,42600
" /> 
<polyline style="fill-rule:evenodd;"
points="64553,42856
64553,42679
65124,42679
65124,42856
64553,42856
" /> 
<polyline style="fill-rule:evenodd;"
points="66875,42856
66875,42679
67446,42679
67446,42856
66875,42856
" /> 
<polyline style="fill-rule:evenodd;"
points="66875,42600
66875,42423
67446,42423
67446,42600
66875,42600
" /> 
<polyline style="fill-rule:evenodd;"
points="66875,42344
66875,42167
67446,42167
67446,42344
66875,42344
" /> 
<polyline style="fill-rule:evenodd;"
points="66875,42088
66875,41911
67446,41911
67446,42088
66875,42088
" /> 
<polyline style="fill-rule:evenodd;"
points="66875,41832
66875,41655
67446,41655
67446,41832
66875,41832
" /> 
<polyline style="fill-rule:evenodd;"
points="66875,41576
66875,41399
67446,41399
67446,41576
66875,41576
" /> 
<polyline style="fill-rule:evenodd;"
points="66875,41320
66875,41143
67446,41143
67446,41320
66875,41320
" /> 
<circle cx="63500" cy="35000" r="393.5" /> 
</g>
<g style="fill:#FFFFFF; fill-opacity:1.0; 
stroke:#FFFFFF; stroke-width:39.3701; stroke-opacity:1; 
stroke-linecap:round; stroke-linejoin:round;">
</g>
<g style="fill:#FFFFFF; fill-opacity:1.0; 
stroke:#FFFFFF; stroke-width:0; stroke-opacity:1; 
stroke-linecap:round; stroke-linejoin:round;">
<circle cx="59500" cy="35000" r="393.5" /> 
</g>
<g style="fill:#FFFFFF; fill-opacity:1.0; 
stroke:#FFFFFF; stroke-width:39.3701; stroke-opacity:1; 
stroke-linecap:round; stroke-linejoin:round;">
</g>
<g style="fill:#FFFFFF; fill-opacity:1.0; 
stroke:#FFFFFF; stroke-width:0; stroke-opacity:1; 
stroke-linecap:round; stroke-linejoin:round;">
<circle cx="61500" cy="35000" r="393.5" /> 
</g>
<g style="fill:#FFFFFF; fill-opacity:1.0; 
stroke:#FFFFFF; stroke-width:39.3701; stroke-opacity:1; 
stroke-linecap:round; stroke-linejoin:round;">
</g>
<g style="fill:#FFFFFF; fill-opacity:1.0; 
stroke:#FFFFFF; stroke-width:98.4252; stroke-opacity:1; 
stroke-linecap:round; stroke-linejoin:round;">
</g>
<g style="fill:#FFFFFF; fill-opacity:0.0; 
stroke:#FFFFFF; stroke-width:98.4252; stroke-opacity:1; 
stroke-linecap:round; stroke-linejoin:round;">
<path d="M56500 44500
L58000 44500
" />
<path d="M64255 41744
L64838 41744
" />
<path d="M63750 42250
L64255 41744
" />
<path d="M63750 43750
L63750 42250
" />
<path d="M63500 44000
L63750 43750
" />
<path d="M62500 44000
L63500 44000
" />
<path d="M62250 43750
L62500 44000
" />
<path d="M62250 43250
L62250 43750
" />
<path d="M62000 43000
L62250 43250
" />
<path d="M60750 43000
L62000 43000
" />
<path d="M60500 43250
L60750 43000
" />
<path d="M60500 45000
L60500 43250
" />
<path d="M60250 45250
L60500 45000
" />
<path d="M60500 45250
L60250 45250
" />
<path d="M58750 45250
L60500 45250
" />
<path d="M58000 44500
L58750 45250
" />
<path d="M56500 46000
L56500 44500
" />
<path d="M67161 42000
L66500 42000
" />
<path d="M67161 42000
L67750 42000
" />
<path d="M61500 43500
L62000 44000
" />
<path d="M62000 44000
L62000 46000
" />
<path d="M62000 46000
L62000 47500
" />
<path d="M63356 40250
L63500 40250
" />
<path d="M63000 40250
L63356 40250
" />
<path d="M64482 41232
L64838 41232
" />
<path d="M63500 40250
L64482 41232
" />
<path d="M61500 42515
L61015 42515
" />
<path d="M61250 40250
L63000 40250
" />
<path d="M60750 40750
L61250 40250
" />
<path d="M60750 42250
L60750 40750
" />
<path d="M61015 42515
L60750 42250
" />
<path d="M61500 42515
L61500 42500
" />
<path d="M54000 39500
L56500 39500
" />
<path d="M56500 39500
L56500 37500
" />
<path d="M56500 41500
L57000 41500
" />
<path d="M59000 44500
L59500 44500
" />
<path d="M58000 43500
L59000 44500
" />
<path d="M58000 42500
L58000 43500
" />
<path d="M57000 41500
L58000 42500
" />
<path d="M54000 41500
L56500 41500
" />
<path d="M59500 37500
L64000 37500
" />
<path d="M65000 38500
L65000 39500
" />
<path d="M64000 37500
L65000 38500
" />
<path d="M59500 35000
L59500 37500
" />
<path d="M65000 39500
L65000 40000
" />
<path d="M65500 42000
L64838 42000
" />
<path d="M65500 40500
L65500 42000
" />
<path d="M65000 40000
L65500 40500
" />
<path d="M63000 43250
L63000 41500
" />
<path d="M64838 41488
L65000 41500
" />
<path d="M61500 41500
L63000 41500
" />
<path d="M63000 41500
L65000 41500
" />
<path d="M65000 41500
L64838 41488
" />
<path d="M65000 45500
L64500 45500
" />
<path d="M64244 42255
L64838 42255
" />
<path d="M64000 42500
L64244 42255
" />
<path d="M64000 45000
L64000 42500
" />
<path d="M64500 45500
L64000 45000
" />
<path d="M65000 47500
L65000 45500
" />
<path d="M64838 42767
L64432 42767
" />
<path d="M67275 44775
L68000 45500
" />
<path d="M65175 44775
L67275 44775
" />
<path d="M64375 43975
L65175 44775
" />
<path d="M64375 42825
L64375 43975
" />
<path d="M64432 42767
L64375 42825
" />
<path d="M64838 42767
L65517 42767
" />
<path d="M65000 36500
L63500 35000
" />
<path d="M66250 36500
L65000 36500
" />
<path d="M68250 38500
L66250 36500
" />
<path d="M68250 44000
L68250 38500
" />
<path d="M68250 44000
L68250 44000
" />
<path d="M65750 44000
L68250 44000
" />
<path d="M65750 43000
L65750 44000
" />
<path d="M65517 42767
L65750 43000
" />
<path d="M64838 42511
L65488 42511
" />
<path d="M66000 40250
L66000 39500
" />
<path d="M65750 40500
L66000 40250
" />
<path d="M65750 42250
L65750 40500
" />
<path d="M65488 42511
L65750 42250
" />
<path d="M64838 42511
L65000 42500
" />
</g>
<g style="fill:#FFFFFF; fill-opacity:1.0; 
stroke:#FFFFFF; stroke-width:100; stroke-opacity:1; 
stroke-linecap:round; stroke-linejoin:round;">
<polyline style="fill-rule:evenodd;"
points="69480,48730
52769,48730
52769,41487
53356,41487
53356,41512
53405,41758
53544,41967
53753,42107
54000,42156
54246,42107
54455,41967
54567,41799
56073,41799
56128,41881
56298,41995
56500,42035
56701,41995
56871,41881
56906,41829
57700,42623
57700,43500
57723,43614
57788,43711
58788,44711
58885,44776
58904,44780
59000,44799
59073,44799
59128,44881
59231,44950
58873,44950
58211,44288
58114,44223
58000,44200
56943,44200
56798,44054
56605,43974
56395,43974
56202,44054
56054,44201
55974,44394
55974,44604
56054,44797
56200,44944
56200,45512
56180,45520
56021,45679
55935,45887
55934,46111
56020,46319
56179,46478
56387,46564
56611,46565
56819,46479
56902,46396
57158,46396
57187,46493
57398,46569
57623,46558
57781,46493
57810,46396
57781,46368
58702,46368
58726,46461
58924,46530
59132,46519
59273,46461
59297,46368
59000,46070
58702,46368
57781,46368
57484,46070
57158,46396
56902,46396
56978,46320
56989,46294
56990,46296
57087,46326
57413,46000
57554,46000
57881,46326
57977,46296
58053,46085
58046,45924
58469,45924
58480,46132
58538,46273
58631,46297
58929,46000
59070,46000
59368,46297
59461,46273
59530,46075
59519,45867
59461,45726
59368,45702
59070,46000
58929,46000
58631,45702
58538,45726
58469,45924
58046,45924
58043,45860
57977,45703
57881,45673
57554,46000
57413,46000
57087,45673
56990,45703
56989,45705
56979,45680
56902,45603
57158,45603
57484,45929
57810,45603
57781,45506
57569,45430
57345,45441
57187,45506
57158,45603
56902,45603
56820,45521
56799,45512
56799,44943
56944,44799
57876,44799
58538,45461
58635,45526
58725,45544
58702,45631
59000,45929
59297,45631
59275,45549
60500,45549
60614,45526
60711,45461
60776,45364
60799,45250
60776,45135
60769,45125
60776,45114
60799,45000
60799,43373
60873,43299
60971,43299
60935,43387
60934,43611
61020,43819
61179,43978
61387,44064
61611,44065
61633,44056
61700,44123
61700,45573
61618,45628
61504,45798
61464,46000
61504,46201
61618,46371
61700,46426
61700,47056
61554,47201
61474,47394
61474,47604
61554,47797
61701,47945
61894,48025
62104,48025
62297,47945
62445,47798
62525,47605
62525,47395
62445,47202
62299,47055
62299,46426
62381,46371
62495,46201
62535,46000
62495,45798
62381,45628
62299,45573
62299,44218
62385,44276
62500,44299
63500,44299
63614,44276
63700,44218
63700,45000
63723,45114
63788,45211
64288,45711
64385,45776
64500,45799
64556,45799
64700,45944
64700,47073
64618,47128
64504,47298
64464,47500
64504,47701
64618,47871
64788,47985
64989,48025
65010,48025
65211,47985
65381,47871
65495,47701
65535,47500
65495,47298
65381,47128
65299,47073
65299,45943
65445,45798
65525,45605
65525,45395
65445,45202
65317,45074
67151,45074
67482,45405
67464,45500
67504,45701
67618,45871
67788,45985
67989,46025
68010,46025
68211,45985
68381,45871
68495,45701
68535,45500
68495,45298
68381,45128
68211,45014
68010,44974
67989,44974
67912,44989
67486,44563
67389,44498
67275,44475
65298,44475
64674,43851
64674,43111
65124,43111
65216,43093
65258,43066
65393,43066
65450,43123
65450,44000
65473,44114
65538,44211
65635,44276
65750,44299
68250,44299
68364,44276
68461,44211
68526,44114
68549,44000
68549,38500
68526,38385
68461,38288
66461,36288
66364,36223
66250,36200
65123,36200
64116,35193
64143,35128
64143,34872
64045,34635
63864,34454
63628,34356
63372,34356
63135,34454
62954,34635
62856,34871
62856,35127
62954,35364
63135,35545
63371,35643
63627,35643
63693,35616
64788,36711
64885,36776
65000,36799
66126,36799
67950,38623
67950,43700
66049,43700
66049,43000
66026,42885
65961,42788
65798,42625
65961,42461
66026,42364
66049,42250
66049,41143
66621,41143
66621,41320
66628,41361
66621,41399
66621,41576
66628,41617
66621,41655
66621,41832
66626,41860
66625,41861
66625,41893
66633,41901
66638,41925
66687,42000
66641,42068
66635,42097
66625,42106
66625,42138
66626,42139
66621,42167
66621,42344
66628,42385
66621,42423
66621,42600
66628,42641
66621,42679
66621,42856
66638,42948
66693,43034
66776,43091
66875,43111
67446,43111
67539,43093
67624,43039
67681,42955
67701,42856
67701,42679
67694,42638
67701,42600
67701,42423
67694,42382
67701,42344
67701,42167
67696,42139
67696,42138
67696,42106
67688,42098
67684,42074
67635,41999
67681,41931
67687,41902
67696,41893
67696,41861
67696,41860
67701,41832
67701,41655
67694,41614
67701,41576
67701,41399
67694,41358
67701,41320
67701,41143
67684,41051
67629,40965
67546,40908
67446,40888
66875,40888
66783,40906
66698,40960
66641,41044
66621,41143
66049,41143
66049,40623
66211,40461
66276,40364
66299,40250
66299,40072
66364,40045
66456,39953
66617,39953
66655,40058
66895,40147
67151,40138
67344,40058
67382,39953
67000,39570
66617,39953
66456,39953
66532,39877
66546,39882
66929,39500
67070,39500
67453,39882
67558,39844
67647,39604
67638,39348
67558,39155
67453,39117
67070,39500
66929,39500
66546,39117
66532,39122
66456,39046
66617,39046
67000,39429
67382,39046
67344,38941
67104,38852
66848,38861
66655,38941
66617,39046
66456,39046
66364,38954
66128,38856
65872,38856
65635,38954
65499,39089
65364,38954
65299,38927
65299,38500
65276,38385
65276,38385
65211,38288
64211,37288
64114,37223
64000,37200
59943,37200
59799,37055
59799,35572
59864,35545
59956,35453
61117,35453
61155,35558
61395,35647
61651,35638
61844,35558
61882,35453
61500,35070
61117,35453
59956,35453
60045,35364
60143,35128
60143,34895
60852,34895
60861,35151
60941,35344
61046,35382
61429,35000
61570,35000
61953,35382
62058,35344
62147,35104
62138,34848
62058,34655
61953,34617
61570,35000
61429,35000
61046,34617
60941,34655
60852,34895
60143,34895
60143,34872
60045,34635
59956,34546
61117,34546
61500,34929
61882,34546
61844,34441
61604,34352
61348,34361
61155,34441
61117,34546
59956,34546
59864,34454
59628,34356
59372,34356
59135,34454
58954,34635
58856,34871
58856,35127
58954,35364
59135,35545
59200,35572
59200,37056
59054,37201
58974,37394
58974,37604
59054,37797
59201,37945
59394,38025
59604,38025
59797,37945
59944,37799
63876,37799
64700,38623
64700,38927
64635,38954
64454,39135
64356,39371
64356,39627
64454,39864
64635,40045
64716,40079
64723,40114
64788,40211
65200,40623
65200,40904
65124,40888
64561,40888
63711,40038
63614,39973
63500,39950
63443,39950
63298,39804
63105,39724
62895,39724
62702,39804
62555,39950
61250,39950
61135,39973
61038,40038
60538,40538
60473,40635
60450,40750
60450,42250
60473,42364
60538,42461
60777,42700
60750,42700
60635,42723
60538,42788
60288,43038
60223,43135
60200,43250
60200,44876
60126,44950
59768,44950
59871,44881
59985,44711
60025,44510
60025,44489
59985,44288
59871,44118
59701,44004
59500,43964
59298,44004
59128,44118
59093,44170
58299,43376
58299,42500
58279,42401
58276,42385
58211,42288
57791,41868
59202,41868
59226,41961
59424,42030
59632,42019
59773,41961
59797,41868
59500,41570
59202,41868
57791,41868
57347,41424
58969,41424
58980,41632
59038,41773
59131,41797
59429,41500
59570,41500
59868,41797
59961,41773
60030,41575
60019,41367
59961,41226
59868,41202
59570,41500
59429,41500
59131,41202
59038,41226
58969,41424
57347,41424
57211,41288
57114,41223
57000,41200
56926,41200
56880,41131
59202,41131
59500,41429
59797,41131
59773,41038
59575,40969
59367,40980
59226,41038
59202,41131
56880,41131
56871,41118
56701,41004
56500,40964
56298,41004
56128,41118
56073,41200
54567,41200
54455,41032
54246,40892
54000,40843
53753,40892
53544,41032
53405,41241
53356,41487
52769,41487
52769,39106
53351,39106
53351,39893
53368,39986
53423,40071
53507,40128
53606,40148
54393,40148
54486,40131
54571,40076
54628,39992
54648,39893
54648,39799
56056,39799
56201,39945
56394,40025
56604,40025
56797,39945
56945,39798
57014,39631
58991,39631
59047,39767
59183,39919
59368,40008
59450,39960
59450,39550
59550,39550
59550,39960
59631,40008
59816,39919
59952,39767
60008,39631
59960,39550
59550,39550
59450,39550
59039,39550
58991,39631
57014,39631
57025,39605
57025,39395
57014,39368
58991,39368
59039,39450
59450,39450
59450,39039
59550,39039
59550,39450
59960,39450
60008,39368
59952,39232
59816,39080
59631,38991
59550,39039
59450,39039
59368,38991
59183,39080
59047,39232
58991,39368
57014,39368
56945,39202
56799,39055
56799,38868
61202,38868
61226,38961
61424,39030
61632,39019
61773,38961
61797,38868
61500,38570
61202,38868
56799,38868
56799,38424
60969,38424
60980,38632
61038,38773
61131,38797
61429,38500
61570,38500
61868,38797
61961,38773
62030,38575
62019,38367
61961,38226
61868,38202
61570,38500
61429,38500
61131,38202
61038,38226
60969,38424
56799,38424
56799,38131
61202,38131
61500,38429
61797,38131
61773,38038
61575,37969
61367,37980
61226,38038
61202,38131
56799,38131
56799,37926
56881,37871
56995,37701
57035,37500
56995,37298
56881,37128
56711,37014
56510,36974
56489,36974
56288,37014
56118,37128
56004,37298
55964,37500
56004,37701
56118,37871
56200,37926
56200,39056
56055,39200
54648,39200
54648,39106
54631,39013
54576,38928
54492,38871
54393,38851
53606,38851
53513,38868
53428,38923
53371,39007
53351,39106
52769,39106
52769,33769
69480,33769
69480,48730
" /> 
</g> 
</svg>
